<?xml version="1.0" encoding="UTF-8" standalone="no"?>
<!DOCTYPE svg PUBLIC "-//W3C//DTD SVG 1.1//EN"
 "http://www.w3.org/Graphics/SVG/1.1/DTD/svg11.dtd">
<!-- Generated by graphviz version 2.46.0 (20210118.1747)
 -->
<!-- Title: EBCpp::EBTcpServerSocket Pages: 1 -->
<svg width="148pt" height="656pt"
 viewBox="0.00 0.00 148.00 656.00" xmlns="http://www.w3.org/2000/svg" xmlns:xlink="http://www.w3.org/1999/xlink">
<g id="graph0" class="graph" transform="scale(1 1) rotate(0) translate(4 652)">
<title>EBCpp::EBTcpServerSocket</title>
<!-- Node1 -->
<g id="node1" class="node">
<title>Node1</title>
<g id="a_node1"><a xlink:title="Class that handles a tcp socket for the EBTcpServer.">
<polygon fill="#bfbfbf" stroke="black" points="0,-0.5 0,-68.5 140,-68.5 140,-0.5 0,-0.5"/>
<text text-anchor="middle" x="70" y="-56.5" font-family="Helvetica,sans-Serif" font-size="10.00">EBCpp::EBTcpServerSocket</text>
<polyline fill="none" stroke="black" points="0,-49.5 140,-49.5 "/>
<text text-anchor="middle" x="70" y="-37.5" font-family="Helvetica,sans-Serif" font-size="10.00"> </text>
<polyline fill="none" stroke="black" points="0,-30.5 140,-30.5 "/>
<text text-anchor="start" x="8" y="-18.5" font-family="Helvetica,sans-Serif" font-size="10.00">+ EBTcpServerSocket()</text>
<text text-anchor="start" x="8" y="-7.5" font-family="Helvetica,sans-Serif" font-size="10.00">+ open()</text>
</a>
</g>
</g>
<!-- Node2 -->
<g id="node2" class="node">
<title>Node2</title>
<g id="a_node2"><a xlink:href="class_e_b_cpp_1_1_e_b_tcp_socket.html" target="_top" xlink:title="Socket to handle a tcp connection.">
<polygon fill="none" stroke="black" points="13.5,-105.5 13.5,-327.5 126.5,-327.5 126.5,-105.5 13.5,-105.5"/>
<text text-anchor="middle" x="70" y="-315.5" font-family="Helvetica,sans-Serif" font-size="10.00">EBCpp::EBTcpSocket</text>
<polyline fill="none" stroke="black" points="13.5,-308.5 126.5,-308.5 "/>
<text text-anchor="start" x="21.5" y="-296.5" font-family="Helvetica,sans-Serif" font-size="10.00">+ error</text>
<text text-anchor="start" x="21.5" y="-285.5" font-family="Helvetica,sans-Serif" font-size="10.00">+ connected</text>
<text text-anchor="start" x="21.5" y="-274.5" font-family="Helvetica,sans-Serif" font-size="10.00">+ disconnected</text>
<text text-anchor="start" x="21.5" y="-263.5" font-family="Helvetica,sans-Serif" font-size="10.00">+ readReady</text>
<text text-anchor="start" x="21.5" y="-252.5" font-family="Helvetica,sans-Serif" font-size="10.00"># socketId</text>
<text text-anchor="start" x="21.5" y="-241.5" font-family="Helvetica,sans-Serif" font-size="10.00"># address</text>
<polyline fill="none" stroke="black" points="13.5,-234.5 126.5,-234.5 "/>
<text text-anchor="start" x="21.5" y="-222.5" font-family="Helvetica,sans-Serif" font-size="10.00">+ EBTcpSocket()</text>
<text text-anchor="start" x="21.5" y="-211.5" font-family="Helvetica,sans-Serif" font-size="10.00">+ ~EBTcpSocket()</text>
<text text-anchor="start" x="21.5" y="-200.5" font-family="Helvetica,sans-Serif" font-size="10.00">+ open()</text>
<text text-anchor="start" x="21.5" y="-189.5" font-family="Helvetica,sans-Serif" font-size="10.00">+ isOpened()</text>
<text text-anchor="start" x="21.5" y="-178.5" font-family="Helvetica,sans-Serif" font-size="10.00">+ close()</text>
<text text-anchor="start" x="21.5" y="-167.5" font-family="Helvetica,sans-Serif" font-size="10.00">+ write()</text>
<text text-anchor="start" x="21.5" y="-156.5" font-family="Helvetica,sans-Serif" font-size="10.00">+ write()</text>
<text text-anchor="start" x="21.5" y="-145.5" font-family="Helvetica,sans-Serif" font-size="10.00">+ read()</text>
<text text-anchor="start" x="21.5" y="-134.5" font-family="Helvetica,sans-Serif" font-size="10.00">+ canReadLine()</text>
<text text-anchor="start" x="21.5" y="-123.5" font-family="Helvetica,sans-Serif" font-size="10.00">+ readLine()</text>
<text text-anchor="start" x="21.5" y="-112.5" font-family="Helvetica,sans-Serif" font-size="10.00"># startThread()</text>
</a>
</g>
</g>
<!-- Node2&#45;&gt;Node1 -->
<g id="edge1" class="edge">
<title>Node2&#45;&gt;Node1</title>
<path fill="none" stroke="midnightblue" d="M70,-95.22C70,-85.66 70,-76.61 70,-68.59"/>
<polygon fill="none" stroke="midnightblue" points="66.5,-95.35 70,-105.35 73.5,-95.35 66.5,-95.35"/>
</g>
<!-- Node3 -->
<g id="node3" class="node">
<title>Node3</title>
<g id="a_node3"><a xlink:href="class_e_b_cpp_1_1_e_b_i_o_device.html" target="_top" xlink:title="Interface description of an input/output device.">
<polygon fill="none" stroke="black" points="17.5,-364.5 17.5,-531.5 122.5,-531.5 122.5,-364.5 17.5,-364.5"/>
<text text-anchor="middle" x="70" y="-519.5" font-family="Helvetica,sans-Serif" font-size="10.00">EBCpp::EBIODevice</text>
<polyline fill="none" stroke="black" points="17.5,-512.5 122.5,-512.5 "/>
<text text-anchor="middle" x="70" y="-500.5" font-family="Helvetica,sans-Serif" font-size="10.00"> </text>
<polyline fill="none" stroke="black" points="17.5,-493.5 122.5,-493.5 "/>
<text text-anchor="start" x="25.5" y="-481.5" font-family="Helvetica,sans-Serif" font-size="10.00">+ EBIODevice()</text>
<text text-anchor="start" x="25.5" y="-470.5" font-family="Helvetica,sans-Serif" font-size="10.00">+ open()</text>
<text text-anchor="start" x="25.5" y="-459.5" font-family="Helvetica,sans-Serif" font-size="10.00">+ isOpened()</text>
<text text-anchor="start" x="25.5" y="-448.5" font-family="Helvetica,sans-Serif" font-size="10.00">+ close()</text>
<text text-anchor="start" x="25.5" y="-437.5" font-family="Helvetica,sans-Serif" font-size="10.00">+ write()</text>
<text text-anchor="start" x="25.5" y="-426.5" font-family="Helvetica,sans-Serif" font-size="10.00">+ write()</text>
<text text-anchor="start" x="25.5" y="-415.5" font-family="Helvetica,sans-Serif" font-size="10.00">+ read()</text>
<text text-anchor="start" x="25.5" y="-404.5" font-family="Helvetica,sans-Serif" font-size="10.00">+ canReadLine()</text>
<text text-anchor="start" x="25.5" y="-393.5" font-family="Helvetica,sans-Serif" font-size="10.00">+ readLine()</text>
<text text-anchor="start" x="25.5" y="-382.5" font-family="Helvetica,sans-Serif" font-size="10.00">+ setFileName()</text>
<text text-anchor="start" x="25.5" y="-371.5" font-family="Helvetica,sans-Serif" font-size="10.00">+ getFileName()</text>
</a>
</g>
</g>
<!-- Node3&#45;&gt;Node2 -->
<g id="edge2" class="edge">
<title>Node3&#45;&gt;Node2</title>
<path fill="none" stroke="midnightblue" d="M70,-354.28C70,-345.52 70,-336.58 70,-327.67"/>
<polygon fill="none" stroke="midnightblue" points="66.5,-354.47 70,-364.47 73.5,-354.47 66.5,-354.47"/>
</g>
<!-- Node4 -->
<g id="node4" class="node">
<title>Node4</title>
<g id="a_node4"><a xlink:href="class_e_b_cpp_1_1_e_b_object.html" target="_top" xlink:title="The core object. Every object from EBCpp must inherit this.">
<polygon fill="none" stroke="black" points="22.5,-568.5 22.5,-647.5 117.5,-647.5 117.5,-568.5 22.5,-568.5"/>
<text text-anchor="middle" x="70" y="-635.5" font-family="Helvetica,sans-Serif" font-size="10.00">EBCpp::EBObject</text>
<polyline fill="none" stroke="black" points="22.5,-628.5 117.5,-628.5 "/>
<text text-anchor="middle" x="70" y="-616.5" font-family="Helvetica,sans-Serif" font-size="10.00"> </text>
<polyline fill="none" stroke="black" points="22.5,-609.5 117.5,-609.5 "/>
<text text-anchor="start" x="30.5" y="-597.5" font-family="Helvetica,sans-Serif" font-size="10.00">+ EBObject()</text>
<text text-anchor="start" x="30.5" y="-586.5" font-family="Helvetica,sans-Serif" font-size="10.00">+ ~EBObject()</text>
<text text-anchor="start" x="30.5" y="-575.5" font-family="Helvetica,sans-Serif" font-size="10.00">+ getName()</text>
</a>
</g>
</g>
<!-- Node4&#45;&gt;Node3 -->
<g id="edge3" class="edge">
<title>Node4&#45;&gt;Node3</title>
<path fill="none" stroke="midnightblue" d="M70,-558.26C70,-549.74 70,-540.67 70,-531.53"/>
<polygon fill="none" stroke="midnightblue" points="66.5,-558.35 70,-568.35 73.5,-558.35 66.5,-558.35"/>
</g>
</g>
</svg>
