<?xml version="1.0" encoding="UTF-8" standalone="no"?>
<!DOCTYPE svg PUBLIC "-//W3C//DTD SVG 1.1//EN"
 "http://www.w3.org/Graphics/SVG/1.1/DTD/svg11.dtd">
<!-- Generated by graphviz version 2.46.0 (20210118.1747)
 -->
<!-- Title: EBCpp::EBHttpServer Pages: 1 -->
<svg width="294pt" height="514pt"
 viewBox="0.00 0.00 294.00 514.00" xmlns="http://www.w3.org/2000/svg" xmlns:xlink="http://www.w3.org/1999/xlink">
<g id="graph0" class="graph" transform="scale(1 1) rotate(0) translate(4 510)">
<title>EBCpp::EBHttpServer</title>
<!-- Node1 -->
<g id="node1" class="node">
<title>Node1</title>
<g id="a_node1"><a xlink:title="Implementation of a http server.">
<polygon fill="#bfbfbf" stroke="black" points="0,-0.5 0,-79.5 112,-79.5 112,-0.5 0,-0.5"/>
<text text-anchor="middle" x="56" y="-67.5" font-family="Helvetica,sans-Serif" font-size="10.00">EBCpp::EBHttpServer</text>
<polyline fill="none" stroke="black" points="0,-60.5 112,-60.5 "/>
<text text-anchor="middle" x="56" y="-48.5" font-family="Helvetica,sans-Serif" font-size="10.00"> </text>
<polyline fill="none" stroke="black" points="0,-41.5 112,-41.5 "/>
<text text-anchor="start" x="8" y="-29.5" font-family="Helvetica,sans-Serif" font-size="10.00">+ EBHttpServer()</text>
<text text-anchor="start" x="8" y="-18.5" font-family="Helvetica,sans-Serif" font-size="10.00">+ ~EBHttpServer()</text>
<text text-anchor="start" x="8" y="-7.5" font-family="Helvetica,sans-Serif" font-size="10.00">+ setTcpServer()</text>
</a>
</g>
</g>
<!-- Node2 -->
<g id="node2" class="node">
<title>Node2</title>
<g id="a_node2"><a xlink:href="class_e_b_cpp_1_1_e_b_object.html" target="_top" xlink:title="The core object. Every object from EBCpp must inherit this.">
<polygon fill="none" stroke="black" points="30.5,-426.5 30.5,-505.5 125.5,-505.5 125.5,-426.5 30.5,-426.5"/>
<text text-anchor="middle" x="78" y="-493.5" font-family="Helvetica,sans-Serif" font-size="10.00">EBCpp::EBObject</text>
<polyline fill="none" stroke="black" points="30.5,-486.5 125.5,-486.5 "/>
<text text-anchor="middle" x="78" y="-474.5" font-family="Helvetica,sans-Serif" font-size="10.00"> </text>
<polyline fill="none" stroke="black" points="30.5,-467.5 125.5,-467.5 "/>
<text text-anchor="start" x="38.5" y="-455.5" font-family="Helvetica,sans-Serif" font-size="10.00">+ EBObject()</text>
<text text-anchor="start" x="38.5" y="-444.5" font-family="Helvetica,sans-Serif" font-size="10.00">+ ~EBObject()</text>
<text text-anchor="start" x="38.5" y="-433.5" font-family="Helvetica,sans-Serif" font-size="10.00">+ getName()</text>
</a>
</g>
</g>
<!-- Node2&#45;&gt;Node1 -->
<g id="edge1" class="edge">
<title>Node2&#45;&gt;Node1</title>
<path fill="none" stroke="midnightblue" d="M72.9,-416.25C68.38,-370.73 62.02,-300.84 59,-240 56.23,-184.27 55.76,-119.65 55.79,-79.55"/>
<polygon fill="none" stroke="midnightblue" points="69.44,-416.83 73.93,-426.44 76.41,-416.14 69.44,-416.83"/>
</g>
<!-- Node3 -->
<g id="node3" class="node">
<title>Node3</title>
<g id="a_node3"><a xlink:href="class_e_b_cpp_1_1_e_b_event.html" target="_top" xlink:title=" ">
<polygon fill="none" stroke="black" points="68.5,-127.5 68.5,-239.5 199.5,-239.5 199.5,-127.5 68.5,-127.5"/>
<text text-anchor="start" x="76.5" y="-227.5" font-family="Helvetica,sans-Serif" font-size="10.00">EBCpp::EBEvent&lt; EBCpp</text>
<text text-anchor="middle" x="134" y="-216.5" font-family="Helvetica,sans-Serif" font-size="10.00">::EBHttpRequest * &gt;</text>
<polyline fill="none" stroke="black" points="68.5,-209.5 199.5,-209.5 "/>
<text text-anchor="middle" x="134" y="-197.5" font-family="Helvetica,sans-Serif" font-size="10.00"> </text>
<polyline fill="none" stroke="black" points="68.5,-190.5 199.5,-190.5 "/>
<text text-anchor="start" x="76.5" y="-178.5" font-family="Helvetica,sans-Serif" font-size="10.00">+ EBEvent()</text>
<text text-anchor="start" x="76.5" y="-167.5" font-family="Helvetica,sans-Serif" font-size="10.00">+ ~EBEvent()</text>
<text text-anchor="start" x="76.5" y="-156.5" font-family="Helvetica,sans-Serif" font-size="10.00">+ connect()</text>
<text text-anchor="start" x="76.5" y="-145.5" font-family="Helvetica,sans-Serif" font-size="10.00">+ connect()</text>
<text text-anchor="start" x="76.5" y="-134.5" font-family="Helvetica,sans-Serif" font-size="10.00">+ emit()</text>
</a>
</g>
</g>
<!-- Node2&#45;&gt;Node3 -->
<g id="edge3" class="edge">
<title>Node2&#45;&gt;Node3</title>
<path fill="none" stroke="#8b1a1a" d="M80.06,-416.12C82.33,-380.06 87.1,-330 97,-287 100.61,-271.33 105.9,-254.76 111.36,-239.63"/>
<polygon fill="none" stroke="#8b1a1a" points="76.55,-416.18 79.45,-426.36 83.53,-416.59 76.55,-416.18"/>
</g>
<!-- Node4 -->
<g id="node4" class="node">
<title>Node4</title>
<g id="a_node4"><a xlink:href="class_e_b_cpp_1_1_e_b_event.html" target="_top" xlink:title="This objects handles an event.">
<polygon fill="none" stroke="black" points="106,-287.5 106,-388.5 234,-388.5 234,-287.5 106,-287.5"/>
<text text-anchor="middle" x="170" y="-376.5" font-family="Helvetica,sans-Serif" font-size="10.00">EBCpp::EBEvent&lt; args &gt;</text>
<polyline fill="none" stroke="black" points="106,-369.5 234,-369.5 "/>
<text text-anchor="middle" x="170" y="-357.5" font-family="Helvetica,sans-Serif" font-size="10.00"> </text>
<polyline fill="none" stroke="black" points="106,-350.5 234,-350.5 "/>
<text text-anchor="start" x="114" y="-338.5" font-family="Helvetica,sans-Serif" font-size="10.00">+ EBEvent()</text>
<text text-anchor="start" x="114" y="-327.5" font-family="Helvetica,sans-Serif" font-size="10.00">+ ~EBEvent()</text>
<text text-anchor="start" x="114" y="-316.5" font-family="Helvetica,sans-Serif" font-size="10.00">+ connect()</text>
<text text-anchor="start" x="114" y="-305.5" font-family="Helvetica,sans-Serif" font-size="10.00">+ connect()</text>
<text text-anchor="start" x="114" y="-294.5" font-family="Helvetica,sans-Serif" font-size="10.00">+ emit()</text>
</a>
</g>
</g>
<!-- Node2&#45;&gt;Node4 -->
<g id="edge5" class="edge">
<title>Node2&#45;&gt;Node4</title>
<path fill="none" stroke="#8b1a1a" d="M112.37,-417.92C119.35,-408.36 126.72,-398.28 133.76,-388.63"/>
<polygon fill="none" stroke="#8b1a1a" points="109.42,-416.03 106.35,-426.17 115.08,-420.16 109.42,-416.03"/>
</g>
<!-- Node3&#45;&gt;Node1 -->
<g id="edge2" class="edge">
<title>Node3&#45;&gt;Node1</title>
<path fill="none" stroke="#404040" d="M103.62,-127.39C96.87,-115.15 89.76,-102.25 83.16,-90.27"/>
<polygon fill="none" stroke="#404040" points="83.05,-90.07 76.65,-86.74 77.25,-79.56 83.65,-82.88 83.05,-90.07"/>
<text text-anchor="middle" x="124.5" y="-101" font-family="Helvetica,sans-Serif" font-size="10.00"> +newRequest</text>
</g>
<!-- Node4&#45;&gt;Node3 -->
<g id="edge4" class="edge">
<title>Node4&#45;&gt;Node3</title>
<path fill="none" stroke="orange" d="M155.98,-277.61C153.02,-265.09 149.92,-251.92 147,-239.57"/>
<polygon fill="orange" stroke="orange" points="152.61,-278.56 158.31,-287.49 159.42,-276.95 152.61,-278.56"/>
<text text-anchor="middle" x="219.5" y="-261" font-family="Helvetica,sans-Serif" font-size="10.00"> &lt; EBCpp::EBHttpRequest * &gt;</text>
</g>
</g>
</svg>
