<?xml version="1.0" encoding="UTF-8" standalone="no"?>
<!DOCTYPE svg PUBLIC "-//W3C//DTD SVG 1.1//EN"
 "http://www.w3.org/Graphics/SVG/1.1/DTD/svg11.dtd">
<!-- Generated by graphviz version 2.46.0 (20210118.1747)
 -->
<!-- Title: EBCpp::EBObject Pages: 1 -->
<!--zoomable 596 -->
<svg id="main" version="1.1" xmlns="http://www.w3.org/2000/svg" xmlns:xlink="http://www.w3.org/1999/xlink" xml:space="preserve" onload="init(evt)">
<style type="text/css"><![CDATA[
.edge:hover path { stroke: red; }
.edge:hover polygon { stroke: red; fill: red; }
]]></style>
<script type="text/javascript"><![CDATA[
var edges = document.getElementsByTagName('g');
if (edges && edges.length) {
  for (var i=0;i<edges.length;i++) {
    if (edges[i].id.substr(0,4)=='edge') {
      edges[i].setAttribute('class','edge');
    }
  }
}
]]></script>
        <defs>
                <circle id="rim" cx="0" cy="0" r="7"/>
                <circle id="rim2" cx="0" cy="0" r="3.5"/>
                <g id="zoomPlus">
                        <use xlink:href="#rim" fill="#404040">
                                <set attributeName="fill" to="#808080" begin="zoomplus.mouseover" end="zoomplus.mouseout"/>
                        </use>
                        <path d="M-4,0h8M0,-4v8" fill="none" stroke="white" stroke-width="1.5" pointer-events="none"/>
                </g>
                <g id="zoomMin">
                        <use xlink:href="#rim" fill="#404040">
                                <set attributeName="fill" to="#808080" begin="zoomminus.mouseover" end="zoomminus.mouseout"/>
                        </use>
                        <path d="M-4,0h8" fill="none" stroke="white" stroke-width="1.5" pointer-events="none"/>
                </g>
                <g id="dirArrow">
                        <path fill="none" stroke="white" stroke-width="1.5" d="M0,-3.0v7 M-2.5,-0.5L0,-3.0L2.5,-0.5"/>
                </g>
               <g id="resetDef">
                       <use xlink:href="#rim2" fill="#404040">
                               <set attributeName="fill" to="#808080" begin="reset.mouseover" end="reset.mouseout"/>
                       </use>
               </g>
        </defs>

<script type="text/javascript">
var viewWidth = 2708;
var viewHeight = 596;
var sectionId = 'dynsection-0';
</script>
<script xlink:href="svgpan.js"/>
<svg id="graph" class="graph">
<g id="viewport">
<title>EBCpp::EBObject</title>
<!-- Node1 -->
<g id="node1" class="node">
<title>Node1</title>
<g id="a_node1"><a xlink:title="The core object. Every object from EBCpp must inherit this.">
<polygon fill="#bfbfbf" stroke="black" points="1325,-508.5 1325,-587.5 1420,-587.5 1420,-508.5 1325,-508.5"/>
<text text-anchor="middle" x="1372.5" y="-575.5" font-family="Helvetica,sans-Serif" font-size="10.00">EBCpp::EBObject</text>
<polyline fill="none" stroke="black" points="1325,-568.5 1420,-568.5 "/>
<text text-anchor="middle" x="1372.5" y="-556.5" font-family="Helvetica,sans-Serif" font-size="10.00"> </text>
<polyline fill="none" stroke="black" points="1325,-549.5 1420,-549.5 "/>
<text text-anchor="start" x="1333" y="-537.5" font-family="Helvetica,sans-Serif" font-size="10.00">+ EBObject()</text>
<text text-anchor="start" x="1333" y="-526.5" font-family="Helvetica,sans-Serif" font-size="10.00">+ ~EBObject()</text>
<text text-anchor="start" x="1333" y="-515.5" font-family="Helvetica,sans-Serif" font-size="10.00">+ getName()</text>
</a>
</g>
</g>
<!-- Node2 -->
<g id="node2" class="node">
<title>Node2</title>
<g id="a_node2"><a xlink:href="class_e_b_cpp_1_1_e_b_event.html" target="_top" xlink:title=" ">
<polygon fill="none" stroke="black" points="0,-72 0,-184 113,-184 113,-72 0,-72"/>
<text text-anchor="start" x="8" y="-172" font-family="Helvetica,sans-Serif" font-size="10.00">EBCpp::EBEvent&lt; std</text>
<text text-anchor="middle" x="56.5" y="-161" font-family="Helvetica,sans-Serif" font-size="10.00">::string &gt;</text>
<polyline fill="none" stroke="black" points="0,-154 113,-154 "/>
<text text-anchor="middle" x="56.5" y="-142" font-family="Helvetica,sans-Serif" font-size="10.00"> </text>
<polyline fill="none" stroke="black" points="0,-135 113,-135 "/>
<text text-anchor="start" x="8" y="-123" font-family="Helvetica,sans-Serif" font-size="10.00">+ EBEvent()</text>
<text text-anchor="start" x="8" y="-112" font-family="Helvetica,sans-Serif" font-size="10.00">+ ~EBEvent()</text>
<text text-anchor="start" x="8" y="-101" font-family="Helvetica,sans-Serif" font-size="10.00">+ connect()</text>
<text text-anchor="start" x="8" y="-90" font-family="Helvetica,sans-Serif" font-size="10.00">+ connect()</text>
<text text-anchor="start" x="8" y="-79" font-family="Helvetica,sans-Serif" font-size="10.00">+ emit()</text>
</a>
</g>
</g>
<!-- Node1&#45;&gt;Node2 -->
<g id="edge1" class="edge">
<title>Node1&#45;&gt;Node2</title>
<path fill="none" stroke="#8b1a1a" d="M1314.55,-547.01C1085.27,-546.57 249.55,-540.19 155.5,-471 65.88,-405.07 53.34,-262.77 53.8,-184.1"/>
<polygon fill="none" stroke="#8b1a1a" points="1314.68,-550.51 1324.68,-547.03 1314.69,-543.51 1314.68,-550.51"/>
</g>
<!-- Node3 -->
<g id="node3" class="node">
<title>Node3</title>
<g id="a_node3"><a xlink:href="class_e_b_cpp_1_1_e_b_event.html" target="_top" xlink:title=" ">
<polygon fill="none" stroke="black" points="169,-72 169,-184 300,-184 300,-72 169,-72"/>
<text text-anchor="start" x="177" y="-172" font-family="Helvetica,sans-Serif" font-size="10.00">EBCpp::EBEvent&lt; EBCpp</text>
<text text-anchor="middle" x="234.5" y="-161" font-family="Helvetica,sans-Serif" font-size="10.00">::EBHttpRequest * &gt;</text>
<polyline fill="none" stroke="black" points="169,-154 300,-154 "/>
<text text-anchor="middle" x="234.5" y="-142" font-family="Helvetica,sans-Serif" font-size="10.00"> </text>
<polyline fill="none" stroke="black" points="169,-135 300,-135 "/>
<text text-anchor="start" x="177" y="-123" font-family="Helvetica,sans-Serif" font-size="10.00">+ EBEvent()</text>
<text text-anchor="start" x="177" y="-112" font-family="Helvetica,sans-Serif" font-size="10.00">+ ~EBEvent()</text>
<text text-anchor="start" x="177" y="-101" font-family="Helvetica,sans-Serif" font-size="10.00">+ connect()</text>
<text text-anchor="start" x="177" y="-90" font-family="Helvetica,sans-Serif" font-size="10.00">+ connect()</text>
<text text-anchor="start" x="177" y="-79" font-family="Helvetica,sans-Serif" font-size="10.00">+ emit()</text>
</a>
</g>
</g>
<!-- Node1&#45;&gt;Node3 -->
<g id="edge2" class="edge">
<title>Node1&#45;&gt;Node3</title>
<path fill="none" stroke="#8b1a1a" d="M1314.91,-546.47C1125.5,-544.13 530.66,-531.96 472.5,-471 411.06,-406.6 498.98,-337.39 436.5,-274 407.56,-244.64 381.2,-276.62 345.5,-256 315.33,-238.57 289.22,-209.9 269.92,-184.21"/>
<polygon fill="none" stroke="#8b1a1a" points="1314.9,-549.97 1324.94,-546.59 1314.99,-542.97 1314.9,-549.97"/>
</g>
<!-- Node4 -->
<g id="node4" class="node">
<title>Node4</title>
<g id="a_node4"><a xlink:href="class_e_b_cpp_1_1_e_b_event.html" target="_top" xlink:title=" ">
<polygon fill="none" stroke="black" points="355,-72 355,-184 486,-184 486,-72 355,-72"/>
<text text-anchor="start" x="363" y="-172" font-family="Helvetica,sans-Serif" font-size="10.00">EBCpp::EBEvent&lt; EBCpp</text>
<text text-anchor="middle" x="420.5" y="-161" font-family="Helvetica,sans-Serif" font-size="10.00">::EBTcpSocket * &gt;</text>
<polyline fill="none" stroke="black" points="355,-154 486,-154 "/>
<text text-anchor="middle" x="420.5" y="-142" font-family="Helvetica,sans-Serif" font-size="10.00"> </text>
<polyline fill="none" stroke="black" points="355,-135 486,-135 "/>
<text text-anchor="start" x="363" y="-123" font-family="Helvetica,sans-Serif" font-size="10.00">+ EBEvent()</text>
<text text-anchor="start" x="363" y="-112" font-family="Helvetica,sans-Serif" font-size="10.00">+ ~EBEvent()</text>
<text text-anchor="start" x="363" y="-101" font-family="Helvetica,sans-Serif" font-size="10.00">+ connect()</text>
<text text-anchor="start" x="363" y="-90" font-family="Helvetica,sans-Serif" font-size="10.00">+ connect()</text>
<text text-anchor="start" x="363" y="-79" font-family="Helvetica,sans-Serif" font-size="10.00">+ emit()</text>
</a>
</g>
</g>
<!-- Node1&#45;&gt;Node4 -->
<g id="edge3" class="edge">
<title>Node1&#45;&gt;Node4</title>
<path fill="none" stroke="#8b1a1a" d="M1314.52,-545.83C1131.24,-541.6 572.98,-524.42 513.5,-471 446.82,-411.12 494.7,-360.29 470.5,-274 462.09,-244 450.92,-211.14 441.27,-184.29"/>
<polygon fill="none" stroke="#8b1a1a" points="1314.68,-549.34 1324.76,-546.06 1314.84,-542.34 1314.68,-549.34"/>
</g>
<!-- Node5 -->
<g id="node5" class="node">
<title>Node5</title>
<g id="a_node5"><a xlink:href="class_e_b_cpp_1_1_e_b_connection.html" target="_top" xlink:title="Class to connect between a signal and a slot.">
<polygon fill="none" stroke="black" points="522.5,-347.5 522.5,-426.5 638.5,-426.5 638.5,-347.5 522.5,-347.5"/>
<text text-anchor="start" x="530.5" y="-414.5" font-family="Helvetica,sans-Serif" font-size="10.00">EBCpp::EBConnection</text>
<text text-anchor="middle" x="580.5" y="-403.5" font-family="Helvetica,sans-Serif" font-size="10.00">&lt; args &gt;</text>
<polyline fill="none" stroke="black" points="522.5,-396.5 638.5,-396.5 "/>
<text text-anchor="middle" x="580.5" y="-384.5" font-family="Helvetica,sans-Serif" font-size="10.00"> </text>
<polyline fill="none" stroke="black" points="522.5,-377.5 638.5,-377.5 "/>
<text text-anchor="start" x="530.5" y="-365.5" font-family="Helvetica,sans-Serif" font-size="10.00">+ EBConnection()</text>
<text text-anchor="start" x="530.5" y="-354.5" font-family="Helvetica,sans-Serif" font-size="10.00">+ emit()</text>
</a>
</g>
</g>
<!-- Node1&#45;&gt;Node5 -->
<g id="edge4" class="edge">
<title>Node1&#45;&gt;Node5</title>
<path fill="none" stroke="midnightblue" d="M1314.34,-546.61C1163.25,-544.72 762.06,-533.76 647.5,-471 628.98,-460.86 613.67,-443.29 602.38,-426.92"/>
<polygon fill="none" stroke="midnightblue" points="1314.74,-550.12 1324.78,-546.74 1314.83,-543.12 1314.74,-550.12"/>
</g>
<!-- Node6 -->
<g id="node6" class="node">
<title>Node6</title>
<g id="a_node6"><a xlink:href="class_e_b_cpp_1_1_e_b_event.html" target="_top" xlink:title="This objects handles an event.">
<polygon fill="none" stroke="black" points="164.5,-336.5 164.5,-437.5 292.5,-437.5 292.5,-336.5 164.5,-336.5"/>
<text text-anchor="middle" x="228.5" y="-425.5" font-family="Helvetica,sans-Serif" font-size="10.00">EBCpp::EBEvent&lt; args &gt;</text>
<polyline fill="none" stroke="black" points="164.5,-418.5 292.5,-418.5 "/>
<text text-anchor="middle" x="228.5" y="-406.5" font-family="Helvetica,sans-Serif" font-size="10.00"> </text>
<polyline fill="none" stroke="black" points="164.5,-399.5 292.5,-399.5 "/>
<text text-anchor="start" x="172.5" y="-387.5" font-family="Helvetica,sans-Serif" font-size="10.00">+ EBEvent()</text>
<text text-anchor="start" x="172.5" y="-376.5" font-family="Helvetica,sans-Serif" font-size="10.00">+ ~EBEvent()</text>
<text text-anchor="start" x="172.5" y="-365.5" font-family="Helvetica,sans-Serif" font-size="10.00">+ connect()</text>
<text text-anchor="start" x="172.5" y="-354.5" font-family="Helvetica,sans-Serif" font-size="10.00">+ connect()</text>
<text text-anchor="start" x="172.5" y="-343.5" font-family="Helvetica,sans-Serif" font-size="10.00">+ emit()</text>
</a>
</g>
</g>
<!-- Node1&#45;&gt;Node6 -->
<g id="edge5" class="edge">
<title>Node1&#45;&gt;Node6</title>
<path fill="none" stroke="#8b1a1a" d="M1314.61,-546.34C1138.09,-543.86 608.63,-532.95 442.5,-490 389.5,-476.3 333.81,-449.3 292.53,-426.52"/>
<polygon fill="none" stroke="#8b1a1a" points="1314.68,-549.84 1324.73,-546.47 1314.78,-542.84 1314.68,-549.84"/>
</g>
<!-- Node7 -->
<g id="node7" class="node">
<title>Node7</title>
<g id="a_node7"><a xlink:href="class_e_b_cpp_1_1_e_b_event_loop.html" target="_top" xlink:title="Event handling class.">
<polygon fill="none" stroke="black" points="656.5,-331 656.5,-443 768.5,-443 768.5,-331 656.5,-331"/>
<text text-anchor="middle" x="712.5" y="-431" font-family="Helvetica,sans-Serif" font-size="10.00">EBCpp::EBEventLoop</text>
<polyline fill="none" stroke="black" points="656.5,-424 768.5,-424 "/>
<text text-anchor="middle" x="712.5" y="-412" font-family="Helvetica,sans-Serif" font-size="10.00"> </text>
<polyline fill="none" stroke="black" points="656.5,-405 768.5,-405 "/>
<text text-anchor="start" x="664.5" y="-393" font-family="Helvetica,sans-Serif" font-size="10.00">+ EBEventLoop()</text>
<text text-anchor="start" x="664.5" y="-382" font-family="Helvetica,sans-Serif" font-size="10.00">+ emit()</text>
<text text-anchor="start" x="664.5" y="-371" font-family="Helvetica,sans-Serif" font-size="10.00">+ processEvents()</text>
<text text-anchor="start" x="664.5" y="-360" font-family="Helvetica,sans-Serif" font-size="10.00">+ exec()</text>
<text text-anchor="start" x="664.5" y="-349" font-family="Helvetica,sans-Serif" font-size="10.00">+ exit()</text>
<text text-anchor="start" x="664.5" y="-338" font-family="Helvetica,sans-Serif" font-size="10.00">+ getInstance()</text>
</a>
</g>
</g>
<!-- Node1&#45;&gt;Node7 -->
<g id="edge9" class="edge">
<title>Node1&#45;&gt;Node7</title>
<path fill="none" stroke="midnightblue" d="M1314.62,-545.15C1183.57,-540.08 868.52,-522.72 777.5,-471 765.41,-464.13 754.76,-454.02 745.78,-443.21"/>
<polygon fill="none" stroke="midnightblue" points="1314.73,-548.65 1324.85,-545.53 1314.99,-541.66 1314.73,-548.65"/>
</g>
<!-- Node8 -->
<g id="node8" class="node">
<title>Node8</title>
<g id="a_node8"><a xlink:href="class_e_b_cpp_1_1_e_b_http_header.html" target="_top" xlink:title="Class that parses the http header.">
<polygon fill="none" stroke="black" points="786.5,-336.5 786.5,-437.5 902.5,-437.5 902.5,-336.5 786.5,-336.5"/>
<text text-anchor="middle" x="844.5" y="-425.5" font-family="Helvetica,sans-Serif" font-size="10.00">EBCpp::EBHttpHeader</text>
<polyline fill="none" stroke="black" points="786.5,-418.5 902.5,-418.5 "/>
<text text-anchor="middle" x="844.5" y="-406.5" font-family="Helvetica,sans-Serif" font-size="10.00"> </text>
<polyline fill="none" stroke="black" points="786.5,-399.5 902.5,-399.5 "/>
<text text-anchor="start" x="794.5" y="-387.5" font-family="Helvetica,sans-Serif" font-size="10.00">+ EBHttpHeader()</text>
<text text-anchor="start" x="794.5" y="-376.5" font-family="Helvetica,sans-Serif" font-size="10.00">+ processLine()</text>
<text text-anchor="start" x="794.5" y="-365.5" font-family="Helvetica,sans-Serif" font-size="10.00">+ getValue()</text>
<text text-anchor="start" x="794.5" y="-354.5" font-family="Helvetica,sans-Serif" font-size="10.00">+ contains()</text>
<text text-anchor="start" x="794.5" y="-343.5" font-family="Helvetica,sans-Serif" font-size="10.00">+ getHeader()</text>
</a>
</g>
</g>
<!-- Node1&#45;&gt;Node8 -->
<g id="edge10" class="edge">
<title>Node1&#45;&gt;Node8</title>
<path fill="none" stroke="midnightblue" d="M1314.81,-542.62C1206.87,-533.6 979.14,-510.41 911.5,-471 897.42,-462.8 885.1,-450.43 875,-437.72"/>
<polygon fill="none" stroke="midnightblue" points="1314.62,-546.12 1324.87,-543.45 1315.2,-539.14 1314.62,-546.12"/>
</g>
<!-- Node9 -->
<g id="node9" class="node">
<title>Node9</title>
<g id="a_node9"><a xlink:href="class_e_b_cpp_1_1_e_b_http_request.html" target="_top" xlink:title="Handles a http request.">
<polygon fill="none" stroke="black" points="921,-325.5 921,-448.5 1042,-448.5 1042,-325.5 921,-325.5"/>
<text text-anchor="middle" x="981.5" y="-436.5" font-family="Helvetica,sans-Serif" font-size="10.00">EBCpp::EBHttpRequest</text>
<polyline fill="none" stroke="black" points="921,-429.5 1042,-429.5 "/>
<text text-anchor="start" x="929" y="-417.5" font-family="Helvetica,sans-Serif" font-size="10.00">+ ready</text>
<polyline fill="none" stroke="black" points="921,-410.5 1042,-410.5 "/>
<text text-anchor="start" x="929" y="-398.5" font-family="Helvetica,sans-Serif" font-size="10.00">+ EBHttpRequest()</text>
<text text-anchor="start" x="929" y="-387.5" font-family="Helvetica,sans-Serif" font-size="10.00">+ sendReply()</text>
<text text-anchor="start" x="929" y="-376.5" font-family="Helvetica,sans-Serif" font-size="10.00">+ getRequestHeader()</text>
<text text-anchor="start" x="929" y="-365.5" font-family="Helvetica,sans-Serif" font-size="10.00">+ getReplyHeader()</text>
<text text-anchor="start" x="929" y="-354.5" font-family="Helvetica,sans-Serif" font-size="10.00">+ getRequestMethod()</text>
<text text-anchor="start" x="929" y="-343.5" font-family="Helvetica,sans-Serif" font-size="10.00">+ getPath()</text>
<text text-anchor="start" x="929" y="-332.5" font-family="Helvetica,sans-Serif" font-size="10.00">+ setResponseCode()</text>
</a>
</g>
</g>
<!-- Node1&#45;&gt;Node9 -->
<g id="edge11" class="edge">
<title>Node1&#45;&gt;Node9</title>
<path fill="none" stroke="midnightblue" d="M1314.84,-544.18C1247.21,-538.55 1133.86,-521.65 1051.5,-471 1041.71,-464.98 1032.6,-457.11 1024.42,-448.62"/>
<polygon fill="none" stroke="midnightblue" points="1314.65,-547.68 1324.89,-544.96 1315.19,-540.7 1314.65,-547.68"/>
</g>
<!-- Node10 -->
<g id="node10" class="node">
<title>Node10</title>
<g id="a_node10"><a xlink:href="class_e_b_cpp_1_1_e_b_http_server.html" target="_top" xlink:title="Implementation of a http server.">
<polygon fill="none" stroke="black" points="1060.5,-347.5 1060.5,-426.5 1172.5,-426.5 1172.5,-347.5 1060.5,-347.5"/>
<text text-anchor="middle" x="1116.5" y="-414.5" font-family="Helvetica,sans-Serif" font-size="10.00">EBCpp::EBHttpServer</text>
<polyline fill="none" stroke="black" points="1060.5,-407.5 1172.5,-407.5 "/>
<text text-anchor="start" x="1068.5" y="-395.5" font-family="Helvetica,sans-Serif" font-size="10.00">+ newRequest</text>
<polyline fill="none" stroke="black" points="1060.5,-388.5 1172.5,-388.5 "/>
<text text-anchor="start" x="1068.5" y="-376.5" font-family="Helvetica,sans-Serif" font-size="10.00">+ EBHttpServer()</text>
<text text-anchor="start" x="1068.5" y="-365.5" font-family="Helvetica,sans-Serif" font-size="10.00">+ ~EBHttpServer()</text>
<text text-anchor="start" x="1068.5" y="-354.5" font-family="Helvetica,sans-Serif" font-size="10.00">+ setTcpServer()</text>
</a>
</g>
</g>
<!-- Node1&#45;&gt;Node10 -->
<g id="edge12" class="edge">
<title>Node1&#45;&gt;Node10</title>
<path fill="none" stroke="midnightblue" d="M1314.99,-532.76C1274.84,-520.85 1221.49,-500.93 1181.5,-471 1165.53,-459.05 1151.37,-442.22 1140.38,-426.85"/>
<polygon fill="none" stroke="midnightblue" points="1314.06,-536.13 1324.64,-535.54 1316,-529.41 1314.06,-536.13"/>
</g>
<!-- Node11 -->
<g id="node11" class="node">
<title>Node11</title>
<g id="a_node11"><a xlink:href="class_e_b_cpp_1_1_e_b_i_o_device.html" target="_top" xlink:title="Interface description of an input/output device.">
<polygon fill="none" stroke="black" points="1191,-303.5 1191,-470.5 1296,-470.5 1296,-303.5 1191,-303.5"/>
<text text-anchor="middle" x="1243.5" y="-458.5" font-family="Helvetica,sans-Serif" font-size="10.00">EBCpp::EBIODevice</text>
<polyline fill="none" stroke="black" points="1191,-451.5 1296,-451.5 "/>
<text text-anchor="middle" x="1243.5" y="-439.5" font-family="Helvetica,sans-Serif" font-size="10.00"> </text>
<polyline fill="none" stroke="black" points="1191,-432.5 1296,-432.5 "/>
<text text-anchor="start" x="1199" y="-420.5" font-family="Helvetica,sans-Serif" font-size="10.00">+ EBIODevice()</text>
<text text-anchor="start" x="1199" y="-409.5" font-family="Helvetica,sans-Serif" font-size="10.00">+ open()</text>
<text text-anchor="start" x="1199" y="-398.5" font-family="Helvetica,sans-Serif" font-size="10.00">+ isOpened()</text>
<text text-anchor="start" x="1199" y="-387.5" font-family="Helvetica,sans-Serif" font-size="10.00">+ close()</text>
<text text-anchor="start" x="1199" y="-376.5" font-family="Helvetica,sans-Serif" font-size="10.00">+ write()</text>
<text text-anchor="start" x="1199" y="-365.5" font-family="Helvetica,sans-Serif" font-size="10.00">+ write()</text>
<text text-anchor="start" x="1199" y="-354.5" font-family="Helvetica,sans-Serif" font-size="10.00">+ read()</text>
<text text-anchor="start" x="1199" y="-343.5" font-family="Helvetica,sans-Serif" font-size="10.00">+ canReadLine()</text>
<text text-anchor="start" x="1199" y="-332.5" font-family="Helvetica,sans-Serif" font-size="10.00">+ readLine()</text>
<text text-anchor="start" x="1199" y="-321.5" font-family="Helvetica,sans-Serif" font-size="10.00">+ setFileName()</text>
<text text-anchor="start" x="1199" y="-310.5" font-family="Helvetica,sans-Serif" font-size="10.00">+ getFileName()</text>
</a>
</g>
</g>
<!-- Node1&#45;&gt;Node11 -->
<g id="edge13" class="edge">
<title>Node1&#45;&gt;Node11</title>
<path fill="none" stroke="midnightblue" d="M1330.72,-500.81C1322.23,-491.09 1313.46,-480.8 1305.5,-471 1302.44,-467.23 1299.33,-463.33 1296.23,-459.38"/>
<polygon fill="none" stroke="midnightblue" points="1328.22,-503.27 1337.45,-508.47 1333.48,-498.65 1328.22,-503.27"/>
</g>
<!-- Node13 -->
<g id="node13" class="node">
<title>Node13</title>
<g id="a_node13"><a xlink:href="class_e_b_cpp_1_1_e_b_semaphore.html" target="_top" xlink:title="Semaphore implementation for EBCpp.">
<polygon fill="none" stroke="black" points="1314.5,-342 1314.5,-432 1430.5,-432 1430.5,-342 1314.5,-342"/>
<text text-anchor="middle" x="1372.5" y="-420" font-family="Helvetica,sans-Serif" font-size="10.00">EBCpp::EBSemaphore</text>
<polyline fill="none" stroke="black" points="1314.5,-413 1430.5,-413 "/>
<text text-anchor="middle" x="1372.5" y="-401" font-family="Helvetica,sans-Serif" font-size="10.00"> </text>
<polyline fill="none" stroke="black" points="1314.5,-394 1430.5,-394 "/>
<text text-anchor="start" x="1322.5" y="-382" font-family="Helvetica,sans-Serif" font-size="10.00">+ EBSemaphore()</text>
<text text-anchor="start" x="1322.5" y="-371" font-family="Helvetica,sans-Serif" font-size="10.00">+ acquire()</text>
<text text-anchor="start" x="1322.5" y="-360" font-family="Helvetica,sans-Serif" font-size="10.00">+ release()</text>
<text text-anchor="start" x="1322.5" y="-349" font-family="Helvetica,sans-Serif" font-size="10.00">+ clear()</text>
</a>
</g>
</g>
<!-- Node1&#45;&gt;Node13 -->
<g id="edge15" class="edge">
<title>Node1&#45;&gt;Node13</title>
<path fill="none" stroke="midnightblue" d="M1372.5,-498.07C1372.5,-477.02 1372.5,-452.59 1372.5,-432.11"/>
<polygon fill="none" stroke="midnightblue" points="1369,-498.1 1372.5,-508.1 1376,-498.1 1369,-498.1"/>
</g>
<!-- Node14 -->
<g id="node14" class="node">
<title>Node14</title>
<g id="a_node14"><a xlink:href="class_e_b_cpp_1_1_e_b_slot_call.html" target="_top" xlink:title="Object to call a slot.">
<polygon fill="none" stroke="black" points="1449,-353 1449,-421 1550,-421 1550,-353 1449,-353"/>
<text text-anchor="middle" x="1499.5" y="-409" font-family="Helvetica,sans-Serif" font-size="10.00">EBCpp::EBSlotCall</text>
<polyline fill="none" stroke="black" points="1449,-402 1550,-402 "/>
<text text-anchor="middle" x="1499.5" y="-390" font-family="Helvetica,sans-Serif" font-size="10.00"> </text>
<polyline fill="none" stroke="black" points="1449,-383 1550,-383 "/>
<text text-anchor="start" x="1457" y="-371" font-family="Helvetica,sans-Serif" font-size="10.00">+ EBSlotCall()</text>
<text text-anchor="start" x="1457" y="-360" font-family="Helvetica,sans-Serif" font-size="10.00">+ call()</text>
</a>
</g>
</g>
<!-- Node1&#45;&gt;Node14 -->
<g id="edge16" class="edge">
<title>Node1&#45;&gt;Node14</title>
<path fill="none" stroke="midnightblue" d="M1414.68,-500.59C1423.07,-490.95 1431.7,-480.76 1439.5,-471 1452.27,-455.03 1465.67,-436.66 1476.56,-421.26"/>
<polygon fill="none" stroke="midnightblue" points="1411.98,-498.35 1408.01,-508.17 1417.24,-502.97 1411.98,-498.35"/>
</g>
<!-- Node15 -->
<g id="node15" class="node">
<title>Node15</title>
<g id="a_node15"><a xlink:href="class_e_b_cpp_1_1_e_b_tcp_server.html" target="_top" xlink:title="Creates a TCP server.">
<polygon fill="none" stroke="black" points="1568.5,-336.5 1568.5,-437.5 1678.5,-437.5 1678.5,-336.5 1568.5,-336.5"/>
<text text-anchor="middle" x="1623.5" y="-425.5" font-family="Helvetica,sans-Serif" font-size="10.00">EBCpp::EBTcpServer</text>
<polyline fill="none" stroke="black" points="1568.5,-418.5 1678.5,-418.5 "/>
<text text-anchor="start" x="1576.5" y="-406.5" font-family="Helvetica,sans-Serif" font-size="10.00">+ newConnection</text>
<text text-anchor="start" x="1576.5" y="-395.5" font-family="Helvetica,sans-Serif" font-size="10.00"># socketId</text>
<polyline fill="none" stroke="black" points="1568.5,-388.5 1678.5,-388.5 "/>
<text text-anchor="start" x="1576.5" y="-376.5" font-family="Helvetica,sans-Serif" font-size="10.00">+ EBTcpServer()</text>
<text text-anchor="start" x="1576.5" y="-365.5" font-family="Helvetica,sans-Serif" font-size="10.00">+ bind()</text>
<text text-anchor="start" x="1576.5" y="-354.5" font-family="Helvetica,sans-Serif" font-size="10.00">+ unbind()</text>
<text text-anchor="start" x="1576.5" y="-343.5" font-family="Helvetica,sans-Serif" font-size="10.00"># nextConnection()</text>
</a>
</g>
</g>
<!-- Node1&#45;&gt;Node15 -->
<g id="edge17" class="edge">
<title>Node1&#45;&gt;Node15</title>
<path fill="none" stroke="midnightblue" d="M1429.91,-532.02C1468.84,-519.92 1520.02,-500.08 1558.5,-471 1570.77,-461.73 1581.98,-449.61 1591.51,-437.5"/>
<polygon fill="none" stroke="midnightblue" points="1428.85,-528.68 1420.29,-534.93 1430.87,-535.38 1428.85,-528.68"/>
</g>
<!-- Node16 -->
<g id="node16" class="node">
<title>Node16</title>
<g id="a_node16"><a xlink:href="class_e_b_cpp_1_1_e_b_timer.html" target="_top" xlink:title="The EBTimer can provide times events.">
<polygon fill="none" stroke="black" points="1696.5,-336.5 1696.5,-437.5 1794.5,-437.5 1794.5,-336.5 1696.5,-336.5"/>
<text text-anchor="middle" x="1745.5" y="-425.5" font-family="Helvetica,sans-Serif" font-size="10.00">EBCpp::EBTimer</text>
<polyline fill="none" stroke="black" points="1696.5,-418.5 1794.5,-418.5 "/>
<text text-anchor="start" x="1704.5" y="-406.5" font-family="Helvetica,sans-Serif" font-size="10.00">+ timeout</text>
<polyline fill="none" stroke="black" points="1696.5,-399.5 1794.5,-399.5 "/>
<text text-anchor="start" x="1704.5" y="-387.5" font-family="Helvetica,sans-Serif" font-size="10.00">+ EBTimer()</text>
<text text-anchor="start" x="1704.5" y="-376.5" font-family="Helvetica,sans-Serif" font-size="10.00">+ ~EBTimer()</text>
<text text-anchor="start" x="1704.5" y="-365.5" font-family="Helvetica,sans-Serif" font-size="10.00">+ stop()</text>
<text text-anchor="start" x="1704.5" y="-354.5" font-family="Helvetica,sans-Serif" font-size="10.00">+ startSingleShot()</text>
<text text-anchor="start" x="1704.5" y="-343.5" font-family="Helvetica,sans-Serif" font-size="10.00">+ start()</text>
</a>
</g>
</g>
<!-- Node1&#45;&gt;Node16 -->
<g id="edge18" class="edge">
<title>Node1&#45;&gt;Node16</title>
<path fill="none" stroke="midnightblue" d="M1430.19,-545.17C1497.38,-540.47 1609.16,-524.46 1687.5,-471 1699.99,-462.48 1710.63,-450.32 1719.26,-437.92"/>
<polygon fill="none" stroke="midnightblue" points="1429.96,-541.67 1420.2,-545.81 1430.41,-548.66 1429.96,-541.67"/>
</g>
<!-- Node17 -->
<g id="node17" class="node">
<title>Node17</title>
<g id="a_node17"><a xlink:href="class_example_http_server.html" target="_top" xlink:title="Example to show the function of the TCP server.">
<polygon fill="none" stroke="black" points="1813,-353 1813,-421 1928,-421 1928,-353 1813,-353"/>
<text text-anchor="middle" x="1870.5" y="-409" font-family="Helvetica,sans-Serif" font-size="10.00">ExampleHttpServer</text>
<polyline fill="none" stroke="black" points="1813,-402 1928,-402 "/>
<text text-anchor="middle" x="1870.5" y="-390" font-family="Helvetica,sans-Serif" font-size="10.00"> </text>
<polyline fill="none" stroke="black" points="1813,-383 1928,-383 "/>
<text text-anchor="start" x="1821" y="-371" font-family="Helvetica,sans-Serif" font-size="10.00">+ ExampleHttpServer()</text>
<text text-anchor="start" x="1821" y="-360" font-family="Helvetica,sans-Serif" font-size="10.00">+ requestReady()</text>
</a>
</g>
</g>
<!-- Node1&#45;&gt;Node17 -->
<g id="edge19" class="edge">
<title>Node1&#45;&gt;Node17</title>
<path fill="none" stroke="midnightblue" d="M1430.53,-541.84C1533.03,-531.9 1741.18,-507.77 1803.5,-471 1823.6,-459.14 1840.14,-438.85 1851.76,-421.3"/>
<polygon fill="none" stroke="midnightblue" points="1429.98,-538.37 1420.36,-542.81 1430.64,-545.34 1429.98,-538.37"/>
</g>
<!-- Node18 -->
<g id="node18" class="node">
<title>Node18</title>
<g id="a_node18"><a xlink:href="class_example_https_server.html" target="_top" xlink:title="Example to show the function of the TCP server.">
<polygon fill="none" stroke="black" points="1946.5,-353 1946.5,-421 2066.5,-421 2066.5,-353 1946.5,-353"/>
<text text-anchor="middle" x="2006.5" y="-409" font-family="Helvetica,sans-Serif" font-size="10.00">ExampleHttpsServer</text>
<polyline fill="none" stroke="black" points="1946.5,-402 2066.5,-402 "/>
<text text-anchor="middle" x="2006.5" y="-390" font-family="Helvetica,sans-Serif" font-size="10.00"> </text>
<polyline fill="none" stroke="black" points="1946.5,-383 2066.5,-383 "/>
<text text-anchor="start" x="1954.5" y="-371" font-family="Helvetica,sans-Serif" font-size="10.00">+ ExampleHttpsServer()</text>
<text text-anchor="start" x="1954.5" y="-360" font-family="Helvetica,sans-Serif" font-size="10.00">+ requestReady()</text>
</a>
</g>
</g>
<!-- Node1&#45;&gt;Node18 -->
<g id="edge20" class="edge">
<title>Node1&#45;&gt;Node18</title>
<path fill="none" stroke="midnightblue" d="M1430.37,-544.45C1556.16,-538.07 1850.15,-518.4 1936.5,-471 1957.49,-459.48 1974.88,-438.96 1987.08,-421.21"/>
<polygon fill="none" stroke="midnightblue" points="1429.98,-540.96 1420.16,-544.96 1430.33,-547.95 1429.98,-540.96"/>
</g>
<!-- Node19 -->
<g id="node19" class="node">
<title>Node19</title>
<g id="a_node19"><a xlink:href="class_example_s_s_l_client.html" target="_top" xlink:title="Example to show the function of a tcp client.">
<polygon fill="none" stroke="black" points="2085,-336.5 2085,-437.5 2198,-437.5 2198,-336.5 2085,-336.5"/>
<text text-anchor="middle" x="2141.5" y="-425.5" font-family="Helvetica,sans-Serif" font-size="10.00">ExampleSSLClient</text>
<polyline fill="none" stroke="black" points="2085,-418.5 2198,-418.5 "/>
<text text-anchor="middle" x="2141.5" y="-406.5" font-family="Helvetica,sans-Serif" font-size="10.00"> </text>
<polyline fill="none" stroke="black" points="2085,-399.5 2198,-399.5 "/>
<text text-anchor="start" x="2093" y="-387.5" font-family="Helvetica,sans-Serif" font-size="10.00">+ ExampleSSLClient()</text>
<text text-anchor="start" x="2093" y="-376.5" font-family="Helvetica,sans-Serif" font-size="10.00">+ connected()</text>
<text text-anchor="start" x="2093" y="-365.5" font-family="Helvetica,sans-Serif" font-size="10.00">+ disconnected()</text>
<text text-anchor="start" x="2093" y="-354.5" font-family="Helvetica,sans-Serif" font-size="10.00">+ readReady()</text>
<text text-anchor="start" x="2093" y="-343.5" font-family="Helvetica,sans-Serif" font-size="10.00">+ error()</text>
</a>
</g>
</g>
<!-- Node1&#45;&gt;Node19 -->
<g id="edge21" class="edge">
<title>Node1&#45;&gt;Node19</title>
<path fill="none" stroke="midnightblue" d="M1430.22,-546.42C1577.77,-544.06 1964.91,-532.06 2075.5,-471 2089.84,-463.08 2102.19,-450.63 2112.2,-437.77"/>
<polygon fill="none" stroke="midnightblue" points="1429.96,-542.93 1420.01,-546.58 1430.07,-549.93 1429.96,-542.93"/>
</g>
<!-- Node20 -->
<g id="node20" class="node">
<title>Node20</title>
<g id="a_node20"><a xlink:href="class_example_ssl_server.html" target="_top" xlink:title="Example to show the function of the TCP server.">
<polygon fill="none" stroke="black" points="2216,-336.5 2216,-437.5 2327,-437.5 2327,-336.5 2216,-336.5"/>
<text text-anchor="middle" x="2271.5" y="-425.5" font-family="Helvetica,sans-Serif" font-size="10.00">ExampleSslServer</text>
<polyline fill="none" stroke="black" points="2216,-418.5 2327,-418.5 "/>
<text text-anchor="middle" x="2271.5" y="-406.5" font-family="Helvetica,sans-Serif" font-size="10.00"> </text>
<polyline fill="none" stroke="black" points="2216,-399.5 2327,-399.5 "/>
<text text-anchor="start" x="2224" y="-387.5" font-family="Helvetica,sans-Serif" font-size="10.00">+ ExampleSslServer()</text>
<text text-anchor="start" x="2224" y="-376.5" font-family="Helvetica,sans-Serif" font-size="10.00">+ newConnection()</text>
<text text-anchor="start" x="2224" y="-365.5" font-family="Helvetica,sans-Serif" font-size="10.00">+ disconnected()</text>
<text text-anchor="start" x="2224" y="-354.5" font-family="Helvetica,sans-Serif" font-size="10.00">+ readReady()</text>
<text text-anchor="start" x="2224" y="-343.5" font-family="Helvetica,sans-Serif" font-size="10.00">+ error()</text>
</a>
</g>
</g>
<!-- Node1&#45;&gt;Node20 -->
<g id="edge22" class="edge">
<title>Node1&#45;&gt;Node20</title>
<path fill="none" stroke="midnightblue" d="M1430.24,-542.71C1546.44,-533.93 1816.82,-512.83 2043.5,-490 2116.07,-482.69 2142.89,-506.68 2206.5,-471 2220.71,-463.03 2232.89,-450.57 2242.74,-437.71"/>
<polygon fill="none" stroke="midnightblue" points="1429.85,-539.23 1420.14,-543.47 1430.38,-546.21 1429.85,-539.23"/>
</g>
<!-- Node21 -->
<g id="node21" class="node">
<title>Node21</title>
<g id="a_node21"><a xlink:href="class_example_tcp_client.html" target="_top" xlink:title="Example to show the function of a tcp client.">
<polygon fill="none" stroke="black" points="2345.5,-336.5 2345.5,-437.5 2455.5,-437.5 2455.5,-336.5 2345.5,-336.5"/>
<text text-anchor="middle" x="2400.5" y="-425.5" font-family="Helvetica,sans-Serif" font-size="10.00">ExampleTcpClient</text>
<polyline fill="none" stroke="black" points="2345.5,-418.5 2455.5,-418.5 "/>
<text text-anchor="middle" x="2400.5" y="-406.5" font-family="Helvetica,sans-Serif" font-size="10.00"> </text>
<polyline fill="none" stroke="black" points="2345.5,-399.5 2455.5,-399.5 "/>
<text text-anchor="start" x="2353.5" y="-387.5" font-family="Helvetica,sans-Serif" font-size="10.00">+ ExampleTcpClient()</text>
<text text-anchor="start" x="2353.5" y="-376.5" font-family="Helvetica,sans-Serif" font-size="10.00">+ connected()</text>
<text text-anchor="start" x="2353.5" y="-365.5" font-family="Helvetica,sans-Serif" font-size="10.00">+ disconnected()</text>
<text text-anchor="start" x="2353.5" y="-354.5" font-family="Helvetica,sans-Serif" font-size="10.00">+ readReady()</text>
<text text-anchor="start" x="2353.5" y="-343.5" font-family="Helvetica,sans-Serif" font-size="10.00">+ error()</text>
</a>
</g>
</g>
<!-- Node1&#45;&gt;Node21 -->
<g id="edge23" class="edge">
<title>Node1&#45;&gt;Node21</title>
<path fill="none" stroke="midnightblue" d="M1430.36,-542.74C1555.3,-533.49 1859.61,-510.75 2114.5,-490 2212.76,-482 2248.8,-517.93 2335.5,-471 2349.99,-463.16 2362.32,-450.57 2372.23,-437.55"/>
<polygon fill="none" stroke="midnightblue" points="1429.97,-539.25 1420.26,-543.48 1430.49,-546.24 1429.97,-539.25"/>
</g>
<!-- Node22 -->
<g id="node22" class="node">
<title>Node22</title>
<g id="a_node22"><a xlink:href="class_example_tcp_server.html" target="_top" xlink:title="Example to show the function of the TCP server.">
<polygon fill="none" stroke="black" points="2474,-336.5 2474,-437.5 2587,-437.5 2587,-336.5 2474,-336.5"/>
<text text-anchor="middle" x="2530.5" y="-425.5" font-family="Helvetica,sans-Serif" font-size="10.00">ExampleTcpServer</text>
<polyline fill="none" stroke="black" points="2474,-418.5 2587,-418.5 "/>
<text text-anchor="middle" x="2530.5" y="-406.5" font-family="Helvetica,sans-Serif" font-size="10.00"> </text>
<polyline fill="none" stroke="black" points="2474,-399.5 2587,-399.5 "/>
<text text-anchor="start" x="2482" y="-387.5" font-family="Helvetica,sans-Serif" font-size="10.00">+ ExampleTcpServer()</text>
<text text-anchor="start" x="2482" y="-376.5" font-family="Helvetica,sans-Serif" font-size="10.00">+ newConnection()</text>
<text text-anchor="start" x="2482" y="-365.5" font-family="Helvetica,sans-Serif" font-size="10.00">+ disconnected()</text>
<text text-anchor="start" x="2482" y="-354.5" font-family="Helvetica,sans-Serif" font-size="10.00">+ readReady()</text>
<text text-anchor="start" x="2482" y="-343.5" font-family="Helvetica,sans-Serif" font-size="10.00">+ error()</text>
</a>
</g>
</g>
<!-- Node1&#45;&gt;Node22 -->
<g id="edge24" class="edge">
<title>Node1&#45;&gt;Node22</title>
<path fill="none" stroke="midnightblue" d="M1430.48,-543.29C1567.54,-534.48 1922.29,-511.42 2218.5,-490 2327.87,-482.09 2367.64,-522.42 2464.5,-471 2479.13,-463.23 2491.64,-450.67 2501.7,-437.64"/>
<polygon fill="none" stroke="midnightblue" points="1429.97,-539.82 1420.21,-543.95 1430.42,-546.8 1429.97,-539.82"/>
</g>
<!-- Node23 -->
<g id="node23" class="node">
<title>Node23</title>
<g id="a_node23"><a xlink:href="class_example_timer.html" target="_top" xlink:title="Example to show the function of an timer.">
<polygon fill="none" stroke="black" points="2605.5,-358.5 2605.5,-415.5 2699.5,-415.5 2699.5,-358.5 2605.5,-358.5"/>
<text text-anchor="middle" x="2652.5" y="-403.5" font-family="Helvetica,sans-Serif" font-size="10.00">ExampleTimer</text>
<polyline fill="none" stroke="black" points="2605.5,-396.5 2699.5,-396.5 "/>
<text text-anchor="middle" x="2652.5" y="-384.5" font-family="Helvetica,sans-Serif" font-size="10.00"> </text>
<polyline fill="none" stroke="black" points="2605.5,-377.5 2699.5,-377.5 "/>
<text text-anchor="start" x="2613.5" y="-365.5" font-family="Helvetica,sans-Serif" font-size="10.00">+ ExampleTimer()</text>
</a>
</g>
</g>
<!-- Node1&#45;&gt;Node23 -->
<g id="edge25" class="edge">
<title>Node1&#45;&gt;Node23</title>
<path fill="none" stroke="midnightblue" d="M1430.37,-543.84C1579.97,-535.63 1991.73,-512.63 2334.5,-490 2450.55,-482.34 2494.62,-528.88 2595.5,-471 2616.88,-458.74 2632,-434.8 2641.27,-415.77"/>
<polygon fill="none" stroke="midnightblue" points="1429.85,-540.37 1420.06,-544.41 1430.24,-547.36 1429.85,-540.37"/>
</g>
<!-- Node6&#45;&gt;Node2 -->
<g id="edge6" class="edge">
<title>Node6&#45;&gt;Node2</title>
<path fill="none" stroke="orange" d="M156,-346.85C132.18,-330.65 107.68,-309.79 91.5,-285 72.01,-255.13 63.27,-215.94 59.39,-184.31"/>
<polygon fill="orange" stroke="orange" points="154.12,-349.8 164.39,-352.39 157.97,-343.96 154.12,-349.8"/>
<text text-anchor="middle" x="124" y="-277" font-family="Helvetica,sans-Serif" font-size="10.00"> &lt; std::string &gt;</text>
</g>
<!-- Node6&#45;&gt;Node3 -->
<g id="edge7" class="edge">
<title>Node6&#45;&gt;Node3</title>
<path fill="none" stroke="orange" d="M172.85,-328.02C162.96,-311.45 157.04,-292.77 161.5,-274 168.96,-242.6 184.35,-210.28 199.08,-184.15"/>
<polygon fill="orange" stroke="orange" points="169.97,-330 178.35,-336.48 175.83,-326.18 169.97,-330"/>
<text text-anchor="middle" x="228" y="-277" font-family="Helvetica,sans-Serif" font-size="10.00"> &lt; EBCpp::EBHttpRequest * &gt;</text>
</g>
<!-- Node6&#45;&gt;Node4 -->
<g id="edge8" class="edge">
<title>Node6&#45;&gt;Node4</title>
<path fill="none" stroke="orange" d="M271.59,-328.32C303.79,-285.22 347.53,-226.68 379.27,-184.19"/>
<polygon fill="orange" stroke="orange" points="268.7,-326.34 265.52,-336.45 274.31,-330.53 268.7,-326.34"/>
<text text-anchor="middle" x="370" y="-277" font-family="Helvetica,sans-Serif" font-size="10.00"> &lt; EBCpp::EBTcpSocket * &gt;</text>
</g>
<!-- Node12 -->
<g id="node12" class="node">
<title>Node12</title>
<g id="a_node12"><a xlink:href="class_e_b_cpp_1_1_e_b_tcp_socket.html" target="_top" xlink:title="Socket to handle a tcp connection.">
<polygon fill="none" stroke="black" points="1187,-0.5 1187,-255.5 1300,-255.5 1300,-0.5 1187,-0.5"/>
<text text-anchor="middle" x="1243.5" y="-243.5" font-family="Helvetica,sans-Serif" font-size="10.00">EBCpp::EBTcpSocket</text>
<polyline fill="none" stroke="black" points="1187,-236.5 1300,-236.5 "/>
<text text-anchor="start" x="1195" y="-224.5" font-family="Helvetica,sans-Serif" font-size="10.00">+ error</text>
<text text-anchor="start" x="1195" y="-213.5" font-family="Helvetica,sans-Serif" font-size="10.00">+ connected</text>
<text text-anchor="start" x="1195" y="-202.5" font-family="Helvetica,sans-Serif" font-size="10.00">+ disconnected</text>
<text text-anchor="start" x="1195" y="-191.5" font-family="Helvetica,sans-Serif" font-size="10.00">+ readReady</text>
<text text-anchor="start" x="1195" y="-180.5" font-family="Helvetica,sans-Serif" font-size="10.00"># socketId</text>
<text text-anchor="start" x="1195" y="-169.5" font-family="Helvetica,sans-Serif" font-size="10.00"># address</text>
<polyline fill="none" stroke="black" points="1187,-162.5 1300,-162.5 "/>
<text text-anchor="start" x="1195" y="-150.5" font-family="Helvetica,sans-Serif" font-size="10.00">+ EBTcpSocket()</text>
<text text-anchor="start" x="1195" y="-139.5" font-family="Helvetica,sans-Serif" font-size="10.00">+ EBTcpSocket()</text>
<text text-anchor="start" x="1195" y="-128.5" font-family="Helvetica,sans-Serif" font-size="10.00">+ ~EBTcpSocket()</text>
<text text-anchor="start" x="1195" y="-117.5" font-family="Helvetica,sans-Serif" font-size="10.00">+ open()</text>
<text text-anchor="start" x="1195" y="-106.5" font-family="Helvetica,sans-Serif" font-size="10.00">+ isOpened()</text>
<text text-anchor="start" x="1195" y="-95.5" font-family="Helvetica,sans-Serif" font-size="10.00">+ close()</text>
<text text-anchor="start" x="1195" y="-84.5" font-family="Helvetica,sans-Serif" font-size="10.00">+ write()</text>
<text text-anchor="start" x="1195" y="-73.5" font-family="Helvetica,sans-Serif" font-size="10.00">+ write()</text>
<text text-anchor="start" x="1195" y="-62.5" font-family="Helvetica,sans-Serif" font-size="10.00">+ read()</text>
<text text-anchor="start" x="1195" y="-51.5" font-family="Helvetica,sans-Serif" font-size="10.00">+ canReadLine()</text>
<text text-anchor="start" x="1195" y="-40.5" font-family="Helvetica,sans-Serif" font-size="10.00">+ readLine()</text>
<text text-anchor="start" x="1195" y="-29.5" font-family="Helvetica,sans-Serif" font-size="10.00"># startThread()</text>
<text text-anchor="start" x="1195" y="-18.5" font-family="Helvetica,sans-Serif" font-size="10.00"># connect()</text>
<text text-anchor="start" x="1195" y="-7.5" font-family="Helvetica,sans-Serif" font-size="10.00"># receiveData()</text>
</a>
</g>
</g>
<!-- Node11&#45;&gt;Node12 -->
<g id="edge14" class="edge">
<title>Node11&#45;&gt;Node12</title>
<path fill="none" stroke="midnightblue" d="M1243.5,-293.12C1243.5,-280.9 1243.5,-268.21 1243.5,-255.55"/>
<polygon fill="none" stroke="midnightblue" points="1240,-293.27 1243.5,-303.27 1247,-293.27 1240,-293.27"/>
</g>
</g>
</svg>
        <g id="navigator" transform="translate(0 0)" fill="#404254">
                <rect fill="#f2f5e9" fill-opacity="0.5" stroke="#606060" stroke-width=".5" x="0" y="0" width="60" height="60"/>
                <use id="zoomplus" xlink:href="#zoomPlus" x="17" y="9" onmousedown="handleZoom(evt,'in')"/>
                <use id="zoomminus" xlink:href="#zoomMin" x="42" y="9" onmousedown="handleZoom(evt,'out')"/>
                <use id="reset" xlink:href="#resetDef" x="30" y="36" onmousedown="handleReset()"/>
                <g id="arrowUp" xlink:href="#dirArrow" transform="translate(30 24)" onmousedown="handlePan(0,-1)">
                  <use xlink:href="#rim" fill="#404040">
                        <set attributeName="fill" to="#808080" begin="arrowUp.mouseover" end="arrowUp.mouseout"/>
                  </use>
                  <path fill="none" stroke="white" stroke-width="1.5" d="M0,-3.0v7 M-2.5,-0.5L0,-3.0L2.5,-0.5"/>
                </g>
                <g id="arrowRight" xlink:href="#dirArrow" transform="rotate(90) translate(36 -43)" onmousedown="handlePan(1,0)">
                  <use xlink:href="#rim" fill="#404040">
                        <set attributeName="fill" to="#808080" begin="arrowRight.mouseover" end="arrowRight.mouseout"/>
                  </use>
                  <path fill="none" stroke="white" stroke-width="1.5" d="M0,-3.0v7 M-2.5,-0.5L0,-3.0L2.5,-0.5"/>
                </g>
                <g id="arrowDown" xlink:href="#dirArrow" transform="rotate(180) translate(-30 -48)" onmousedown="handlePan(0,1)">
                  <use xlink:href="#rim" fill="#404040">
                        <set attributeName="fill" to="#808080" begin="arrowDown.mouseover" end="arrowDown.mouseout"/>
                  </use>
                  <path fill="none" stroke="white" stroke-width="1.5" d="M0,-3.0v7 M-2.5,-0.5L0,-3.0L2.5,-0.5"/>
                </g>
                <g id="arrowLeft" xlink:href="#dirArrow" transform="rotate(270) translate(-36 17)" onmousedown="handlePan(-1,0)">
                  <use xlink:href="#rim" fill="#404040">
                        <set attributeName="fill" to="#808080" begin="arrowLeft.mouseover" end="arrowLeft.mouseout"/>
                  </use>
                  <path fill="none" stroke="white" stroke-width="1.5" d="M0,-3.0v7 M-2.5,-0.5L0,-3.0L2.5,-0.5"/>
                </g>
        </g>
        <svg viewBox="0 0 15 15" width="100%" height="30px" preserveAspectRatio="xMaxYMin meet">
         <g id="arrow_out" transform="scale(0.3 0.3)">
          <a xlink:href="class_e_b_cpp_1_1_e_b_object__inherit__graph_org.svg" target="_base">
           <rect id="button" ry="5" rx="5" y="6" x="6" height="38" width="38"
                fill="#f2f5e9" fill-opacity="0.5" stroke="#606060" stroke-width="1.0"/>
           <path id="arrow"
             d="M 11.500037,31.436501 C 11.940474,20.09759 22.043105,11.32322 32.158766,21.979434 L 37.068811,17.246167 C 37.068811,17.246167 37.088388,32 37.088388,32 L 22.160133,31.978069 C 22.160133,31.978069 26.997745,27.140456 26.997745,27.140456 C 18.528582,18.264221 13.291696,25.230495 11.500037,31.436501 z"
             style="fill:#404040;"/>
          </a>
         </g>
        </svg>
</svg>
