<?xml version="1.0" encoding="UTF-8" standalone="no"?>
<!DOCTYPE svg PUBLIC "-//W3C//DTD SVG 1.1//EN"
 "http://www.w3.org/Graphics/SVG/1.1/DTD/svg11.dtd">
<!-- Generated by graphviz version 2.46.0 (20210118.1747)
 -->
<!-- Title: EBCpp::EBSslServer Pages: 1 -->
<svg width="285pt" height="620pt"
 viewBox="0.00 0.00 285.00 620.00" xmlns="http://www.w3.org/2000/svg" xmlns:xlink="http://www.w3.org/1999/xlink">
<g id="graph0" class="graph" transform="scale(1 1) rotate(0) translate(4 616)">
<title>EBCpp::EBSslServer</title>
<!-- Node1 -->
<g id="node1" class="node">
<title>Node1</title>
<g id="a_node1"><a xlink:title="Creates a TCP server.">
<polygon fill="#bfbfbf" stroke="black" points="1,-0.5 1,-68.5 109,-68.5 109,-0.5 1,-0.5"/>
<text text-anchor="middle" x="55" y="-56.5" font-family="Helvetica,sans-Serif" font-size="10.00">EBCpp::EBSslServer</text>
<polyline fill="none" stroke="black" points="1,-49.5 109,-49.5 "/>
<text text-anchor="middle" x="55" y="-37.5" font-family="Helvetica,sans-Serif" font-size="10.00"> </text>
<polyline fill="none" stroke="black" points="1,-30.5 109,-30.5 "/>
<text text-anchor="start" x="9" y="-18.5" font-family="Helvetica,sans-Serif" font-size="10.00">+ EBSslServer()</text>
<text text-anchor="start" x="9" y="-7.5" font-family="Helvetica,sans-Serif" font-size="10.00">+ ~EBSslServer()</text>
</a>
</g>
</g>
<!-- Node2 -->
<g id="node2" class="node">
<title>Node2</title>
<g id="a_node2"><a xlink:href="class_e_b_cpp_1_1_e_b_tcp_server.html" target="_top" xlink:title="Creates a TCP server.">
<polygon fill="none" stroke="black" points="0,-106.5 0,-185.5 110,-185.5 110,-106.5 0,-106.5"/>
<text text-anchor="middle" x="55" y="-173.5" font-family="Helvetica,sans-Serif" font-size="10.00">EBCpp::EBTcpServer</text>
<polyline fill="none" stroke="black" points="0,-166.5 110,-166.5 "/>
<text text-anchor="middle" x="55" y="-154.5" font-family="Helvetica,sans-Serif" font-size="10.00"> </text>
<polyline fill="none" stroke="black" points="0,-147.5 110,-147.5 "/>
<text text-anchor="start" x="8" y="-135.5" font-family="Helvetica,sans-Serif" font-size="10.00">+ EBTcpServer()</text>
<text text-anchor="start" x="8" y="-124.5" font-family="Helvetica,sans-Serif" font-size="10.00">+ bind()</text>
<text text-anchor="start" x="8" y="-113.5" font-family="Helvetica,sans-Serif" font-size="10.00">+ unbind()</text>
</a>
</g>
</g>
<!-- Node2&#45;&gt;Node1 -->
<g id="edge1" class="edge">
<title>Node2&#45;&gt;Node1</title>
<path fill="none" stroke="midnightblue" d="M55,-96.38C55,-87.02 55,-77.41 55,-68.67"/>
<polygon fill="none" stroke="midnightblue" points="51.5,-96.39 55,-106.39 58.5,-96.39 51.5,-96.39"/>
</g>
<!-- Node3 -->
<g id="node3" class="node">
<title>Node3</title>
<g id="a_node3"><a xlink:href="class_e_b_cpp_1_1_e_b_object.html" target="_top" xlink:title="The core object. Every object from EBCpp must inherit this.">
<polygon fill="none" stroke="black" points="29.5,-532.5 29.5,-611.5 124.5,-611.5 124.5,-532.5 29.5,-532.5"/>
<text text-anchor="middle" x="77" y="-599.5" font-family="Helvetica,sans-Serif" font-size="10.00">EBCpp::EBObject</text>
<polyline fill="none" stroke="black" points="29.5,-592.5 124.5,-592.5 "/>
<text text-anchor="middle" x="77" y="-580.5" font-family="Helvetica,sans-Serif" font-size="10.00"> </text>
<polyline fill="none" stroke="black" points="29.5,-573.5 124.5,-573.5 "/>
<text text-anchor="start" x="37.5" y="-561.5" font-family="Helvetica,sans-Serif" font-size="10.00">+ EBObject()</text>
<text text-anchor="start" x="37.5" y="-550.5" font-family="Helvetica,sans-Serif" font-size="10.00">+ ~EBObject()</text>
<text text-anchor="start" x="37.5" y="-539.5" font-family="Helvetica,sans-Serif" font-size="10.00">+ getName()</text>
</a>
</g>
</g>
<!-- Node3&#45;&gt;Node2 -->
<g id="edge2" class="edge">
<title>Node3&#45;&gt;Node2</title>
<path fill="none" stroke="midnightblue" d="M71.9,-522.25C67.38,-476.73 61.02,-406.84 58,-346 55.23,-290.27 54.76,-225.65 54.79,-185.55"/>
<polygon fill="none" stroke="midnightblue" points="68.44,-522.83 72.93,-532.44 75.41,-522.14 68.44,-522.83"/>
</g>
<!-- Node4 -->
<g id="node4" class="node">
<title>Node4</title>
<g id="a_node4"><a xlink:href="class_e_b_cpp_1_1_e_b_event.html" target="_top" xlink:title=" ">
<polygon fill="none" stroke="black" points="67.5,-233.5 67.5,-345.5 198.5,-345.5 198.5,-233.5 67.5,-233.5"/>
<text text-anchor="start" x="75.5" y="-333.5" font-family="Helvetica,sans-Serif" font-size="10.00">EBCpp::EBEvent&lt; EBCpp</text>
<text text-anchor="middle" x="133" y="-322.5" font-family="Helvetica,sans-Serif" font-size="10.00">::EBTcpSocket * &gt;</text>
<polyline fill="none" stroke="black" points="67.5,-315.5 198.5,-315.5 "/>
<text text-anchor="middle" x="133" y="-303.5" font-family="Helvetica,sans-Serif" font-size="10.00"> </text>
<polyline fill="none" stroke="black" points="67.5,-296.5 198.5,-296.5 "/>
<text text-anchor="start" x="75.5" y="-284.5" font-family="Helvetica,sans-Serif" font-size="10.00">+ EBEvent()</text>
<text text-anchor="start" x="75.5" y="-273.5" font-family="Helvetica,sans-Serif" font-size="10.00">+ ~EBEvent()</text>
<text text-anchor="start" x="75.5" y="-262.5" font-family="Helvetica,sans-Serif" font-size="10.00">+ connect()</text>
<text text-anchor="start" x="75.5" y="-251.5" font-family="Helvetica,sans-Serif" font-size="10.00">+ connect()</text>
<text text-anchor="start" x="75.5" y="-240.5" font-family="Helvetica,sans-Serif" font-size="10.00">+ emit()</text>
</a>
</g>
</g>
<!-- Node3&#45;&gt;Node4 -->
<g id="edge4" class="edge">
<title>Node3&#45;&gt;Node4</title>
<path fill="none" stroke="#8b1a1a" d="M79.06,-522.12C81.33,-486.06 86.1,-436 96,-393 99.61,-377.33 104.9,-360.76 110.36,-345.63"/>
<polygon fill="none" stroke="#8b1a1a" points="75.55,-522.18 78.45,-532.36 82.53,-522.59 75.55,-522.18"/>
</g>
<!-- Node5 -->
<g id="node5" class="node">
<title>Node5</title>
<g id="a_node5"><a xlink:href="class_e_b_cpp_1_1_e_b_event.html" target="_top" xlink:title="This objects handles an event.">
<polygon fill="none" stroke="black" points="105,-393.5 105,-494.5 233,-494.5 233,-393.5 105,-393.5"/>
<text text-anchor="middle" x="169" y="-482.5" font-family="Helvetica,sans-Serif" font-size="10.00">EBCpp::EBEvent&lt; args &gt;</text>
<polyline fill="none" stroke="black" points="105,-475.5 233,-475.5 "/>
<text text-anchor="middle" x="169" y="-463.5" font-family="Helvetica,sans-Serif" font-size="10.00"> </text>
<polyline fill="none" stroke="black" points="105,-456.5 233,-456.5 "/>
<text text-anchor="start" x="113" y="-444.5" font-family="Helvetica,sans-Serif" font-size="10.00">+ EBEvent()</text>
<text text-anchor="start" x="113" y="-433.5" font-family="Helvetica,sans-Serif" font-size="10.00">+ ~EBEvent()</text>
<text text-anchor="start" x="113" y="-422.5" font-family="Helvetica,sans-Serif" font-size="10.00">+ connect()</text>
<text text-anchor="start" x="113" y="-411.5" font-family="Helvetica,sans-Serif" font-size="10.00">+ connect()</text>
<text text-anchor="start" x="113" y="-400.5" font-family="Helvetica,sans-Serif" font-size="10.00">+ emit()</text>
</a>
</g>
</g>
<!-- Node3&#45;&gt;Node5 -->
<g id="edge6" class="edge">
<title>Node3&#45;&gt;Node5</title>
<path fill="none" stroke="#8b1a1a" d="M111.37,-523.92C118.35,-514.36 125.72,-504.28 132.76,-494.63"/>
<polygon fill="none" stroke="#8b1a1a" points="108.42,-522.03 105.35,-532.17 114.08,-526.16 108.42,-522.03"/>
</g>
<!-- Node4&#45;&gt;Node2 -->
<g id="edge3" class="edge">
<title>Node4&#45;&gt;Node2</title>
<path fill="none" stroke="#404040" d="M102.62,-233.39C95.87,-221.15 88.76,-208.25 82.16,-196.27"/>
<polygon fill="none" stroke="#404040" points="82.05,-196.07 75.65,-192.74 76.25,-185.56 82.65,-188.88 82.05,-196.07"/>
<text text-anchor="middle" x="130" y="-207" font-family="Helvetica,sans-Serif" font-size="10.00"> +newConnection</text>
</g>
<!-- Node5&#45;&gt;Node4 -->
<g id="edge5" class="edge">
<title>Node5&#45;&gt;Node4</title>
<path fill="none" stroke="orange" d="M154.98,-383.61C152.02,-371.09 148.92,-357.92 146,-345.57"/>
<polygon fill="orange" stroke="orange" points="151.61,-384.56 157.31,-393.49 158.42,-382.95 151.61,-384.56"/>
<text text-anchor="middle" x="214.5" y="-367" font-family="Helvetica,sans-Serif" font-size="10.00"> &lt; EBCpp::EBTcpSocket * &gt;</text>
</g>
</g>
</svg>
