<?xml version="1.0" encoding="UTF-8" standalone="no"?>
<!DOCTYPE svg PUBLIC "-//W3C//DTD SVG 1.1//EN"
 "http://www.w3.org/Graphics/SVG/1.1/DTD/svg11.dtd">
<!-- Generated by graphviz version 2.46.0 (20210118.1747)
 -->
<!-- Title: EBCpp::EBHttpRequest Pages: 1 -->
<svg width="209pt" height="398pt"
 viewBox="0.00 0.00 208.50 398.00" xmlns="http://www.w3.org/2000/svg" xmlns:xlink="http://www.w3.org/1999/xlink">
<g id="graph0" class="graph" transform="scale(1 1) rotate(0) translate(4 394)">
<title>EBCpp::EBHttpRequest</title>
<!-- Node1 -->
<g id="node1" class="node">
<title>Node1</title>
<g id="a_node1"><a xlink:title="Handles a http request.">
<polygon fill="#bfbfbf" stroke="black" points="0,-0.5 0,-123.5 121,-123.5 121,-0.5 0,-0.5"/>
<text text-anchor="middle" x="60.5" y="-111.5" font-family="Helvetica,sans-Serif" font-size="10.00">EBCpp::EBHttpRequest</text>
<polyline fill="none" stroke="black" points="0,-104.5 121,-104.5 "/>
<text text-anchor="middle" x="60.5" y="-92.5" font-family="Helvetica,sans-Serif" font-size="10.00"> </text>
<polyline fill="none" stroke="black" points="0,-85.5 121,-85.5 "/>
<text text-anchor="start" x="8" y="-73.5" font-family="Helvetica,sans-Serif" font-size="10.00">+ EBHttpRequest()</text>
<text text-anchor="start" x="8" y="-62.5" font-family="Helvetica,sans-Serif" font-size="10.00">+ sendReply()</text>
<text text-anchor="start" x="8" y="-51.5" font-family="Helvetica,sans-Serif" font-size="10.00">+ getRequestHeader()</text>
<text text-anchor="start" x="8" y="-40.5" font-family="Helvetica,sans-Serif" font-size="10.00">+ getReplyHeader()</text>
<text text-anchor="start" x="8" y="-29.5" font-family="Helvetica,sans-Serif" font-size="10.00">+ getRequestMethod()</text>
<text text-anchor="start" x="8" y="-18.5" font-family="Helvetica,sans-Serif" font-size="10.00">+ getPath()</text>
<text text-anchor="start" x="8" y="-7.5" font-family="Helvetica,sans-Serif" font-size="10.00">+ setResponseCode()</text>
</a>
</g>
</g>
<!-- Node2 -->
<g id="node2" class="node">
<title>Node2</title>
<g id="a_node2"><a xlink:href="class_e_b_cpp_1_1_e_b_object.html" target="_top" xlink:title="The core object. Every object from EBCpp must inherit this.">
<polygon fill="none" stroke="black" points="9,-310.5 9,-389.5 104,-389.5 104,-310.5 9,-310.5"/>
<text text-anchor="middle" x="56.5" y="-377.5" font-family="Helvetica,sans-Serif" font-size="10.00">EBCpp::EBObject</text>
<polyline fill="none" stroke="black" points="9,-370.5 104,-370.5 "/>
<text text-anchor="middle" x="56.5" y="-358.5" font-family="Helvetica,sans-Serif" font-size="10.00"> </text>
<polyline fill="none" stroke="black" points="9,-351.5 104,-351.5 "/>
<text text-anchor="start" x="17" y="-339.5" font-family="Helvetica,sans-Serif" font-size="10.00">+ EBObject()</text>
<text text-anchor="start" x="17" y="-328.5" font-family="Helvetica,sans-Serif" font-size="10.00">+ ~EBObject()</text>
<text text-anchor="start" x="17" y="-317.5" font-family="Helvetica,sans-Serif" font-size="10.00">+ getName()</text>
</a>
</g>
</g>
<!-- Node2&#45;&gt;Node1 -->
<g id="edge1" class="edge">
<title>Node2&#45;&gt;Node1</title>
<path fill="none" stroke="midnightblue" d="M57.18,-300.13C57.87,-251.33 58.92,-176.22 59.65,-123.64"/>
<polygon fill="none" stroke="midnightblue" points="53.68,-300.38 57.04,-310.43 60.68,-300.48 53.68,-300.38"/>
</g>
<!-- Node3 -->
<g id="node3" class="node">
<title>Node3</title>
<g id="a_node3"><a xlink:href="class_e_b_cpp_1_1_e_b_event.html" target="_top" xlink:title="This objects handles an event.">
<polygon fill="none" stroke="black" points="72.5,-171.5 72.5,-272.5 200.5,-272.5 200.5,-171.5 72.5,-171.5"/>
<text text-anchor="middle" x="136.5" y="-260.5" font-family="Helvetica,sans-Serif" font-size="10.00">EBCpp::EBEvent&lt; args &gt;</text>
<polyline fill="none" stroke="black" points="72.5,-253.5 200.5,-253.5 "/>
<text text-anchor="middle" x="136.5" y="-241.5" font-family="Helvetica,sans-Serif" font-size="10.00"> </text>
<polyline fill="none" stroke="black" points="72.5,-234.5 200.5,-234.5 "/>
<text text-anchor="start" x="80.5" y="-222.5" font-family="Helvetica,sans-Serif" font-size="10.00">+ EBEvent()</text>
<text text-anchor="start" x="80.5" y="-211.5" font-family="Helvetica,sans-Serif" font-size="10.00">+ ~EBEvent()</text>
<text text-anchor="start" x="80.5" y="-200.5" font-family="Helvetica,sans-Serif" font-size="10.00">+ connect()</text>
<text text-anchor="start" x="80.5" y="-189.5" font-family="Helvetica,sans-Serif" font-size="10.00">+ connect()</text>
<text text-anchor="start" x="80.5" y="-178.5" font-family="Helvetica,sans-Serif" font-size="10.00">+ emit()</text>
</a>
</g>
</g>
<!-- Node2&#45;&gt;Node3 -->
<g id="edge3" class="edge">
<title>Node2&#45;&gt;Node3</title>
<path fill="none" stroke="#8b1a1a" d="M86.57,-301.63C92.59,-292.16 98.92,-282.18 104.99,-272.63"/>
<polygon fill="none" stroke="#8b1a1a" points="83.56,-299.85 81.16,-310.17 89.47,-303.6 83.56,-299.85"/>
</g>
<!-- Node3&#45;&gt;Node1 -->
<g id="edge2" class="edge">
<title>Node3&#45;&gt;Node1</title>
<path fill="none" stroke="#404040" d="M112.66,-171.44C107.04,-159.75 100.93,-147.06 94.95,-134.61"/>
<polygon fill="none" stroke="#404040" points="94.93,-134.58 88.73,-130.91 89.73,-123.77 95.94,-127.44 94.93,-134.58"/>
<text text-anchor="middle" x="119.5" y="-145" font-family="Helvetica,sans-Serif" font-size="10.00"> +ready</text>
</g>
</g>
</svg>
