<?xml version="1.0" encoding="UTF-8" standalone="no"?>
<!DOCTYPE svg PUBLIC "-//W3C//DTD SVG 1.1//EN"
 "http://www.w3.org/Graphics/SVG/1.1/DTD/svg11.dtd">
<!-- Generated by graphviz version 2.46.0 (20210118.1747)
 -->
<!-- Title: ExampleTcpClient Pages: 1 -->
<svg width="118pt" height="226pt"
 viewBox="0.00 0.00 118.00 226.00" xmlns="http://www.w3.org/2000/svg" xmlns:xlink="http://www.w3.org/1999/xlink">
<g id="graph0" class="graph" transform="scale(1 1) rotate(0) translate(4 222)">
<title>ExampleTcpClient</title>
<!-- Node1 -->
<g id="node1" class="node">
<title>Node1</title>
<g id="a_node1"><a xlink:title="Example to show the function of a tcp client.">
<polygon fill="#bfbfbf" stroke="black" points="0,-0.5 0,-101.5 110,-101.5 110,-0.5 0,-0.5"/>
<text text-anchor="middle" x="55" y="-89.5" font-family="Helvetica,sans-Serif" font-size="10.00">ExampleTcpClient</text>
<polyline fill="none" stroke="black" points="0,-82.5 110,-82.5 "/>
<text text-anchor="middle" x="55" y="-70.5" font-family="Helvetica,sans-Serif" font-size="10.00"> </text>
<polyline fill="none" stroke="black" points="0,-63.5 110,-63.5 "/>
<text text-anchor="start" x="8" y="-51.5" font-family="Helvetica,sans-Serif" font-size="10.00">+ ExampleTcpClient()</text>
<text text-anchor="start" x="8" y="-40.5" font-family="Helvetica,sans-Serif" font-size="10.00">+ connected()</text>
<text text-anchor="start" x="8" y="-29.5" font-family="Helvetica,sans-Serif" font-size="10.00">+ disconnected()</text>
<text text-anchor="start" x="8" y="-18.5" font-family="Helvetica,sans-Serif" font-size="10.00">+ readReady()</text>
<text text-anchor="start" x="8" y="-7.5" font-family="Helvetica,sans-Serif" font-size="10.00">+ error()</text>
</a>
</g>
</g>
<!-- Node2 -->
<g id="node2" class="node">
<title>Node2</title>
<g id="a_node2"><a xlink:href="class_e_b_cpp_1_1_e_b_object.html" target="_top" xlink:title="The core object. Every object from EBCpp must inherit this.">
<polygon fill="none" stroke="black" points="7.5,-138.5 7.5,-217.5 102.5,-217.5 102.5,-138.5 7.5,-138.5"/>
<text text-anchor="middle" x="55" y="-205.5" font-family="Helvetica,sans-Serif" font-size="10.00">EBCpp::EBObject</text>
<polyline fill="none" stroke="black" points="7.5,-198.5 102.5,-198.5 "/>
<text text-anchor="middle" x="55" y="-186.5" font-family="Helvetica,sans-Serif" font-size="10.00"> </text>
<polyline fill="none" stroke="black" points="7.5,-179.5 102.5,-179.5 "/>
<text text-anchor="start" x="15.5" y="-167.5" font-family="Helvetica,sans-Serif" font-size="10.00">+ EBObject()</text>
<text text-anchor="start" x="15.5" y="-156.5" font-family="Helvetica,sans-Serif" font-size="10.00">+ ~EBObject()</text>
<text text-anchor="start" x="15.5" y="-145.5" font-family="Helvetica,sans-Serif" font-size="10.00">+ getName()</text>
</a>
</g>
</g>
<!-- Node2&#45;&gt;Node1 -->
<g id="edge1" class="edge">
<title>Node2&#45;&gt;Node1</title>
<path fill="none" stroke="midnightblue" d="M55,-128.41C55,-119.64 55,-110.49 55,-101.69"/>
<polygon fill="none" stroke="midnightblue" points="51.5,-128.48 55,-138.48 58.5,-128.48 51.5,-128.48"/>
</g>
</g>
</svg>
