<?xml version="1.0" encoding="UTF-8" standalone="no"?>
<!DOCTYPE svg PUBLIC "-//W3C//DTD SVG 1.1//EN"
 "http://www.w3.org/Graphics/SVG/1.1/DTD/svg11.dtd">
<!-- Generated by graphviz version 2.46.0 (20210118.1747)
 -->
<!-- Title: EBCpp::EBTimer Pages: 1 -->
<svg width="106pt" height="226pt"
 viewBox="0.00 0.00 106.00 226.00" xmlns="http://www.w3.org/2000/svg" xmlns:xlink="http://www.w3.org/1999/xlink">
<g id="graph0" class="graph" transform="scale(1 1) rotate(0) translate(4 222)">
<title>EBCpp::EBTimer</title>
<!-- Node1 -->
<g id="node1" class="node">
<title>Node1</title>
<g id="a_node1"><a xlink:title="The EBTimer can provide times events.">
<polygon fill="#bfbfbf" stroke="black" points="0,-0.5 0,-101.5 98,-101.5 98,-0.5 0,-0.5"/>
<text text-anchor="middle" x="49" y="-89.5" font-family="Helvetica,sans-Serif" font-size="10.00">EBCpp::EBTimer</text>
<polyline fill="none" stroke="black" points="0,-82.5 98,-82.5 "/>
<text text-anchor="start" x="8" y="-70.5" font-family="Helvetica,sans-Serif" font-size="10.00">+ timeout</text>
<polyline fill="none" stroke="black" points="0,-63.5 98,-63.5 "/>
<text text-anchor="start" x="8" y="-51.5" font-family="Helvetica,sans-Serif" font-size="10.00">+ EBTimer()</text>
<text text-anchor="start" x="8" y="-40.5" font-family="Helvetica,sans-Serif" font-size="10.00">+ ~EBTimer()</text>
<text text-anchor="start" x="8" y="-29.5" font-family="Helvetica,sans-Serif" font-size="10.00">+ stop()</text>
<text text-anchor="start" x="8" y="-18.5" font-family="Helvetica,sans-Serif" font-size="10.00">+ startSingleShot()</text>
<text text-anchor="start" x="8" y="-7.5" font-family="Helvetica,sans-Serif" font-size="10.00">+ start()</text>
</a>
</g>
</g>
<!-- Node2 -->
<g id="node2" class="node">
<title>Node2</title>
<g id="a_node2"><a xlink:href="class_e_b_cpp_1_1_e_b_object.html" target="_top" xlink:title="The core object. Every object from EBCpp must inherit this.">
<polygon fill="none" stroke="black" points="1.5,-138.5 1.5,-217.5 96.5,-217.5 96.5,-138.5 1.5,-138.5"/>
<text text-anchor="middle" x="49" y="-205.5" font-family="Helvetica,sans-Serif" font-size="10.00">EBCpp::EBObject</text>
<polyline fill="none" stroke="black" points="1.5,-198.5 96.5,-198.5 "/>
<text text-anchor="middle" x="49" y="-186.5" font-family="Helvetica,sans-Serif" font-size="10.00"> </text>
<polyline fill="none" stroke="black" points="1.5,-179.5 96.5,-179.5 "/>
<text text-anchor="start" x="9.5" y="-167.5" font-family="Helvetica,sans-Serif" font-size="10.00">+ EBObject()</text>
<text text-anchor="start" x="9.5" y="-156.5" font-family="Helvetica,sans-Serif" font-size="10.00">+ ~EBObject()</text>
<text text-anchor="start" x="9.5" y="-145.5" font-family="Helvetica,sans-Serif" font-size="10.00">+ getName()</text>
</a>
</g>
</g>
<!-- Node2&#45;&gt;Node1 -->
<g id="edge1" class="edge">
<title>Node2&#45;&gt;Node1</title>
<path fill="none" stroke="midnightblue" d="M49,-128.41C49,-119.64 49,-110.49 49,-101.69"/>
<polygon fill="none" stroke="midnightblue" points="45.5,-128.48 49,-138.48 52.5,-128.48 45.5,-128.48"/>
</g>
</g>
</svg>
