<?xml version="1.0" encoding="UTF-8" standalone="no"?>
<!DOCTYPE svg PUBLIC "-//W3C//DTD SVG 1.1//EN"
 "http://www.w3.org/Graphics/SVG/1.1/DTD/svg11.dtd">
<!-- Generated by graphviz version 2.46.0 (20210118.1747)
 -->
<!-- Title: EBCpp::EBTcpSocket Pages: 1 -->
<svg width="493pt" height="792pt"
 viewBox="0.00 0.00 492.50 792.00" xmlns="http://www.w3.org/2000/svg" xmlns:xlink="http://www.w3.org/1999/xlink">
<g id="graph0" class="graph" transform="scale(1 1) rotate(0) translate(4 788)">
<title>EBCpp::EBTcpSocket</title>
<!-- Node1 -->
<g id="node1" class="node">
<title>Node1</title>
<g id="a_node1"><a xlink:title="Socket to handle a tcp connection.">
<polygon fill="#bfbfbf" stroke="black" points="203,-0.5 203,-200.5 316,-200.5 316,-0.5 203,-0.5"/>
<text text-anchor="middle" x="259.5" y="-188.5" font-family="Helvetica,sans-Serif" font-size="10.00">EBCpp::EBTcpSocket</text>
<polyline fill="none" stroke="black" points="203,-181.5 316,-181.5 "/>
<text text-anchor="middle" x="259.5" y="-169.5" font-family="Helvetica,sans-Serif" font-size="10.00"> </text>
<polyline fill="none" stroke="black" points="203,-162.5 316,-162.5 "/>
<text text-anchor="start" x="211" y="-150.5" font-family="Helvetica,sans-Serif" font-size="10.00">+ EBTcpSocket()</text>
<text text-anchor="start" x="211" y="-139.5" font-family="Helvetica,sans-Serif" font-size="10.00">+ EBTcpSocket()</text>
<text text-anchor="start" x="211" y="-128.5" font-family="Helvetica,sans-Serif" font-size="10.00">+ ~EBTcpSocket()</text>
<text text-anchor="start" x="211" y="-117.5" font-family="Helvetica,sans-Serif" font-size="10.00">+ open()</text>
<text text-anchor="start" x="211" y="-106.5" font-family="Helvetica,sans-Serif" font-size="10.00">+ isOpened()</text>
<text text-anchor="start" x="211" y="-95.5" font-family="Helvetica,sans-Serif" font-size="10.00">+ close()</text>
<text text-anchor="start" x="211" y="-84.5" font-family="Helvetica,sans-Serif" font-size="10.00">+ write()</text>
<text text-anchor="start" x="211" y="-73.5" font-family="Helvetica,sans-Serif" font-size="10.00">+ write()</text>
<text text-anchor="start" x="211" y="-62.5" font-family="Helvetica,sans-Serif" font-size="10.00">+ read()</text>
<text text-anchor="start" x="211" y="-51.5" font-family="Helvetica,sans-Serif" font-size="10.00">+ canReadLine()</text>
<text text-anchor="start" x="211" y="-40.5" font-family="Helvetica,sans-Serif" font-size="10.00">+ readLine()</text>
<text text-anchor="start" x="211" y="-29.5" font-family="Helvetica,sans-Serif" font-size="10.00"># startThread()</text>
<text text-anchor="start" x="211" y="-18.5" font-family="Helvetica,sans-Serif" font-size="10.00"># connect()</text>
<text text-anchor="start" x="211" y="-7.5" font-family="Helvetica,sans-Serif" font-size="10.00"># receiveData()</text>
</a>
</g>
</g>
<!-- Node2 -->
<g id="node2" class="node">
<title>Node2</title>
<g id="a_node2"><a xlink:href="class_e_b_cpp_1_1_e_b_i_o_device.html" target="_top" xlink:title="Interface description of an input/output device.">
<polygon fill="none" stroke="black" points="0,-379.5 0,-546.5 105,-546.5 105,-379.5 0,-379.5"/>
<text text-anchor="middle" x="52.5" y="-534.5" font-family="Helvetica,sans-Serif" font-size="10.00">EBCpp::EBIODevice</text>
<polyline fill="none" stroke="black" points="0,-527.5 105,-527.5 "/>
<text text-anchor="middle" x="52.5" y="-515.5" font-family="Helvetica,sans-Serif" font-size="10.00"> </text>
<polyline fill="none" stroke="black" points="0,-508.5 105,-508.5 "/>
<text text-anchor="start" x="8" y="-496.5" font-family="Helvetica,sans-Serif" font-size="10.00">+ EBIODevice()</text>
<text text-anchor="start" x="8" y="-485.5" font-family="Helvetica,sans-Serif" font-size="10.00">+ open()</text>
<text text-anchor="start" x="8" y="-474.5" font-family="Helvetica,sans-Serif" font-size="10.00">+ isOpened()</text>
<text text-anchor="start" x="8" y="-463.5" font-family="Helvetica,sans-Serif" font-size="10.00">+ close()</text>
<text text-anchor="start" x="8" y="-452.5" font-family="Helvetica,sans-Serif" font-size="10.00">+ write()</text>
<text text-anchor="start" x="8" y="-441.5" font-family="Helvetica,sans-Serif" font-size="10.00">+ write()</text>
<text text-anchor="start" x="8" y="-430.5" font-family="Helvetica,sans-Serif" font-size="10.00">+ read()</text>
<text text-anchor="start" x="8" y="-419.5" font-family="Helvetica,sans-Serif" font-size="10.00">+ canReadLine()</text>
<text text-anchor="start" x="8" y="-408.5" font-family="Helvetica,sans-Serif" font-size="10.00">+ readLine()</text>
<text text-anchor="start" x="8" y="-397.5" font-family="Helvetica,sans-Serif" font-size="10.00">+ setFileName()</text>
<text text-anchor="start" x="8" y="-386.5" font-family="Helvetica,sans-Serif" font-size="10.00">+ getFileName()</text>
</a>
</g>
</g>
<!-- Node2&#45;&gt;Node1 -->
<g id="edge1" class="edge">
<title>Node2&#45;&gt;Node1</title>
<path fill="none" stroke="midnightblue" d="M57.04,-369.09C63.19,-320.91 76.81,-263.1 106.5,-219 130.91,-182.74 170.19,-152.92 202.84,-132.39"/>
<polygon fill="none" stroke="midnightblue" points="53.54,-368.87 55.84,-379.22 60.5,-369.7 53.54,-368.87"/>
</g>
<!-- Node3 -->
<g id="node3" class="node">
<title>Node3</title>
<g id="a_node3"><a xlink:href="class_e_b_cpp_1_1_e_b_object.html" target="_top" xlink:title="The core object. Every object from EBCpp must inherit this.">
<polygon fill="none" stroke="black" points="114,-704.5 114,-783.5 209,-783.5 209,-704.5 114,-704.5"/>
<text text-anchor="middle" x="161.5" y="-771.5" font-family="Helvetica,sans-Serif" font-size="10.00">EBCpp::EBObject</text>
<polyline fill="none" stroke="black" points="114,-764.5 209,-764.5 "/>
<text text-anchor="middle" x="161.5" y="-752.5" font-family="Helvetica,sans-Serif" font-size="10.00"> </text>
<polyline fill="none" stroke="black" points="114,-745.5 209,-745.5 "/>
<text text-anchor="start" x="122" y="-733.5" font-family="Helvetica,sans-Serif" font-size="10.00">+ EBObject()</text>
<text text-anchor="start" x="122" y="-722.5" font-family="Helvetica,sans-Serif" font-size="10.00">+ ~EBObject()</text>
<text text-anchor="start" x="122" y="-711.5" font-family="Helvetica,sans-Serif" font-size="10.00">+ getName()</text>
</a>
</g>
</g>
<!-- Node3&#45;&gt;Node2 -->
<g id="edge2" class="edge">
<title>Node3&#45;&gt;Node2</title>
<path fill="none" stroke="midnightblue" d="M109.17,-696.85C101.21,-687.67 93.88,-677.57 88.5,-667 69.68,-629.99 60.53,-584.84 56.14,-546.53"/>
<polygon fill="none" stroke="midnightblue" points="106.66,-699.28 115.97,-704.33 111.84,-694.58 106.66,-699.28"/>
</g>
<!-- Node5 -->
<g id="node5" class="node">
<title>Node5</title>
<g id="a_node5"><a xlink:href="class_e_b_cpp_1_1_e_b_event.html" target="_top" xlink:title="This objects handles an event.">
<polygon fill="none" stroke="black" points="97.5,-565.5 97.5,-666.5 225.5,-666.5 225.5,-565.5 97.5,-565.5"/>
<text text-anchor="middle" x="161.5" y="-654.5" font-family="Helvetica,sans-Serif" font-size="10.00">EBCpp::EBEvent&lt; args &gt;</text>
<polyline fill="none" stroke="black" points="97.5,-647.5 225.5,-647.5 "/>
<text text-anchor="middle" x="161.5" y="-635.5" font-family="Helvetica,sans-Serif" font-size="10.00"> </text>
<polyline fill="none" stroke="black" points="97.5,-628.5 225.5,-628.5 "/>
<text text-anchor="start" x="105.5" y="-616.5" font-family="Helvetica,sans-Serif" font-size="10.00">+ EBEvent()</text>
<text text-anchor="start" x="105.5" y="-605.5" font-family="Helvetica,sans-Serif" font-size="10.00">+ ~EBEvent()</text>
<text text-anchor="start" x="105.5" y="-594.5" font-family="Helvetica,sans-Serif" font-size="10.00">+ connect()</text>
<text text-anchor="start" x="105.5" y="-583.5" font-family="Helvetica,sans-Serif" font-size="10.00">+ connect()</text>
<text text-anchor="start" x="105.5" y="-572.5" font-family="Helvetica,sans-Serif" font-size="10.00">+ emit()</text>
</a>
</g>
</g>
<!-- Node3&#45;&gt;Node5 -->
<g id="edge5" class="edge">
<title>Node3&#45;&gt;Node5</title>
<path fill="none" stroke="#8b1a1a" d="M161.5,-693.89C161.5,-684.94 161.5,-675.6 161.5,-666.63"/>
<polygon fill="none" stroke="#8b1a1a" points="158,-694.17 161.5,-704.17 165,-694.17 158,-694.17"/>
</g>
<!-- Node6 -->
<g id="node6" class="node">
<title>Node6</title>
<g id="a_node6"><a xlink:href="class_e_b_cpp_1_1_e_b_event.html" target="_top" xlink:title=" ">
<polygon fill="none" stroke="black" points="203,-248.5 203,-360.5 316,-360.5 316,-248.5 203,-248.5"/>
<text text-anchor="start" x="211" y="-348.5" font-family="Helvetica,sans-Serif" font-size="10.00">EBCpp::EBEvent&lt; std</text>
<text text-anchor="middle" x="259.5" y="-337.5" font-family="Helvetica,sans-Serif" font-size="10.00">::string &gt;</text>
<polyline fill="none" stroke="black" points="203,-330.5 316,-330.5 "/>
<text text-anchor="middle" x="259.5" y="-318.5" font-family="Helvetica,sans-Serif" font-size="10.00"> </text>
<polyline fill="none" stroke="black" points="203,-311.5 316,-311.5 "/>
<text text-anchor="start" x="211" y="-299.5" font-family="Helvetica,sans-Serif" font-size="10.00">+ EBEvent()</text>
<text text-anchor="start" x="211" y="-288.5" font-family="Helvetica,sans-Serif" font-size="10.00">+ ~EBEvent()</text>
<text text-anchor="start" x="211" y="-277.5" font-family="Helvetica,sans-Serif" font-size="10.00">+ connect()</text>
<text text-anchor="start" x="211" y="-266.5" font-family="Helvetica,sans-Serif" font-size="10.00">+ connect()</text>
<text text-anchor="start" x="211" y="-255.5" font-family="Helvetica,sans-Serif" font-size="10.00">+ emit()</text>
</a>
</g>
</g>
<!-- Node3&#45;&gt;Node6 -->
<g id="edge7" class="edge">
<title>Node3&#45;&gt;Node6</title>
<path fill="none" stroke="#8b1a1a" d="M215.3,-696.69C222.95,-687.62 229.8,-677.61 234.5,-667 279.17,-566.2 274.4,-434 266.94,-360.63"/>
<polygon fill="none" stroke="#8b1a1a" points="212.46,-694.62 208.4,-704.41 217.68,-699.28 212.46,-694.62"/>
</g>
<!-- Node4 -->
<g id="node4" class="node">
<title>Node4</title>
<g id="a_node4"><a xlink:title=" ">
<polygon fill="none" stroke="#bfbfbf" points="334.5,-276 334.5,-333 420.5,-333 420.5,-276 334.5,-276"/>
<text text-anchor="middle" x="377.5" y="-321" font-family="Helvetica,sans-Serif" font-size="10.00">SOCKADDR_IN</text>
<polyline fill="none" stroke="#bfbfbf" points="334.5,-314 420.5,-314 "/>
<text text-anchor="middle" x="377.5" y="-302" font-family="Helvetica,sans-Serif" font-size="10.00"> </text>
<polyline fill="none" stroke="#bfbfbf" points="334.5,-295 420.5,-295 "/>
<text text-anchor="middle" x="377.5" y="-283" font-family="Helvetica,sans-Serif" font-size="10.00"> </text>
</a>
</g>
</g>
<!-- Node4&#45;&gt;Node1 -->
<g id="edge3" class="edge">
<title>Node4&#45;&gt;Node1</title>
<path fill="none" stroke="#404040" d="M361.34,-275.84C351.01,-258.16 336.88,-233.97 322.44,-209.24"/>
<polygon fill="none" stroke="#404040" points="322.29,-208.99 315.81,-205.83 316.24,-198.63 322.72,-201.8 322.29,-208.99"/>
<text text-anchor="middle" x="354" y="-222" font-family="Helvetica,sans-Serif" font-size="10.00"> #address</text>
</g>
<!-- Node5&#45;&gt;Node1 -->
<g id="edge4" class="edge">
<title>Node5&#45;&gt;Node1</title>
<path fill="none" stroke="#404040" d="M143.81,-565.32C120.97,-492.96 88.69,-355.48 129.5,-248 142.78,-213.02 168.66,-181.05 193.85,-155.96"/>
<polygon fill="none" stroke="#404040" points="194.1,-155.73 195.62,-148.68 202.72,-147.38 201.19,-154.43 194.1,-155.73"/>
<text text-anchor="middle" x="161.5" y="-313" font-family="Helvetica,sans-Serif" font-size="10.00"> +connected</text>
<text text-anchor="middle" x="161.5" y="-302" font-family="Helvetica,sans-Serif" font-size="10.00">+disconnected</text>
<text text-anchor="middle" x="161.5" y="-291" font-family="Helvetica,sans-Serif" font-size="10.00">+readReady</text>
</g>
<!-- Node5&#45;&gt;Node6 -->
<g id="edge8" class="edge">
<title>Node5&#45;&gt;Node6</title>
<path fill="none" stroke="orange" d="M153.52,-554.98C149.65,-505.28 150.61,-434.13 177.5,-379 183.53,-366.63 192.66,-355.4 202.66,-345.66"/>
<polygon fill="orange" stroke="orange" points="150.06,-555.58 154.41,-565.24 157.03,-554.98 150.06,-555.58"/>
<text text-anchor="middle" x="210" y="-460.5" font-family="Helvetica,sans-Serif" font-size="10.00"> &lt; std::string &gt;</text>
</g>
<!-- Node6&#45;&gt;Node1 -->
<g id="edge6" class="edge">
<title>Node6&#45;&gt;Node1</title>
<path fill="none" stroke="#404040" d="M259.5,-248.3C259.5,-237.18 259.5,-225.11 259.5,-212.84"/>
<polygon fill="none" stroke="#404040" points="259.5,-212.52 255.5,-206.52 259.5,-200.52 263.5,-206.52 259.5,-212.52"/>
<text text-anchor="middle" x="274" y="-222" font-family="Helvetica,sans-Serif" font-size="10.00"> +error</text>
</g>
<!-- Node7 -->
<g id="node7" class="node">
<title>Node7</title>
<g id="a_node7"><a xlink:title=" ">
<polygon fill="none" stroke="#bfbfbf" points="438.5,-276 438.5,-333 484.5,-333 484.5,-276 438.5,-276"/>
<text text-anchor="middle" x="461.5" y="-321" font-family="Helvetica,sans-Serif" font-size="10.00">int32_t</text>
<polyline fill="none" stroke="#bfbfbf" points="438.5,-314 484.5,-314 "/>
<text text-anchor="middle" x="461.5" y="-302" font-family="Helvetica,sans-Serif" font-size="10.00"> </text>
<polyline fill="none" stroke="#bfbfbf" points="438.5,-295 484.5,-295 "/>
<text text-anchor="middle" x="461.5" y="-283" font-family="Helvetica,sans-Serif" font-size="10.00"> </text>
</a>
</g>
</g>
<!-- Node7&#45;&gt;Node1 -->
<g id="edge9" class="edge">
<title>Node7&#45;&gt;Node1</title>
<path fill="none" stroke="#404040" d="M447.92,-275.77C442.77,-266.5 436.45,-256.4 429.5,-248 399.32,-211.53 359.49,-176.67 325.97,-150.12"/>
<polygon fill="none" stroke="#404040" points="325.7,-149.9 318.51,-149.35 316.25,-142.5 323.44,-143.05 325.7,-149.9"/>
<text text-anchor="middle" x="435.5" y="-222" font-family="Helvetica,sans-Serif" font-size="10.00"> #socketId</text>
</g>
</g>
</svg>
