<?xml version="1.0" encoding="UTF-8" standalone="no"?>
<!DOCTYPE svg PUBLIC "-//W3C//DTD SVG 1.1//EN"
 "http://www.w3.org/Graphics/SVG/1.1/DTD/svg11.dtd">
<!-- Generated by graphviz version 2.46.0 (20210118.1747)
 -->
<!-- Title: EBCpp::EBTcpSocket Pages: 1 -->
<svg width="493pt" height="759pt"
 viewBox="0.00 0.00 492.50 759.00" xmlns="http://www.w3.org/2000/svg" xmlns:xlink="http://www.w3.org/1999/xlink">
<g id="graph0" class="graph" transform="scale(1 1) rotate(0) translate(4 755)">
<title>EBCpp::EBTcpSocket</title>
<!-- Node1 -->
<g id="node1" class="node">
<title>Node1</title>
<g id="a_node1"><a xlink:title="Socket to handle a tcp connection.">
<polygon fill="#bfbfbf" stroke="black" points="203,-0.5 203,-167.5 316,-167.5 316,-0.5 203,-0.5"/>
<text text-anchor="middle" x="259.5" y="-155.5" font-family="Helvetica,sans-Serif" font-size="10.00">EBCpp::EBTcpSocket</text>
<polyline fill="none" stroke="black" points="203,-148.5 316,-148.5 "/>
<text text-anchor="middle" x="259.5" y="-136.5" font-family="Helvetica,sans-Serif" font-size="10.00"> </text>
<polyline fill="none" stroke="black" points="203,-129.5 316,-129.5 "/>
<text text-anchor="start" x="211" y="-117.5" font-family="Helvetica,sans-Serif" font-size="10.00">+ EBTcpSocket()</text>
<text text-anchor="start" x="211" y="-106.5" font-family="Helvetica,sans-Serif" font-size="10.00">+ ~EBTcpSocket()</text>
<text text-anchor="start" x="211" y="-95.5" font-family="Helvetica,sans-Serif" font-size="10.00">+ open()</text>
<text text-anchor="start" x="211" y="-84.5" font-family="Helvetica,sans-Serif" font-size="10.00">+ isOpened()</text>
<text text-anchor="start" x="211" y="-73.5" font-family="Helvetica,sans-Serif" font-size="10.00">+ close()</text>
<text text-anchor="start" x="211" y="-62.5" font-family="Helvetica,sans-Serif" font-size="10.00">+ write()</text>
<text text-anchor="start" x="211" y="-51.5" font-family="Helvetica,sans-Serif" font-size="10.00">+ write()</text>
<text text-anchor="start" x="211" y="-40.5" font-family="Helvetica,sans-Serif" font-size="10.00">+ read()</text>
<text text-anchor="start" x="211" y="-29.5" font-family="Helvetica,sans-Serif" font-size="10.00">+ canReadLine()</text>
<text text-anchor="start" x="211" y="-18.5" font-family="Helvetica,sans-Serif" font-size="10.00">+ readLine()</text>
<text text-anchor="start" x="211" y="-7.5" font-family="Helvetica,sans-Serif" font-size="10.00"># startThread()</text>
</a>
</g>
</g>
<!-- Node2 -->
<g id="node2" class="node">
<title>Node2</title>
<g id="a_node2"><a xlink:href="class_e_b_cpp_1_1_e_b_i_o_device.html" target="_top" xlink:title="Interface description of an input/output device.">
<polygon fill="none" stroke="black" points="0,-346.5 0,-513.5 105,-513.5 105,-346.5 0,-346.5"/>
<text text-anchor="middle" x="52.5" y="-501.5" font-family="Helvetica,sans-Serif" font-size="10.00">EBCpp::EBIODevice</text>
<polyline fill="none" stroke="black" points="0,-494.5 105,-494.5 "/>
<text text-anchor="middle" x="52.5" y="-482.5" font-family="Helvetica,sans-Serif" font-size="10.00"> </text>
<polyline fill="none" stroke="black" points="0,-475.5 105,-475.5 "/>
<text text-anchor="start" x="8" y="-463.5" font-family="Helvetica,sans-Serif" font-size="10.00">+ EBIODevice()</text>
<text text-anchor="start" x="8" y="-452.5" font-family="Helvetica,sans-Serif" font-size="10.00">+ open()</text>
<text text-anchor="start" x="8" y="-441.5" font-family="Helvetica,sans-Serif" font-size="10.00">+ isOpened()</text>
<text text-anchor="start" x="8" y="-430.5" font-family="Helvetica,sans-Serif" font-size="10.00">+ close()</text>
<text text-anchor="start" x="8" y="-419.5" font-family="Helvetica,sans-Serif" font-size="10.00">+ write()</text>
<text text-anchor="start" x="8" y="-408.5" font-family="Helvetica,sans-Serif" font-size="10.00">+ write()</text>
<text text-anchor="start" x="8" y="-397.5" font-family="Helvetica,sans-Serif" font-size="10.00">+ read()</text>
<text text-anchor="start" x="8" y="-386.5" font-family="Helvetica,sans-Serif" font-size="10.00">+ canReadLine()</text>
<text text-anchor="start" x="8" y="-375.5" font-family="Helvetica,sans-Serif" font-size="10.00">+ readLine()</text>
<text text-anchor="start" x="8" y="-364.5" font-family="Helvetica,sans-Serif" font-size="10.00">+ setFileName()</text>
<text text-anchor="start" x="8" y="-353.5" font-family="Helvetica,sans-Serif" font-size="10.00">+ getFileName()</text>
</a>
</g>
</g>
<!-- Node2&#45;&gt;Node1 -->
<g id="edge1" class="edge">
<title>Node2&#45;&gt;Node1</title>
<path fill="none" stroke="midnightblue" d="M55.69,-336.04C61.42,-287.44 75.08,-229.25 106.5,-186 130.91,-152.4 170.19,-126.81 202.84,-109.79"/>
<polygon fill="none" stroke="midnightblue" points="52.18,-335.93 54.58,-346.25 59.14,-336.69 52.18,-335.93"/>
</g>
<!-- Node3 -->
<g id="node3" class="node">
<title>Node3</title>
<g id="a_node3"><a xlink:href="class_e_b_cpp_1_1_e_b_object.html" target="_top" xlink:title="The core object. Every object from EBCpp must inherit this.">
<polygon fill="none" stroke="black" points="114,-671.5 114,-750.5 209,-750.5 209,-671.5 114,-671.5"/>
<text text-anchor="middle" x="161.5" y="-738.5" font-family="Helvetica,sans-Serif" font-size="10.00">EBCpp::EBObject</text>
<polyline fill="none" stroke="black" points="114,-731.5 209,-731.5 "/>
<text text-anchor="middle" x="161.5" y="-719.5" font-family="Helvetica,sans-Serif" font-size="10.00"> </text>
<polyline fill="none" stroke="black" points="114,-712.5 209,-712.5 "/>
<text text-anchor="start" x="122" y="-700.5" font-family="Helvetica,sans-Serif" font-size="10.00">+ EBObject()</text>
<text text-anchor="start" x="122" y="-689.5" font-family="Helvetica,sans-Serif" font-size="10.00">+ ~EBObject()</text>
<text text-anchor="start" x="122" y="-678.5" font-family="Helvetica,sans-Serif" font-size="10.00">+ getName()</text>
</a>
</g>
</g>
<!-- Node3&#45;&gt;Node2 -->
<g id="edge2" class="edge">
<title>Node3&#45;&gt;Node2</title>
<path fill="none" stroke="midnightblue" d="M109.17,-663.85C101.21,-654.67 93.88,-644.57 88.5,-634 69.68,-596.99 60.53,-551.84 56.14,-513.53"/>
<polygon fill="none" stroke="midnightblue" points="106.66,-666.28 115.97,-671.33 111.84,-661.58 106.66,-666.28"/>
</g>
<!-- Node5 -->
<g id="node5" class="node">
<title>Node5</title>
<g id="a_node5"><a xlink:href="class_e_b_cpp_1_1_e_b_event.html" target="_top" xlink:title="This objects handles an event.">
<polygon fill="none" stroke="black" points="97.5,-532.5 97.5,-633.5 225.5,-633.5 225.5,-532.5 97.5,-532.5"/>
<text text-anchor="middle" x="161.5" y="-621.5" font-family="Helvetica,sans-Serif" font-size="10.00">EBCpp::EBEvent&lt; args &gt;</text>
<polyline fill="none" stroke="black" points="97.5,-614.5 225.5,-614.5 "/>
<text text-anchor="middle" x="161.5" y="-602.5" font-family="Helvetica,sans-Serif" font-size="10.00"> </text>
<polyline fill="none" stroke="black" points="97.5,-595.5 225.5,-595.5 "/>
<text text-anchor="start" x="105.5" y="-583.5" font-family="Helvetica,sans-Serif" font-size="10.00">+ EBEvent()</text>
<text text-anchor="start" x="105.5" y="-572.5" font-family="Helvetica,sans-Serif" font-size="10.00">+ ~EBEvent()</text>
<text text-anchor="start" x="105.5" y="-561.5" font-family="Helvetica,sans-Serif" font-size="10.00">+ connect()</text>
<text text-anchor="start" x="105.5" y="-550.5" font-family="Helvetica,sans-Serif" font-size="10.00">+ connect()</text>
<text text-anchor="start" x="105.5" y="-539.5" font-family="Helvetica,sans-Serif" font-size="10.00">+ emit()</text>
</a>
</g>
</g>
<!-- Node3&#45;&gt;Node5 -->
<g id="edge5" class="edge">
<title>Node3&#45;&gt;Node5</title>
<path fill="none" stroke="#8b1a1a" d="M161.5,-660.89C161.5,-651.94 161.5,-642.6 161.5,-633.63"/>
<polygon fill="none" stroke="#8b1a1a" points="158,-661.17 161.5,-671.17 165,-661.17 158,-661.17"/>
</g>
<!-- Node6 -->
<g id="node6" class="node">
<title>Node6</title>
<g id="a_node6"><a xlink:href="class_e_b_cpp_1_1_e_b_event.html" target="_top" xlink:title=" ">
<polygon fill="none" stroke="black" points="203,-215.5 203,-327.5 316,-327.5 316,-215.5 203,-215.5"/>
<text text-anchor="start" x="211" y="-315.5" font-family="Helvetica,sans-Serif" font-size="10.00">EBCpp::EBEvent&lt; std</text>
<text text-anchor="middle" x="259.5" y="-304.5" font-family="Helvetica,sans-Serif" font-size="10.00">::string &gt;</text>
<polyline fill="none" stroke="black" points="203,-297.5 316,-297.5 "/>
<text text-anchor="middle" x="259.5" y="-285.5" font-family="Helvetica,sans-Serif" font-size="10.00"> </text>
<polyline fill="none" stroke="black" points="203,-278.5 316,-278.5 "/>
<text text-anchor="start" x="211" y="-266.5" font-family="Helvetica,sans-Serif" font-size="10.00">+ EBEvent()</text>
<text text-anchor="start" x="211" y="-255.5" font-family="Helvetica,sans-Serif" font-size="10.00">+ ~EBEvent()</text>
<text text-anchor="start" x="211" y="-244.5" font-family="Helvetica,sans-Serif" font-size="10.00">+ connect()</text>
<text text-anchor="start" x="211" y="-233.5" font-family="Helvetica,sans-Serif" font-size="10.00">+ connect()</text>
<text text-anchor="start" x="211" y="-222.5" font-family="Helvetica,sans-Serif" font-size="10.00">+ emit()</text>
</a>
</g>
</g>
<!-- Node3&#45;&gt;Node6 -->
<g id="edge7" class="edge">
<title>Node3&#45;&gt;Node6</title>
<path fill="none" stroke="#8b1a1a" d="M215.3,-663.69C222.95,-654.62 229.8,-644.61 234.5,-634 279.17,-533.2 274.4,-401 266.94,-327.63"/>
<polygon fill="none" stroke="#8b1a1a" points="212.46,-661.62 208.4,-671.41 217.68,-666.28 212.46,-661.62"/>
</g>
<!-- Node4 -->
<g id="node4" class="node">
<title>Node4</title>
<g id="a_node4"><a xlink:title=" ">
<polygon fill="none" stroke="#bfbfbf" points="334.5,-243 334.5,-300 420.5,-300 420.5,-243 334.5,-243"/>
<text text-anchor="middle" x="377.5" y="-288" font-family="Helvetica,sans-Serif" font-size="10.00">SOCKADDR_IN</text>
<polyline fill="none" stroke="#bfbfbf" points="334.5,-281 420.5,-281 "/>
<text text-anchor="middle" x="377.5" y="-269" font-family="Helvetica,sans-Serif" font-size="10.00"> </text>
<polyline fill="none" stroke="#bfbfbf" points="334.5,-262 420.5,-262 "/>
<text text-anchor="middle" x="377.5" y="-250" font-family="Helvetica,sans-Serif" font-size="10.00"> </text>
</a>
</g>
</g>
<!-- Node4&#45;&gt;Node1 -->
<g id="edge3" class="edge">
<title>Node4&#45;&gt;Node1</title>
<path fill="none" stroke="#404040" d="M359.83,-242.73C348.7,-225.22 333.61,-201.5 318.52,-177.78"/>
<polygon fill="none" stroke="#404040" points="318.5,-177.75 311.91,-174.84 312.06,-167.63 318.66,-170.54 318.5,-177.75"/>
<text text-anchor="middle" x="350" y="-189" font-family="Helvetica,sans-Serif" font-size="10.00"> #address</text>
</g>
<!-- Node5&#45;&gt;Node1 -->
<g id="edge4" class="edge">
<title>Node5&#45;&gt;Node1</title>
<path fill="none" stroke="#404040" d="M143.07,-532.29C119.16,-459.59 85.44,-321.36 129.5,-215 142.88,-182.7 168.61,-154.23 193.68,-132.24"/>
<polygon fill="none" stroke="#404040" points="193.72,-132.21 195.7,-125.28 202.86,-124.44 200.88,-131.37 193.72,-132.21"/>
<text text-anchor="middle" x="161.5" y="-280" font-family="Helvetica,sans-Serif" font-size="10.00"> +connected</text>
<text text-anchor="middle" x="161.5" y="-269" font-family="Helvetica,sans-Serif" font-size="10.00">+disconnected</text>
<text text-anchor="middle" x="161.5" y="-258" font-family="Helvetica,sans-Serif" font-size="10.00">+readReady</text>
</g>
<!-- Node5&#45;&gt;Node6 -->
<g id="edge8" class="edge">
<title>Node5&#45;&gt;Node6</title>
<path fill="none" stroke="orange" d="M153.52,-521.98C149.65,-472.28 150.61,-401.13 177.5,-346 183.53,-333.63 192.66,-322.4 202.66,-312.66"/>
<polygon fill="orange" stroke="orange" points="150.06,-522.58 154.41,-532.24 157.03,-521.98 150.06,-522.58"/>
<text text-anchor="middle" x="210" y="-427.5" font-family="Helvetica,sans-Serif" font-size="10.00"> &lt; std::string &gt;</text>
</g>
<!-- Node6&#45;&gt;Node1 -->
<g id="edge6" class="edge">
<title>Node6&#45;&gt;Node1</title>
<path fill="none" stroke="#404040" d="M259.5,-215.35C259.5,-204.13 259.5,-192.04 259.5,-179.89"/>
<polygon fill="none" stroke="#404040" points="259.5,-179.76 255.5,-173.76 259.5,-167.76 263.5,-173.76 259.5,-179.76"/>
<text text-anchor="middle" x="274" y="-189" font-family="Helvetica,sans-Serif" font-size="10.00"> +error</text>
</g>
<!-- Node7 -->
<g id="node7" class="node">
<title>Node7</title>
<g id="a_node7"><a xlink:title=" ">
<polygon fill="none" stroke="#bfbfbf" points="438.5,-243 438.5,-300 484.5,-300 484.5,-243 438.5,-243"/>
<text text-anchor="middle" x="461.5" y="-288" font-family="Helvetica,sans-Serif" font-size="10.00">int32_t</text>
<polyline fill="none" stroke="#bfbfbf" points="438.5,-281 484.5,-281 "/>
<text text-anchor="middle" x="461.5" y="-269" font-family="Helvetica,sans-Serif" font-size="10.00"> </text>
<polyline fill="none" stroke="#bfbfbf" points="438.5,-262 484.5,-262 "/>
<text text-anchor="middle" x="461.5" y="-250" font-family="Helvetica,sans-Serif" font-size="10.00"> </text>
</a>
</g>
</g>
<!-- Node7&#45;&gt;Node1 -->
<g id="edge9" class="edge">
<title>Node7&#45;&gt;Node1</title>
<path fill="none" stroke="#404040" d="M448.35,-242.82C443.2,-233.45 436.76,-223.27 429.5,-215 399.73,-181.09 359.95,-150.1 326.36,-126.89"/>
<polygon fill="none" stroke="#404040" points="326.07,-126.69 318.86,-126.62 316.15,-119.94 323.36,-120.01 326.07,-126.69"/>
<text text-anchor="middle" x="431.5" y="-189" font-family="Helvetica,sans-Serif" font-size="10.00"> #socketId</text>
</g>
</g>
</svg>
