<?xml version="1.0" encoding="UTF-8" standalone="no"?>
<!DOCTYPE svg PUBLIC "-//W3C//DTD SVG 1.1//EN"
 "http://www.w3.org/Graphics/SVG/1.1/DTD/svg11.dtd">
<!-- Generated by graphviz version 2.46.0 (20210118.1747)
 -->
<!-- Title: EBCpp::EBTimer Pages: 1 -->
<svg width="200pt" height="376pt"
 viewBox="0.00 0.00 199.50 376.00" xmlns="http://www.w3.org/2000/svg" xmlns:xlink="http://www.w3.org/1999/xlink">
<g id="graph0" class="graph" transform="scale(1 1) rotate(0) translate(4 372)">
<title>EBCpp::EBTimer</title>
<!-- Node1 -->
<g id="node1" class="node">
<title>Node1</title>
<g id="a_node1"><a xlink:title="The EBTimer can provide times events.">
<polygon fill="#bfbfbf" stroke="black" points="2.5,-0.5 2.5,-101.5 100.5,-101.5 100.5,-0.5 2.5,-0.5"/>
<text text-anchor="middle" x="51.5" y="-89.5" font-family="Helvetica,sans-Serif" font-size="10.00">EBCpp::EBTimer</text>
<polyline fill="none" stroke="black" points="2.5,-82.5 100.5,-82.5 "/>
<text text-anchor="middle" x="51.5" y="-70.5" font-family="Helvetica,sans-Serif" font-size="10.00"> </text>
<polyline fill="none" stroke="black" points="2.5,-63.5 100.5,-63.5 "/>
<text text-anchor="start" x="10.5" y="-51.5" font-family="Helvetica,sans-Serif" font-size="10.00">+ EBTimer()</text>
<text text-anchor="start" x="10.5" y="-40.5" font-family="Helvetica,sans-Serif" font-size="10.00">+ ~EBTimer()</text>
<text text-anchor="start" x="10.5" y="-29.5" font-family="Helvetica,sans-Serif" font-size="10.00">+ stop()</text>
<text text-anchor="start" x="10.5" y="-18.5" font-family="Helvetica,sans-Serif" font-size="10.00">+ startSingleShot()</text>
<text text-anchor="start" x="10.5" y="-7.5" font-family="Helvetica,sans-Serif" font-size="10.00">+ start()</text>
</a>
</g>
</g>
<!-- Node2 -->
<g id="node2" class="node">
<title>Node2</title>
<g id="a_node2"><a xlink:href="class_e_b_cpp_1_1_e_b_object.html" target="_top" xlink:title="The core object. Every object from EBCpp must inherit this.">
<polygon fill="none" stroke="black" points="0,-288.5 0,-367.5 95,-367.5 95,-288.5 0,-288.5"/>
<text text-anchor="middle" x="47.5" y="-355.5" font-family="Helvetica,sans-Serif" font-size="10.00">EBCpp::EBObject</text>
<polyline fill="none" stroke="black" points="0,-348.5 95,-348.5 "/>
<text text-anchor="middle" x="47.5" y="-336.5" font-family="Helvetica,sans-Serif" font-size="10.00"> </text>
<polyline fill="none" stroke="black" points="0,-329.5 95,-329.5 "/>
<text text-anchor="start" x="8" y="-317.5" font-family="Helvetica,sans-Serif" font-size="10.00">+ EBObject()</text>
<text text-anchor="start" x="8" y="-306.5" font-family="Helvetica,sans-Serif" font-size="10.00">+ ~EBObject()</text>
<text text-anchor="start" x="8" y="-295.5" font-family="Helvetica,sans-Serif" font-size="10.00">+ getName()</text>
</a>
</g>
</g>
<!-- Node2&#45;&gt;Node1 -->
<g id="edge1" class="edge">
<title>Node2&#45;&gt;Node1</title>
<path fill="none" stroke="midnightblue" d="M48.21,-278.31C48.93,-228.65 50.05,-151.99 50.77,-101.91"/>
<polygon fill="none" stroke="midnightblue" points="44.71,-278.42 48.06,-288.47 51.71,-278.52 44.71,-278.42"/>
</g>
<!-- Node3 -->
<g id="node3" class="node">
<title>Node3</title>
<g id="a_node3"><a xlink:href="class_e_b_cpp_1_1_e_b_event.html" target="_top" xlink:title="This objects handles an event.">
<polygon fill="none" stroke="black" points="63.5,-149.5 63.5,-250.5 191.5,-250.5 191.5,-149.5 63.5,-149.5"/>
<text text-anchor="middle" x="127.5" y="-238.5" font-family="Helvetica,sans-Serif" font-size="10.00">EBCpp::EBEvent&lt; args &gt;</text>
<polyline fill="none" stroke="black" points="63.5,-231.5 191.5,-231.5 "/>
<text text-anchor="middle" x="127.5" y="-219.5" font-family="Helvetica,sans-Serif" font-size="10.00"> </text>
<polyline fill="none" stroke="black" points="63.5,-212.5 191.5,-212.5 "/>
<text text-anchor="start" x="71.5" y="-200.5" font-family="Helvetica,sans-Serif" font-size="10.00">+ EBEvent()</text>
<text text-anchor="start" x="71.5" y="-189.5" font-family="Helvetica,sans-Serif" font-size="10.00">+ ~EBEvent()</text>
<text text-anchor="start" x="71.5" y="-178.5" font-family="Helvetica,sans-Serif" font-size="10.00">+ connect()</text>
<text text-anchor="start" x="71.5" y="-167.5" font-family="Helvetica,sans-Serif" font-size="10.00">+ connect()</text>
<text text-anchor="start" x="71.5" y="-156.5" font-family="Helvetica,sans-Serif" font-size="10.00">+ emit()</text>
</a>
</g>
</g>
<!-- Node2&#45;&gt;Node3 -->
<g id="edge3" class="edge">
<title>Node2&#45;&gt;Node3</title>
<path fill="none" stroke="#8b1a1a" d="M77.57,-279.63C83.59,-270.16 89.92,-260.18 95.99,-250.63"/>
<polygon fill="none" stroke="#8b1a1a" points="74.56,-277.85 72.16,-288.17 80.47,-281.6 74.56,-277.85"/>
</g>
<!-- Node3&#45;&gt;Node1 -->
<g id="edge2" class="edge">
<title>Node3&#45;&gt;Node1</title>
<path fill="none" stroke="#404040" d="M101.77,-149.23C95.7,-137.5 89.17,-124.86 82.88,-112.7"/>
<polygon fill="none" stroke="#404040" points="82.71,-112.38 76.41,-108.88 77.2,-101.72 83.51,-105.21 82.71,-112.38"/>
<text text-anchor="middle" x="112.5" y="-123" font-family="Helvetica,sans-Serif" font-size="10.00"> +timeout</text>
</g>
</g>
</svg>
