<?xml version="1.0" encoding="UTF-8" standalone="no"?>
<!DOCTYPE svg PUBLIC "-//W3C//DTD SVG 1.1//EN"
 "http://www.w3.org/Graphics/SVG/1.1/DTD/svg11.dtd">
<!-- Generated by graphviz version 2.46.0 (20210118.1747)
 -->
<!-- Title: EBCpp::EBObject Pages: 1 -->
<!--zoomable 669 -->
<svg id="main" version="1.1" xmlns="http://www.w3.org/2000/svg" xmlns:xlink="http://www.w3.org/1999/xlink" xml:space="preserve" onload="init(evt)">
<style type="text/css"><![CDATA[
.edge:hover path { stroke: red; }
.edge:hover polygon { stroke: red; fill: red; }
]]></style>
<script type="text/javascript"><![CDATA[
var edges = document.getElementsByTagName('g');
if (edges && edges.length) {
  for (var i=0;i<edges.length;i++) {
    if (edges[i].id.substr(0,4)=='edge') {
      edges[i].setAttribute('class','edge');
    }
  }
}
]]></script>
        <defs>
                <circle id="rim" cx="0" cy="0" r="7"/>
                <circle id="rim2" cx="0" cy="0" r="3.5"/>
                <g id="zoomPlus">
                        <use xlink:href="#rim" fill="#404040">
                                <set attributeName="fill" to="#808080" begin="zoomplus.mouseover" end="zoomplus.mouseout"/>
                        </use>
                        <path d="M-4,0h8M0,-4v8" fill="none" stroke="white" stroke-width="1.5" pointer-events="none"/>
                </g>
                <g id="zoomMin">
                        <use xlink:href="#rim" fill="#404040">
                                <set attributeName="fill" to="#808080" begin="zoomminus.mouseover" end="zoomminus.mouseout"/>
                        </use>
                        <path d="M-4,0h8" fill="none" stroke="white" stroke-width="1.5" pointer-events="none"/>
                </g>
                <g id="dirArrow">
                        <path fill="none" stroke="white" stroke-width="1.5" d="M0,-3.0v7 M-2.5,-0.5L0,-3.0L2.5,-0.5"/>
                </g>
               <g id="resetDef">
                       <use xlink:href="#rim2" fill="#404040">
                               <set attributeName="fill" to="#808080" begin="reset.mouseover" end="reset.mouseout"/>
                       </use>
               </g>
        </defs>

<script type="text/javascript">
var viewWidth = 2397;
var viewHeight = 669;
var sectionId = 'dynsection-0';
</script>
<script xlink:href="svgpan.js"/>
<svg id="graph" class="graph">
<g id="viewport">
<title>EBCpp::EBObject</title>
<!-- Node1 -->
<g id="node1" class="node">
<title>Node1</title>
<g id="a_node1"><a xlink:title="The core object. Every object from EBCpp must inherit this.">
<polygon fill="#bfbfbf" stroke="black" points="1153,-581.5 1153,-660.5 1248,-660.5 1248,-581.5 1153,-581.5"/>
<text text-anchor="middle" x="1200.5" y="-648.5" font-family="Helvetica,sans-Serif" font-size="10.00">EBCpp::EBObject</text>
<polyline fill="none" stroke="black" points="1153,-641.5 1248,-641.5 "/>
<text text-anchor="middle" x="1200.5" y="-629.5" font-family="Helvetica,sans-Serif" font-size="10.00"> </text>
<polyline fill="none" stroke="black" points="1153,-622.5 1248,-622.5 "/>
<text text-anchor="start" x="1161" y="-610.5" font-family="Helvetica,sans-Serif" font-size="10.00">+ EBObject()</text>
<text text-anchor="start" x="1161" y="-599.5" font-family="Helvetica,sans-Serif" font-size="10.00">+ ~EBObject()</text>
<text text-anchor="start" x="1161" y="-588.5" font-family="Helvetica,sans-Serif" font-size="10.00">+ getName()</text>
</a>
</g>
</g>
<!-- Node2 -->
<g id="node2" class="node">
<title>Node2</title>
<g id="a_node2"><a xlink:href="class_e_b_cpp_1_1_e_b_event.html" target="_top" xlink:title=" ">
<polygon fill="none" stroke="black" points="0,-161.5 0,-273.5 113,-273.5 113,-161.5 0,-161.5"/>
<text text-anchor="start" x="8" y="-261.5" font-family="Helvetica,sans-Serif" font-size="10.00">EBCpp::EBEvent&lt; std</text>
<text text-anchor="middle" x="56.5" y="-250.5" font-family="Helvetica,sans-Serif" font-size="10.00">::string &gt;</text>
<polyline fill="none" stroke="black" points="0,-243.5 113,-243.5 "/>
<text text-anchor="middle" x="56.5" y="-231.5" font-family="Helvetica,sans-Serif" font-size="10.00"> </text>
<polyline fill="none" stroke="black" points="0,-224.5 113,-224.5 "/>
<text text-anchor="start" x="8" y="-212.5" font-family="Helvetica,sans-Serif" font-size="10.00">+ EBEvent()</text>
<text text-anchor="start" x="8" y="-201.5" font-family="Helvetica,sans-Serif" font-size="10.00">+ ~EBEvent()</text>
<text text-anchor="start" x="8" y="-190.5" font-family="Helvetica,sans-Serif" font-size="10.00">+ connect()</text>
<text text-anchor="start" x="8" y="-179.5" font-family="Helvetica,sans-Serif" font-size="10.00">+ connect()</text>
<text text-anchor="start" x="8" y="-168.5" font-family="Helvetica,sans-Serif" font-size="10.00">+ emit()</text>
</a>
</g>
</g>
<!-- Node1&#45;&gt;Node2 -->
<g id="edge1" class="edge">
<title>Node1&#45;&gt;Node2</title>
<path fill="none" stroke="#8b1a1a" d="M1142.73,-619.22C936.11,-615.97 241.77,-600.89 161.5,-544 75.27,-482.89 58.19,-349.39 55.79,-273.72"/>
<polygon fill="none" stroke="#8b1a1a" points="1142.72,-622.72 1152.78,-619.38 1142.83,-615.72 1142.72,-622.72"/>
</g>
<!-- Node3 -->
<g id="node3" class="node">
<title>Node3</title>
<g id="a_node3"><a xlink:href="class_e_b_cpp_1_1_e_b_event.html" target="_top" xlink:title=" ">
<polygon fill="none" stroke="black" points="285,-161.5 285,-273.5 416,-273.5 416,-161.5 285,-161.5"/>
<text text-anchor="start" x="293" y="-261.5" font-family="Helvetica,sans-Serif" font-size="10.00">EBCpp::EBEvent&lt; EBCpp</text>
<text text-anchor="middle" x="350.5" y="-250.5" font-family="Helvetica,sans-Serif" font-size="10.00">::EBHttpRequest * &gt;</text>
<polyline fill="none" stroke="black" points="285,-243.5 416,-243.5 "/>
<text text-anchor="middle" x="350.5" y="-231.5" font-family="Helvetica,sans-Serif" font-size="10.00"> </text>
<polyline fill="none" stroke="black" points="285,-224.5 416,-224.5 "/>
<text text-anchor="start" x="293" y="-212.5" font-family="Helvetica,sans-Serif" font-size="10.00">+ EBEvent()</text>
<text text-anchor="start" x="293" y="-201.5" font-family="Helvetica,sans-Serif" font-size="10.00">+ ~EBEvent()</text>
<text text-anchor="start" x="293" y="-190.5" font-family="Helvetica,sans-Serif" font-size="10.00">+ connect()</text>
<text text-anchor="start" x="293" y="-179.5" font-family="Helvetica,sans-Serif" font-size="10.00">+ connect()</text>
<text text-anchor="start" x="293" y="-168.5" font-family="Helvetica,sans-Serif" font-size="10.00">+ emit()</text>
</a>
</g>
</g>
<!-- Node1&#45;&gt;Node3 -->
<g id="edge2" class="edge">
<title>Node1&#45;&gt;Node3</title>
<path fill="none" stroke="#8b1a1a" d="M1142.86,-617.17C990.32,-609.17 584.7,-584.27 540.5,-544 474.26,-483.64 543.09,-424.16 497.5,-347 477.5,-313.15 445.44,-283.59 416.36,-261.39"/>
<polygon fill="none" stroke="#8b1a1a" points="1142.8,-620.67 1152.97,-617.7 1143.17,-613.68 1142.8,-620.67"/>
</g>
<!-- Node4 -->
<g id="node4" class="node">
<title>Node4</title>
<g id="a_node4"><a xlink:href="class_e_b_cpp_1_1_e_b_event.html" target="_top" xlink:title=" ">
<polygon fill="none" stroke="black" points="134,-161.5 134,-273.5 265,-273.5 265,-161.5 134,-161.5"/>
<text text-anchor="start" x="142" y="-261.5" font-family="Helvetica,sans-Serif" font-size="10.00">EBCpp::EBEvent&lt; EBCpp</text>
<text text-anchor="middle" x="199.5" y="-250.5" font-family="Helvetica,sans-Serif" font-size="10.00">::EBTcpServerSocket * &gt;</text>
<polyline fill="none" stroke="black" points="134,-243.5 265,-243.5 "/>
<text text-anchor="middle" x="199.5" y="-231.5" font-family="Helvetica,sans-Serif" font-size="10.00"> </text>
<polyline fill="none" stroke="black" points="134,-224.5 265,-224.5 "/>
<text text-anchor="start" x="142" y="-212.5" font-family="Helvetica,sans-Serif" font-size="10.00">+ EBEvent()</text>
<text text-anchor="start" x="142" y="-201.5" font-family="Helvetica,sans-Serif" font-size="10.00">+ ~EBEvent()</text>
<text text-anchor="start" x="142" y="-190.5" font-family="Helvetica,sans-Serif" font-size="10.00">+ connect()</text>
<text text-anchor="start" x="142" y="-179.5" font-family="Helvetica,sans-Serif" font-size="10.00">+ connect()</text>
<text text-anchor="start" x="142" y="-168.5" font-family="Helvetica,sans-Serif" font-size="10.00">+ emit()</text>
</a>
</g>
</g>
<!-- Node1&#45;&gt;Node4 -->
<g id="edge3" class="edge">
<title>Node1&#45;&gt;Node4</title>
<path fill="none" stroke="#8b1a1a" d="M1142.73,-617.71C984.27,-610.88 551.6,-588.32 506.5,-544 442,-480.6 524.17,-405.86 455.5,-347 424.98,-320.84 310.1,-349.46 275.5,-329 253.85,-316.2 236.95,-294.53 224.63,-273.76"/>
<polygon fill="none" stroke="#8b1a1a" points="1142.62,-621.21 1152.76,-618.14 1142.92,-614.22 1142.62,-621.21"/>
</g>
<!-- Node5 -->
<g id="node5" class="node">
<title>Node5</title>
<g id="a_node5"><a xlink:href="class_e_b_cpp_1_1_e_b_http_server.html" target="_top" xlink:title=" ">
<polygon fill="none" stroke="black" points="584.5,-172.5 584.5,-262.5 712.5,-262.5 712.5,-172.5 584.5,-172.5"/>
<text text-anchor="start" x="592.5" y="-250.5" font-family="Helvetica,sans-Serif" font-size="10.00">EBCpp::EBHttpServer</text>
<text text-anchor="middle" x="648.5" y="-239.5" font-family="Helvetica,sans-Serif" font-size="10.00">&lt; EBCpp::EBTcpServer &gt;</text>
<polyline fill="none" stroke="black" points="584.5,-232.5 712.5,-232.5 "/>
<text text-anchor="start" x="592.5" y="-220.5" font-family="Helvetica,sans-Serif" font-size="10.00">+ newRequest</text>
<polyline fill="none" stroke="black" points="584.5,-213.5 712.5,-213.5 "/>
<text text-anchor="start" x="592.5" y="-201.5" font-family="Helvetica,sans-Serif" font-size="10.00">+ EBHttpServer()</text>
<text text-anchor="start" x="592.5" y="-190.5" font-family="Helvetica,sans-Serif" font-size="10.00">+ bind()</text>
<text text-anchor="start" x="592.5" y="-179.5" font-family="Helvetica,sans-Serif" font-size="10.00">+ unbind()</text>
</a>
</g>
</g>
<!-- Node1&#45;&gt;Node5 -->
<g id="edge4" class="edge">
<title>Node1&#45;&gt;Node5</title>
<path fill="none" stroke="midnightblue" d="M1142.57,-618.73C1030.34,-615.03 789.3,-600.51 732.5,-544 669.57,-481.38 723.34,-432.51 699.5,-347 691.47,-318.22 679.19,-287.04 668.69,-262.6"/>
<polygon fill="none" stroke="midnightblue" points="1142.59,-622.24 1152.7,-619.05 1142.81,-615.24 1142.59,-622.24"/>
</g>
<!-- Node6 -->
<g id="node6" class="node">
<title>Node6</title>
<g id="a_node6"><a xlink:href="class_e_b_cpp_1_1_e_b_connection.html" target="_top" xlink:title="Class to connect between a signal and a slot.">
<polygon fill="none" stroke="black" points="741.5,-420.5 741.5,-499.5 857.5,-499.5 857.5,-420.5 741.5,-420.5"/>
<text text-anchor="start" x="749.5" y="-487.5" font-family="Helvetica,sans-Serif" font-size="10.00">EBCpp::EBConnection</text>
<text text-anchor="middle" x="799.5" y="-476.5" font-family="Helvetica,sans-Serif" font-size="10.00">&lt; args &gt;</text>
<polyline fill="none" stroke="black" points="741.5,-469.5 857.5,-469.5 "/>
<text text-anchor="middle" x="799.5" y="-457.5" font-family="Helvetica,sans-Serif" font-size="10.00"> </text>
<polyline fill="none" stroke="black" points="741.5,-450.5 857.5,-450.5 "/>
<text text-anchor="start" x="749.5" y="-438.5" font-family="Helvetica,sans-Serif" font-size="10.00">+ EBConnection()</text>
<text text-anchor="start" x="749.5" y="-427.5" font-family="Helvetica,sans-Serif" font-size="10.00">+ emit()</text>
</a>
</g>
</g>
<!-- Node1&#45;&gt;Node6 -->
<g id="edge5" class="edge">
<title>Node1&#45;&gt;Node6</title>
<path fill="none" stroke="midnightblue" d="M1142.84,-618.22C1072.61,-613.62 952.71,-597.77 866.5,-544 848.9,-533.02 833.88,-515.76 822.54,-499.82"/>
<polygon fill="none" stroke="midnightblue" points="1142.63,-621.71 1152.83,-618.81 1143.05,-614.72 1142.63,-621.71"/>
</g>
<!-- Node7 -->
<g id="node7" class="node">
<title>Node7</title>
<g id="a_node7"><a xlink:href="class_e_b_cpp_1_1_e_b_event.html" target="_top" xlink:title="This objects handles an event.">
<polygon fill="none" stroke="black" points="170.5,-409.5 170.5,-510.5 298.5,-510.5 298.5,-409.5 170.5,-409.5"/>
<text text-anchor="middle" x="234.5" y="-498.5" font-family="Helvetica,sans-Serif" font-size="10.00">EBCpp::EBEvent&lt; args &gt;</text>
<polyline fill="none" stroke="black" points="170.5,-491.5 298.5,-491.5 "/>
<text text-anchor="middle" x="234.5" y="-479.5" font-family="Helvetica,sans-Serif" font-size="10.00"> </text>
<polyline fill="none" stroke="black" points="170.5,-472.5 298.5,-472.5 "/>
<text text-anchor="start" x="178.5" y="-460.5" font-family="Helvetica,sans-Serif" font-size="10.00">+ EBEvent()</text>
<text text-anchor="start" x="178.5" y="-449.5" font-family="Helvetica,sans-Serif" font-size="10.00">+ ~EBEvent()</text>
<text text-anchor="start" x="178.5" y="-438.5" font-family="Helvetica,sans-Serif" font-size="10.00">+ connect()</text>
<text text-anchor="start" x="178.5" y="-427.5" font-family="Helvetica,sans-Serif" font-size="10.00">+ connect()</text>
<text text-anchor="start" x="178.5" y="-416.5" font-family="Helvetica,sans-Serif" font-size="10.00">+ emit()</text>
</a>
</g>
</g>
<!-- Node1&#45;&gt;Node7 -->
<g id="edge6" class="edge">
<title>Node1&#45;&gt;Node7</title>
<path fill="none" stroke="#8b1a1a" d="M1142.42,-617.95C992.75,-612.27 596.77,-594.64 469.5,-563 409.29,-548.03 344.92,-519.09 298.8,-495.85"/>
<polygon fill="none" stroke="#8b1a1a" points="1142.64,-621.46 1152.76,-618.34 1142.9,-614.47 1142.64,-621.46"/>
</g>
<!-- Node8 -->
<g id="node8" class="node">
<title>Node8</title>
<g id="a_node8"><a xlink:href="class_e_b_cpp_1_1_e_b_event_loop.html" target="_top" xlink:title="Event handling class.">
<polygon fill="none" stroke="black" points="875.5,-404 875.5,-516 987.5,-516 987.5,-404 875.5,-404"/>
<text text-anchor="middle" x="931.5" y="-504" font-family="Helvetica,sans-Serif" font-size="10.00">EBCpp::EBEventLoop</text>
<polyline fill="none" stroke="black" points="875.5,-497 987.5,-497 "/>
<text text-anchor="middle" x="931.5" y="-485" font-family="Helvetica,sans-Serif" font-size="10.00"> </text>
<polyline fill="none" stroke="black" points="875.5,-478 987.5,-478 "/>
<text text-anchor="start" x="883.5" y="-466" font-family="Helvetica,sans-Serif" font-size="10.00">+ EBEventLoop()</text>
<text text-anchor="start" x="883.5" y="-455" font-family="Helvetica,sans-Serif" font-size="10.00">+ emit()</text>
<text text-anchor="start" x="883.5" y="-444" font-family="Helvetica,sans-Serif" font-size="10.00">+ processEvents()</text>
<text text-anchor="start" x="883.5" y="-433" font-family="Helvetica,sans-Serif" font-size="10.00">+ exec()</text>
<text text-anchor="start" x="883.5" y="-422" font-family="Helvetica,sans-Serif" font-size="10.00">+ exit()</text>
<text text-anchor="start" x="883.5" y="-411" font-family="Helvetica,sans-Serif" font-size="10.00">+ getInstance()</text>
</a>
</g>
</g>
<!-- Node1&#45;&gt;Node8 -->
<g id="edge10" class="edge">
<title>Node1&#45;&gt;Node8</title>
<path fill="none" stroke="midnightblue" d="M1142.99,-607.6C1099.7,-596.23 1040.51,-576.19 996.5,-544 986.01,-536.33 976.34,-526.53 967.84,-516.37"/>
<polygon fill="none" stroke="midnightblue" points="1142.24,-611.02 1152.8,-610.1 1143.97,-604.24 1142.24,-611.02"/>
</g>
<!-- Node9 -->
<g id="node9" class="node">
<title>Node9</title>
<g id="a_node9"><a xlink:href="class_e_b_cpp_1_1_e_b_http_header.html" target="_top" xlink:title="Class that parses the http header.">
<polygon fill="none" stroke="black" points="1005.5,-409.5 1005.5,-510.5 1121.5,-510.5 1121.5,-409.5 1005.5,-409.5"/>
<text text-anchor="middle" x="1063.5" y="-498.5" font-family="Helvetica,sans-Serif" font-size="10.00">EBCpp::EBHttpHeader</text>
<polyline fill="none" stroke="black" points="1005.5,-491.5 1121.5,-491.5 "/>
<text text-anchor="middle" x="1063.5" y="-479.5" font-family="Helvetica,sans-Serif" font-size="10.00"> </text>
<polyline fill="none" stroke="black" points="1005.5,-472.5 1121.5,-472.5 "/>
<text text-anchor="start" x="1013.5" y="-460.5" font-family="Helvetica,sans-Serif" font-size="10.00">+ EBHttpHeader()</text>
<text text-anchor="start" x="1013.5" y="-449.5" font-family="Helvetica,sans-Serif" font-size="10.00">+ processLine()</text>
<text text-anchor="start" x="1013.5" y="-438.5" font-family="Helvetica,sans-Serif" font-size="10.00">+ getValue()</text>
<text text-anchor="start" x="1013.5" y="-427.5" font-family="Helvetica,sans-Serif" font-size="10.00">+ contains()</text>
<text text-anchor="start" x="1013.5" y="-416.5" font-family="Helvetica,sans-Serif" font-size="10.00">+ getHeader()</text>
</a>
</g>
</g>
<!-- Node1&#45;&gt;Node9 -->
<g id="edge11" class="edge">
<title>Node1&#45;&gt;Node9</title>
<path fill="none" stroke="midnightblue" d="M1157.26,-574.02C1148.3,-564.22 1139,-553.85 1130.5,-544 1121.31,-533.34 1111.67,-521.7 1102.66,-510.59"/>
<polygon fill="none" stroke="midnightblue" points="1154.69,-576.39 1164.03,-581.39 1159.84,-571.66 1154.69,-576.39"/>
</g>
<!-- Node10 -->
<g id="node10" class="node">
<title>Node10</title>
<g id="a_node10"><a xlink:href="class_e_b_cpp_1_1_e_b_http_request.html" target="_top" xlink:title="Handles a http request.">
<polygon fill="none" stroke="black" points="1140,-398.5 1140,-521.5 1261,-521.5 1261,-398.5 1140,-398.5"/>
<text text-anchor="middle" x="1200.5" y="-509.5" font-family="Helvetica,sans-Serif" font-size="10.00">EBCpp::EBHttpRequest</text>
<polyline fill="none" stroke="black" points="1140,-502.5 1261,-502.5 "/>
<text text-anchor="start" x="1148" y="-490.5" font-family="Helvetica,sans-Serif" font-size="10.00">+ ready</text>
<polyline fill="none" stroke="black" points="1140,-483.5 1261,-483.5 "/>
<text text-anchor="start" x="1148" y="-471.5" font-family="Helvetica,sans-Serif" font-size="10.00">+ EBHttpRequest()</text>
<text text-anchor="start" x="1148" y="-460.5" font-family="Helvetica,sans-Serif" font-size="10.00">+ sendReply()</text>
<text text-anchor="start" x="1148" y="-449.5" font-family="Helvetica,sans-Serif" font-size="10.00">+ getRequestHeader()</text>
<text text-anchor="start" x="1148" y="-438.5" font-family="Helvetica,sans-Serif" font-size="10.00">+ getReplyHeader()</text>
<text text-anchor="start" x="1148" y="-427.5" font-family="Helvetica,sans-Serif" font-size="10.00">+ getRequestMethod()</text>
<text text-anchor="start" x="1148" y="-416.5" font-family="Helvetica,sans-Serif" font-size="10.00">+ getPath()</text>
<text text-anchor="start" x="1148" y="-405.5" font-family="Helvetica,sans-Serif" font-size="10.00">+ setResponseCode()</text>
</a>
</g>
</g>
<!-- Node1&#45;&gt;Node10 -->
<g id="edge12" class="edge">
<title>Node1&#45;&gt;Node10</title>
<path fill="none" stroke="midnightblue" d="M1200.5,-570.71C1200.5,-555.24 1200.5,-537.97 1200.5,-521.8"/>
<polygon fill="none" stroke="midnightblue" points="1197,-571.1 1200.5,-581.1 1204,-571.1 1197,-571.1"/>
</g>
<!-- Node11 -->
<g id="node11" class="node">
<title>Node11</title>
<g id="a_node11"><a xlink:href="class_e_b_cpp_1_1_e_b_http_server.html" target="_top" xlink:title="Implementation of a http server.">
<polygon fill="none" stroke="black" points="550,-420.5 550,-499.5 685,-499.5 685,-420.5 550,-420.5"/>
<text text-anchor="middle" x="617.5" y="-487.5" font-family="Helvetica,sans-Serif" font-size="10.00">EBCpp::EBHttpServer&lt; T &gt;</text>
<polyline fill="none" stroke="black" points="550,-480.5 685,-480.5 "/>
<text text-anchor="start" x="558" y="-468.5" font-family="Helvetica,sans-Serif" font-size="10.00">+ newRequest</text>
<polyline fill="none" stroke="black" points="550,-461.5 685,-461.5 "/>
<text text-anchor="start" x="558" y="-449.5" font-family="Helvetica,sans-Serif" font-size="10.00">+ EBHttpServer()</text>
<text text-anchor="start" x="558" y="-438.5" font-family="Helvetica,sans-Serif" font-size="10.00">+ bind()</text>
<text text-anchor="start" x="558" y="-427.5" font-family="Helvetica,sans-Serif" font-size="10.00">+ unbind()</text>
</a>
</g>
</g>
<!-- Node1&#45;&gt;Node11 -->
<g id="edge13" class="edge">
<title>Node1&#45;&gt;Node11</title>
<path fill="none" stroke="midnightblue" d="M1142.94,-618.89C1027.98,-615.8 774.58,-604.36 699.5,-563 673.33,-548.58 652.41,-522.07 638.25,-499.68"/>
<polygon fill="none" stroke="midnightblue" points="1142.87,-622.39 1152.96,-619.15 1143.05,-615.39 1142.87,-622.39"/>
</g>
<!-- Node12 -->
<g id="node12" class="node">
<title>Node12</title>
<g id="a_node12"><a xlink:href="class_e_b_cpp_1_1_e_b_i_o_device.html" target="_top" xlink:title="Interface description of an input/output device.">
<polygon fill="none" stroke="black" points="1279,-376.5 1279,-543.5 1384,-543.5 1384,-376.5 1279,-376.5"/>
<text text-anchor="middle" x="1331.5" y="-531.5" font-family="Helvetica,sans-Serif" font-size="10.00">EBCpp::EBIODevice</text>
<polyline fill="none" stroke="black" points="1279,-524.5 1384,-524.5 "/>
<text text-anchor="middle" x="1331.5" y="-512.5" font-family="Helvetica,sans-Serif" font-size="10.00"> </text>
<polyline fill="none" stroke="black" points="1279,-505.5 1384,-505.5 "/>
<text text-anchor="start" x="1287" y="-493.5" font-family="Helvetica,sans-Serif" font-size="10.00">+ EBIODevice()</text>
<text text-anchor="start" x="1287" y="-482.5" font-family="Helvetica,sans-Serif" font-size="10.00">+ open()</text>
<text text-anchor="start" x="1287" y="-471.5" font-family="Helvetica,sans-Serif" font-size="10.00">+ isOpened()</text>
<text text-anchor="start" x="1287" y="-460.5" font-family="Helvetica,sans-Serif" font-size="10.00">+ close()</text>
<text text-anchor="start" x="1287" y="-449.5" font-family="Helvetica,sans-Serif" font-size="10.00">+ write()</text>
<text text-anchor="start" x="1287" y="-438.5" font-family="Helvetica,sans-Serif" font-size="10.00">+ write()</text>
<text text-anchor="start" x="1287" y="-427.5" font-family="Helvetica,sans-Serif" font-size="10.00">+ read()</text>
<text text-anchor="start" x="1287" y="-416.5" font-family="Helvetica,sans-Serif" font-size="10.00">+ canReadLine()</text>
<text text-anchor="start" x="1287" y="-405.5" font-family="Helvetica,sans-Serif" font-size="10.00">+ readLine()</text>
<text text-anchor="start" x="1287" y="-394.5" font-family="Helvetica,sans-Serif" font-size="10.00">+ setFileName()</text>
<text text-anchor="start" x="1287" y="-383.5" font-family="Helvetica,sans-Serif" font-size="10.00">+ getFileName()</text>
</a>
</g>
</g>
<!-- Node1&#45;&gt;Node12 -->
<g id="edge15" class="edge">
<title>Node1&#45;&gt;Node12</title>
<path fill="none" stroke="midnightblue" d="M1243.91,-573.6C1252.56,-563.96 1261.45,-553.77 1269.5,-544 1272.59,-540.25 1275.72,-536.37 1278.84,-532.43"/>
<polygon fill="none" stroke="midnightblue" points="1241.16,-571.42 1237.04,-581.19 1246.35,-576.12 1241.16,-571.42"/>
</g>
<!-- Node15 -->
<g id="node15" class="node">
<title>Node15</title>
<g id="a_node15"><a xlink:href="class_e_b_cpp_1_1_e_b_semaphore.html" target="_top" xlink:title="Semaphore implementation for EBCpp.">
<polygon fill="none" stroke="black" points="1402.5,-415 1402.5,-505 1518.5,-505 1518.5,-415 1402.5,-415"/>
<text text-anchor="middle" x="1460.5" y="-493" font-family="Helvetica,sans-Serif" font-size="10.00">EBCpp::EBSemaphore</text>
<polyline fill="none" stroke="black" points="1402.5,-486 1518.5,-486 "/>
<text text-anchor="middle" x="1460.5" y="-474" font-family="Helvetica,sans-Serif" font-size="10.00"> </text>
<polyline fill="none" stroke="black" points="1402.5,-467 1518.5,-467 "/>
<text text-anchor="start" x="1410.5" y="-455" font-family="Helvetica,sans-Serif" font-size="10.00">+ EBSemaphore()</text>
<text text-anchor="start" x="1410.5" y="-444" font-family="Helvetica,sans-Serif" font-size="10.00">+ acquire()</text>
<text text-anchor="start" x="1410.5" y="-433" font-family="Helvetica,sans-Serif" font-size="10.00">+ release()</text>
<text text-anchor="start" x="1410.5" y="-422" font-family="Helvetica,sans-Serif" font-size="10.00">+ clear()</text>
</a>
</g>
</g>
<!-- Node1&#45;&gt;Node15 -->
<g id="edge18" class="edge">
<title>Node1&#45;&gt;Node15</title>
<path fill="none" stroke="midnightblue" d="M1257.71,-605.67C1298.02,-593.67 1351.84,-573.68 1392.5,-544 1406.94,-533.45 1420.12,-519.15 1430.94,-505.38"/>
<polygon fill="none" stroke="midnightblue" points="1256.66,-602.33 1248.03,-608.47 1258.61,-609.05 1256.66,-602.33"/>
</g>
<!-- Node16 -->
<g id="node16" class="node">
<title>Node16</title>
<g id="a_node16"><a xlink:href="class_e_b_cpp_1_1_e_b_slot_call.html" target="_top" xlink:title="Object to call a slot.">
<polygon fill="none" stroke="black" points="1537,-426 1537,-494 1638,-494 1638,-426 1537,-426"/>
<text text-anchor="middle" x="1587.5" y="-482" font-family="Helvetica,sans-Serif" font-size="10.00">EBCpp::EBSlotCall</text>
<polyline fill="none" stroke="black" points="1537,-475 1638,-475 "/>
<text text-anchor="middle" x="1587.5" y="-463" font-family="Helvetica,sans-Serif" font-size="10.00"> </text>
<polyline fill="none" stroke="black" points="1537,-456 1638,-456 "/>
<text text-anchor="start" x="1545" y="-444" font-family="Helvetica,sans-Serif" font-size="10.00">+ EBSlotCall()</text>
<text text-anchor="start" x="1545" y="-433" font-family="Helvetica,sans-Serif" font-size="10.00">+ call()</text>
</a>
</g>
</g>
<!-- Node1&#45;&gt;Node16 -->
<g id="edge19" class="edge">
<title>Node1&#45;&gt;Node16</title>
<path fill="none" stroke="midnightblue" d="M1258.45,-618.6C1327.83,-614.37 1444.97,-598.85 1527.5,-544 1546.01,-531.7 1560.75,-511.62 1570.99,-494.29"/>
<polygon fill="none" stroke="midnightblue" points="1257.95,-615.12 1248.16,-619.17 1258.33,-622.11 1257.95,-615.12"/>
</g>
<!-- Node17 -->
<g id="node17" class="node">
<title>Node17</title>
<g id="a_node17"><a xlink:href="class_e_b_cpp_1_1_e_b_tcp_server.html" target="_top" xlink:title="Creates a TCP server.">
<polygon fill="none" stroke="black" points="1656.5,-420.5 1656.5,-499.5 1766.5,-499.5 1766.5,-420.5 1656.5,-420.5"/>
<text text-anchor="middle" x="1711.5" y="-487.5" font-family="Helvetica,sans-Serif" font-size="10.00">EBCpp::EBTcpServer</text>
<polyline fill="none" stroke="black" points="1656.5,-480.5 1766.5,-480.5 "/>
<text text-anchor="start" x="1664.5" y="-468.5" font-family="Helvetica,sans-Serif" font-size="10.00">+ newConnection</text>
<polyline fill="none" stroke="black" points="1656.5,-461.5 1766.5,-461.5 "/>
<text text-anchor="start" x="1664.5" y="-449.5" font-family="Helvetica,sans-Serif" font-size="10.00">+ EBTcpServer()</text>
<text text-anchor="start" x="1664.5" y="-438.5" font-family="Helvetica,sans-Serif" font-size="10.00">+ bind()</text>
<text text-anchor="start" x="1664.5" y="-427.5" font-family="Helvetica,sans-Serif" font-size="10.00">+ unbind()</text>
</a>
</g>
</g>
<!-- Node1&#45;&gt;Node17 -->
<g id="edge20" class="edge">
<title>Node1&#45;&gt;Node17</title>
<path fill="none" stroke="midnightblue" d="M1258.27,-615.34C1363.56,-606.02 1581.78,-582.59 1646.5,-544 1664.26,-533.41 1679.01,-516 1689.94,-499.85"/>
<polygon fill="none" stroke="midnightblue" points="1257.8,-611.87 1248.14,-616.23 1258.41,-618.85 1257.8,-611.87"/>
</g>
<!-- Node18 -->
<g id="node18" class="node">
<title>Node18</title>
<g id="a_node18"><a xlink:href="class_e_b_cpp_1_1_e_b_timer.html" target="_top" xlink:title="The EBTimer can provide times events.">
<polygon fill="none" stroke="black" points="1784.5,-409.5 1784.5,-510.5 1882.5,-510.5 1882.5,-409.5 1784.5,-409.5"/>
<text text-anchor="middle" x="1833.5" y="-498.5" font-family="Helvetica,sans-Serif" font-size="10.00">EBCpp::EBTimer</text>
<polyline fill="none" stroke="black" points="1784.5,-491.5 1882.5,-491.5 "/>
<text text-anchor="start" x="1792.5" y="-479.5" font-family="Helvetica,sans-Serif" font-size="10.00">+ timeout</text>
<polyline fill="none" stroke="black" points="1784.5,-472.5 1882.5,-472.5 "/>
<text text-anchor="start" x="1792.5" y="-460.5" font-family="Helvetica,sans-Serif" font-size="10.00">+ EBTimer()</text>
<text text-anchor="start" x="1792.5" y="-449.5" font-family="Helvetica,sans-Serif" font-size="10.00">+ ~EBTimer()</text>
<text text-anchor="start" x="1792.5" y="-438.5" font-family="Helvetica,sans-Serif" font-size="10.00">+ stop()</text>
<text text-anchor="start" x="1792.5" y="-427.5" font-family="Helvetica,sans-Serif" font-size="10.00">+ startSingleShot()</text>
<text text-anchor="start" x="1792.5" y="-416.5" font-family="Helvetica,sans-Serif" font-size="10.00">+ start()</text>
</a>
</g>
</g>
<!-- Node1&#45;&gt;Node18 -->
<g id="edge21" class="edge">
<title>Node1&#45;&gt;Node18</title>
<path fill="none" stroke="midnightblue" d="M1258.03,-618.21C1385.92,-613.32 1689.31,-596.39 1775.5,-544 1788.87,-535.87 1799.95,-523.37 1808.72,-510.51"/>
<polygon fill="none" stroke="midnightblue" points="1257.9,-614.72 1248.03,-618.58 1258.16,-621.71 1257.9,-614.72"/>
</g>
<!-- Node19 -->
<g id="node19" class="node">
<title>Node19</title>
<g id="a_node19"><a xlink:href="class_example_http_server.html" target="_top" xlink:title="Example to show the function of the TCP server.">
<polygon fill="none" stroke="black" points="1901,-426 1901,-494 2016,-494 2016,-426 1901,-426"/>
<text text-anchor="middle" x="1958.5" y="-482" font-family="Helvetica,sans-Serif" font-size="10.00">ExampleHttpServer</text>
<polyline fill="none" stroke="black" points="1901,-475 2016,-475 "/>
<text text-anchor="middle" x="1958.5" y="-463" font-family="Helvetica,sans-Serif" font-size="10.00"> </text>
<polyline fill="none" stroke="black" points="1901,-456 2016,-456 "/>
<text text-anchor="start" x="1909" y="-444" font-family="Helvetica,sans-Serif" font-size="10.00">+ ExampleHttpServer()</text>
<text text-anchor="start" x="1909" y="-433" font-family="Helvetica,sans-Serif" font-size="10.00">+ requestReady()</text>
</a>
</g>
</g>
<!-- Node1&#45;&gt;Node19 -->
<g id="edge22" class="edge">
<title>Node1&#45;&gt;Node19</title>
<path fill="none" stroke="midnightblue" d="M1258.31,-619.37C1404.22,-616.9 1783.45,-604.64 1891.5,-544 1912.01,-532.49 1928.66,-511.97 1940.23,-494.22"/>
<polygon fill="none" stroke="midnightblue" points="1258.16,-615.88 1248.22,-619.54 1258.27,-622.87 1258.16,-615.88"/>
</g>
<!-- Node20 -->
<g id="node20" class="node">
<title>Node20</title>
<g id="a_node20"><a xlink:href="class_example_tcp_client.html" target="_top" xlink:title="Example to show the function of a tcp client.">
<polygon fill="none" stroke="black" points="2034.5,-409.5 2034.5,-510.5 2144.5,-510.5 2144.5,-409.5 2034.5,-409.5"/>
<text text-anchor="middle" x="2089.5" y="-498.5" font-family="Helvetica,sans-Serif" font-size="10.00">ExampleTcpClient</text>
<polyline fill="none" stroke="black" points="2034.5,-491.5 2144.5,-491.5 "/>
<text text-anchor="middle" x="2089.5" y="-479.5" font-family="Helvetica,sans-Serif" font-size="10.00"> </text>
<polyline fill="none" stroke="black" points="2034.5,-472.5 2144.5,-472.5 "/>
<text text-anchor="start" x="2042.5" y="-460.5" font-family="Helvetica,sans-Serif" font-size="10.00">+ ExampleTcpClient()</text>
<text text-anchor="start" x="2042.5" y="-449.5" font-family="Helvetica,sans-Serif" font-size="10.00">+ connected()</text>
<text text-anchor="start" x="2042.5" y="-438.5" font-family="Helvetica,sans-Serif" font-size="10.00">+ disconnected()</text>
<text text-anchor="start" x="2042.5" y="-427.5" font-family="Helvetica,sans-Serif" font-size="10.00">+ readReady()</text>
<text text-anchor="start" x="2042.5" y="-416.5" font-family="Helvetica,sans-Serif" font-size="10.00">+ error()</text>
</a>
</g>
</g>
<!-- Node1&#45;&gt;Node20 -->
<g id="edge23" class="edge">
<title>Node1&#45;&gt;Node20</title>
<path fill="none" stroke="midnightblue" d="M1258.14,-615.59C1372.9,-606.69 1638.07,-585.48 1860.5,-563 1933.5,-555.62 1960.49,-579.88 2024.5,-544 2038.71,-536.04 2050.9,-523.58 2060.75,-510.71"/>
<polygon fill="none" stroke="midnightblue" points="1257.87,-612.1 1248.17,-616.36 1258.41,-619.08 1257.87,-612.1"/>
</g>
<!-- Node21 -->
<g id="node21" class="node">
<title>Node21</title>
<g id="a_node21"><a xlink:href="class_example_tcp_server.html" target="_top" xlink:title="Example to show the function of the TCP server.">
<polygon fill="none" stroke="black" points="2163,-409.5 2163,-510.5 2276,-510.5 2276,-409.5 2163,-409.5"/>
<text text-anchor="middle" x="2219.5" y="-498.5" font-family="Helvetica,sans-Serif" font-size="10.00">ExampleTcpServer</text>
<polyline fill="none" stroke="black" points="2163,-491.5 2276,-491.5 "/>
<text text-anchor="middle" x="2219.5" y="-479.5" font-family="Helvetica,sans-Serif" font-size="10.00"> </text>
<polyline fill="none" stroke="black" points="2163,-472.5 2276,-472.5 "/>
<text text-anchor="start" x="2171" y="-460.5" font-family="Helvetica,sans-Serif" font-size="10.00">+ ExampleTcpServer()</text>
<text text-anchor="start" x="2171" y="-449.5" font-family="Helvetica,sans-Serif" font-size="10.00">+ newConnection()</text>
<text text-anchor="start" x="2171" y="-438.5" font-family="Helvetica,sans-Serif" font-size="10.00">+ disconnected()</text>
<text text-anchor="start" x="2171" y="-427.5" font-family="Helvetica,sans-Serif" font-size="10.00">+ readReady()</text>
<text text-anchor="start" x="2171" y="-416.5" font-family="Helvetica,sans-Serif" font-size="10.00">+ error()</text>
</a>
</g>
</g>
<!-- Node1&#45;&gt;Node21 -->
<g id="edge24" class="edge">
<title>Node1&#45;&gt;Node21</title>
<path fill="none" stroke="midnightblue" d="M1258.21,-618.08C1452.44,-611.27 2074.66,-586.31 2153.5,-544 2168.1,-536.16 2180.59,-523.58 2190.65,-510.55"/>
<polygon fill="none" stroke="midnightblue" points="1258.07,-614.59 1248.2,-618.43 1258.32,-621.58 1258.07,-614.59"/>
</g>
<!-- Node22 -->
<g id="node22" class="node">
<title>Node22</title>
<g id="a_node22"><a xlink:href="class_example_timer.html" target="_top" xlink:title="Example to show the function of an timer.">
<polygon fill="none" stroke="black" points="2294.5,-431.5 2294.5,-488.5 2388.5,-488.5 2388.5,-431.5 2294.5,-431.5"/>
<text text-anchor="middle" x="2341.5" y="-476.5" font-family="Helvetica,sans-Serif" font-size="10.00">ExampleTimer</text>
<polyline fill="none" stroke="black" points="2294.5,-469.5 2388.5,-469.5 "/>
<text text-anchor="middle" x="2341.5" y="-457.5" font-family="Helvetica,sans-Serif" font-size="10.00"> </text>
<polyline fill="none" stroke="black" points="2294.5,-450.5 2388.5,-450.5 "/>
<text text-anchor="start" x="2302.5" y="-438.5" font-family="Helvetica,sans-Serif" font-size="10.00">+ ExampleTimer()</text>
</a>
</g>
</g>
<!-- Node1&#45;&gt;Node22 -->
<g id="edge25" class="edge">
<title>Node1&#45;&gt;Node22</title>
<path fill="none" stroke="midnightblue" d="M1258.4,-617.06C1400.99,-609.67 1780.51,-589.01 2096.5,-563 2180.2,-556.11 2212.25,-586.81 2284.5,-544 2305.71,-531.44 2320.84,-507.53 2330.16,-488.59"/>
<polygon fill="none" stroke="midnightblue" points="1257.95,-613.58 1248.14,-617.59 1258.31,-620.57 1257.95,-613.58"/>
</g>
<!-- Node7&#45;&gt;Node2 -->
<g id="edge7" class="edge">
<title>Node7&#45;&gt;Node2</title>
<path fill="none" stroke="orange" d="M161.59,-422.3C135.65,-405.9 108.45,-384.28 90.5,-358 73.56,-333.19 65.04,-300.83 60.76,-273.52"/>
<polygon fill="orange" stroke="orange" points="159.97,-425.42 170.33,-427.67 163.63,-419.45 159.97,-425.42"/>
<text text-anchor="middle" x="123" y="-350" font-family="Helvetica,sans-Serif" font-size="10.00"> &lt; std::string &gt;</text>
</g>
<!-- Node7&#45;&gt;Node3 -->
<g id="edge8" class="edge">
<title>Node7&#45;&gt;Node3</title>
<path fill="none" stroke="orange" d="M286.17,-401.09C296.33,-387.62 306.11,-372.86 313.5,-358 326.61,-331.64 335.48,-300.09 341.24,-273.67"/>
<polygon fill="orange" stroke="orange" points="283.17,-399.25 279.82,-409.3 288.71,-403.54 283.17,-399.25"/>
<text text-anchor="middle" x="385" y="-350" font-family="Helvetica,sans-Serif" font-size="10.00"> &lt; EBCpp::EBHttpRequest * &gt;</text>
</g>
<!-- Node7&#45;&gt;Node4 -->
<g id="edge9" class="edge">
<title>Node7&#45;&gt;Node4</title>
<path fill="none" stroke="orange" d="M183.23,-400.77C174.3,-387.53 166.34,-372.94 161.5,-358 152.58,-330.42 159.44,-299.33 169.66,-273.51"/>
<polygon fill="orange" stroke="orange" points="180.59,-403.1 189.21,-409.26 186.31,-399.07 180.59,-403.1"/>
<text text-anchor="middle" x="237.5" y="-350" font-family="Helvetica,sans-Serif" font-size="10.00"> &lt; EBCpp::EBTcpServerSocket * &gt;</text>
</g>
<!-- Node11&#45;&gt;Node5 -->
<g id="edge14" class="edge">
<title>Node11&#45;&gt;Node5</title>
<path fill="none" stroke="orange" d="M592.02,-411.03C584.52,-391.33 579.51,-368.2 584.5,-347 591.49,-317.28 606.45,-286.58 620.14,-262.64"/>
<polygon fill="orange" stroke="orange" points="588.83,-412.48 595.86,-420.41 595.31,-409.83 588.83,-412.48"/>
<text text-anchor="middle" x="642" y="-350" font-family="Helvetica,sans-Serif" font-size="10.00"> &lt; EBCpp::EBTcpServer &gt;</text>
</g>
<!-- Node13 -->
<g id="node13" class="node">
<title>Node13</title>
<g id="a_node13"><a xlink:href="class_e_b_cpp_1_1_e_b_tcp_socket.html" target="_top" xlink:title="Socket to handle a tcp connection.">
<polygon fill="none" stroke="black" points="1275,-106.5 1275,-328.5 1388,-328.5 1388,-106.5 1275,-106.5"/>
<text text-anchor="middle" x="1331.5" y="-316.5" font-family="Helvetica,sans-Serif" font-size="10.00">EBCpp::EBTcpSocket</text>
<polyline fill="none" stroke="black" points="1275,-309.5 1388,-309.5 "/>
<text text-anchor="start" x="1283" y="-297.5" font-family="Helvetica,sans-Serif" font-size="10.00">+ error</text>
<text text-anchor="start" x="1283" y="-286.5" font-family="Helvetica,sans-Serif" font-size="10.00">+ connected</text>
<text text-anchor="start" x="1283" y="-275.5" font-family="Helvetica,sans-Serif" font-size="10.00">+ disconnected</text>
<text text-anchor="start" x="1283" y="-264.5" font-family="Helvetica,sans-Serif" font-size="10.00">+ readReady</text>
<text text-anchor="start" x="1283" y="-253.5" font-family="Helvetica,sans-Serif" font-size="10.00"># socketId</text>
<text text-anchor="start" x="1283" y="-242.5" font-family="Helvetica,sans-Serif" font-size="10.00"># address</text>
<polyline fill="none" stroke="black" points="1275,-235.5 1388,-235.5 "/>
<text text-anchor="start" x="1283" y="-223.5" font-family="Helvetica,sans-Serif" font-size="10.00">+ EBTcpSocket()</text>
<text text-anchor="start" x="1283" y="-212.5" font-family="Helvetica,sans-Serif" font-size="10.00">+ ~EBTcpSocket()</text>
<text text-anchor="start" x="1283" y="-201.5" font-family="Helvetica,sans-Serif" font-size="10.00">+ open()</text>
<text text-anchor="start" x="1283" y="-190.5" font-family="Helvetica,sans-Serif" font-size="10.00">+ isOpened()</text>
<text text-anchor="start" x="1283" y="-179.5" font-family="Helvetica,sans-Serif" font-size="10.00">+ close()</text>
<text text-anchor="start" x="1283" y="-168.5" font-family="Helvetica,sans-Serif" font-size="10.00">+ write()</text>
<text text-anchor="start" x="1283" y="-157.5" font-family="Helvetica,sans-Serif" font-size="10.00">+ write()</text>
<text text-anchor="start" x="1283" y="-146.5" font-family="Helvetica,sans-Serif" font-size="10.00">+ read()</text>
<text text-anchor="start" x="1283" y="-135.5" font-family="Helvetica,sans-Serif" font-size="10.00">+ canReadLine()</text>
<text text-anchor="start" x="1283" y="-124.5" font-family="Helvetica,sans-Serif" font-size="10.00">+ readLine()</text>
<text text-anchor="start" x="1283" y="-113.5" font-family="Helvetica,sans-Serif" font-size="10.00"># startThread()</text>
</a>
</g>
</g>
<!-- Node12&#45;&gt;Node13 -->
<g id="edge16" class="edge">
<title>Node12&#45;&gt;Node13</title>
<path fill="none" stroke="midnightblue" d="M1331.5,-366.04C1331.5,-353.78 1331.5,-341.12 1331.5,-328.6"/>
<polygon fill="none" stroke="midnightblue" points="1328,-366.23 1331.5,-376.23 1335,-366.23 1328,-366.23"/>
</g>
<!-- Node14 -->
<g id="node14" class="node">
<title>Node14</title>
<g id="a_node14"><a xlink:href="class_e_b_cpp_1_1_e_b_tcp_server_socket.html" target="_top" xlink:title="Class that handles a tcp socket for the EBTcpServer.">
<polygon fill="none" stroke="black" points="1261.5,-0.5 1261.5,-68.5 1401.5,-68.5 1401.5,-0.5 1261.5,-0.5"/>
<text text-anchor="middle" x="1331.5" y="-56.5" font-family="Helvetica,sans-Serif" font-size="10.00">EBCpp::EBTcpServerSocket</text>
<polyline fill="none" stroke="black" points="1261.5,-49.5 1401.5,-49.5 "/>
<text text-anchor="middle" x="1331.5" y="-37.5" font-family="Helvetica,sans-Serif" font-size="10.00"> </text>
<polyline fill="none" stroke="black" points="1261.5,-30.5 1401.5,-30.5 "/>
<text text-anchor="start" x="1269.5" y="-18.5" font-family="Helvetica,sans-Serif" font-size="10.00">+ EBTcpServerSocket()</text>
<text text-anchor="start" x="1269.5" y="-7.5" font-family="Helvetica,sans-Serif" font-size="10.00">+ open()</text>
</a>
</g>
</g>
<!-- Node13&#45;&gt;Node14 -->
<g id="edge17" class="edge">
<title>Node13&#45;&gt;Node14</title>
<path fill="none" stroke="midnightblue" d="M1331.5,-96.21C1331.5,-86.32 1331.5,-76.96 1331.5,-68.69"/>
<polygon fill="none" stroke="midnightblue" points="1328,-96.26 1331.5,-106.26 1335,-96.26 1328,-96.26"/>
</g>
</g>
</svg>
        <g id="navigator" transform="translate(0 0)" fill="#404254">
                <rect fill="#f2f5e9" fill-opacity="0.5" stroke="#606060" stroke-width=".5" x="0" y="0" width="60" height="60"/>
                <use id="zoomplus" xlink:href="#zoomPlus" x="17" y="9" onmousedown="handleZoom(evt,'in')"/>
                <use id="zoomminus" xlink:href="#zoomMin" x="42" y="9" onmousedown="handleZoom(evt,'out')"/>
                <use id="reset" xlink:href="#resetDef" x="30" y="36" onmousedown="handleReset()"/>
                <g id="arrowUp" xlink:href="#dirArrow" transform="translate(30 24)" onmousedown="handlePan(0,-1)">
                  <use xlink:href="#rim" fill="#404040">
                        <set attributeName="fill" to="#808080" begin="arrowUp.mouseover" end="arrowUp.mouseout"/>
                  </use>
                  <path fill="none" stroke="white" stroke-width="1.5" d="M0,-3.0v7 M-2.5,-0.5L0,-3.0L2.5,-0.5"/>
                </g>
                <g id="arrowRight" xlink:href="#dirArrow" transform="rotate(90) translate(36 -43)" onmousedown="handlePan(1,0)">
                  <use xlink:href="#rim" fill="#404040">
                        <set attributeName="fill" to="#808080" begin="arrowRight.mouseover" end="arrowRight.mouseout"/>
                  </use>
                  <path fill="none" stroke="white" stroke-width="1.5" d="M0,-3.0v7 M-2.5,-0.5L0,-3.0L2.5,-0.5"/>
                </g>
                <g id="arrowDown" xlink:href="#dirArrow" transform="rotate(180) translate(-30 -48)" onmousedown="handlePan(0,1)">
                  <use xlink:href="#rim" fill="#404040">
                        <set attributeName="fill" to="#808080" begin="arrowDown.mouseover" end="arrowDown.mouseout"/>
                  </use>
                  <path fill="none" stroke="white" stroke-width="1.5" d="M0,-3.0v7 M-2.5,-0.5L0,-3.0L2.5,-0.5"/>
                </g>
                <g id="arrowLeft" xlink:href="#dirArrow" transform="rotate(270) translate(-36 17)" onmousedown="handlePan(-1,0)">
                  <use xlink:href="#rim" fill="#404040">
                        <set attributeName="fill" to="#808080" begin="arrowLeft.mouseover" end="arrowLeft.mouseout"/>
                  </use>
                  <path fill="none" stroke="white" stroke-width="1.5" d="M0,-3.0v7 M-2.5,-0.5L0,-3.0L2.5,-0.5"/>
                </g>
        </g>
        <svg viewBox="0 0 15 15" width="100%" height="30px" preserveAspectRatio="xMaxYMin meet">
         <g id="arrow_out" transform="scale(0.3 0.3)">
          <a xlink:href="class_e_b_cpp_1_1_e_b_object__inherit__graph_org.svg" target="_base">
           <rect id="button" ry="5" rx="5" y="6" x="6" height="38" width="38"
                fill="#f2f5e9" fill-opacity="0.5" stroke="#606060" stroke-width="1.0"/>
           <path id="arrow"
             d="M 11.500037,31.436501 C 11.940474,20.09759 22.043105,11.32322 32.158766,21.979434 L 37.068811,17.246167 C 37.068811,17.246167 37.088388,32 37.088388,32 L 22.160133,31.978069 C 22.160133,31.978069 26.997745,27.140456 26.997745,27.140456 C 18.528582,18.264221 13.291696,25.230495 11.500037,31.436501 z"
             style="fill:#404040;"/>
          </a>
         </g>
        </svg>
</svg>
