<?xml version="1.0" encoding="UTF-8" standalone="no"?>
<!DOCTYPE svg PUBLIC "-//W3C//DTD SVG 1.1//EN"
 "http://www.w3.org/Graphics/SVG/1.1/DTD/svg11.dtd">
<!-- Generated by graphviz version 2.46.0 (20210118.1747)
 -->
<!-- Title: EBCpp::EBHttpServer&lt; T &gt; Pages: 1 -->
<svg width="191pt" height="343pt"
 viewBox="0.00 0.00 190.50 343.00" xmlns="http://www.w3.org/2000/svg" xmlns:xlink="http://www.w3.org/1999/xlink">
<g id="graph0" class="graph" transform="scale(1 1) rotate(0) translate(4 339)">
<title>EBCpp::EBHttpServer&lt; T &gt;</title>
<!-- Node1 -->
<g id="node1" class="node">
<title>Node1</title>
<g id="a_node1"><a xlink:title="Implementation of a http server.">
<polygon fill="#bfbfbf" stroke="black" points="0,-138.5 0,-217.5 135,-217.5 135,-138.5 0,-138.5"/>
<text text-anchor="middle" x="67.5" y="-205.5" font-family="Helvetica,sans-Serif" font-size="10.00">EBCpp::EBHttpServer&lt; T &gt;</text>
<polyline fill="none" stroke="black" points="0,-198.5 135,-198.5 "/>
<text text-anchor="start" x="8" y="-186.5" font-family="Helvetica,sans-Serif" font-size="10.00">+ newRequest</text>
<polyline fill="none" stroke="black" points="0,-179.5 135,-179.5 "/>
<text text-anchor="start" x="8" y="-167.5" font-family="Helvetica,sans-Serif" font-size="10.00">+ EBHttpServer()</text>
<text text-anchor="start" x="8" y="-156.5" font-family="Helvetica,sans-Serif" font-size="10.00">+ bind()</text>
<text text-anchor="start" x="8" y="-145.5" font-family="Helvetica,sans-Serif" font-size="10.00">+ unbind()</text>
</a>
</g>
</g>
<!-- Node3 -->
<g id="node3" class="node">
<title>Node3</title>
<g id="a_node3"><a xlink:href="class_e_b_cpp_1_1_e_b_http_server.html" target="_top" xlink:title=" ">
<polygon fill="none" stroke="black" points="3.5,-0.5 3.5,-90.5 131.5,-90.5 131.5,-0.5 3.5,-0.5"/>
<text text-anchor="start" x="11.5" y="-78.5" font-family="Helvetica,sans-Serif" font-size="10.00">EBCpp::EBHttpServer</text>
<text text-anchor="middle" x="67.5" y="-67.5" font-family="Helvetica,sans-Serif" font-size="10.00">&lt; EBCpp::EBTcpServer &gt;</text>
<polyline fill="none" stroke="black" points="3.5,-60.5 131.5,-60.5 "/>
<text text-anchor="start" x="11.5" y="-48.5" font-family="Helvetica,sans-Serif" font-size="10.00">+ newRequest</text>
<polyline fill="none" stroke="black" points="3.5,-41.5 131.5,-41.5 "/>
<text text-anchor="start" x="11.5" y="-29.5" font-family="Helvetica,sans-Serif" font-size="10.00">+ EBHttpServer()</text>
<text text-anchor="start" x="11.5" y="-18.5" font-family="Helvetica,sans-Serif" font-size="10.00">+ bind()</text>
<text text-anchor="start" x="11.5" y="-7.5" font-family="Helvetica,sans-Serif" font-size="10.00">+ unbind()</text>
</a>
</g>
</g>
<!-- Node1&#45;&gt;Node3 -->
<g id="edge2" class="edge">
<title>Node1&#45;&gt;Node3</title>
<path fill="none" stroke="orange" d="M67.5,-128.16C67.5,-115.93 67.5,-102.88 67.5,-90.88"/>
<polygon fill="orange" stroke="orange" points="64,-128.2 67.5,-138.2 71,-128.2 64,-128.2"/>
<text text-anchor="middle" x="125" y="-112" font-family="Helvetica,sans-Serif" font-size="10.00"> &lt; EBCpp::EBTcpServer &gt;</text>
</g>
<!-- Node2 -->
<g id="node2" class="node">
<title>Node2</title>
<g id="a_node2"><a xlink:href="class_e_b_cpp_1_1_e_b_object.html" target="_top" xlink:title="The core object. Every object from EBCpp must inherit this.">
<polygon fill="none" stroke="black" points="20,-255.5 20,-334.5 115,-334.5 115,-255.5 20,-255.5"/>
<text text-anchor="middle" x="67.5" y="-322.5" font-family="Helvetica,sans-Serif" font-size="10.00">EBCpp::EBObject</text>
<polyline fill="none" stroke="black" points="20,-315.5 115,-315.5 "/>
<text text-anchor="middle" x="67.5" y="-303.5" font-family="Helvetica,sans-Serif" font-size="10.00"> </text>
<polyline fill="none" stroke="black" points="20,-296.5 115,-296.5 "/>
<text text-anchor="start" x="28" y="-284.5" font-family="Helvetica,sans-Serif" font-size="10.00">+ EBObject()</text>
<text text-anchor="start" x="28" y="-273.5" font-family="Helvetica,sans-Serif" font-size="10.00">+ ~EBObject()</text>
<text text-anchor="start" x="28" y="-262.5" font-family="Helvetica,sans-Serif" font-size="10.00">+ getName()</text>
</a>
</g>
</g>
<!-- Node2&#45;&gt;Node1 -->
<g id="edge1" class="edge">
<title>Node2&#45;&gt;Node1</title>
<path fill="none" stroke="midnightblue" d="M67.5,-245.2C67.5,-236.02 67.5,-226.53 67.5,-217.71"/>
<polygon fill="none" stroke="midnightblue" points="64,-245.39 67.5,-255.39 71,-245.39 64,-245.39"/>
</g>
</g>
</svg>
