<?xml version="1.0" encoding="UTF-8" standalone="no"?>
<!DOCTYPE svg PUBLIC "-//W3C//DTD SVG 1.1//EN"
 "http://www.w3.org/Graphics/SVG/1.1/DTD/svg11.dtd">
<!-- Generated by graphviz version 2.46.0 (20210118.1747)
 -->
<!-- Title: EBCpp::EBTcpServer Pages: 1 -->
<svg width="256pt" height="525pt"
 viewBox="0.00 0.00 255.50 525.00" xmlns="http://www.w3.org/2000/svg" xmlns:xlink="http://www.w3.org/1999/xlink">
<g id="graph0" class="graph" transform="scale(1 1) rotate(0) translate(4 521)">
<title>EBCpp::EBTcpServer</title>
<!-- Node1 -->
<g id="node1" class="node">
<title>Node1</title>
<g id="a_node1"><a xlink:title="Creates a TCP server.">
<polygon fill="#bfbfbf" stroke="black" points="48.5,-0.5 48.5,-90.5 158.5,-90.5 158.5,-0.5 48.5,-0.5"/>
<text text-anchor="middle" x="103.5" y="-78.5" font-family="Helvetica,sans-Serif" font-size="10.00">EBCpp::EBTcpServer</text>
<polyline fill="none" stroke="black" points="48.5,-71.5 158.5,-71.5 "/>
<text text-anchor="middle" x="103.5" y="-59.5" font-family="Helvetica,sans-Serif" font-size="10.00"> </text>
<polyline fill="none" stroke="black" points="48.5,-52.5 158.5,-52.5 "/>
<text text-anchor="start" x="56.5" y="-40.5" font-family="Helvetica,sans-Serif" font-size="10.00">+ EBTcpServer()</text>
<text text-anchor="start" x="56.5" y="-29.5" font-family="Helvetica,sans-Serif" font-size="10.00">+ bind()</text>
<text text-anchor="start" x="56.5" y="-18.5" font-family="Helvetica,sans-Serif" font-size="10.00">+ unbind()</text>
<text text-anchor="start" x="56.5" y="-7.5" font-family="Helvetica,sans-Serif" font-size="10.00"># nextConnection()</text>
</a>
</g>
</g>
<!-- Node2 -->
<g id="node2" class="node">
<title>Node2</title>
<g id="a_node2"><a xlink:href="class_e_b_cpp_1_1_e_b_object.html" target="_top" xlink:title="The core object. Every object from EBCpp must inherit this.">
<polygon fill="none" stroke="black" points="0,-437.5 0,-516.5 95,-516.5 95,-437.5 0,-437.5"/>
<text text-anchor="middle" x="47.5" y="-504.5" font-family="Helvetica,sans-Serif" font-size="10.00">EBCpp::EBObject</text>
<polyline fill="none" stroke="black" points="0,-497.5 95,-497.5 "/>
<text text-anchor="middle" x="47.5" y="-485.5" font-family="Helvetica,sans-Serif" font-size="10.00"> </text>
<polyline fill="none" stroke="black" points="0,-478.5 95,-478.5 "/>
<text text-anchor="start" x="8" y="-466.5" font-family="Helvetica,sans-Serif" font-size="10.00">+ EBObject()</text>
<text text-anchor="start" x="8" y="-455.5" font-family="Helvetica,sans-Serif" font-size="10.00">+ ~EBObject()</text>
<text text-anchor="start" x="8" y="-444.5" font-family="Helvetica,sans-Serif" font-size="10.00">+ getName()</text>
</a>
</g>
</g>
<!-- Node2&#45;&gt;Node1 -->
<g id="edge1" class="edge">
<title>Node2&#45;&gt;Node1</title>
<path fill="none" stroke="midnightblue" d="M33.23,-427.47C16.01,-360.26 -6.55,-236.04 28.5,-138 34.65,-120.79 45.59,-104.48 57.25,-90.54"/>
<polygon fill="none" stroke="midnightblue" points="29.9,-428.57 35.83,-437.35 36.67,-426.79 29.9,-428.57"/>
</g>
<!-- Node4 -->
<g id="node4" class="node">
<title>Node4</title>
<g id="a_node4"><a xlink:href="class_e_b_cpp_1_1_e_b_event.html" target="_top" xlink:title=" ">
<polygon fill="none" stroke="black" points="38,-138.5 38,-250.5 169,-250.5 169,-138.5 38,-138.5"/>
<text text-anchor="start" x="46" y="-238.5" font-family="Helvetica,sans-Serif" font-size="10.00">EBCpp::EBEvent&lt; EBCpp</text>
<text text-anchor="middle" x="103.5" y="-227.5" font-family="Helvetica,sans-Serif" font-size="10.00">::EBTcpSocket * &gt;</text>
<polyline fill="none" stroke="black" points="38,-220.5 169,-220.5 "/>
<text text-anchor="middle" x="103.5" y="-208.5" font-family="Helvetica,sans-Serif" font-size="10.00"> </text>
<polyline fill="none" stroke="black" points="38,-201.5 169,-201.5 "/>
<text text-anchor="start" x="46" y="-189.5" font-family="Helvetica,sans-Serif" font-size="10.00">+ EBEvent()</text>
<text text-anchor="start" x="46" y="-178.5" font-family="Helvetica,sans-Serif" font-size="10.00">+ ~EBEvent()</text>
<text text-anchor="start" x="46" y="-167.5" font-family="Helvetica,sans-Serif" font-size="10.00">+ connect()</text>
<text text-anchor="start" x="46" y="-156.5" font-family="Helvetica,sans-Serif" font-size="10.00">+ connect()</text>
<text text-anchor="start" x="46" y="-145.5" font-family="Helvetica,sans-Serif" font-size="10.00">+ emit()</text>
</a>
</g>
</g>
<!-- Node2&#45;&gt;Node4 -->
<g id="edge4" class="edge">
<title>Node2&#45;&gt;Node4</title>
<path fill="none" stroke="#8b1a1a" d="M49.56,-427.12C51.83,-391.06 56.6,-341 66.5,-298 70.11,-282.33 75.4,-265.76 80.86,-250.63"/>
<polygon fill="none" stroke="#8b1a1a" points="46.05,-427.18 48.95,-437.36 53.03,-427.59 46.05,-427.18"/>
</g>
<!-- Node5 -->
<g id="node5" class="node">
<title>Node5</title>
<g id="a_node5"><a xlink:href="class_e_b_cpp_1_1_e_b_event.html" target="_top" xlink:title="This objects handles an event.">
<polygon fill="none" stroke="black" points="75.5,-298.5 75.5,-399.5 203.5,-399.5 203.5,-298.5 75.5,-298.5"/>
<text text-anchor="middle" x="139.5" y="-387.5" font-family="Helvetica,sans-Serif" font-size="10.00">EBCpp::EBEvent&lt; args &gt;</text>
<polyline fill="none" stroke="black" points="75.5,-380.5 203.5,-380.5 "/>
<text text-anchor="middle" x="139.5" y="-368.5" font-family="Helvetica,sans-Serif" font-size="10.00"> </text>
<polyline fill="none" stroke="black" points="75.5,-361.5 203.5,-361.5 "/>
<text text-anchor="start" x="83.5" y="-349.5" font-family="Helvetica,sans-Serif" font-size="10.00">+ EBEvent()</text>
<text text-anchor="start" x="83.5" y="-338.5" font-family="Helvetica,sans-Serif" font-size="10.00">+ ~EBEvent()</text>
<text text-anchor="start" x="83.5" y="-327.5" font-family="Helvetica,sans-Serif" font-size="10.00">+ connect()</text>
<text text-anchor="start" x="83.5" y="-316.5" font-family="Helvetica,sans-Serif" font-size="10.00">+ connect()</text>
<text text-anchor="start" x="83.5" y="-305.5" font-family="Helvetica,sans-Serif" font-size="10.00">+ emit()</text>
</a>
</g>
</g>
<!-- Node2&#45;&gt;Node5 -->
<g id="edge6" class="edge">
<title>Node2&#45;&gt;Node5</title>
<path fill="none" stroke="#8b1a1a" d="M81.87,-428.92C88.85,-419.36 96.22,-409.28 103.26,-399.63"/>
<polygon fill="none" stroke="#8b1a1a" points="78.92,-427.03 75.85,-437.17 84.58,-431.16 78.92,-427.03"/>
</g>
<!-- Node3 -->
<g id="node3" class="node">
<title>Node3</title>
<g id="a_node3"><a xlink:title=" ">
<polygon fill="none" stroke="#bfbfbf" points="187.5,-166 187.5,-223 233.5,-223 233.5,-166 187.5,-166"/>
<text text-anchor="middle" x="210.5" y="-211" font-family="Helvetica,sans-Serif" font-size="10.00">int32_t</text>
<polyline fill="none" stroke="#bfbfbf" points="187.5,-204 233.5,-204 "/>
<text text-anchor="middle" x="210.5" y="-192" font-family="Helvetica,sans-Serif" font-size="10.00"> </text>
<polyline fill="none" stroke="#bfbfbf" points="187.5,-185 233.5,-185 "/>
<text text-anchor="middle" x="210.5" y="-173" font-family="Helvetica,sans-Serif" font-size="10.00"> </text>
</a>
</g>
</g>
<!-- Node3&#45;&gt;Node1 -->
<g id="edge2" class="edge">
<title>Node3&#45;&gt;Node1</title>
<path fill="none" stroke="#404040" d="M205.99,-165.76C202.14,-148.29 195.3,-125.93 183.5,-109 179.07,-102.64 173.8,-96.62 168.12,-91.02"/>
<polygon fill="none" stroke="#404040" points="167.73,-90.67 160.61,-89.56 158.89,-82.55 166.02,-83.66 167.73,-90.67"/>
<text text-anchor="middle" x="212.5" y="-112" font-family="Helvetica,sans-Serif" font-size="10.00"> #socketId</text>
</g>
<!-- Node4&#45;&gt;Node1 -->
<g id="edge3" class="edge">
<title>Node4&#45;&gt;Node1</title>
<path fill="none" stroke="#404040" d="M103.5,-138.34C103.5,-126.86 103.5,-114.73 103.5,-103.19"/>
<polygon fill="none" stroke="#404040" points="103.5,-102.95 99.5,-96.95 103.5,-90.95 107.5,-96.95 103.5,-102.95"/>
<text text-anchor="middle" x="141.5" y="-112" font-family="Helvetica,sans-Serif" font-size="10.00"> +newConnection</text>
</g>
<!-- Node5&#45;&gt;Node4 -->
<g id="edge5" class="edge">
<title>Node5&#45;&gt;Node4</title>
<path fill="none" stroke="orange" d="M125.48,-288.61C122.52,-276.09 119.42,-262.92 116.5,-250.57"/>
<polygon fill="orange" stroke="orange" points="122.11,-289.56 127.81,-298.49 128.92,-287.95 122.11,-289.56"/>
<text text-anchor="middle" x="185" y="-272" font-family="Helvetica,sans-Serif" font-size="10.00"> &lt; EBCpp::EBTcpSocket * &gt;</text>
</g>
</g>
</svg>
