<?xml version="1.0" encoding="UTF-8" standalone="no"?>
<!DOCTYPE svg PUBLIC "-//W3C//DTD SVG 1.1//EN"
 "http://www.w3.org/Graphics/SVG/1.1/DTD/svg11.dtd">
<!-- Generated by graphviz version 2.46.0 (20210118.1747)
 -->
<!-- Title: EBCpp::EBTcpServerSocket Pages: 1 -->
<!--zoomable 887 -->
<svg id="main" version="1.1" xmlns="http://www.w3.org/2000/svg" xmlns:xlink="http://www.w3.org/1999/xlink" xml:space="preserve" onload="init(evt)">
<style type="text/css"><![CDATA[
.edge:hover path { stroke: red; }
.edge:hover polygon { stroke: red; fill: red; }
]]></style>
<script type="text/javascript"><![CDATA[
var edges = document.getElementsByTagName('g');
if (edges && edges.length) {
  for (var i=0;i<edges.length;i++) {
    if (edges[i].id.substr(0,4)=='edge') {
      edges[i].setAttribute('class','edge');
    }
  }
}
]]></script>
        <defs>
                <circle id="rim" cx="0" cy="0" r="7"/>
                <circle id="rim2" cx="0" cy="0" r="3.5"/>
                <g id="zoomPlus">
                        <use xlink:href="#rim" fill="#404040">
                                <set attributeName="fill" to="#808080" begin="zoomplus.mouseover" end="zoomplus.mouseout"/>
                        </use>
                        <path d="M-4,0h8M0,-4v8" fill="none" stroke="white" stroke-width="1.5" pointer-events="none"/>
                </g>
                <g id="zoomMin">
                        <use xlink:href="#rim" fill="#404040">
                                <set attributeName="fill" to="#808080" begin="zoomminus.mouseover" end="zoomminus.mouseout"/>
                        </use>
                        <path d="M-4,0h8" fill="none" stroke="white" stroke-width="1.5" pointer-events="none"/>
                </g>
                <g id="dirArrow">
                        <path fill="none" stroke="white" stroke-width="1.5" d="M0,-3.0v7 M-2.5,-0.5L0,-3.0L2.5,-0.5"/>
                </g>
               <g id="resetDef">
                       <use xlink:href="#rim2" fill="#404040">
                               <set attributeName="fill" to="#808080" begin="reset.mouseover" end="reset.mouseout"/>
                       </use>
               </g>
        </defs>

<script type="text/javascript">
var viewWidth = 493;
var viewHeight = 887;
var sectionId = 'dynsection-1';
</script>
<script xlink:href="svgpan.js"/>
<svg id="graph" class="graph">
<g id="viewport">
<title>EBCpp::EBTcpServerSocket</title>
<!-- Node1 -->
<g id="node1" class="node">
<title>Node1</title>
<g id="a_node1"><a xlink:title="Class that handles a tcp socket for the EBTcpServer.">
<polygon fill="#bfbfbf" stroke="black" points="189.5,-0.5 189.5,-68.5 329.5,-68.5 329.5,-0.5 189.5,-0.5"/>
<text text-anchor="middle" x="259.5" y="-56.5" font-family="Helvetica,sans-Serif" font-size="10.00">EBCpp::EBTcpServerSocket</text>
<polyline fill="none" stroke="black" points="189.5,-49.5 329.5,-49.5 "/>
<text text-anchor="middle" x="259.5" y="-37.5" font-family="Helvetica,sans-Serif" font-size="10.00"> </text>
<polyline fill="none" stroke="black" points="189.5,-30.5 329.5,-30.5 "/>
<text text-anchor="start" x="197.5" y="-18.5" font-family="Helvetica,sans-Serif" font-size="10.00">+ EBTcpServerSocket()</text>
<text text-anchor="start" x="197.5" y="-7.5" font-family="Helvetica,sans-Serif" font-size="10.00">+ open()</text>
</a>
</g>
</g>
<!-- Node2 -->
<g id="node2" class="node">
<title>Node2</title>
<g id="a_node2"><a xlink:href="class_e_b_cpp_1_1_e_b_tcp_socket.html" target="_top" xlink:title="Socket to handle a tcp connection.">
<polygon fill="none" stroke="black" points="203,-106.5 203,-295.5 316,-295.5 316,-106.5 203,-106.5"/>
<text text-anchor="middle" x="259.5" y="-283.5" font-family="Helvetica,sans-Serif" font-size="10.00">EBCpp::EBTcpSocket</text>
<polyline fill="none" stroke="black" points="203,-276.5 316,-276.5 "/>
<text text-anchor="middle" x="259.5" y="-264.5" font-family="Helvetica,sans-Serif" font-size="10.00"> </text>
<polyline fill="none" stroke="black" points="203,-257.5 316,-257.5 "/>
<text text-anchor="start" x="211" y="-245.5" font-family="Helvetica,sans-Serif" font-size="10.00">+ EBTcpSocket()</text>
<text text-anchor="start" x="211" y="-234.5" font-family="Helvetica,sans-Serif" font-size="10.00">+ ~EBTcpSocket()</text>
<text text-anchor="start" x="211" y="-223.5" font-family="Helvetica,sans-Serif" font-size="10.00">+ open()</text>
<text text-anchor="start" x="211" y="-212.5" font-family="Helvetica,sans-Serif" font-size="10.00">+ isOpened()</text>
<text text-anchor="start" x="211" y="-201.5" font-family="Helvetica,sans-Serif" font-size="10.00">+ close()</text>
<text text-anchor="start" x="211" y="-190.5" font-family="Helvetica,sans-Serif" font-size="10.00">+ write()</text>
<text text-anchor="start" x="211" y="-179.5" font-family="Helvetica,sans-Serif" font-size="10.00">+ write()</text>
<text text-anchor="start" x="211" y="-168.5" font-family="Helvetica,sans-Serif" font-size="10.00">+ read()</text>
<text text-anchor="start" x="211" y="-157.5" font-family="Helvetica,sans-Serif" font-size="10.00">+ canReadLine()</text>
<text text-anchor="start" x="211" y="-146.5" font-family="Helvetica,sans-Serif" font-size="10.00">+ readLine()</text>
<text text-anchor="start" x="211" y="-135.5" font-family="Helvetica,sans-Serif" font-size="10.00"># startThread()</text>
<text text-anchor="start" x="211" y="-124.5" font-family="Helvetica,sans-Serif" font-size="10.00"># connect()</text>
<text text-anchor="start" x="211" y="-113.5" font-family="Helvetica,sans-Serif" font-size="10.00"># receiveData()</text>
</a>
</g>
</g>
<!-- Node2&#45;&gt;Node1 -->
<g id="edge1" class="edge">
<title>Node2&#45;&gt;Node1</title>
<path fill="none" stroke="midnightblue" d="M259.5,-95.95C259.5,-86.22 259.5,-76.93 259.5,-68.68"/>
<polygon fill="none" stroke="midnightblue" points="256,-96.22 259.5,-106.22 263,-96.22 256,-96.22"/>
</g>
<!-- Node3 -->
<g id="node3" class="node">
<title>Node3</title>
<g id="a_node3"><a xlink:href="class_e_b_cpp_1_1_e_b_i_o_device.html" target="_top" xlink:title="Interface description of an input/output device.">
<polygon fill="none" stroke="black" points="0,-474.5 0,-641.5 105,-641.5 105,-474.5 0,-474.5"/>
<text text-anchor="middle" x="52.5" y="-629.5" font-family="Helvetica,sans-Serif" font-size="10.00">EBCpp::EBIODevice</text>
<polyline fill="none" stroke="black" points="0,-622.5 105,-622.5 "/>
<text text-anchor="middle" x="52.5" y="-610.5" font-family="Helvetica,sans-Serif" font-size="10.00"> </text>
<polyline fill="none" stroke="black" points="0,-603.5 105,-603.5 "/>
<text text-anchor="start" x="8" y="-591.5" font-family="Helvetica,sans-Serif" font-size="10.00">+ EBIODevice()</text>
<text text-anchor="start" x="8" y="-580.5" font-family="Helvetica,sans-Serif" font-size="10.00">+ open()</text>
<text text-anchor="start" x="8" y="-569.5" font-family="Helvetica,sans-Serif" font-size="10.00">+ isOpened()</text>
<text text-anchor="start" x="8" y="-558.5" font-family="Helvetica,sans-Serif" font-size="10.00">+ close()</text>
<text text-anchor="start" x="8" y="-547.5" font-family="Helvetica,sans-Serif" font-size="10.00">+ write()</text>
<text text-anchor="start" x="8" y="-536.5" font-family="Helvetica,sans-Serif" font-size="10.00">+ write()</text>
<text text-anchor="start" x="8" y="-525.5" font-family="Helvetica,sans-Serif" font-size="10.00">+ read()</text>
<text text-anchor="start" x="8" y="-514.5" font-family="Helvetica,sans-Serif" font-size="10.00">+ canReadLine()</text>
<text text-anchor="start" x="8" y="-503.5" font-family="Helvetica,sans-Serif" font-size="10.00">+ readLine()</text>
<text text-anchor="start" x="8" y="-492.5" font-family="Helvetica,sans-Serif" font-size="10.00">+ setFileName()</text>
<text text-anchor="start" x="8" y="-481.5" font-family="Helvetica,sans-Serif" font-size="10.00">+ getFileName()</text>
</a>
</g>
</g>
<!-- Node3&#45;&gt;Node2 -->
<g id="edge2" class="edge">
<title>Node3&#45;&gt;Node2</title>
<path fill="none" stroke="midnightblue" d="M56.6,-464.09C62.61,-415.78 76.25,-357.83 106.5,-314 130.9,-278.64 170.18,-250.23 202.83,-230.87"/>
<polygon fill="none" stroke="midnightblue" points="53.1,-463.91 55.43,-474.24 60.05,-464.71 53.1,-463.91"/>
</g>
<!-- Node4 -->
<g id="node4" class="node">
<title>Node4</title>
<g id="a_node4"><a xlink:href="class_e_b_cpp_1_1_e_b_object.html" target="_top" xlink:title="The core object. Every object from EBCpp must inherit this.">
<polygon fill="none" stroke="black" points="114,-799.5 114,-878.5 209,-878.5 209,-799.5 114,-799.5"/>
<text text-anchor="middle" x="161.5" y="-866.5" font-family="Helvetica,sans-Serif" font-size="10.00">EBCpp::EBObject</text>
<polyline fill="none" stroke="black" points="114,-859.5 209,-859.5 "/>
<text text-anchor="middle" x="161.5" y="-847.5" font-family="Helvetica,sans-Serif" font-size="10.00"> </text>
<polyline fill="none" stroke="black" points="114,-840.5 209,-840.5 "/>
<text text-anchor="start" x="122" y="-828.5" font-family="Helvetica,sans-Serif" font-size="10.00">+ EBObject()</text>
<text text-anchor="start" x="122" y="-817.5" font-family="Helvetica,sans-Serif" font-size="10.00">+ ~EBObject()</text>
<text text-anchor="start" x="122" y="-806.5" font-family="Helvetica,sans-Serif" font-size="10.00">+ getName()</text>
</a>
</g>
</g>
<!-- Node4&#45;&gt;Node3 -->
<g id="edge3" class="edge">
<title>Node4&#45;&gt;Node3</title>
<path fill="none" stroke="midnightblue" d="M109.17,-791.85C101.21,-782.67 93.88,-772.57 88.5,-762 69.68,-724.99 60.53,-679.84 56.14,-641.53"/>
<polygon fill="none" stroke="midnightblue" points="106.66,-794.28 115.97,-799.33 111.84,-789.58 106.66,-794.28"/>
</g>
<!-- Node6 -->
<g id="node6" class="node">
<title>Node6</title>
<g id="a_node6"><a xlink:href="class_e_b_cpp_1_1_e_b_event.html" target="_top" xlink:title="This objects handles an event.">
<polygon fill="none" stroke="black" points="97.5,-660.5 97.5,-761.5 225.5,-761.5 225.5,-660.5 97.5,-660.5"/>
<text text-anchor="middle" x="161.5" y="-749.5" font-family="Helvetica,sans-Serif" font-size="10.00">EBCpp::EBEvent&lt; args &gt;</text>
<polyline fill="none" stroke="black" points="97.5,-742.5 225.5,-742.5 "/>
<text text-anchor="middle" x="161.5" y="-730.5" font-family="Helvetica,sans-Serif" font-size="10.00"> </text>
<polyline fill="none" stroke="black" points="97.5,-723.5 225.5,-723.5 "/>
<text text-anchor="start" x="105.5" y="-711.5" font-family="Helvetica,sans-Serif" font-size="10.00">+ EBEvent()</text>
<text text-anchor="start" x="105.5" y="-700.5" font-family="Helvetica,sans-Serif" font-size="10.00">+ ~EBEvent()</text>
<text text-anchor="start" x="105.5" y="-689.5" font-family="Helvetica,sans-Serif" font-size="10.00">+ connect()</text>
<text text-anchor="start" x="105.5" y="-678.5" font-family="Helvetica,sans-Serif" font-size="10.00">+ connect()</text>
<text text-anchor="start" x="105.5" y="-667.5" font-family="Helvetica,sans-Serif" font-size="10.00">+ emit()</text>
</a>
</g>
</g>
<!-- Node4&#45;&gt;Node6 -->
<g id="edge6" class="edge">
<title>Node4&#45;&gt;Node6</title>
<path fill="none" stroke="#8b1a1a" d="M161.5,-788.89C161.5,-779.94 161.5,-770.6 161.5,-761.63"/>
<polygon fill="none" stroke="#8b1a1a" points="158,-789.17 161.5,-799.17 165,-789.17 158,-789.17"/>
</g>
<!-- Node7 -->
<g id="node7" class="node">
<title>Node7</title>
<g id="a_node7"><a xlink:href="class_e_b_cpp_1_1_e_b_event.html" target="_top" xlink:title=" ">
<polygon fill="none" stroke="black" points="203,-343.5 203,-455.5 316,-455.5 316,-343.5 203,-343.5"/>
<text text-anchor="start" x="211" y="-443.5" font-family="Helvetica,sans-Serif" font-size="10.00">EBCpp::EBEvent&lt; std</text>
<text text-anchor="middle" x="259.5" y="-432.5" font-family="Helvetica,sans-Serif" font-size="10.00">::string &gt;</text>
<polyline fill="none" stroke="black" points="203,-425.5 316,-425.5 "/>
<text text-anchor="middle" x="259.5" y="-413.5" font-family="Helvetica,sans-Serif" font-size="10.00"> </text>
<polyline fill="none" stroke="black" points="203,-406.5 316,-406.5 "/>
<text text-anchor="start" x="211" y="-394.5" font-family="Helvetica,sans-Serif" font-size="10.00">+ EBEvent()</text>
<text text-anchor="start" x="211" y="-383.5" font-family="Helvetica,sans-Serif" font-size="10.00">+ ~EBEvent()</text>
<text text-anchor="start" x="211" y="-372.5" font-family="Helvetica,sans-Serif" font-size="10.00">+ connect()</text>
<text text-anchor="start" x="211" y="-361.5" font-family="Helvetica,sans-Serif" font-size="10.00">+ connect()</text>
<text text-anchor="start" x="211" y="-350.5" font-family="Helvetica,sans-Serif" font-size="10.00">+ emit()</text>
</a>
</g>
</g>
<!-- Node4&#45;&gt;Node7 -->
<g id="edge8" class="edge">
<title>Node4&#45;&gt;Node7</title>
<path fill="none" stroke="#8b1a1a" d="M215.3,-791.69C222.95,-782.62 229.8,-772.61 234.5,-762 279.17,-661.2 274.4,-529 266.94,-455.63"/>
<polygon fill="none" stroke="#8b1a1a" points="212.46,-789.62 208.4,-799.41 217.68,-794.28 212.46,-789.62"/>
</g>
<!-- Node5 -->
<g id="node5" class="node">
<title>Node5</title>
<g id="a_node5"><a xlink:title=" ">
<polygon fill="none" stroke="#bfbfbf" points="334.5,-371 334.5,-428 420.5,-428 420.5,-371 334.5,-371"/>
<text text-anchor="middle" x="377.5" y="-416" font-family="Helvetica,sans-Serif" font-size="10.00">SOCKADDR_IN</text>
<polyline fill="none" stroke="#bfbfbf" points="334.5,-409 420.5,-409 "/>
<text text-anchor="middle" x="377.5" y="-397" font-family="Helvetica,sans-Serif" font-size="10.00"> </text>
<polyline fill="none" stroke="#bfbfbf" points="334.5,-390 420.5,-390 "/>
<text text-anchor="middle" x="377.5" y="-378" font-family="Helvetica,sans-Serif" font-size="10.00"> </text>
</a>
</g>
</g>
<!-- Node5&#45;&gt;Node2 -->
<g id="edge4" class="edge">
<title>Node5&#45;&gt;Node2</title>
<path fill="none" stroke="#404040" d="M360.84,-370.76C350.5,-353.53 336.47,-330.18 322.16,-306.35"/>
<polygon fill="none" stroke="#404040" points="321.98,-306.04 315.46,-302.96 315.8,-295.76 322.32,-298.84 321.98,-306.04"/>
<text text-anchor="middle" x="354" y="-317" font-family="Helvetica,sans-Serif" font-size="10.00"> #address</text>
</g>
<!-- Node6&#45;&gt;Node2 -->
<g id="edge5" class="edge">
<title>Node6&#45;&gt;Node2</title>
<path fill="none" stroke="#404040" d="M143.54,-660.22C120.36,-587.72 87.67,-450.08 129.5,-343 142.83,-308.88 168.72,-278.04 193.9,-253.97"/>
<polygon fill="none" stroke="#404040" points="193.97,-253.91 195.64,-246.89 202.76,-245.74 201.09,-252.75 193.97,-253.91"/>
<text text-anchor="middle" x="161.5" y="-408" font-family="Helvetica,sans-Serif" font-size="10.00"> +connected</text>
<text text-anchor="middle" x="161.5" y="-397" font-family="Helvetica,sans-Serif" font-size="10.00">+disconnected</text>
<text text-anchor="middle" x="161.5" y="-386" font-family="Helvetica,sans-Serif" font-size="10.00">+readReady</text>
</g>
<!-- Node6&#45;&gt;Node7 -->
<g id="edge9" class="edge">
<title>Node6&#45;&gt;Node7</title>
<path fill="none" stroke="orange" d="M153.52,-649.98C149.65,-600.28 150.61,-529.13 177.5,-474 183.53,-461.63 192.66,-450.4 202.66,-440.66"/>
<polygon fill="orange" stroke="orange" points="150.06,-650.58 154.41,-660.24 157.03,-649.98 150.06,-650.58"/>
<text text-anchor="middle" x="210" y="-555.5" font-family="Helvetica,sans-Serif" font-size="10.00"> &lt; std::string &gt;</text>
</g>
<!-- Node7&#45;&gt;Node2 -->
<g id="edge7" class="edge">
<title>Node7&#45;&gt;Node2</title>
<path fill="none" stroke="#404040" d="M259.5,-343.24C259.5,-332.09 259.5,-320.01 259.5,-307.78"/>
<polygon fill="none" stroke="#404040" points="259.5,-307.53 255.5,-301.53 259.5,-295.53 263.5,-301.53 259.5,-307.53"/>
<text text-anchor="middle" x="274" y="-317" font-family="Helvetica,sans-Serif" font-size="10.00"> +error</text>
</g>
<!-- Node8 -->
<g id="node8" class="node">
<title>Node8</title>
<g id="a_node8"><a xlink:title=" ">
<polygon fill="none" stroke="#bfbfbf" points="438.5,-371 438.5,-428 484.5,-428 484.5,-371 438.5,-371"/>
<text text-anchor="middle" x="461.5" y="-416" font-family="Helvetica,sans-Serif" font-size="10.00">int32_t</text>
<polyline fill="none" stroke="#bfbfbf" points="438.5,-409 484.5,-409 "/>
<text text-anchor="middle" x="461.5" y="-397" font-family="Helvetica,sans-Serif" font-size="10.00"> </text>
<polyline fill="none" stroke="#bfbfbf" points="438.5,-390 484.5,-390 "/>
<text text-anchor="middle" x="461.5" y="-378" font-family="Helvetica,sans-Serif" font-size="10.00"> </text>
</a>
</g>
</g>
<!-- Node8&#45;&gt;Node2 -->
<g id="edge10" class="edge">
<title>Node8&#45;&gt;Node2</title>
<path fill="none" stroke="#404040" d="M448.17,-370.98C442.99,-361.62 436.6,-351.42 429.5,-343 399.46,-307.39 359.64,-273.82 326.09,-248.37"/>
<polygon fill="none" stroke="#404040" points="325.96,-248.27 318.76,-247.88 316.35,-241.08 323.55,-241.47 325.96,-248.27"/>
<text text-anchor="middle" x="431.5" y="-317" font-family="Helvetica,sans-Serif" font-size="10.00"> #socketId</text>
</g>
</g>
</svg>
        <g id="navigator" transform="translate(0 0)" fill="#404254">
                <rect fill="#f2f5e9" fill-opacity="0.5" stroke="#606060" stroke-width=".5" x="0" y="0" width="60" height="60"/>
                <use id="zoomplus" xlink:href="#zoomPlus" x="17" y="9" onmousedown="handleZoom(evt,'in')"/>
                <use id="zoomminus" xlink:href="#zoomMin" x="42" y="9" onmousedown="handleZoom(evt,'out')"/>
                <use id="reset" xlink:href="#resetDef" x="30" y="36" onmousedown="handleReset()"/>
                <g id="arrowUp" xlink:href="#dirArrow" transform="translate(30 24)" onmousedown="handlePan(0,-1)">
                  <use xlink:href="#rim" fill="#404040">
                        <set attributeName="fill" to="#808080" begin="arrowUp.mouseover" end="arrowUp.mouseout"/>
                  </use>
                  <path fill="none" stroke="white" stroke-width="1.5" d="M0,-3.0v7 M-2.5,-0.5L0,-3.0L2.5,-0.5"/>
                </g>
                <g id="arrowRight" xlink:href="#dirArrow" transform="rotate(90) translate(36 -43)" onmousedown="handlePan(1,0)">
                  <use xlink:href="#rim" fill="#404040">
                        <set attributeName="fill" to="#808080" begin="arrowRight.mouseover" end="arrowRight.mouseout"/>
                  </use>
                  <path fill="none" stroke="white" stroke-width="1.5" d="M0,-3.0v7 M-2.5,-0.5L0,-3.0L2.5,-0.5"/>
                </g>
                <g id="arrowDown" xlink:href="#dirArrow" transform="rotate(180) translate(-30 -48)" onmousedown="handlePan(0,1)">
                  <use xlink:href="#rim" fill="#404040">
                        <set attributeName="fill" to="#808080" begin="arrowDown.mouseover" end="arrowDown.mouseout"/>
                  </use>
                  <path fill="none" stroke="white" stroke-width="1.5" d="M0,-3.0v7 M-2.5,-0.5L0,-3.0L2.5,-0.5"/>
                </g>
                <g id="arrowLeft" xlink:href="#dirArrow" transform="rotate(270) translate(-36 17)" onmousedown="handlePan(-1,0)">
                  <use xlink:href="#rim" fill="#404040">
                        <set attributeName="fill" to="#808080" begin="arrowLeft.mouseover" end="arrowLeft.mouseout"/>
                  </use>
                  <path fill="none" stroke="white" stroke-width="1.5" d="M0,-3.0v7 M-2.5,-0.5L0,-3.0L2.5,-0.5"/>
                </g>
        </g>
        <svg viewBox="0 0 15 15" width="100%" height="30px" preserveAspectRatio="xMaxYMin meet">
         <g id="arrow_out" transform="scale(0.3 0.3)">
          <a xlink:href="class_e_b_cpp_1_1_e_b_tcp_server_socket__coll__graph_org.svg" target="_base">
           <rect id="button" ry="5" rx="5" y="6" x="6" height="38" width="38"
                fill="#f2f5e9" fill-opacity="0.5" stroke="#606060" stroke-width="1.0"/>
           <path id="arrow"
             d="M 11.500037,31.436501 C 11.940474,20.09759 22.043105,11.32322 32.158766,21.979434 L 37.068811,17.246167 C 37.068811,17.246167 37.088388,32 37.088388,32 L 22.160133,31.978069 C 22.160133,31.978069 26.997745,27.140456 26.997745,27.140456 C 18.528582,18.264221 13.291696,25.230495 11.500037,31.436501 z"
             style="fill:#404040;"/>
          </a>
         </g>
        </svg>
</svg>
