<?xml version="1.0" encoding="UTF-8" standalone="no"?>
<!DOCTYPE svg PUBLIC "-//W3C//DTD SVG 1.1//EN"
 "http://www.w3.org/Graphics/SVG/1.1/DTD/svg11.dtd">
<!-- Generated by graphviz version 2.46.0 (20210118.1747)
 -->
<!-- Title: EBCpp::EBHttpServer&lt; T &gt; Pages: 1 -->
<svg width="306pt" height="514pt"
 viewBox="0.00 0.00 305.50 514.00" xmlns="http://www.w3.org/2000/svg" xmlns:xlink="http://www.w3.org/1999/xlink">
<g id="graph0" class="graph" transform="scale(1 1) rotate(0) translate(4 510)">
<title>EBCpp::EBHttpServer&lt; T &gt;</title>
<!-- Node1 -->
<g id="node1" class="node">
<title>Node1</title>
<g id="a_node1"><a xlink:title="Implementation of a http server.">
<polygon fill="#bfbfbf" stroke="black" points="0,-0.5 0,-79.5 135,-79.5 135,-0.5 0,-0.5"/>
<text text-anchor="middle" x="67.5" y="-67.5" font-family="Helvetica,sans-Serif" font-size="10.00">EBCpp::EBHttpServer&lt; T &gt;</text>
<polyline fill="none" stroke="black" points="0,-60.5 135,-60.5 "/>
<text text-anchor="middle" x="67.5" y="-48.5" font-family="Helvetica,sans-Serif" font-size="10.00"> </text>
<polyline fill="none" stroke="black" points="0,-41.5 135,-41.5 "/>
<text text-anchor="start" x="8" y="-29.5" font-family="Helvetica,sans-Serif" font-size="10.00">+ EBHttpServer()</text>
<text text-anchor="start" x="8" y="-18.5" font-family="Helvetica,sans-Serif" font-size="10.00">+ bind()</text>
<text text-anchor="start" x="8" y="-7.5" font-family="Helvetica,sans-Serif" font-size="10.00">+ unbind()</text>
</a>
</g>
</g>
<!-- Node2 -->
<g id="node2" class="node">
<title>Node2</title>
<g id="a_node2"><a xlink:href="class_e_b_cpp_1_1_e_b_object.html" target="_top" xlink:title="The core object. Every object from EBCpp must inherit this.">
<polygon fill="none" stroke="black" points="42,-426.5 42,-505.5 137,-505.5 137,-426.5 42,-426.5"/>
<text text-anchor="middle" x="89.5" y="-493.5" font-family="Helvetica,sans-Serif" font-size="10.00">EBCpp::EBObject</text>
<polyline fill="none" stroke="black" points="42,-486.5 137,-486.5 "/>
<text text-anchor="middle" x="89.5" y="-474.5" font-family="Helvetica,sans-Serif" font-size="10.00"> </text>
<polyline fill="none" stroke="black" points="42,-467.5 137,-467.5 "/>
<text text-anchor="start" x="50" y="-455.5" font-family="Helvetica,sans-Serif" font-size="10.00">+ EBObject()</text>
<text text-anchor="start" x="50" y="-444.5" font-family="Helvetica,sans-Serif" font-size="10.00">+ ~EBObject()</text>
<text text-anchor="start" x="50" y="-433.5" font-family="Helvetica,sans-Serif" font-size="10.00">+ getName()</text>
</a>
</g>
</g>
<!-- Node2&#45;&gt;Node1 -->
<g id="edge1" class="edge">
<title>Node2&#45;&gt;Node1</title>
<path fill="none" stroke="midnightblue" d="M84.4,-416.25C79.88,-370.73 73.52,-300.84 70.5,-240 67.73,-184.27 67.26,-119.65 67.29,-79.55"/>
<polygon fill="none" stroke="midnightblue" points="80.94,-416.83 85.43,-426.44 87.91,-416.14 80.94,-416.83"/>
</g>
<!-- Node3 -->
<g id="node3" class="node">
<title>Node3</title>
<g id="a_node3"><a xlink:href="class_e_b_cpp_1_1_e_b_event.html" target="_top" xlink:title=" ">
<polygon fill="none" stroke="black" points="80,-127.5 80,-239.5 211,-239.5 211,-127.5 80,-127.5"/>
<text text-anchor="start" x="88" y="-227.5" font-family="Helvetica,sans-Serif" font-size="10.00">EBCpp::EBEvent&lt; EBCpp</text>
<text text-anchor="middle" x="145.5" y="-216.5" font-family="Helvetica,sans-Serif" font-size="10.00">::EBHttpRequest * &gt;</text>
<polyline fill="none" stroke="black" points="80,-209.5 211,-209.5 "/>
<text text-anchor="middle" x="145.5" y="-197.5" font-family="Helvetica,sans-Serif" font-size="10.00"> </text>
<polyline fill="none" stroke="black" points="80,-190.5 211,-190.5 "/>
<text text-anchor="start" x="88" y="-178.5" font-family="Helvetica,sans-Serif" font-size="10.00">+ EBEvent()</text>
<text text-anchor="start" x="88" y="-167.5" font-family="Helvetica,sans-Serif" font-size="10.00">+ ~EBEvent()</text>
<text text-anchor="start" x="88" y="-156.5" font-family="Helvetica,sans-Serif" font-size="10.00">+ connect()</text>
<text text-anchor="start" x="88" y="-145.5" font-family="Helvetica,sans-Serif" font-size="10.00">+ connect()</text>
<text text-anchor="start" x="88" y="-134.5" font-family="Helvetica,sans-Serif" font-size="10.00">+ emit()</text>
</a>
</g>
</g>
<!-- Node2&#45;&gt;Node3 -->
<g id="edge3" class="edge">
<title>Node2&#45;&gt;Node3</title>
<path fill="none" stroke="#8b1a1a" d="M91.56,-416.12C93.83,-380.06 98.6,-330 108.5,-287 112.11,-271.33 117.4,-254.76 122.86,-239.63"/>
<polygon fill="none" stroke="#8b1a1a" points="88.05,-416.18 90.95,-426.36 95.03,-416.59 88.05,-416.18"/>
</g>
<!-- Node4 -->
<g id="node4" class="node">
<title>Node4</title>
<g id="a_node4"><a xlink:href="class_e_b_cpp_1_1_e_b_event.html" target="_top" xlink:title="This objects handles an event.">
<polygon fill="none" stroke="black" points="117.5,-287.5 117.5,-388.5 245.5,-388.5 245.5,-287.5 117.5,-287.5"/>
<text text-anchor="middle" x="181.5" y="-376.5" font-family="Helvetica,sans-Serif" font-size="10.00">EBCpp::EBEvent&lt; args &gt;</text>
<polyline fill="none" stroke="black" points="117.5,-369.5 245.5,-369.5 "/>
<text text-anchor="middle" x="181.5" y="-357.5" font-family="Helvetica,sans-Serif" font-size="10.00"> </text>
<polyline fill="none" stroke="black" points="117.5,-350.5 245.5,-350.5 "/>
<text text-anchor="start" x="125.5" y="-338.5" font-family="Helvetica,sans-Serif" font-size="10.00">+ EBEvent()</text>
<text text-anchor="start" x="125.5" y="-327.5" font-family="Helvetica,sans-Serif" font-size="10.00">+ ~EBEvent()</text>
<text text-anchor="start" x="125.5" y="-316.5" font-family="Helvetica,sans-Serif" font-size="10.00">+ connect()</text>
<text text-anchor="start" x="125.5" y="-305.5" font-family="Helvetica,sans-Serif" font-size="10.00">+ connect()</text>
<text text-anchor="start" x="125.5" y="-294.5" font-family="Helvetica,sans-Serif" font-size="10.00">+ emit()</text>
</a>
</g>
</g>
<!-- Node2&#45;&gt;Node4 -->
<g id="edge5" class="edge">
<title>Node2&#45;&gt;Node4</title>
<path fill="none" stroke="#8b1a1a" d="M123.87,-417.92C130.85,-408.36 138.22,-398.28 145.26,-388.63"/>
<polygon fill="none" stroke="#8b1a1a" points="120.92,-416.03 117.85,-426.17 126.58,-420.16 120.92,-416.03"/>
</g>
<!-- Node3&#45;&gt;Node1 -->
<g id="edge2" class="edge">
<title>Node3&#45;&gt;Node1</title>
<path fill="none" stroke="#404040" d="M115.12,-127.39C108.37,-115.15 101.26,-102.25 94.66,-90.27"/>
<polygon fill="none" stroke="#404040" points="94.55,-90.07 88.15,-86.74 88.75,-79.56 95.15,-82.88 94.55,-90.07"/>
<text text-anchor="middle" x="136" y="-101" font-family="Helvetica,sans-Serif" font-size="10.00"> +newRequest</text>
</g>
<!-- Node4&#45;&gt;Node3 -->
<g id="edge4" class="edge">
<title>Node4&#45;&gt;Node3</title>
<path fill="none" stroke="orange" d="M167.48,-277.61C164.52,-265.09 161.42,-251.92 158.5,-239.57"/>
<polygon fill="orange" stroke="orange" points="164.11,-278.56 169.81,-287.49 170.92,-276.95 164.11,-278.56"/>
<text text-anchor="middle" x="231" y="-261" font-family="Helvetica,sans-Serif" font-size="10.00"> &lt; EBCpp::EBHttpRequest * &gt;</text>
</g>
</g>
</svg>
