<?xml version="1.0" encoding="UTF-8" standalone="no"?>
<!DOCTYPE svg PUBLIC "-//W3C//DTD SVG 1.1//EN"
 "http://www.w3.org/Graphics/SVG/1.1/DTD/svg11.dtd">
<!-- Generated by graphviz version 2.46.0 (20210118.1747)
 -->
<!-- Title: EBCpp::EBTcpSocket Pages: 1 -->
<svg width="493pt" height="781pt"
 viewBox="0.00 0.00 492.50 781.00" xmlns="http://www.w3.org/2000/svg" xmlns:xlink="http://www.w3.org/1999/xlink">
<g id="graph0" class="graph" transform="scale(1 1) rotate(0) translate(4 777)">
<title>EBCpp::EBTcpSocket</title>
<!-- Node1 -->
<g id="node1" class="node">
<title>Node1</title>
<g id="a_node1"><a xlink:title="Socket to handle a tcp connection.">
<polygon fill="#bfbfbf" stroke="black" points="203,-0.5 203,-189.5 316,-189.5 316,-0.5 203,-0.5"/>
<text text-anchor="middle" x="259.5" y="-177.5" font-family="Helvetica,sans-Serif" font-size="10.00">EBCpp::EBTcpSocket</text>
<polyline fill="none" stroke="black" points="203,-170.5 316,-170.5 "/>
<text text-anchor="middle" x="259.5" y="-158.5" font-family="Helvetica,sans-Serif" font-size="10.00"> </text>
<polyline fill="none" stroke="black" points="203,-151.5 316,-151.5 "/>
<text text-anchor="start" x="211" y="-139.5" font-family="Helvetica,sans-Serif" font-size="10.00">+ EBTcpSocket()</text>
<text text-anchor="start" x="211" y="-128.5" font-family="Helvetica,sans-Serif" font-size="10.00">+ ~EBTcpSocket()</text>
<text text-anchor="start" x="211" y="-117.5" font-family="Helvetica,sans-Serif" font-size="10.00">+ open()</text>
<text text-anchor="start" x="211" y="-106.5" font-family="Helvetica,sans-Serif" font-size="10.00">+ isOpened()</text>
<text text-anchor="start" x="211" y="-95.5" font-family="Helvetica,sans-Serif" font-size="10.00">+ close()</text>
<text text-anchor="start" x="211" y="-84.5" font-family="Helvetica,sans-Serif" font-size="10.00">+ write()</text>
<text text-anchor="start" x="211" y="-73.5" font-family="Helvetica,sans-Serif" font-size="10.00">+ write()</text>
<text text-anchor="start" x="211" y="-62.5" font-family="Helvetica,sans-Serif" font-size="10.00">+ read()</text>
<text text-anchor="start" x="211" y="-51.5" font-family="Helvetica,sans-Serif" font-size="10.00">+ canReadLine()</text>
<text text-anchor="start" x="211" y="-40.5" font-family="Helvetica,sans-Serif" font-size="10.00">+ readLine()</text>
<text text-anchor="start" x="211" y="-29.5" font-family="Helvetica,sans-Serif" font-size="10.00"># startThread()</text>
<text text-anchor="start" x="211" y="-18.5" font-family="Helvetica,sans-Serif" font-size="10.00"># connect()</text>
<text text-anchor="start" x="211" y="-7.5" font-family="Helvetica,sans-Serif" font-size="10.00"># receiveData()</text>
</a>
</g>
</g>
<!-- Node2 -->
<g id="node2" class="node">
<title>Node2</title>
<g id="a_node2"><a xlink:href="class_e_b_cpp_1_1_e_b_i_o_device.html" target="_top" xlink:title="Interface description of an input/output device.">
<polygon fill="none" stroke="black" points="0,-368.5 0,-535.5 105,-535.5 105,-368.5 0,-368.5"/>
<text text-anchor="middle" x="52.5" y="-523.5" font-family="Helvetica,sans-Serif" font-size="10.00">EBCpp::EBIODevice</text>
<polyline fill="none" stroke="black" points="0,-516.5 105,-516.5 "/>
<text text-anchor="middle" x="52.5" y="-504.5" font-family="Helvetica,sans-Serif" font-size="10.00"> </text>
<polyline fill="none" stroke="black" points="0,-497.5 105,-497.5 "/>
<text text-anchor="start" x="8" y="-485.5" font-family="Helvetica,sans-Serif" font-size="10.00">+ EBIODevice()</text>
<text text-anchor="start" x="8" y="-474.5" font-family="Helvetica,sans-Serif" font-size="10.00">+ open()</text>
<text text-anchor="start" x="8" y="-463.5" font-family="Helvetica,sans-Serif" font-size="10.00">+ isOpened()</text>
<text text-anchor="start" x="8" y="-452.5" font-family="Helvetica,sans-Serif" font-size="10.00">+ close()</text>
<text text-anchor="start" x="8" y="-441.5" font-family="Helvetica,sans-Serif" font-size="10.00">+ write()</text>
<text text-anchor="start" x="8" y="-430.5" font-family="Helvetica,sans-Serif" font-size="10.00">+ write()</text>
<text text-anchor="start" x="8" y="-419.5" font-family="Helvetica,sans-Serif" font-size="10.00">+ read()</text>
<text text-anchor="start" x="8" y="-408.5" font-family="Helvetica,sans-Serif" font-size="10.00">+ canReadLine()</text>
<text text-anchor="start" x="8" y="-397.5" font-family="Helvetica,sans-Serif" font-size="10.00">+ readLine()</text>
<text text-anchor="start" x="8" y="-386.5" font-family="Helvetica,sans-Serif" font-size="10.00">+ setFileName()</text>
<text text-anchor="start" x="8" y="-375.5" font-family="Helvetica,sans-Serif" font-size="10.00">+ getFileName()</text>
</a>
</g>
</g>
<!-- Node2&#45;&gt;Node1 -->
<g id="edge1" class="edge">
<title>Node2&#45;&gt;Node1</title>
<path fill="none" stroke="midnightblue" d="M56.6,-358.09C62.61,-309.78 76.25,-251.83 106.5,-208 130.9,-172.64 170.18,-144.23 202.83,-124.87"/>
<polygon fill="none" stroke="midnightblue" points="53.1,-357.91 55.43,-368.24 60.05,-358.71 53.1,-357.91"/>
</g>
<!-- Node3 -->
<g id="node3" class="node">
<title>Node3</title>
<g id="a_node3"><a xlink:href="class_e_b_cpp_1_1_e_b_object.html" target="_top" xlink:title="The core object. Every object from EBCpp must inherit this.">
<polygon fill="none" stroke="black" points="114,-693.5 114,-772.5 209,-772.5 209,-693.5 114,-693.5"/>
<text text-anchor="middle" x="161.5" y="-760.5" font-family="Helvetica,sans-Serif" font-size="10.00">EBCpp::EBObject</text>
<polyline fill="none" stroke="black" points="114,-753.5 209,-753.5 "/>
<text text-anchor="middle" x="161.5" y="-741.5" font-family="Helvetica,sans-Serif" font-size="10.00"> </text>
<polyline fill="none" stroke="black" points="114,-734.5 209,-734.5 "/>
<text text-anchor="start" x="122" y="-722.5" font-family="Helvetica,sans-Serif" font-size="10.00">+ EBObject()</text>
<text text-anchor="start" x="122" y="-711.5" font-family="Helvetica,sans-Serif" font-size="10.00">+ ~EBObject()</text>
<text text-anchor="start" x="122" y="-700.5" font-family="Helvetica,sans-Serif" font-size="10.00">+ getName()</text>
</a>
</g>
</g>
<!-- Node3&#45;&gt;Node2 -->
<g id="edge2" class="edge">
<title>Node3&#45;&gt;Node2</title>
<path fill="none" stroke="midnightblue" d="M109.17,-685.85C101.21,-676.67 93.88,-666.57 88.5,-656 69.68,-618.99 60.53,-573.84 56.14,-535.53"/>
<polygon fill="none" stroke="midnightblue" points="106.66,-688.28 115.97,-693.33 111.84,-683.58 106.66,-688.28"/>
</g>
<!-- Node5 -->
<g id="node5" class="node">
<title>Node5</title>
<g id="a_node5"><a xlink:href="class_e_b_cpp_1_1_e_b_event.html" target="_top" xlink:title="This objects handles an event.">
<polygon fill="none" stroke="black" points="97.5,-554.5 97.5,-655.5 225.5,-655.5 225.5,-554.5 97.5,-554.5"/>
<text text-anchor="middle" x="161.5" y="-643.5" font-family="Helvetica,sans-Serif" font-size="10.00">EBCpp::EBEvent&lt; args &gt;</text>
<polyline fill="none" stroke="black" points="97.5,-636.5 225.5,-636.5 "/>
<text text-anchor="middle" x="161.5" y="-624.5" font-family="Helvetica,sans-Serif" font-size="10.00"> </text>
<polyline fill="none" stroke="black" points="97.5,-617.5 225.5,-617.5 "/>
<text text-anchor="start" x="105.5" y="-605.5" font-family="Helvetica,sans-Serif" font-size="10.00">+ EBEvent()</text>
<text text-anchor="start" x="105.5" y="-594.5" font-family="Helvetica,sans-Serif" font-size="10.00">+ ~EBEvent()</text>
<text text-anchor="start" x="105.5" y="-583.5" font-family="Helvetica,sans-Serif" font-size="10.00">+ connect()</text>
<text text-anchor="start" x="105.5" y="-572.5" font-family="Helvetica,sans-Serif" font-size="10.00">+ connect()</text>
<text text-anchor="start" x="105.5" y="-561.5" font-family="Helvetica,sans-Serif" font-size="10.00">+ emit()</text>
</a>
</g>
</g>
<!-- Node3&#45;&gt;Node5 -->
<g id="edge5" class="edge">
<title>Node3&#45;&gt;Node5</title>
<path fill="none" stroke="#8b1a1a" d="M161.5,-682.89C161.5,-673.94 161.5,-664.6 161.5,-655.63"/>
<polygon fill="none" stroke="#8b1a1a" points="158,-683.17 161.5,-693.17 165,-683.17 158,-683.17"/>
</g>
<!-- Node6 -->
<g id="node6" class="node">
<title>Node6</title>
<g id="a_node6"><a xlink:href="class_e_b_cpp_1_1_e_b_event.html" target="_top" xlink:title=" ">
<polygon fill="none" stroke="black" points="203,-237.5 203,-349.5 316,-349.5 316,-237.5 203,-237.5"/>
<text text-anchor="start" x="211" y="-337.5" font-family="Helvetica,sans-Serif" font-size="10.00">EBCpp::EBEvent&lt; std</text>
<text text-anchor="middle" x="259.5" y="-326.5" font-family="Helvetica,sans-Serif" font-size="10.00">::string &gt;</text>
<polyline fill="none" stroke="black" points="203,-319.5 316,-319.5 "/>
<text text-anchor="middle" x="259.5" y="-307.5" font-family="Helvetica,sans-Serif" font-size="10.00"> </text>
<polyline fill="none" stroke="black" points="203,-300.5 316,-300.5 "/>
<text text-anchor="start" x="211" y="-288.5" font-family="Helvetica,sans-Serif" font-size="10.00">+ EBEvent()</text>
<text text-anchor="start" x="211" y="-277.5" font-family="Helvetica,sans-Serif" font-size="10.00">+ ~EBEvent()</text>
<text text-anchor="start" x="211" y="-266.5" font-family="Helvetica,sans-Serif" font-size="10.00">+ connect()</text>
<text text-anchor="start" x="211" y="-255.5" font-family="Helvetica,sans-Serif" font-size="10.00">+ connect()</text>
<text text-anchor="start" x="211" y="-244.5" font-family="Helvetica,sans-Serif" font-size="10.00">+ emit()</text>
</a>
</g>
</g>
<!-- Node3&#45;&gt;Node6 -->
<g id="edge7" class="edge">
<title>Node3&#45;&gt;Node6</title>
<path fill="none" stroke="#8b1a1a" d="M215.3,-685.69C222.95,-676.62 229.8,-666.61 234.5,-656 279.17,-555.2 274.4,-423 266.94,-349.63"/>
<polygon fill="none" stroke="#8b1a1a" points="212.46,-683.62 208.4,-693.41 217.68,-688.28 212.46,-683.62"/>
</g>
<!-- Node4 -->
<g id="node4" class="node">
<title>Node4</title>
<g id="a_node4"><a xlink:title=" ">
<polygon fill="none" stroke="#bfbfbf" points="334.5,-265 334.5,-322 420.5,-322 420.5,-265 334.5,-265"/>
<text text-anchor="middle" x="377.5" y="-310" font-family="Helvetica,sans-Serif" font-size="10.00">SOCKADDR_IN</text>
<polyline fill="none" stroke="#bfbfbf" points="334.5,-303 420.5,-303 "/>
<text text-anchor="middle" x="377.5" y="-291" font-family="Helvetica,sans-Serif" font-size="10.00"> </text>
<polyline fill="none" stroke="#bfbfbf" points="334.5,-284 420.5,-284 "/>
<text text-anchor="middle" x="377.5" y="-272" font-family="Helvetica,sans-Serif" font-size="10.00"> </text>
</a>
</g>
</g>
<!-- Node4&#45;&gt;Node1 -->
<g id="edge3" class="edge">
<title>Node4&#45;&gt;Node1</title>
<path fill="none" stroke="#404040" d="M360.84,-264.76C350.5,-247.53 336.47,-224.18 322.16,-200.35"/>
<polygon fill="none" stroke="#404040" points="321.98,-200.04 315.46,-196.96 315.8,-189.76 322.32,-192.84 321.98,-200.04"/>
<text text-anchor="middle" x="354" y="-211" font-family="Helvetica,sans-Serif" font-size="10.00"> #address</text>
</g>
<!-- Node5&#45;&gt;Node1 -->
<g id="edge4" class="edge">
<title>Node5&#45;&gt;Node1</title>
<path fill="none" stroke="#404040" d="M143.54,-554.22C120.36,-481.72 87.67,-344.08 129.5,-237 142.83,-202.88 168.72,-172.04 193.9,-147.97"/>
<polygon fill="none" stroke="#404040" points="193.97,-147.91 195.64,-140.89 202.76,-139.74 201.09,-146.75 193.97,-147.91"/>
<text text-anchor="middle" x="161.5" y="-302" font-family="Helvetica,sans-Serif" font-size="10.00"> +connected</text>
<text text-anchor="middle" x="161.5" y="-291" font-family="Helvetica,sans-Serif" font-size="10.00">+disconnected</text>
<text text-anchor="middle" x="161.5" y="-280" font-family="Helvetica,sans-Serif" font-size="10.00">+readReady</text>
</g>
<!-- Node5&#45;&gt;Node6 -->
<g id="edge8" class="edge">
<title>Node5&#45;&gt;Node6</title>
<path fill="none" stroke="orange" d="M153.52,-543.98C149.65,-494.28 150.61,-423.13 177.5,-368 183.53,-355.63 192.66,-344.4 202.66,-334.66"/>
<polygon fill="orange" stroke="orange" points="150.06,-544.58 154.41,-554.24 157.03,-543.98 150.06,-544.58"/>
<text text-anchor="middle" x="210" y="-449.5" font-family="Helvetica,sans-Serif" font-size="10.00"> &lt; std::string &gt;</text>
</g>
<!-- Node6&#45;&gt;Node1 -->
<g id="edge6" class="edge">
<title>Node6&#45;&gt;Node1</title>
<path fill="none" stroke="#404040" d="M259.5,-237.24C259.5,-226.09 259.5,-214.01 259.5,-201.78"/>
<polygon fill="none" stroke="#404040" points="259.5,-201.53 255.5,-195.53 259.5,-189.53 263.5,-195.53 259.5,-201.53"/>
<text text-anchor="middle" x="274" y="-211" font-family="Helvetica,sans-Serif" font-size="10.00"> +error</text>
</g>
<!-- Node7 -->
<g id="node7" class="node">
<title>Node7</title>
<g id="a_node7"><a xlink:title=" ">
<polygon fill="none" stroke="#bfbfbf" points="438.5,-265 438.5,-322 484.5,-322 484.5,-265 438.5,-265"/>
<text text-anchor="middle" x="461.5" y="-310" font-family="Helvetica,sans-Serif" font-size="10.00">int32_t</text>
<polyline fill="none" stroke="#bfbfbf" points="438.5,-303 484.5,-303 "/>
<text text-anchor="middle" x="461.5" y="-291" font-family="Helvetica,sans-Serif" font-size="10.00"> </text>
<polyline fill="none" stroke="#bfbfbf" points="438.5,-284 484.5,-284 "/>
<text text-anchor="middle" x="461.5" y="-272" font-family="Helvetica,sans-Serif" font-size="10.00"> </text>
</a>
</g>
</g>
<!-- Node7&#45;&gt;Node1 -->
<g id="edge9" class="edge">
<title>Node7&#45;&gt;Node1</title>
<path fill="none" stroke="#404040" d="M448.17,-264.98C442.99,-255.62 436.6,-245.42 429.5,-237 399.46,-201.39 359.64,-167.82 326.09,-142.37"/>
<polygon fill="none" stroke="#404040" points="325.96,-142.27 318.76,-141.88 316.35,-135.08 323.55,-135.47 325.96,-142.27"/>
<text text-anchor="middle" x="431.5" y="-211" font-family="Helvetica,sans-Serif" font-size="10.00"> #socketId</text>
</g>
</g>
</svg>
