<?xml version="1.0" encoding="UTF-8" standalone="no"?>
<!DOCTYPE svg PUBLIC "-//W3C//DTD SVG 1.1//EN"
 "http://www.w3.org/Graphics/SVG/1.1/DTD/svg11.dtd">
<!-- Generated by graphviz version 2.46.0 (20210118.1747)
 -->
<!-- Title: EBCpp::EBTcpServerSocket Pages: 1 -->
<svg width="493pt" height="865pt"
 viewBox="0.00 0.00 492.50 865.00" xmlns="http://www.w3.org/2000/svg" xmlns:xlink="http://www.w3.org/1999/xlink">
<g id="graph0" class="graph" transform="scale(1 1) rotate(0) translate(4 861)">
<title>EBCpp::EBTcpServerSocket</title>
<!-- Node1 -->
<g id="node1" class="node">
<title>Node1</title>
<g id="a_node1"><a xlink:title="Class that handles a tcp socket for the EBTcpServer.">
<polygon fill="#bfbfbf" stroke="black" points="189.5,-0.5 189.5,-68.5 329.5,-68.5 329.5,-0.5 189.5,-0.5"/>
<text text-anchor="middle" x="259.5" y="-56.5" font-family="Helvetica,sans-Serif" font-size="10.00">EBCpp::EBTcpServerSocket</text>
<polyline fill="none" stroke="black" points="189.5,-49.5 329.5,-49.5 "/>
<text text-anchor="middle" x="259.5" y="-37.5" font-family="Helvetica,sans-Serif" font-size="10.00"> </text>
<polyline fill="none" stroke="black" points="189.5,-30.5 329.5,-30.5 "/>
<text text-anchor="start" x="197.5" y="-18.5" font-family="Helvetica,sans-Serif" font-size="10.00">+ EBTcpServerSocket()</text>
<text text-anchor="start" x="197.5" y="-7.5" font-family="Helvetica,sans-Serif" font-size="10.00">+ open()</text>
</a>
</g>
</g>
<!-- Node2 -->
<g id="node2" class="node">
<title>Node2</title>
<g id="a_node2"><a xlink:href="class_e_b_cpp_1_1_e_b_tcp_socket.html" target="_top" xlink:title="Socket to handle a tcp connection.">
<polygon fill="none" stroke="black" points="203,-106.5 203,-273.5 316,-273.5 316,-106.5 203,-106.5"/>
<text text-anchor="middle" x="259.5" y="-261.5" font-family="Helvetica,sans-Serif" font-size="10.00">EBCpp::EBTcpSocket</text>
<polyline fill="none" stroke="black" points="203,-254.5 316,-254.5 "/>
<text text-anchor="middle" x="259.5" y="-242.5" font-family="Helvetica,sans-Serif" font-size="10.00"> </text>
<polyline fill="none" stroke="black" points="203,-235.5 316,-235.5 "/>
<text text-anchor="start" x="211" y="-223.5" font-family="Helvetica,sans-Serif" font-size="10.00">+ EBTcpSocket()</text>
<text text-anchor="start" x="211" y="-212.5" font-family="Helvetica,sans-Serif" font-size="10.00">+ ~EBTcpSocket()</text>
<text text-anchor="start" x="211" y="-201.5" font-family="Helvetica,sans-Serif" font-size="10.00">+ open()</text>
<text text-anchor="start" x="211" y="-190.5" font-family="Helvetica,sans-Serif" font-size="10.00">+ isOpened()</text>
<text text-anchor="start" x="211" y="-179.5" font-family="Helvetica,sans-Serif" font-size="10.00">+ close()</text>
<text text-anchor="start" x="211" y="-168.5" font-family="Helvetica,sans-Serif" font-size="10.00">+ write()</text>
<text text-anchor="start" x="211" y="-157.5" font-family="Helvetica,sans-Serif" font-size="10.00">+ write()</text>
<text text-anchor="start" x="211" y="-146.5" font-family="Helvetica,sans-Serif" font-size="10.00">+ read()</text>
<text text-anchor="start" x="211" y="-135.5" font-family="Helvetica,sans-Serif" font-size="10.00">+ canReadLine()</text>
<text text-anchor="start" x="211" y="-124.5" font-family="Helvetica,sans-Serif" font-size="10.00">+ readLine()</text>
<text text-anchor="start" x="211" y="-113.5" font-family="Helvetica,sans-Serif" font-size="10.00"># startThread()</text>
</a>
</g>
</g>
<!-- Node2&#45;&gt;Node1 -->
<g id="edge1" class="edge">
<title>Node2&#45;&gt;Node1</title>
<path fill="none" stroke="midnightblue" d="M259.5,-96.17C259.5,-86.44 259.5,-77.07 259.5,-68.72"/>
<polygon fill="none" stroke="midnightblue" points="256,-96.41 259.5,-106.41 263,-96.41 256,-96.41"/>
</g>
<!-- Node3 -->
<g id="node3" class="node">
<title>Node3</title>
<g id="a_node3"><a xlink:href="class_e_b_cpp_1_1_e_b_i_o_device.html" target="_top" xlink:title="Interface description of an input/output device.">
<polygon fill="none" stroke="black" points="0,-452.5 0,-619.5 105,-619.5 105,-452.5 0,-452.5"/>
<text text-anchor="middle" x="52.5" y="-607.5" font-family="Helvetica,sans-Serif" font-size="10.00">EBCpp::EBIODevice</text>
<polyline fill="none" stroke="black" points="0,-600.5 105,-600.5 "/>
<text text-anchor="middle" x="52.5" y="-588.5" font-family="Helvetica,sans-Serif" font-size="10.00"> </text>
<polyline fill="none" stroke="black" points="0,-581.5 105,-581.5 "/>
<text text-anchor="start" x="8" y="-569.5" font-family="Helvetica,sans-Serif" font-size="10.00">+ EBIODevice()</text>
<text text-anchor="start" x="8" y="-558.5" font-family="Helvetica,sans-Serif" font-size="10.00">+ open()</text>
<text text-anchor="start" x="8" y="-547.5" font-family="Helvetica,sans-Serif" font-size="10.00">+ isOpened()</text>
<text text-anchor="start" x="8" y="-536.5" font-family="Helvetica,sans-Serif" font-size="10.00">+ close()</text>
<text text-anchor="start" x="8" y="-525.5" font-family="Helvetica,sans-Serif" font-size="10.00">+ write()</text>
<text text-anchor="start" x="8" y="-514.5" font-family="Helvetica,sans-Serif" font-size="10.00">+ write()</text>
<text text-anchor="start" x="8" y="-503.5" font-family="Helvetica,sans-Serif" font-size="10.00">+ read()</text>
<text text-anchor="start" x="8" y="-492.5" font-family="Helvetica,sans-Serif" font-size="10.00">+ canReadLine()</text>
<text text-anchor="start" x="8" y="-481.5" font-family="Helvetica,sans-Serif" font-size="10.00">+ readLine()</text>
<text text-anchor="start" x="8" y="-470.5" font-family="Helvetica,sans-Serif" font-size="10.00">+ setFileName()</text>
<text text-anchor="start" x="8" y="-459.5" font-family="Helvetica,sans-Serif" font-size="10.00">+ getFileName()</text>
</a>
</g>
</g>
<!-- Node3&#45;&gt;Node2 -->
<g id="edge2" class="edge">
<title>Node3&#45;&gt;Node2</title>
<path fill="none" stroke="midnightblue" d="M55.69,-442.04C61.42,-393.44 75.08,-335.25 106.5,-292 130.91,-258.4 170.19,-232.81 202.84,-215.79"/>
<polygon fill="none" stroke="midnightblue" points="52.18,-441.93 54.58,-452.25 59.14,-442.69 52.18,-441.93"/>
</g>
<!-- Node4 -->
<g id="node4" class="node">
<title>Node4</title>
<g id="a_node4"><a xlink:href="class_e_b_cpp_1_1_e_b_object.html" target="_top" xlink:title="The core object. Every object from EBCpp must inherit this.">
<polygon fill="none" stroke="black" points="114,-777.5 114,-856.5 209,-856.5 209,-777.5 114,-777.5"/>
<text text-anchor="middle" x="161.5" y="-844.5" font-family="Helvetica,sans-Serif" font-size="10.00">EBCpp::EBObject</text>
<polyline fill="none" stroke="black" points="114,-837.5 209,-837.5 "/>
<text text-anchor="middle" x="161.5" y="-825.5" font-family="Helvetica,sans-Serif" font-size="10.00"> </text>
<polyline fill="none" stroke="black" points="114,-818.5 209,-818.5 "/>
<text text-anchor="start" x="122" y="-806.5" font-family="Helvetica,sans-Serif" font-size="10.00">+ EBObject()</text>
<text text-anchor="start" x="122" y="-795.5" font-family="Helvetica,sans-Serif" font-size="10.00">+ ~EBObject()</text>
<text text-anchor="start" x="122" y="-784.5" font-family="Helvetica,sans-Serif" font-size="10.00">+ getName()</text>
</a>
</g>
</g>
<!-- Node4&#45;&gt;Node3 -->
<g id="edge3" class="edge">
<title>Node4&#45;&gt;Node3</title>
<path fill="none" stroke="midnightblue" d="M109.17,-769.85C101.21,-760.67 93.88,-750.57 88.5,-740 69.68,-702.99 60.53,-657.84 56.14,-619.53"/>
<polygon fill="none" stroke="midnightblue" points="106.66,-772.28 115.97,-777.33 111.84,-767.58 106.66,-772.28"/>
</g>
<!-- Node6 -->
<g id="node6" class="node">
<title>Node6</title>
<g id="a_node6"><a xlink:href="class_e_b_cpp_1_1_e_b_event.html" target="_top" xlink:title="This objects handles an event.">
<polygon fill="none" stroke="black" points="97.5,-638.5 97.5,-739.5 225.5,-739.5 225.5,-638.5 97.5,-638.5"/>
<text text-anchor="middle" x="161.5" y="-727.5" font-family="Helvetica,sans-Serif" font-size="10.00">EBCpp::EBEvent&lt; args &gt;</text>
<polyline fill="none" stroke="black" points="97.5,-720.5 225.5,-720.5 "/>
<text text-anchor="middle" x="161.5" y="-708.5" font-family="Helvetica,sans-Serif" font-size="10.00"> </text>
<polyline fill="none" stroke="black" points="97.5,-701.5 225.5,-701.5 "/>
<text text-anchor="start" x="105.5" y="-689.5" font-family="Helvetica,sans-Serif" font-size="10.00">+ EBEvent()</text>
<text text-anchor="start" x="105.5" y="-678.5" font-family="Helvetica,sans-Serif" font-size="10.00">+ ~EBEvent()</text>
<text text-anchor="start" x="105.5" y="-667.5" font-family="Helvetica,sans-Serif" font-size="10.00">+ connect()</text>
<text text-anchor="start" x="105.5" y="-656.5" font-family="Helvetica,sans-Serif" font-size="10.00">+ connect()</text>
<text text-anchor="start" x="105.5" y="-645.5" font-family="Helvetica,sans-Serif" font-size="10.00">+ emit()</text>
</a>
</g>
</g>
<!-- Node4&#45;&gt;Node6 -->
<g id="edge6" class="edge">
<title>Node4&#45;&gt;Node6</title>
<path fill="none" stroke="#8b1a1a" d="M161.5,-766.89C161.5,-757.94 161.5,-748.6 161.5,-739.63"/>
<polygon fill="none" stroke="#8b1a1a" points="158,-767.17 161.5,-777.17 165,-767.17 158,-767.17"/>
</g>
<!-- Node7 -->
<g id="node7" class="node">
<title>Node7</title>
<g id="a_node7"><a xlink:href="class_e_b_cpp_1_1_e_b_event.html" target="_top" xlink:title=" ">
<polygon fill="none" stroke="black" points="203,-321.5 203,-433.5 316,-433.5 316,-321.5 203,-321.5"/>
<text text-anchor="start" x="211" y="-421.5" font-family="Helvetica,sans-Serif" font-size="10.00">EBCpp::EBEvent&lt; std</text>
<text text-anchor="middle" x="259.5" y="-410.5" font-family="Helvetica,sans-Serif" font-size="10.00">::string &gt;</text>
<polyline fill="none" stroke="black" points="203,-403.5 316,-403.5 "/>
<text text-anchor="middle" x="259.5" y="-391.5" font-family="Helvetica,sans-Serif" font-size="10.00"> </text>
<polyline fill="none" stroke="black" points="203,-384.5 316,-384.5 "/>
<text text-anchor="start" x="211" y="-372.5" font-family="Helvetica,sans-Serif" font-size="10.00">+ EBEvent()</text>
<text text-anchor="start" x="211" y="-361.5" font-family="Helvetica,sans-Serif" font-size="10.00">+ ~EBEvent()</text>
<text text-anchor="start" x="211" y="-350.5" font-family="Helvetica,sans-Serif" font-size="10.00">+ connect()</text>
<text text-anchor="start" x="211" y="-339.5" font-family="Helvetica,sans-Serif" font-size="10.00">+ connect()</text>
<text text-anchor="start" x="211" y="-328.5" font-family="Helvetica,sans-Serif" font-size="10.00">+ emit()</text>
</a>
</g>
</g>
<!-- Node4&#45;&gt;Node7 -->
<g id="edge8" class="edge">
<title>Node4&#45;&gt;Node7</title>
<path fill="none" stroke="#8b1a1a" d="M215.3,-769.69C222.95,-760.62 229.8,-750.61 234.5,-740 279.17,-639.2 274.4,-507 266.94,-433.63"/>
<polygon fill="none" stroke="#8b1a1a" points="212.46,-767.62 208.4,-777.41 217.68,-772.28 212.46,-767.62"/>
</g>
<!-- Node5 -->
<g id="node5" class="node">
<title>Node5</title>
<g id="a_node5"><a xlink:title=" ">
<polygon fill="none" stroke="#bfbfbf" points="334.5,-349 334.5,-406 420.5,-406 420.5,-349 334.5,-349"/>
<text text-anchor="middle" x="377.5" y="-394" font-family="Helvetica,sans-Serif" font-size="10.00">SOCKADDR_IN</text>
<polyline fill="none" stroke="#bfbfbf" points="334.5,-387 420.5,-387 "/>
<text text-anchor="middle" x="377.5" y="-375" font-family="Helvetica,sans-Serif" font-size="10.00"> </text>
<polyline fill="none" stroke="#bfbfbf" points="334.5,-368 420.5,-368 "/>
<text text-anchor="middle" x="377.5" y="-356" font-family="Helvetica,sans-Serif" font-size="10.00"> </text>
</a>
</g>
</g>
<!-- Node5&#45;&gt;Node2 -->
<g id="edge4" class="edge">
<title>Node5&#45;&gt;Node2</title>
<path fill="none" stroke="#404040" d="M359.83,-348.73C348.7,-331.22 333.61,-307.5 318.52,-283.78"/>
<polygon fill="none" stroke="#404040" points="318.5,-283.75 311.91,-280.84 312.06,-273.63 318.66,-276.54 318.5,-283.75"/>
<text text-anchor="middle" x="350" y="-295" font-family="Helvetica,sans-Serif" font-size="10.00"> #address</text>
</g>
<!-- Node6&#45;&gt;Node2 -->
<g id="edge5" class="edge">
<title>Node6&#45;&gt;Node2</title>
<path fill="none" stroke="#404040" d="M143.07,-638.29C119.16,-565.59 85.44,-427.36 129.5,-321 142.88,-288.7 168.61,-260.23 193.68,-238.24"/>
<polygon fill="none" stroke="#404040" points="193.72,-238.21 195.7,-231.28 202.86,-230.44 200.88,-237.37 193.72,-238.21"/>
<text text-anchor="middle" x="161.5" y="-386" font-family="Helvetica,sans-Serif" font-size="10.00"> +connected</text>
<text text-anchor="middle" x="161.5" y="-375" font-family="Helvetica,sans-Serif" font-size="10.00">+disconnected</text>
<text text-anchor="middle" x="161.5" y="-364" font-family="Helvetica,sans-Serif" font-size="10.00">+readReady</text>
</g>
<!-- Node6&#45;&gt;Node7 -->
<g id="edge9" class="edge">
<title>Node6&#45;&gt;Node7</title>
<path fill="none" stroke="orange" d="M153.52,-627.98C149.65,-578.28 150.61,-507.13 177.5,-452 183.53,-439.63 192.66,-428.4 202.66,-418.66"/>
<polygon fill="orange" stroke="orange" points="150.06,-628.58 154.41,-638.24 157.03,-627.98 150.06,-628.58"/>
<text text-anchor="middle" x="210" y="-533.5" font-family="Helvetica,sans-Serif" font-size="10.00"> &lt; std::string &gt;</text>
</g>
<!-- Node7&#45;&gt;Node2 -->
<g id="edge7" class="edge">
<title>Node7&#45;&gt;Node2</title>
<path fill="none" stroke="#404040" d="M259.5,-321.35C259.5,-310.13 259.5,-298.04 259.5,-285.89"/>
<polygon fill="none" stroke="#404040" points="259.5,-285.76 255.5,-279.76 259.5,-273.76 263.5,-279.76 259.5,-285.76"/>
<text text-anchor="middle" x="274" y="-295" font-family="Helvetica,sans-Serif" font-size="10.00"> +error</text>
</g>
<!-- Node8 -->
<g id="node8" class="node">
<title>Node8</title>
<g id="a_node8"><a xlink:title=" ">
<polygon fill="none" stroke="#bfbfbf" points="438.5,-349 438.5,-406 484.5,-406 484.5,-349 438.5,-349"/>
<text text-anchor="middle" x="461.5" y="-394" font-family="Helvetica,sans-Serif" font-size="10.00">int32_t</text>
<polyline fill="none" stroke="#bfbfbf" points="438.5,-387 484.5,-387 "/>
<text text-anchor="middle" x="461.5" y="-375" font-family="Helvetica,sans-Serif" font-size="10.00"> </text>
<polyline fill="none" stroke="#bfbfbf" points="438.5,-368 484.5,-368 "/>
<text text-anchor="middle" x="461.5" y="-356" font-family="Helvetica,sans-Serif" font-size="10.00"> </text>
</a>
</g>
</g>
<!-- Node8&#45;&gt;Node2 -->
<g id="edge10" class="edge">
<title>Node8&#45;&gt;Node2</title>
<path fill="none" stroke="#404040" d="M448.35,-348.82C443.2,-339.45 436.76,-329.27 429.5,-321 399.73,-287.09 359.95,-256.1 326.36,-232.89"/>
<polygon fill="none" stroke="#404040" points="326.07,-232.69 318.86,-232.62 316.15,-225.94 323.36,-226.01 326.07,-232.69"/>
<text text-anchor="middle" x="431.5" y="-295" font-family="Helvetica,sans-Serif" font-size="10.00"> #socketId</text>
</g>
</g>
</svg>
