<?xml version="1.0" encoding="UTF-8" standalone="no"?>
<!DOCTYPE svg PUBLIC "-//W3C//DTD SVG 1.1//EN"
 "http://www.w3.org/Graphics/SVG/1.1/DTD/svg11.dtd">
<!-- Generated by graphviz version 2.46.0 (20210118.1747)
 -->
<!-- Title: EBCpp::EBObject Pages: 1 -->
<svg width="2528pt" height="691pt"
 viewBox="0.00 0.00 2527.50 691.00" xmlns="http://www.w3.org/2000/svg" xmlns:xlink="http://www.w3.org/1999/xlink">
<g id="graph0" class="graph" transform="scale(1 1) rotate(0) translate(4 687)">
<title>EBCpp::EBObject</title>
<!-- Node1 -->
<g id="node1" class="node">
<title>Node1</title>
<g id="a_node1"><a xlink:title="The core object. Every object from EBCpp must inherit this.">
<polygon fill="#bfbfbf" stroke="black" points="1218,-603.5 1218,-682.5 1313,-682.5 1313,-603.5 1218,-603.5"/>
<text text-anchor="middle" x="1265.5" y="-670.5" font-family="Helvetica,sans-Serif" font-size="10.00">EBCpp::EBObject</text>
<polyline fill="none" stroke="black" points="1218,-663.5 1313,-663.5 "/>
<text text-anchor="middle" x="1265.5" y="-651.5" font-family="Helvetica,sans-Serif" font-size="10.00"> </text>
<polyline fill="none" stroke="black" points="1218,-644.5 1313,-644.5 "/>
<text text-anchor="start" x="1226" y="-632.5" font-family="Helvetica,sans-Serif" font-size="10.00">+ EBObject()</text>
<text text-anchor="start" x="1226" y="-621.5" font-family="Helvetica,sans-Serif" font-size="10.00">+ ~EBObject()</text>
<text text-anchor="start" x="1226" y="-610.5" font-family="Helvetica,sans-Serif" font-size="10.00">+ getName()</text>
</a>
</g>
</g>
<!-- Node2 -->
<g id="node2" class="node">
<title>Node2</title>
<g id="a_node2"><a xlink:href="class_e_b_cpp_1_1_e_b_event.html" target="_top" xlink:title=" ">
<polygon fill="none" stroke="black" points="0,-172.5 0,-284.5 113,-284.5 113,-172.5 0,-172.5"/>
<text text-anchor="start" x="8" y="-272.5" font-family="Helvetica,sans-Serif" font-size="10.00">EBCpp::EBEvent&lt; std</text>
<text text-anchor="middle" x="56.5" y="-261.5" font-family="Helvetica,sans-Serif" font-size="10.00">::string &gt;</text>
<polyline fill="none" stroke="black" points="0,-254.5 113,-254.5 "/>
<text text-anchor="middle" x="56.5" y="-242.5" font-family="Helvetica,sans-Serif" font-size="10.00"> </text>
<polyline fill="none" stroke="black" points="0,-235.5 113,-235.5 "/>
<text text-anchor="start" x="8" y="-223.5" font-family="Helvetica,sans-Serif" font-size="10.00">+ EBEvent()</text>
<text text-anchor="start" x="8" y="-212.5" font-family="Helvetica,sans-Serif" font-size="10.00">+ ~EBEvent()</text>
<text text-anchor="start" x="8" y="-201.5" font-family="Helvetica,sans-Serif" font-size="10.00">+ connect()</text>
<text text-anchor="start" x="8" y="-190.5" font-family="Helvetica,sans-Serif" font-size="10.00">+ connect()</text>
<text text-anchor="start" x="8" y="-179.5" font-family="Helvetica,sans-Serif" font-size="10.00">+ emit()</text>
</a>
</g>
</g>
<!-- Node1&#45;&gt;Node2 -->
<g id="edge1" class="edge">
<title>Node1&#45;&gt;Node2</title>
<path fill="none" stroke="#8b1a1a" d="M1207.76,-641.49C992.86,-639.12 247.37,-626.58 161.5,-566 71.74,-502.67 56.23,-362.72 54.98,-284.72"/>
<polygon fill="none" stroke="#8b1a1a" points="1207.84,-644.99 1217.88,-641.6 1207.92,-637.99 1207.84,-644.99"/>
</g>
<!-- Node3 -->
<g id="node3" class="node">
<title>Node3</title>
<g id="a_node3"><a xlink:href="class_e_b_cpp_1_1_e_b_event.html" target="_top" xlink:title=" ">
<polygon fill="none" stroke="black" points="285,-172.5 285,-284.5 416,-284.5 416,-172.5 285,-172.5"/>
<text text-anchor="start" x="293" y="-272.5" font-family="Helvetica,sans-Serif" font-size="10.00">EBCpp::EBEvent&lt; EBCpp</text>
<text text-anchor="middle" x="350.5" y="-261.5" font-family="Helvetica,sans-Serif" font-size="10.00">::EBHttpRequest * &gt;</text>
<polyline fill="none" stroke="black" points="285,-254.5 416,-254.5 "/>
<text text-anchor="middle" x="350.5" y="-242.5" font-family="Helvetica,sans-Serif" font-size="10.00"> </text>
<polyline fill="none" stroke="black" points="285,-235.5 416,-235.5 "/>
<text text-anchor="start" x="293" y="-223.5" font-family="Helvetica,sans-Serif" font-size="10.00">+ EBEvent()</text>
<text text-anchor="start" x="293" y="-212.5" font-family="Helvetica,sans-Serif" font-size="10.00">+ ~EBEvent()</text>
<text text-anchor="start" x="293" y="-201.5" font-family="Helvetica,sans-Serif" font-size="10.00">+ connect()</text>
<text text-anchor="start" x="293" y="-190.5" font-family="Helvetica,sans-Serif" font-size="10.00">+ connect()</text>
<text text-anchor="start" x="293" y="-179.5" font-family="Helvetica,sans-Serif" font-size="10.00">+ emit()</text>
</a>
</g>
</g>
<!-- Node1&#45;&gt;Node3 -->
<g id="edge2" class="edge">
<title>Node1&#45;&gt;Node3</title>
<path fill="none" stroke="#8b1a1a" d="M1207.62,-639.82C1044.48,-633.15 589.53,-610.67 540.5,-566 474.26,-505.64 541.5,-447.07 497.5,-369 477.46,-333.45 445.4,-301.47 416.33,-277.13"/>
<polygon fill="none" stroke="#8b1a1a" points="1207.81,-643.33 1217.94,-640.24 1208.09,-636.34 1207.81,-643.33"/>
</g>
<!-- Node4 -->
<g id="node4" class="node">
<title>Node4</title>
<g id="a_node4"><a xlink:href="class_e_b_cpp_1_1_e_b_event.html" target="_top" xlink:title=" ">
<polygon fill="none" stroke="black" points="134,-172.5 134,-284.5 265,-284.5 265,-172.5 134,-172.5"/>
<text text-anchor="start" x="142" y="-272.5" font-family="Helvetica,sans-Serif" font-size="10.00">EBCpp::EBEvent&lt; EBCpp</text>
<text text-anchor="middle" x="199.5" y="-261.5" font-family="Helvetica,sans-Serif" font-size="10.00">::EBTcpServerSocket * &gt;</text>
<polyline fill="none" stroke="black" points="134,-254.5 265,-254.5 "/>
<text text-anchor="middle" x="199.5" y="-242.5" font-family="Helvetica,sans-Serif" font-size="10.00"> </text>
<polyline fill="none" stroke="black" points="134,-235.5 265,-235.5 "/>
<text text-anchor="start" x="142" y="-223.5" font-family="Helvetica,sans-Serif" font-size="10.00">+ EBEvent()</text>
<text text-anchor="start" x="142" y="-212.5" font-family="Helvetica,sans-Serif" font-size="10.00">+ ~EBEvent()</text>
<text text-anchor="start" x="142" y="-201.5" font-family="Helvetica,sans-Serif" font-size="10.00">+ connect()</text>
<text text-anchor="start" x="142" y="-190.5" font-family="Helvetica,sans-Serif" font-size="10.00">+ connect()</text>
<text text-anchor="start" x="142" y="-179.5" font-family="Helvetica,sans-Serif" font-size="10.00">+ emit()</text>
</a>
</g>
</g>
<!-- Node1&#45;&gt;Node4 -->
<g id="edge3" class="edge">
<title>Node1&#45;&gt;Node4</title>
<path fill="none" stroke="#8b1a1a" d="M1207.82,-640.33C1039.12,-634.88 555.31,-615.09 505.5,-566 441.09,-502.51 523.16,-427.87 454.5,-369 424.15,-342.98 309.46,-372.1 275.5,-351 250.88,-335.7 232.93,-309.16 220.68,-284.79"/>
<polygon fill="none" stroke="#8b1a1a" points="1207.89,-643.83 1218,-640.65 1208.11,-636.84 1207.89,-643.83"/>
</g>
<!-- Node5 -->
<g id="node5" class="node">
<title>Node5</title>
<g id="a_node5"><a xlink:href="class_e_b_cpp_1_1_e_b_http_server.html" target="_top" xlink:title=" ">
<polygon fill="none" stroke="black" points="584.5,-183.5 584.5,-273.5 712.5,-273.5 712.5,-183.5 584.5,-183.5"/>
<text text-anchor="start" x="592.5" y="-261.5" font-family="Helvetica,sans-Serif" font-size="10.00">EBCpp::EBHttpServer</text>
<text text-anchor="middle" x="648.5" y="-250.5" font-family="Helvetica,sans-Serif" font-size="10.00">&lt; EBCpp::EBTcpServer &gt;</text>
<polyline fill="none" stroke="black" points="584.5,-243.5 712.5,-243.5 "/>
<text text-anchor="start" x="592.5" y="-231.5" font-family="Helvetica,sans-Serif" font-size="10.00">+ newRequest</text>
<polyline fill="none" stroke="black" points="584.5,-224.5 712.5,-224.5 "/>
<text text-anchor="start" x="592.5" y="-212.5" font-family="Helvetica,sans-Serif" font-size="10.00">+ EBHttpServer()</text>
<text text-anchor="start" x="592.5" y="-201.5" font-family="Helvetica,sans-Serif" font-size="10.00">+ bind()</text>
<text text-anchor="start" x="592.5" y="-190.5" font-family="Helvetica,sans-Serif" font-size="10.00">+ unbind()</text>
</a>
</g>
</g>
<!-- Node1&#45;&gt;Node5 -->
<g id="edge4" class="edge">
<title>Node1&#45;&gt;Node5</title>
<path fill="none" stroke="midnightblue" d="M1207.72,-642.03C1083.95,-640.84 799.03,-630.93 732.5,-566 668.97,-503.99 722.17,-454.83 699.5,-369 690.91,-336.46 677.82,-300.85 667.06,-273.75"/>
<polygon fill="none" stroke="midnightblue" points="1207.74,-645.53 1217.77,-642.11 1207.8,-638.53 1207.74,-645.53"/>
</g>
<!-- Node6 -->
<g id="node6" class="node">
<title>Node6</title>
<g id="a_node6"><a xlink:href="class_e_b_cpp_1_1_e_b_connection.html" target="_top" xlink:title="Class to connect between a signal and a slot.">
<polygon fill="none" stroke="black" points="741.5,-442.5 741.5,-521.5 857.5,-521.5 857.5,-442.5 741.5,-442.5"/>
<text text-anchor="start" x="749.5" y="-509.5" font-family="Helvetica,sans-Serif" font-size="10.00">EBCpp::EBConnection</text>
<text text-anchor="middle" x="799.5" y="-498.5" font-family="Helvetica,sans-Serif" font-size="10.00">&lt; args &gt;</text>
<polyline fill="none" stroke="black" points="741.5,-491.5 857.5,-491.5 "/>
<text text-anchor="middle" x="799.5" y="-479.5" font-family="Helvetica,sans-Serif" font-size="10.00"> </text>
<polyline fill="none" stroke="black" points="741.5,-472.5 857.5,-472.5 "/>
<text text-anchor="start" x="749.5" y="-460.5" font-family="Helvetica,sans-Serif" font-size="10.00">+ EBConnection()</text>
<text text-anchor="start" x="749.5" y="-449.5" font-family="Helvetica,sans-Serif" font-size="10.00">+ emit()</text>
</a>
</g>
</g>
<!-- Node1&#45;&gt;Node6 -->
<g id="edge5" class="edge">
<title>Node1&#45;&gt;Node6</title>
<path fill="none" stroke="midnightblue" d="M1207.51,-635.92C1111.21,-625 923.25,-600.02 866.5,-566 848.55,-555.24 833.39,-537.81 822.06,-521.69"/>
<polygon fill="none" stroke="midnightblue" points="1207.34,-639.42 1217.67,-637.05 1208.12,-632.46 1207.34,-639.42"/>
</g>
<!-- Node7 -->
<g id="node7" class="node">
<title>Node7</title>
<g id="a_node7"><a xlink:href="class_e_b_cpp_1_1_e_b_event.html" target="_top" xlink:title="This objects handles an event.">
<polygon fill="none" stroke="black" points="170.5,-431.5 170.5,-532.5 298.5,-532.5 298.5,-431.5 170.5,-431.5"/>
<text text-anchor="middle" x="234.5" y="-520.5" font-family="Helvetica,sans-Serif" font-size="10.00">EBCpp::EBEvent&lt; args &gt;</text>
<polyline fill="none" stroke="black" points="170.5,-513.5 298.5,-513.5 "/>
<text text-anchor="middle" x="234.5" y="-501.5" font-family="Helvetica,sans-Serif" font-size="10.00"> </text>
<polyline fill="none" stroke="black" points="170.5,-494.5 298.5,-494.5 "/>
<text text-anchor="start" x="178.5" y="-482.5" font-family="Helvetica,sans-Serif" font-size="10.00">+ EBEvent()</text>
<text text-anchor="start" x="178.5" y="-471.5" font-family="Helvetica,sans-Serif" font-size="10.00">+ ~EBEvent()</text>
<text text-anchor="start" x="178.5" y="-460.5" font-family="Helvetica,sans-Serif" font-size="10.00">+ connect()</text>
<text text-anchor="start" x="178.5" y="-449.5" font-family="Helvetica,sans-Serif" font-size="10.00">+ connect()</text>
<text text-anchor="start" x="178.5" y="-438.5" font-family="Helvetica,sans-Serif" font-size="10.00">+ emit()</text>
</a>
</g>
</g>
<!-- Node1&#45;&gt;Node7 -->
<g id="edge6" class="edge">
<title>Node1&#45;&gt;Node7</title>
<path fill="none" stroke="#8b1a1a" d="M1207.77,-640.39C1049.25,-635.56 609.73,-619.39 469.5,-585 409.24,-570.22 344.87,-541.26 298.77,-517.96"/>
<polygon fill="none" stroke="#8b1a1a" points="1207.7,-643.89 1217.8,-640.69 1207.91,-636.89 1207.7,-643.89"/>
</g>
<!-- Node8 -->
<g id="node8" class="node">
<title>Node8</title>
<g id="a_node8"><a xlink:href="class_e_b_cpp_1_1_e_b_event_loop.html" target="_top" xlink:title="Event handling class.">
<polygon fill="none" stroke="black" points="875.5,-426 875.5,-538 987.5,-538 987.5,-426 875.5,-426"/>
<text text-anchor="middle" x="931.5" y="-526" font-family="Helvetica,sans-Serif" font-size="10.00">EBCpp::EBEventLoop</text>
<polyline fill="none" stroke="black" points="875.5,-519 987.5,-519 "/>
<text text-anchor="middle" x="931.5" y="-507" font-family="Helvetica,sans-Serif" font-size="10.00"> </text>
<polyline fill="none" stroke="black" points="875.5,-500 987.5,-500 "/>
<text text-anchor="start" x="883.5" y="-488" font-family="Helvetica,sans-Serif" font-size="10.00">+ EBEventLoop()</text>
<text text-anchor="start" x="883.5" y="-477" font-family="Helvetica,sans-Serif" font-size="10.00">+ emit()</text>
<text text-anchor="start" x="883.5" y="-466" font-family="Helvetica,sans-Serif" font-size="10.00">+ processEvents()</text>
<text text-anchor="start" x="883.5" y="-455" font-family="Helvetica,sans-Serif" font-size="10.00">+ exec()</text>
<text text-anchor="start" x="883.5" y="-444" font-family="Helvetica,sans-Serif" font-size="10.00">+ exit()</text>
<text text-anchor="start" x="883.5" y="-433" font-family="Helvetica,sans-Serif" font-size="10.00">+ getInstance()</text>
</a>
</g>
</g>
<!-- Node1&#45;&gt;Node8 -->
<g id="edge10" class="edge">
<title>Node1&#45;&gt;Node8</title>
<path fill="none" stroke="midnightblue" d="M1207.74,-636.22C1150.09,-628.16 1061.04,-609.29 996.5,-566 985.4,-558.56 975.35,-548.61 966.65,-538.19"/>
<polygon fill="none" stroke="midnightblue" points="1207.39,-639.71 1217.77,-637.56 1208.32,-632.77 1207.39,-639.71"/>
</g>
<!-- Node9 -->
<g id="node9" class="node">
<title>Node9</title>
<g id="a_node9"><a xlink:href="class_e_b_cpp_1_1_e_b_http_header.html" target="_top" xlink:title="Class that parses the http header.">
<polygon fill="none" stroke="black" points="1005.5,-431.5 1005.5,-532.5 1121.5,-532.5 1121.5,-431.5 1005.5,-431.5"/>
<text text-anchor="middle" x="1063.5" y="-520.5" font-family="Helvetica,sans-Serif" font-size="10.00">EBCpp::EBHttpHeader</text>
<polyline fill="none" stroke="black" points="1005.5,-513.5 1121.5,-513.5 "/>
<text text-anchor="middle" x="1063.5" y="-501.5" font-family="Helvetica,sans-Serif" font-size="10.00"> </text>
<polyline fill="none" stroke="black" points="1005.5,-494.5 1121.5,-494.5 "/>
<text text-anchor="start" x="1013.5" y="-482.5" font-family="Helvetica,sans-Serif" font-size="10.00">+ EBHttpHeader()</text>
<text text-anchor="start" x="1013.5" y="-471.5" font-family="Helvetica,sans-Serif" font-size="10.00">+ processLine()</text>
<text text-anchor="start" x="1013.5" y="-460.5" font-family="Helvetica,sans-Serif" font-size="10.00">+ getValue()</text>
<text text-anchor="start" x="1013.5" y="-449.5" font-family="Helvetica,sans-Serif" font-size="10.00">+ contains()</text>
<text text-anchor="start" x="1013.5" y="-438.5" font-family="Helvetica,sans-Serif" font-size="10.00">+ getHeader()</text>
</a>
</g>
</g>
<!-- Node1&#45;&gt;Node9 -->
<g id="edge11" class="edge">
<title>Node1&#45;&gt;Node9</title>
<path fill="none" stroke="midnightblue" d="M1208.58,-616.07C1183.24,-603.04 1153.91,-585.8 1130.5,-566 1119.05,-556.31 1108.14,-544.44 1098.57,-532.75"/>
<polygon fill="none" stroke="midnightblue" points="1207.21,-619.3 1217.71,-620.68 1210.36,-613.05 1207.21,-619.3"/>
</g>
<!-- Node10 -->
<g id="node10" class="node">
<title>Node10</title>
<g id="a_node10"><a xlink:href="class_e_b_cpp_1_1_e_b_http_request.html" target="_top" xlink:title="Handles a http request.">
<polygon fill="none" stroke="black" points="1140,-420.5 1140,-543.5 1261,-543.5 1261,-420.5 1140,-420.5"/>
<text text-anchor="middle" x="1200.5" y="-531.5" font-family="Helvetica,sans-Serif" font-size="10.00">EBCpp::EBHttpRequest</text>
<polyline fill="none" stroke="black" points="1140,-524.5 1261,-524.5 "/>
<text text-anchor="start" x="1148" y="-512.5" font-family="Helvetica,sans-Serif" font-size="10.00">+ ready</text>
<polyline fill="none" stroke="black" points="1140,-505.5 1261,-505.5 "/>
<text text-anchor="start" x="1148" y="-493.5" font-family="Helvetica,sans-Serif" font-size="10.00">+ EBHttpRequest()</text>
<text text-anchor="start" x="1148" y="-482.5" font-family="Helvetica,sans-Serif" font-size="10.00">+ sendReply()</text>
<text text-anchor="start" x="1148" y="-471.5" font-family="Helvetica,sans-Serif" font-size="10.00">+ getRequestHeader()</text>
<text text-anchor="start" x="1148" y="-460.5" font-family="Helvetica,sans-Serif" font-size="10.00">+ getReplyHeader()</text>
<text text-anchor="start" x="1148" y="-449.5" font-family="Helvetica,sans-Serif" font-size="10.00">+ getRequestMethod()</text>
<text text-anchor="start" x="1148" y="-438.5" font-family="Helvetica,sans-Serif" font-size="10.00">+ getPath()</text>
<text text-anchor="start" x="1148" y="-427.5" font-family="Helvetica,sans-Serif" font-size="10.00">+ setResponseCode()</text>
</a>
</g>
</g>
<!-- Node1&#45;&gt;Node10 -->
<g id="edge12" class="edge">
<title>Node1&#45;&gt;Node10</title>
<path fill="none" stroke="midnightblue" d="M1245.72,-593.6C1239.3,-577.91 1232.09,-560.28 1225.36,-543.8"/>
<polygon fill="none" stroke="midnightblue" points="1242.58,-595.17 1249.6,-603.1 1249.05,-592.52 1242.58,-595.17"/>
</g>
<!-- Node11 -->
<g id="node11" class="node">
<title>Node11</title>
<g id="a_node11"><a xlink:href="class_e_b_cpp_1_1_e_b_http_server.html" target="_top" xlink:title="Implementation of a http server.">
<polygon fill="none" stroke="black" points="550,-442.5 550,-521.5 685,-521.5 685,-442.5 550,-442.5"/>
<text text-anchor="middle" x="617.5" y="-509.5" font-family="Helvetica,sans-Serif" font-size="10.00">EBCpp::EBHttpServer&lt; T &gt;</text>
<polyline fill="none" stroke="black" points="550,-502.5 685,-502.5 "/>
<text text-anchor="start" x="558" y="-490.5" font-family="Helvetica,sans-Serif" font-size="10.00">+ newRequest</text>
<polyline fill="none" stroke="black" points="550,-483.5 685,-483.5 "/>
<text text-anchor="start" x="558" y="-471.5" font-family="Helvetica,sans-Serif" font-size="10.00">+ EBHttpServer()</text>
<text text-anchor="start" x="558" y="-460.5" font-family="Helvetica,sans-Serif" font-size="10.00">+ bind()</text>
<text text-anchor="start" x="558" y="-449.5" font-family="Helvetica,sans-Serif" font-size="10.00">+ unbind()</text>
</a>
</g>
</g>
<!-- Node1&#45;&gt;Node11 -->
<g id="edge13" class="edge">
<title>Node1&#45;&gt;Node11</title>
<path fill="none" stroke="midnightblue" d="M1207.41,-641.76C1081.15,-640.34 786.05,-631.95 699.5,-585 673.14,-570.7 652.16,-544.03 638.02,-521.54"/>
<polygon fill="none" stroke="midnightblue" points="1207.62,-645.26 1217.65,-641.86 1207.69,-638.26 1207.62,-645.26"/>
</g>
<!-- Node12 -->
<g id="node12" class="node">
<title>Node12</title>
<g id="a_node12"><a xlink:href="class_e_b_cpp_1_1_e_b_i_o_device.html" target="_top" xlink:title="Interface description of an input/output device.">
<polygon fill="none" stroke="black" points="1279,-398.5 1279,-565.5 1384,-565.5 1384,-398.5 1279,-398.5"/>
<text text-anchor="middle" x="1331.5" y="-553.5" font-family="Helvetica,sans-Serif" font-size="10.00">EBCpp::EBIODevice</text>
<polyline fill="none" stroke="black" points="1279,-546.5 1384,-546.5 "/>
<text text-anchor="middle" x="1331.5" y="-534.5" font-family="Helvetica,sans-Serif" font-size="10.00"> </text>
<polyline fill="none" stroke="black" points="1279,-527.5 1384,-527.5 "/>
<text text-anchor="start" x="1287" y="-515.5" font-family="Helvetica,sans-Serif" font-size="10.00">+ EBIODevice()</text>
<text text-anchor="start" x="1287" y="-504.5" font-family="Helvetica,sans-Serif" font-size="10.00">+ open()</text>
<text text-anchor="start" x="1287" y="-493.5" font-family="Helvetica,sans-Serif" font-size="10.00">+ isOpened()</text>
<text text-anchor="start" x="1287" y="-482.5" font-family="Helvetica,sans-Serif" font-size="10.00">+ close()</text>
<text text-anchor="start" x="1287" y="-471.5" font-family="Helvetica,sans-Serif" font-size="10.00">+ write()</text>
<text text-anchor="start" x="1287" y="-460.5" font-family="Helvetica,sans-Serif" font-size="10.00">+ write()</text>
<text text-anchor="start" x="1287" y="-449.5" font-family="Helvetica,sans-Serif" font-size="10.00">+ read()</text>
<text text-anchor="start" x="1287" y="-438.5" font-family="Helvetica,sans-Serif" font-size="10.00">+ canReadLine()</text>
<text text-anchor="start" x="1287" y="-427.5" font-family="Helvetica,sans-Serif" font-size="10.00">+ readLine()</text>
<text text-anchor="start" x="1287" y="-416.5" font-family="Helvetica,sans-Serif" font-size="10.00">+ setFileName()</text>
<text text-anchor="start" x="1287" y="-405.5" font-family="Helvetica,sans-Serif" font-size="10.00">+ getFileName()</text>
</a>
</g>
</g>
<!-- Node1&#45;&gt;Node12 -->
<g id="edge15" class="edge">
<title>Node1&#45;&gt;Node12</title>
<path fill="none" stroke="midnightblue" d="M1285.54,-593.72C1289.23,-584.83 1293.18,-575.32 1297.15,-565.74"/>
<polygon fill="none" stroke="midnightblue" points="1282.25,-592.53 1281.65,-603.1 1288.71,-595.21 1282.25,-592.53"/>
</g>
<!-- Node15 -->
<g id="node15" class="node">
<title>Node15</title>
<g id="a_node15"><a xlink:href="class_e_b_cpp_1_1_e_b_semaphore.html" target="_top" xlink:title="Semaphore implementation for EBCpp.">
<polygon fill="none" stroke="black" points="1402.5,-437 1402.5,-527 1518.5,-527 1518.5,-437 1402.5,-437"/>
<text text-anchor="middle" x="1460.5" y="-515" font-family="Helvetica,sans-Serif" font-size="10.00">EBCpp::EBSemaphore</text>
<polyline fill="none" stroke="black" points="1402.5,-508 1518.5,-508 "/>
<text text-anchor="middle" x="1460.5" y="-496" font-family="Helvetica,sans-Serif" font-size="10.00"> </text>
<polyline fill="none" stroke="black" points="1402.5,-489 1518.5,-489 "/>
<text text-anchor="start" x="1410.5" y="-477" font-family="Helvetica,sans-Serif" font-size="10.00">+ EBSemaphore()</text>
<text text-anchor="start" x="1410.5" y="-466" font-family="Helvetica,sans-Serif" font-size="10.00">+ acquire()</text>
<text text-anchor="start" x="1410.5" y="-455" font-family="Helvetica,sans-Serif" font-size="10.00">+ release()</text>
<text text-anchor="start" x="1410.5" y="-444" font-family="Helvetica,sans-Serif" font-size="10.00">+ clear()</text>
</a>
</g>
</g>
<!-- Node1&#45;&gt;Node15 -->
<g id="edge18" class="edge">
<title>Node1&#45;&gt;Node15</title>
<path fill="none" stroke="midnightblue" d="M1322.04,-613.71C1345.11,-600.8 1371.29,-584.3 1392.5,-566 1405.62,-554.68 1418.18,-540.64 1428.86,-527.33"/>
<polygon fill="none" stroke="midnightblue" points="1320.12,-610.77 1313.04,-618.66 1323.49,-616.91 1320.12,-610.77"/>
</g>
<!-- Node16 -->
<g id="node16" class="node">
<title>Node16</title>
<g id="a_node16"><a xlink:href="class_e_b_cpp_1_1_e_b_slot_call.html" target="_top" xlink:title="Object to call a slot.">
<polygon fill="none" stroke="black" points="1537,-448 1537,-516 1638,-516 1638,-448 1537,-448"/>
<text text-anchor="middle" x="1587.5" y="-504" font-family="Helvetica,sans-Serif" font-size="10.00">EBCpp::EBSlotCall</text>
<polyline fill="none" stroke="black" points="1537,-497 1638,-497 "/>
<text text-anchor="middle" x="1587.5" y="-485" font-family="Helvetica,sans-Serif" font-size="10.00"> </text>
<polyline fill="none" stroke="black" points="1537,-478 1638,-478 "/>
<text text-anchor="start" x="1545" y="-466" font-family="Helvetica,sans-Serif" font-size="10.00">+ EBSlotCall()</text>
<text text-anchor="start" x="1545" y="-455" font-family="Helvetica,sans-Serif" font-size="10.00">+ call()</text>
</a>
</g>
</g>
<!-- Node1&#45;&gt;Node16 -->
<g id="edge19" class="edge">
<title>Node1&#45;&gt;Node16</title>
<path fill="none" stroke="midnightblue" d="M1323.22,-636.23C1379.67,-628.2 1465.89,-609.39 1527.5,-566 1545.53,-553.3 1560.17,-533.43 1570.47,-516.32"/>
<polygon fill="none" stroke="midnightblue" points="1322.48,-632.79 1313.04,-637.6 1323.42,-639.73 1322.48,-632.79"/>
</g>
<!-- Node17 -->
<g id="node17" class="node">
<title>Node17</title>
<g id="a_node17"><a xlink:href="class_e_b_cpp_1_1_e_b_tcp_server.html" target="_top" xlink:title="Creates a TCP server.">
<polygon fill="none" stroke="black" points="1656.5,-442.5 1656.5,-521.5 1766.5,-521.5 1766.5,-442.5 1656.5,-442.5"/>
<text text-anchor="middle" x="1711.5" y="-509.5" font-family="Helvetica,sans-Serif" font-size="10.00">EBCpp::EBTcpServer</text>
<polyline fill="none" stroke="black" points="1656.5,-502.5 1766.5,-502.5 "/>
<text text-anchor="start" x="1664.5" y="-490.5" font-family="Helvetica,sans-Serif" font-size="10.00">+ newConnection</text>
<polyline fill="none" stroke="black" points="1656.5,-483.5 1766.5,-483.5 "/>
<text text-anchor="start" x="1664.5" y="-471.5" font-family="Helvetica,sans-Serif" font-size="10.00">+ EBTcpServer()</text>
<text text-anchor="start" x="1664.5" y="-460.5" font-family="Helvetica,sans-Serif" font-size="10.00">+ bind()</text>
<text text-anchor="start" x="1664.5" y="-449.5" font-family="Helvetica,sans-Serif" font-size="10.00">+ unbind()</text>
</a>
</g>
</g>
<!-- Node1&#45;&gt;Node17 -->
<g id="edge20" class="edge">
<title>Node1&#45;&gt;Node17</title>
<path fill="none" stroke="midnightblue" d="M1323.48,-642.62C1402.31,-640.89 1545.07,-628.42 1646.5,-566 1664.11,-555.16 1678.84,-537.72 1689.8,-521.61"/>
<polygon fill="none" stroke="midnightblue" points="1323.2,-639.12 1313.26,-642.79 1323.32,-646.12 1323.2,-639.12"/>
</g>
<!-- Node18 -->
<g id="node18" class="node">
<title>Node18</title>
<g id="a_node18"><a xlink:href="class_e_b_cpp_1_1_e_b_timer.html" target="_top" xlink:title="The EBTimer can provide times events.">
<polygon fill="none" stroke="black" points="1784.5,-431.5 1784.5,-532.5 1882.5,-532.5 1882.5,-431.5 1784.5,-431.5"/>
<text text-anchor="middle" x="1833.5" y="-520.5" font-family="Helvetica,sans-Serif" font-size="10.00">EBCpp::EBTimer</text>
<polyline fill="none" stroke="black" points="1784.5,-513.5 1882.5,-513.5 "/>
<text text-anchor="start" x="1792.5" y="-501.5" font-family="Helvetica,sans-Serif" font-size="10.00">+ timeout</text>
<polyline fill="none" stroke="black" points="1784.5,-494.5 1882.5,-494.5 "/>
<text text-anchor="start" x="1792.5" y="-482.5" font-family="Helvetica,sans-Serif" font-size="10.00">+ EBTimer()</text>
<text text-anchor="start" x="1792.5" y="-471.5" font-family="Helvetica,sans-Serif" font-size="10.00">+ ~EBTimer()</text>
<text text-anchor="start" x="1792.5" y="-460.5" font-family="Helvetica,sans-Serif" font-size="10.00">+ stop()</text>
<text text-anchor="start" x="1792.5" y="-449.5" font-family="Helvetica,sans-Serif" font-size="10.00">+ startSingleShot()</text>
<text text-anchor="start" x="1792.5" y="-438.5" font-family="Helvetica,sans-Serif" font-size="10.00">+ start()</text>
</a>
</g>
</g>
<!-- Node1&#45;&gt;Node18 -->
<g id="edge21" class="edge">
<title>Node1&#45;&gt;Node18</title>
<path fill="none" stroke="midnightblue" d="M1323.54,-639.08C1440.72,-632.26 1700.79,-612.26 1775.5,-566 1788.65,-557.86 1799.62,-545.5 1808.34,-532.8"/>
<polygon fill="none" stroke="midnightblue" points="1323.11,-635.6 1313.33,-639.66 1323.51,-642.58 1323.11,-635.6"/>
</g>
<!-- Node19 -->
<g id="node19" class="node">
<title>Node19</title>
<g id="a_node19"><a xlink:href="class_example_http_server.html" target="_top" xlink:title="Example to show the function of the TCP server.">
<polygon fill="none" stroke="black" points="1901,-448 1901,-516 2016,-516 2016,-448 1901,-448"/>
<text text-anchor="middle" x="1958.5" y="-504" font-family="Helvetica,sans-Serif" font-size="10.00">ExampleHttpServer</text>
<polyline fill="none" stroke="black" points="1901,-497 2016,-497 "/>
<text text-anchor="middle" x="1958.5" y="-485" font-family="Helvetica,sans-Serif" font-size="10.00"> </text>
<polyline fill="none" stroke="black" points="1901,-478 2016,-478 "/>
<text text-anchor="start" x="1909" y="-466" font-family="Helvetica,sans-Serif" font-size="10.00">+ ExampleHttpServer()</text>
<text text-anchor="start" x="1909" y="-455" font-family="Helvetica,sans-Serif" font-size="10.00">+ requestReady()</text>
</a>
</g>
</g>
<!-- Node1&#45;&gt;Node19 -->
<g id="edge22" class="edge">
<title>Node1&#45;&gt;Node19</title>
<path fill="none" stroke="midnightblue" d="M1323.48,-640.54C1459.49,-636.22 1794.85,-620.24 1891.5,-566 1912.01,-554.49 1928.66,-533.97 1940.23,-516.22"/>
<polygon fill="none" stroke="midnightblue" points="1323.15,-637.04 1313.26,-640.85 1323.36,-644.04 1323.15,-637.04"/>
</g>
<!-- Node20 -->
<g id="node20" class="node">
<title>Node20</title>
<g id="a_node20"><a xlink:href="class_example_s_s_l_client.html" target="_top" xlink:title="Example to show the function of a tcp client.">
<polygon fill="none" stroke="black" points="2034,-431.5 2034,-532.5 2147,-532.5 2147,-431.5 2034,-431.5"/>
<text text-anchor="middle" x="2090.5" y="-520.5" font-family="Helvetica,sans-Serif" font-size="10.00">ExampleSSLClient</text>
<polyline fill="none" stroke="black" points="2034,-513.5 2147,-513.5 "/>
<text text-anchor="middle" x="2090.5" y="-501.5" font-family="Helvetica,sans-Serif" font-size="10.00"> </text>
<polyline fill="none" stroke="black" points="2034,-494.5 2147,-494.5 "/>
<text text-anchor="start" x="2042" y="-482.5" font-family="Helvetica,sans-Serif" font-size="10.00">+ ExampleSSLClient()</text>
<text text-anchor="start" x="2042" y="-471.5" font-family="Helvetica,sans-Serif" font-size="10.00">+ connected()</text>
<text text-anchor="start" x="2042" y="-460.5" font-family="Helvetica,sans-Serif" font-size="10.00">+ disconnected()</text>
<text text-anchor="start" x="2042" y="-449.5" font-family="Helvetica,sans-Serif" font-size="10.00">+ readReady()</text>
<text text-anchor="start" x="2042" y="-438.5" font-family="Helvetica,sans-Serif" font-size="10.00">+ error()</text>
</a>
</g>
</g>
<!-- Node1&#45;&gt;Node20 -->
<g id="edge23" class="edge">
<title>Node1&#45;&gt;Node20</title>
<path fill="none" stroke="midnightblue" d="M1323.46,-642.03C1479.39,-641.2 1904.22,-632.72 2024.5,-566 2038.83,-558.05 2051.17,-545.6 2061.18,-532.73"/>
<polygon fill="none" stroke="midnightblue" points="1323.12,-638.53 1313.14,-642.08 1323.15,-645.53 1323.12,-638.53"/>
</g>
<!-- Node21 -->
<g id="node21" class="node">
<title>Node21</title>
<g id="a_node21"><a xlink:href="class_example_tcp_client.html" target="_top" xlink:title="Example to show the function of a tcp client.">
<polygon fill="none" stroke="black" points="2165.5,-431.5 2165.5,-532.5 2275.5,-532.5 2275.5,-431.5 2165.5,-431.5"/>
<text text-anchor="middle" x="2220.5" y="-520.5" font-family="Helvetica,sans-Serif" font-size="10.00">ExampleTcpClient</text>
<polyline fill="none" stroke="black" points="2165.5,-513.5 2275.5,-513.5 "/>
<text text-anchor="middle" x="2220.5" y="-501.5" font-family="Helvetica,sans-Serif" font-size="10.00"> </text>
<polyline fill="none" stroke="black" points="2165.5,-494.5 2275.5,-494.5 "/>
<text text-anchor="start" x="2173.5" y="-482.5" font-family="Helvetica,sans-Serif" font-size="10.00">+ ExampleTcpClient()</text>
<text text-anchor="start" x="2173.5" y="-471.5" font-family="Helvetica,sans-Serif" font-size="10.00">+ connected()</text>
<text text-anchor="start" x="2173.5" y="-460.5" font-family="Helvetica,sans-Serif" font-size="10.00">+ disconnected()</text>
<text text-anchor="start" x="2173.5" y="-449.5" font-family="Helvetica,sans-Serif" font-size="10.00">+ readReady()</text>
<text text-anchor="start" x="2173.5" y="-438.5" font-family="Helvetica,sans-Serif" font-size="10.00">+ error()</text>
</a>
</g>
</g>
<!-- Node1&#45;&gt;Node21 -->
<g id="edge24" class="edge">
<title>Node1&#45;&gt;Node21</title>
<path fill="none" stroke="midnightblue" d="M1323.39,-638.28C1446.97,-630.15 1745.7,-609.57 1995.5,-585 2066.77,-577.99 2093.08,-601.1 2155.5,-566 2169.7,-558.02 2181.88,-545.55 2191.73,-532.69"/>
<polygon fill="none" stroke="midnightblue" points="1323.14,-634.78 1313.39,-638.93 1323.6,-641.77 1323.14,-634.78"/>
</g>
<!-- Node22 -->
<g id="node22" class="node">
<title>Node22</title>
<g id="a_node22"><a xlink:href="class_example_tcp_server.html" target="_top" xlink:title="Example to show the function of the TCP server.">
<polygon fill="none" stroke="black" points="2294,-431.5 2294,-532.5 2407,-532.5 2407,-431.5 2294,-431.5"/>
<text text-anchor="middle" x="2350.5" y="-520.5" font-family="Helvetica,sans-Serif" font-size="10.00">ExampleTcpServer</text>
<polyline fill="none" stroke="black" points="2294,-513.5 2407,-513.5 "/>
<text text-anchor="middle" x="2350.5" y="-501.5" font-family="Helvetica,sans-Serif" font-size="10.00"> </text>
<polyline fill="none" stroke="black" points="2294,-494.5 2407,-494.5 "/>
<text text-anchor="start" x="2302" y="-482.5" font-family="Helvetica,sans-Serif" font-size="10.00">+ ExampleTcpServer()</text>
<text text-anchor="start" x="2302" y="-471.5" font-family="Helvetica,sans-Serif" font-size="10.00">+ newConnection()</text>
<text text-anchor="start" x="2302" y="-460.5" font-family="Helvetica,sans-Serif" font-size="10.00">+ disconnected()</text>
<text text-anchor="start" x="2302" y="-449.5" font-family="Helvetica,sans-Serif" font-size="10.00">+ readReady()</text>
<text text-anchor="start" x="2302" y="-438.5" font-family="Helvetica,sans-Serif" font-size="10.00">+ error()</text>
</a>
</g>
</g>
<!-- Node1&#45;&gt;Node22 -->
<g id="edge25" class="edge">
<title>Node1&#45;&gt;Node22</title>
<path fill="none" stroke="midnightblue" d="M1323.58,-638.17C1455.49,-629.4 1787.77,-606.94 2065.5,-585 2162.9,-577.31 2198.42,-612.22 2284.5,-566 2299.1,-558.16 2311.59,-545.58 2321.65,-532.55"/>
<polygon fill="none" stroke="midnightblue" points="1323.06,-634.7 1313.31,-638.85 1323.52,-641.68 1323.06,-634.7"/>
</g>
<!-- Node23 -->
<g id="node23" class="node">
<title>Node23</title>
<g id="a_node23"><a xlink:href="class_example_timer.html" target="_top" xlink:title="Example to show the function of an timer.">
<polygon fill="none" stroke="black" points="2425.5,-453.5 2425.5,-510.5 2519.5,-510.5 2519.5,-453.5 2425.5,-453.5"/>
<text text-anchor="middle" x="2472.5" y="-498.5" font-family="Helvetica,sans-Serif" font-size="10.00">ExampleTimer</text>
<polyline fill="none" stroke="black" points="2425.5,-491.5 2519.5,-491.5 "/>
<text text-anchor="middle" x="2472.5" y="-479.5" font-family="Helvetica,sans-Serif" font-size="10.00"> </text>
<polyline fill="none" stroke="black" points="2425.5,-472.5 2519.5,-472.5 "/>
<text text-anchor="start" x="2433.5" y="-460.5" font-family="Helvetica,sans-Serif" font-size="10.00">+ ExampleTimer()</text>
</a>
</g>
</g>
<!-- Node1&#45;&gt;Node23 -->
<g id="edge26" class="edge">
<title>Node1&#45;&gt;Node23</title>
<path fill="none" stroke="midnightblue" d="M1323.68,-638.58C1466.99,-630.1 1848.46,-607.19 2166.5,-585 2277.22,-577.27 2319.33,-621.4 2415.5,-566 2436.86,-553.7 2451.98,-529.77 2461.26,-510.75"/>
<polygon fill="none" stroke="midnightblue" points="1323.15,-635.11 1313.38,-639.19 1323.57,-642.09 1323.15,-635.11"/>
</g>
<!-- Node7&#45;&gt;Node2 -->
<g id="edge7" class="edge">
<title>Node7&#45;&gt;Node2</title>
<path fill="none" stroke="orange" d="M161.69,-444.67C135.62,-428.27 108.3,-406.55 90.5,-380 71.7,-351.97 63.17,-315.07 59.36,-284.83"/>
<polygon fill="orange" stroke="orange" points="160.11,-447.81 170.47,-450.03 163.76,-441.84 160.11,-447.81"/>
<text text-anchor="middle" x="123" y="-372" font-family="Helvetica,sans-Serif" font-size="10.00"> &lt; std::string &gt;</text>
</g>
<!-- Node7&#45;&gt;Node3 -->
<g id="edge8" class="edge">
<title>Node7&#45;&gt;Node3</title>
<path fill="none" stroke="orange" d="M286.38,-423.19C296.52,-409.72 306.25,-394.92 313.5,-380 328.03,-350.11 337.15,-314.04 342.7,-284.7"/>
<polygon fill="orange" stroke="orange" points="283.38,-421.35 280.03,-431.4 288.91,-425.64 283.38,-421.35"/>
<text text-anchor="middle" x="384" y="-372" font-family="Helvetica,sans-Serif" font-size="10.00"> &lt; EBCpp::EBHttpRequest * &gt;</text>
</g>
<!-- Node7&#45;&gt;Node4 -->
<g id="edge9" class="edge">
<title>Node7&#45;&gt;Node4</title>
<path fill="none" stroke="orange" d="M183.23,-422.77C174.3,-409.53 166.34,-394.94 161.5,-380 151.42,-348.85 159.47,-313.36 170.71,-284.68"/>
<polygon fill="orange" stroke="orange" points="180.59,-425.1 189.21,-431.26 186.31,-421.07 180.59,-425.1"/>
<text text-anchor="middle" x="237.5" y="-372" font-family="Helvetica,sans-Serif" font-size="10.00"> &lt; EBCpp::EBTcpServerSocket * &gt;</text>
</g>
<!-- Node11&#45;&gt;Node5 -->
<g id="edge14" class="edge">
<title>Node11&#45;&gt;Node5</title>
<path fill="none" stroke="orange" d="M592.36,-433.11C584.92,-413.41 579.85,-390.27 584.5,-369 591.84,-335.42 608.03,-300.26 622.29,-273.64"/>
<polygon fill="orange" stroke="orange" points="589.16,-434.54 596.17,-442.48 595.64,-431.9 589.16,-434.54"/>
<text text-anchor="middle" x="642" y="-372" font-family="Helvetica,sans-Serif" font-size="10.00"> &lt; EBCpp::EBTcpServer &gt;</text>
</g>
<!-- Node13 -->
<g id="node13" class="node">
<title>Node13</title>
<g id="a_node13"><a xlink:href="class_e_b_cpp_1_1_e_b_tcp_socket.html" target="_top" xlink:title="Socket to handle a tcp connection.">
<polygon fill="none" stroke="black" points="1275,-106.5 1275,-350.5 1388,-350.5 1388,-106.5 1275,-106.5"/>
<text text-anchor="middle" x="1331.5" y="-338.5" font-family="Helvetica,sans-Serif" font-size="10.00">EBCpp::EBTcpSocket</text>
<polyline fill="none" stroke="black" points="1275,-331.5 1388,-331.5 "/>
<text text-anchor="start" x="1283" y="-319.5" font-family="Helvetica,sans-Serif" font-size="10.00">+ error</text>
<text text-anchor="start" x="1283" y="-308.5" font-family="Helvetica,sans-Serif" font-size="10.00">+ connected</text>
<text text-anchor="start" x="1283" y="-297.5" font-family="Helvetica,sans-Serif" font-size="10.00">+ disconnected</text>
<text text-anchor="start" x="1283" y="-286.5" font-family="Helvetica,sans-Serif" font-size="10.00">+ readReady</text>
<text text-anchor="start" x="1283" y="-275.5" font-family="Helvetica,sans-Serif" font-size="10.00"># socketId</text>
<text text-anchor="start" x="1283" y="-264.5" font-family="Helvetica,sans-Serif" font-size="10.00"># address</text>
<polyline fill="none" stroke="black" points="1275,-257.5 1388,-257.5 "/>
<text text-anchor="start" x="1283" y="-245.5" font-family="Helvetica,sans-Serif" font-size="10.00">+ EBTcpSocket()</text>
<text text-anchor="start" x="1283" y="-234.5" font-family="Helvetica,sans-Serif" font-size="10.00">+ ~EBTcpSocket()</text>
<text text-anchor="start" x="1283" y="-223.5" font-family="Helvetica,sans-Serif" font-size="10.00">+ open()</text>
<text text-anchor="start" x="1283" y="-212.5" font-family="Helvetica,sans-Serif" font-size="10.00">+ isOpened()</text>
<text text-anchor="start" x="1283" y="-201.5" font-family="Helvetica,sans-Serif" font-size="10.00">+ close()</text>
<text text-anchor="start" x="1283" y="-190.5" font-family="Helvetica,sans-Serif" font-size="10.00">+ write()</text>
<text text-anchor="start" x="1283" y="-179.5" font-family="Helvetica,sans-Serif" font-size="10.00">+ write()</text>
<text text-anchor="start" x="1283" y="-168.5" font-family="Helvetica,sans-Serif" font-size="10.00">+ read()</text>
<text text-anchor="start" x="1283" y="-157.5" font-family="Helvetica,sans-Serif" font-size="10.00">+ canReadLine()</text>
<text text-anchor="start" x="1283" y="-146.5" font-family="Helvetica,sans-Serif" font-size="10.00">+ readLine()</text>
<text text-anchor="start" x="1283" y="-135.5" font-family="Helvetica,sans-Serif" font-size="10.00"># startThread()</text>
<text text-anchor="start" x="1283" y="-124.5" font-family="Helvetica,sans-Serif" font-size="10.00"># connect()</text>
<text text-anchor="start" x="1283" y="-113.5" font-family="Helvetica,sans-Serif" font-size="10.00"># receiveData()</text>
</a>
</g>
</g>
<!-- Node12&#45;&gt;Node13 -->
<g id="edge16" class="edge">
<title>Node12&#45;&gt;Node13</title>
<path fill="none" stroke="midnightblue" d="M1331.5,-388.12C1331.5,-375.86 1331.5,-363.15 1331.5,-350.51"/>
<polygon fill="none" stroke="midnightblue" points="1328,-388.3 1331.5,-398.3 1335,-388.3 1328,-388.3"/>
</g>
<!-- Node14 -->
<g id="node14" class="node">
<title>Node14</title>
<g id="a_node14"><a xlink:href="class_e_b_cpp_1_1_e_b_tcp_server_socket.html" target="_top" xlink:title="Class that handles a tcp socket for the EBTcpServer.">
<polygon fill="none" stroke="black" points="1261.5,-0.5 1261.5,-68.5 1401.5,-68.5 1401.5,-0.5 1261.5,-0.5"/>
<text text-anchor="middle" x="1331.5" y="-56.5" font-family="Helvetica,sans-Serif" font-size="10.00">EBCpp::EBTcpServerSocket</text>
<polyline fill="none" stroke="black" points="1261.5,-49.5 1401.5,-49.5 "/>
<text text-anchor="middle" x="1331.5" y="-37.5" font-family="Helvetica,sans-Serif" font-size="10.00"> </text>
<polyline fill="none" stroke="black" points="1261.5,-30.5 1401.5,-30.5 "/>
<text text-anchor="start" x="1269.5" y="-18.5" font-family="Helvetica,sans-Serif" font-size="10.00">+ EBTcpServerSocket()</text>
<text text-anchor="start" x="1269.5" y="-7.5" font-family="Helvetica,sans-Serif" font-size="10.00">+ open()</text>
</a>
</g>
</g>
<!-- Node13&#45;&gt;Node14 -->
<g id="edge17" class="edge">
<title>Node13&#45;&gt;Node14</title>
<path fill="none" stroke="midnightblue" d="M1331.5,-96.27C1331.5,-86.27 1331.5,-76.87 1331.5,-68.58"/>
<polygon fill="none" stroke="midnightblue" points="1328,-96.45 1331.5,-106.45 1335,-96.45 1328,-96.45"/>
</g>
</g>
</svg>
