<?xml version="1.0" encoding="UTF-8" standalone="no"?>
<!DOCTYPE svg PUBLIC "-//W3C//DTD SVG 1.1//EN"
 "http://www.w3.org/Graphics/SVG/1.1/DTD/svg11.dtd">
<!-- Generated by graphviz version 2.46.0 (20210118.1747)
 -->
<!-- Title: Graphical Class Hierarchy Pages: 1 -->
<svg width="599pt" height="806pt"
 viewBox="0.00 0.00 599.00 805.50" xmlns="http://www.w3.org/2000/svg" xmlns:xlink="http://www.w3.org/1999/xlink">
<g id="graph0" class="graph" transform="scale(1 1) rotate(0) translate(4 801.5)">
<title>Graphical Class Hierarchy</title>
<!-- Node0 -->
<g id="node1" class="node">
<title>Node0</title>
<g id="a_node1"><a xlink:href="class_e_b_cpp_1_1_e_b_object.html" target="_top" xlink:title="The core object. Every object from EBCpp must inherit this.">
<polygon fill="none" stroke="black" points="0,-361.5 0,-380.5 95,-380.5 95,-361.5 0,-361.5"/>
<text text-anchor="middle" x="47.5" y="-368.5" font-family="Helvetica,sans-Serif" font-size="10.00">EBCpp::EBObject</text>
</a>
</g>
</g>
<!-- Node1 -->
<g id="node2" class="node">
<title>Node1</title>
<g id="a_node2"><a xlink:href="class_e_b_cpp_1_1_e_b_event.html" target="_top" xlink:title=" ">
<polygon fill="none" stroke="black" points="142,-767 142,-797 255,-797 255,-767 142,-767"/>
<text text-anchor="start" x="150" y="-785" font-family="Helvetica,sans-Serif" font-size="10.00">EBCpp::EBEvent&lt; std</text>
<text text-anchor="middle" x="198.5" y="-774" font-family="Helvetica,sans-Serif" font-size="10.00">::string &gt;</text>
</a>
</g>
</g>
<!-- Node0&#45;&gt;Node1 -->
<g id="edge1" class="edge">
<title>Node0&#45;&gt;Node1</title>
<path fill="none" stroke="#8b1a1a" d="M50.21,-390.91C56.7,-461.94 81.92,-701.72 131,-758 134.15,-761.61 137.88,-764.67 141.94,-767.28"/>
<polygon fill="#8b1a1a" stroke="#8b1a1a" points="53.68,-390.32 49.3,-380.67 46.7,-390.94 53.68,-390.32"/>
</g>
<!-- Node2 -->
<g id="node3" class="node">
<title>Node2</title>
<g id="a_node3"><a xlink:href="class_e_b_cpp_1_1_e_b_event.html" target="_top" xlink:title=" ">
<polygon fill="none" stroke="black" points="133,-718 133,-748 264,-748 264,-718 133,-718"/>
<text text-anchor="start" x="141" y="-736" font-family="Helvetica,sans-Serif" font-size="10.00">EBCpp::EBEvent&lt; EBCpp</text>
<text text-anchor="middle" x="198.5" y="-725" font-family="Helvetica,sans-Serif" font-size="10.00">::EBHttpRequest * &gt;</text>
</a>
</g>
</g>
<!-- Node0&#45;&gt;Node2 -->
<g id="edge2" class="edge">
<title>Node0&#45;&gt;Node2</title>
<path fill="none" stroke="#8b1a1a" d="M50.87,-390.86C59.01,-455.86 87.68,-660.78 131,-709 134.12,-712.47 137.77,-715.44 141.74,-717.98"/>
<polygon fill="#8b1a1a" stroke="#8b1a1a" points="54.32,-390.23 49.63,-380.73 47.38,-391.09 54.32,-390.23"/>
</g>
<!-- Node3 -->
<g id="node4" class="node">
<title>Node3</title>
<g id="a_node4"><a xlink:href="class_e_b_cpp_1_1_e_b_event.html" target="_top" xlink:title=" ">
<polygon fill="none" stroke="black" points="133,-669 133,-699 264,-699 264,-669 133,-669"/>
<text text-anchor="start" x="141" y="-687" font-family="Helvetica,sans-Serif" font-size="10.00">EBCpp::EBEvent&lt; EBCpp</text>
<text text-anchor="middle" x="198.5" y="-676" font-family="Helvetica,sans-Serif" font-size="10.00">::EBTcpServerSocket * &gt;</text>
</a>
</g>
</g>
<!-- Node0&#45;&gt;Node3 -->
<g id="edge3" class="edge">
<title>Node0&#45;&gt;Node3</title>
<path fill="none" stroke="#8b1a1a" d="M48.32,-390.83C48.93,-442.28 57.66,-581.47 131,-660 134.18,-663.41 137.89,-666.33 141.89,-668.84"/>
<polygon fill="#8b1a1a" stroke="#8b1a1a" points="51.82,-390.72 48.29,-380.73 44.82,-390.74 51.82,-390.72"/>
</g>
<!-- Node4 -->
<g id="node5" class="node">
<title>Node4</title>
<g id="a_node5"><a xlink:href="class_e_b_cpp_1_1_e_b_http_server.html" target="_top" xlink:title=" ">
<polygon fill="none" stroke="black" points="134.5,-620 134.5,-650 262.5,-650 262.5,-620 134.5,-620"/>
<text text-anchor="start" x="142.5" y="-638" font-family="Helvetica,sans-Serif" font-size="10.00">EBCpp::EBHttpServer</text>
<text text-anchor="middle" x="198.5" y="-627" font-family="Helvetica,sans-Serif" font-size="10.00">&lt; EBCpp::EBTcpServer &gt;</text>
</a>
</g>
</g>
<!-- Node0&#45;&gt;Node4 -->
<g id="edge4" class="edge">
<title>Node0&#45;&gt;Node4</title>
<path fill="none" stroke="midnightblue" d="M49.68,-390.76C53.44,-435.97 68.87,-547.91 131,-611 134.36,-614.41 138.24,-617.34 142.4,-619.85"/>
<polygon fill="midnightblue" stroke="midnightblue" points="53.17,-390.49 48.96,-380.77 46.19,-391 53.17,-390.49"/>
</g>
<!-- Node5 -->
<g id="node6" class="node">
<title>Node5</title>
<g id="a_node6"><a xlink:href="class_e_b_cpp_1_1_e_b_connection.html" target="_top" xlink:title="Class to connect between a signal and a slot.">
<polygon fill="none" stroke="black" points="140.5,-571 140.5,-601 256.5,-601 256.5,-571 140.5,-571"/>
<text text-anchor="start" x="148.5" y="-589" font-family="Helvetica,sans-Serif" font-size="10.00">EBCpp::EBConnection</text>
<text text-anchor="middle" x="198.5" y="-578" font-family="Helvetica,sans-Serif" font-size="10.00">&lt; args &gt;</text>
</a>
</g>
</g>
<!-- Node0&#45;&gt;Node5 -->
<g id="edge5" class="edge">
<title>Node0&#45;&gt;Node5</title>
<path fill="none" stroke="midnightblue" d="M51.79,-390.65C59.17,-428.72 80.49,-512.95 131,-561 135.02,-564.83 139.68,-568.08 144.64,-570.84"/>
<polygon fill="midnightblue" stroke="midnightblue" points="55.24,-390.02 50,-380.81 48.35,-391.28 55.24,-390.02"/>
</g>
<!-- Node6 -->
<g id="node7" class="node">
<title>Node6</title>
<g id="a_node7"><a xlink:href="class_e_b_cpp_1_1_e_b_event.html" target="_top" xlink:title="This objects handles an event.">
<polygon fill="none" stroke="black" points="134.5,-532.5 134.5,-551.5 262.5,-551.5 262.5,-532.5 134.5,-532.5"/>
<text text-anchor="middle" x="198.5" y="-539.5" font-family="Helvetica,sans-Serif" font-size="10.00">EBCpp::EBEvent&lt; args &gt;</text>
</a>
</g>
</g>
<!-- Node0&#45;&gt;Node6 -->
<g id="edge6" class="edge">
<title>Node0&#45;&gt;Node6</title>
<path fill="none" stroke="#8b1a1a" d="M53.71,-390.54C63.38,-422.99 87.21,-487.88 131,-523 135.87,-526.91 141.51,-530.01 147.4,-532.47"/>
<polygon fill="#8b1a1a" stroke="#8b1a1a" points="56.96,-389.19 50.87,-380.52 50.23,-391.09 56.96,-389.19"/>
</g>
<!-- Node7 -->
<g id="node8" class="node">
<title>Node7</title>
<g id="a_node8"><a xlink:href="class_e_b_cpp_1_1_e_b_event_loop.html" target="_top" xlink:title="Event handling class.">
<polygon fill="none" stroke="black" points="142.5,-494.5 142.5,-513.5 254.5,-513.5 254.5,-494.5 142.5,-494.5"/>
<text text-anchor="middle" x="198.5" y="-501.5" font-family="Helvetica,sans-Serif" font-size="10.00">EBCpp::EBEventLoop</text>
</a>
</g>
</g>
<!-- Node0&#45;&gt;Node7 -->
<g id="edge7" class="edge">
<title>Node0&#45;&gt;Node7</title>
<path fill="none" stroke="midnightblue" d="M57.18,-389.92C69.81,-415.36 95.66,-460.23 131,-485 136.51,-488.86 142.79,-491.94 149.24,-494.4"/>
<polygon fill="midnightblue" stroke="midnightblue" points="60.2,-388.13 52.72,-380.62 53.88,-391.15 60.2,-388.13"/>
</g>
<!-- Node8 -->
<g id="node9" class="node">
<title>Node8</title>
<g id="a_node9"><a xlink:href="class_e_b_cpp_1_1_e_b_http_header.html" target="_top" xlink:title="Class that parses the http header.">
<polygon fill="none" stroke="black" points="140.5,-456.5 140.5,-475.5 256.5,-475.5 256.5,-456.5 140.5,-456.5"/>
<text text-anchor="middle" x="198.5" y="-463.5" font-family="Helvetica,sans-Serif" font-size="10.00">EBCpp::EBHttpHeader</text>
</a>
</g>
</g>
<!-- Node0&#45;&gt;Node8 -->
<g id="edge8" class="edge">
<title>Node0&#45;&gt;Node8</title>
<path fill="none" stroke="midnightblue" d="M62.94,-388.39C78.17,-405.65 103.71,-431.69 131,-447 137.81,-450.82 145.44,-453.92 153.05,-456.43"/>
<polygon fill="midnightblue" stroke="midnightblue" points="65.5,-386 56.33,-380.7 60.2,-390.57 65.5,-386"/>
</g>
<!-- Node9 -->
<g id="node10" class="node">
<title>Node9</title>
<g id="a_node10"><a xlink:href="class_e_b_cpp_1_1_e_b_http_request.html" target="_top" xlink:title="Handles a http request.">
<polygon fill="none" stroke="black" points="138,-418.5 138,-437.5 259,-437.5 259,-418.5 138,-418.5"/>
<text text-anchor="middle" x="198.5" y="-425.5" font-family="Helvetica,sans-Serif" font-size="10.00">EBCpp::EBHttpRequest</text>
</a>
</g>
</g>
<!-- Node0&#45;&gt;Node9 -->
<g id="edge9" class="edge">
<title>Node0&#45;&gt;Node9</title>
<path fill="none" stroke="midnightblue" d="M76.35,-385.13C92.13,-392.8 112.39,-402.1 131,-409 140.34,-412.46 150.62,-415.68 160.24,-418.44"/>
<polygon fill="midnightblue" stroke="midnightblue" points="77.67,-381.88 67.16,-380.59 74.58,-388.15 77.67,-381.88"/>
</g>
<!-- Node10 -->
<g id="node11" class="node">
<title>Node10</title>
<g id="a_node11"><a xlink:href="class_e_b_cpp_1_1_e_b_http_server.html" target="_top" xlink:title="Implementation of a http server.">
<polygon fill="none" stroke="black" points="131,-380.5 131,-399.5 266,-399.5 266,-380.5 131,-380.5"/>
<text text-anchor="middle" x="198.5" y="-387.5" font-family="Helvetica,sans-Serif" font-size="10.00">EBCpp::EBHttpServer&lt; T &gt;</text>
</a>
</g>
</g>
<!-- Node0&#45;&gt;Node10 -->
<g id="edge10" class="edge">
<title>Node0&#45;&gt;Node10</title>
<path fill="none" stroke="midnightblue" d="M105.22,-378.23C113.56,-379.3 122.22,-380.4 130.74,-381.49"/>
<polygon fill="midnightblue" stroke="midnightblue" points="105.6,-374.75 95.24,-376.96 104.71,-381.7 105.6,-374.75"/>
</g>
<!-- Node11 -->
<g id="node12" class="node">
<title>Node11</title>
<g id="a_node12"><a xlink:href="class_e_b_cpp_1_1_e_b_i_o_device.html" target="_top" xlink:title="Interface description of an input/output device.">
<polygon fill="none" stroke="black" points="146,-342.5 146,-361.5 251,-361.5 251,-342.5 146,-342.5"/>
<text text-anchor="middle" x="198.5" y="-349.5" font-family="Helvetica,sans-Serif" font-size="10.00">EBCpp::EBIODevice</text>
</a>
</g>
</g>
<!-- Node0&#45;&gt;Node11 -->
<g id="edge11" class="edge">
<title>Node0&#45;&gt;Node11</title>
<path fill="none" stroke="midnightblue" d="M105.23,-363.77C118.55,-362.07 132.67,-360.27 145.75,-358.6"/>
<polygon fill="midnightblue" stroke="midnightblue" points="104.71,-360.3 95.24,-365.04 105.6,-367.25 104.71,-360.3"/>
</g>
<!-- Node14 -->
<g id="node15" class="node">
<title>Node14</title>
<g id="a_node15"><a xlink:href="class_e_b_cpp_1_1_e_b_semaphore.html" target="_top" xlink:title="Semaphore implementation for EBCpp.">
<polygon fill="none" stroke="black" points="140.5,-304.5 140.5,-323.5 256.5,-323.5 256.5,-304.5 140.5,-304.5"/>
<text text-anchor="middle" x="198.5" y="-311.5" font-family="Helvetica,sans-Serif" font-size="10.00">EBCpp::EBSemaphore</text>
</a>
</g>
</g>
<!-- Node0&#45;&gt;Node14 -->
<g id="edge14" class="edge">
<title>Node0&#45;&gt;Node14</title>
<path fill="none" stroke="midnightblue" d="M76.35,-356.87C92.13,-349.2 112.39,-339.9 131,-333 140.34,-329.54 150.62,-326.32 160.24,-323.56"/>
<polygon fill="midnightblue" stroke="midnightblue" points="74.58,-353.85 67.16,-361.41 77.67,-360.12 74.58,-353.85"/>
</g>
<!-- Node15 -->
<g id="node16" class="node">
<title>Node15</title>
<g id="a_node16"><a xlink:href="class_e_b_cpp_1_1_e_b_slot_call.html" target="_top" xlink:title="Object to call a slot.">
<polygon fill="none" stroke="black" points="148,-266.5 148,-285.5 249,-285.5 249,-266.5 148,-266.5"/>
<text text-anchor="middle" x="198.5" y="-273.5" font-family="Helvetica,sans-Serif" font-size="10.00">EBCpp::EBSlotCall</text>
</a>
</g>
</g>
<!-- Node0&#45;&gt;Node15 -->
<g id="edge15" class="edge">
<title>Node0&#45;&gt;Node15</title>
<path fill="none" stroke="midnightblue" d="M62.94,-353.61C78.17,-336.35 103.71,-310.31 131,-295 137.81,-291.18 145.44,-288.08 153.05,-285.57"/>
<polygon fill="midnightblue" stroke="midnightblue" points="60.2,-351.43 56.33,-361.3 65.5,-356 60.2,-351.43"/>
</g>
<!-- Node16 -->
<g id="node17" class="node">
<title>Node16</title>
<g id="a_node17"><a xlink:href="class_e_b_cpp_1_1_e_b_tcp_server.html" target="_top" xlink:title="Creates a TCP server.">
<polygon fill="none" stroke="black" points="143.5,-228.5 143.5,-247.5 253.5,-247.5 253.5,-228.5 143.5,-228.5"/>
<text text-anchor="middle" x="198.5" y="-235.5" font-family="Helvetica,sans-Serif" font-size="10.00">EBCpp::EBTcpServer</text>
</a>
</g>
</g>
<!-- Node0&#45;&gt;Node16 -->
<g id="edge16" class="edge">
<title>Node0&#45;&gt;Node16</title>
<path fill="none" stroke="midnightblue" d="M57.18,-352.08C69.81,-326.64 95.66,-281.77 131,-257 136.51,-253.14 142.79,-250.06 149.24,-247.6"/>
<polygon fill="midnightblue" stroke="midnightblue" points="53.88,-350.85 52.72,-361.38 60.2,-353.87 53.88,-350.85"/>
</g>
<!-- Node17 -->
<g id="node18" class="node">
<title>Node17</title>
<g id="a_node18"><a xlink:href="class_e_b_cpp_1_1_e_b_timer.html" target="_top" xlink:title="The EBTimer can provide times events.">
<polygon fill="none" stroke="black" points="153,-190.5 153,-209.5 244,-209.5 244,-190.5 153,-190.5"/>
<text text-anchor="middle" x="198.5" y="-197.5" font-family="Helvetica,sans-Serif" font-size="10.00">EBCpp::EBTimer</text>
</a>
</g>
</g>
<!-- Node0&#45;&gt;Node17 -->
<g id="edge17" class="edge">
<title>Node0&#45;&gt;Node17</title>
<path fill="none" stroke="midnightblue" d="M53.71,-351.46C63.38,-319.01 87.21,-254.12 131,-219 137.37,-213.89 145.05,-210.16 152.89,-207.43"/>
<polygon fill="midnightblue" stroke="midnightblue" points="50.23,-350.91 50.87,-361.48 56.96,-352.81 50.23,-350.91"/>
</g>
<!-- Node18 -->
<g id="node19" class="node">
<title>Node18</title>
<g id="a_node19"><a xlink:href="class_example_http_server.html" target="_top" xlink:title="Example to show the function of the TCP server.">
<polygon fill="none" stroke="black" points="148.5,-152.5 148.5,-171.5 248.5,-171.5 248.5,-152.5 148.5,-152.5"/>
<text text-anchor="middle" x="198.5" y="-159.5" font-family="Helvetica,sans-Serif" font-size="10.00">ExampleHttpServer</text>
</a>
</g>
</g>
<!-- Node0&#45;&gt;Node18 -->
<g id="edge18" class="edge">
<title>Node0&#45;&gt;Node18</title>
<path fill="none" stroke="midnightblue" d="M51.36,-351.52C58.05,-313.07 78.33,-227.17 131,-181 136.06,-176.57 142.08,-173.17 148.41,-170.55"/>
<polygon fill="midnightblue" stroke="midnightblue" points="47.9,-351 49.76,-361.43 54.81,-352.12 47.9,-351"/>
</g>
<!-- Node19 -->
<g id="node20" class="node">
<title>Node19</title>
<g id="a_node20"><a xlink:href="class_example_s_s_l_client.html" target="_top" xlink:title="Example to show the function of a tcp client.">
<polygon fill="none" stroke="black" points="149.5,-114.5 149.5,-133.5 247.5,-133.5 247.5,-114.5 149.5,-114.5"/>
<text text-anchor="middle" x="198.5" y="-121.5" font-family="Helvetica,sans-Serif" font-size="10.00">ExampleSSLClient</text>
</a>
</g>
</g>
<!-- Node0&#45;&gt;Node19 -->
<g id="edge19" class="edge">
<title>Node0&#45;&gt;Node19</title>
<path fill="none" stroke="midnightblue" d="M49.8,-351.04C53.78,-306.89 69.57,-200.34 131,-143 136.18,-138.17 142.5,-134.55 149.17,-131.85"/>
<polygon fill="midnightblue" stroke="midnightblue" points="46.31,-350.83 49.01,-361.08 53.29,-351.38 46.31,-350.83"/>
</g>
<!-- Node20 -->
<g id="node21" class="node">
<title>Node20</title>
<g id="a_node21"><a xlink:href="class_example_tcp_client.html" target="_top" xlink:title="Example to show the function of a tcp client.">
<polygon fill="none" stroke="black" points="151,-76.5 151,-95.5 246,-95.5 246,-76.5 151,-76.5"/>
<text text-anchor="middle" x="198.5" y="-83.5" font-family="Helvetica,sans-Serif" font-size="10.00">ExampleTcpClient</text>
</a>
</g>
</g>
<!-- Node0&#45;&gt;Node20 -->
<g id="edge20" class="edge">
<title>Node0&#45;&gt;Node20</title>
<path fill="none" stroke="midnightblue" d="M48.6,-351.17C49.95,-302.1 60.43,-174 131,-105 136.49,-99.63 143.4,-95.75 150.66,-92.97"/>
<polygon fill="midnightblue" stroke="midnightblue" points="45.09,-351.31 48.42,-361.37 52.09,-351.43 45.09,-351.31"/>
</g>
<!-- Node21 -->
<g id="node22" class="node">
<title>Node21</title>
<g id="a_node22"><a xlink:href="class_example_tcp_server.html" target="_top" xlink:title="Example to show the function of the TCP server.">
<polygon fill="none" stroke="black" points="149.5,-38.5 149.5,-57.5 247.5,-57.5 247.5,-38.5 149.5,-38.5"/>
<text text-anchor="middle" x="198.5" y="-45.5" font-family="Helvetica,sans-Serif" font-size="10.00">ExampleTcpServer</text>
</a>
</g>
</g>
<!-- Node0&#45;&gt;Node21 -->
<g id="edge21" class="edge">
<title>Node0&#45;&gt;Node21</title>
<path fill="none" stroke="midnightblue" d="M47.68,-351.3C46.59,-297.7 51.2,-147.87 131,-67 136.14,-61.79 142.61,-57.98 149.48,-55.2"/>
<polygon fill="midnightblue" stroke="midnightblue" points="44.19,-351.58 47.99,-361.48 51.19,-351.37 44.19,-351.58"/>
</g>
<!-- Node22 -->
<g id="node23" class="node">
<title>Node22</title>
<g id="a_node23"><a xlink:href="class_example_timer.html" target="_top" xlink:title="Example to show the function of an timer.">
<polygon fill="none" stroke="black" points="159,-0.5 159,-19.5 238,-19.5 238,-0.5 159,-0.5"/>
<text text-anchor="middle" x="198.5" y="-7.5" font-family="Helvetica,sans-Serif" font-size="10.00">ExampleTimer</text>
</a>
</g>
</g>
<!-- Node0&#45;&gt;Node22 -->
<g id="edge22" class="edge">
<title>Node0&#45;&gt;Node22</title>
<path fill="none" stroke="midnightblue" d="M50.66,-351.22C58.23,-285.57 85.53,-76.4 131,-29 138.4,-21.29 148.69,-16.64 158.97,-13.86"/>
<polygon fill="midnightblue" stroke="midnightblue" points="47.16,-351.1 49.52,-361.42 54.11,-351.88 47.16,-351.1"/>
</g>
<!-- Node12 -->
<g id="node13" class="node">
<title>Node12</title>
<g id="a_node13"><a xlink:href="class_e_b_cpp_1_1_e_b_tcp_socket.html" target="_top" xlink:title="Socket to handle a tcp connection.">
<polygon fill="none" stroke="black" points="302,-342.5 302,-361.5 415,-361.5 415,-342.5 302,-342.5"/>
<text text-anchor="middle" x="358.5" y="-349.5" font-family="Helvetica,sans-Serif" font-size="10.00">EBCpp::EBTcpSocket</text>
</a>
</g>
</g>
<!-- Node11&#45;&gt;Node12 -->
<g id="edge12" class="edge">
<title>Node11&#45;&gt;Node12</title>
<path fill="none" stroke="midnightblue" d="M261.3,-352C274.66,-352 288.72,-352 301.84,-352"/>
<polygon fill="midnightblue" stroke="midnightblue" points="261.24,-348.5 251.24,-352 261.24,-355.5 261.24,-348.5"/>
</g>
<!-- Node13 -->
<g id="node14" class="node">
<title>Node13</title>
<g id="a_node14"><a xlink:href="class_e_b_cpp_1_1_e_b_tcp_server_socket.html" target="_top" xlink:title="Class that handles a tcp socket for the EBTcpServer.">
<polygon fill="none" stroke="black" points="451,-342.5 451,-361.5 591,-361.5 591,-342.5 451,-342.5"/>
<text text-anchor="middle" x="521" y="-349.5" font-family="Helvetica,sans-Serif" font-size="10.00">EBCpp::EBTcpServerSocket</text>
</a>
</g>
</g>
<!-- Node12&#45;&gt;Node13 -->
<g id="edge13" class="edge">
<title>Node12&#45;&gt;Node13</title>
<path fill="none" stroke="midnightblue" d="M425.32,-352C433.73,-352 442.37,-352 450.84,-352"/>
<polygon fill="midnightblue" stroke="midnightblue" points="425.18,-348.5 415.18,-352 425.18,-355.5 425.18,-348.5"/>
</g>
</g>
</svg>
