<?xml version="1.0" encoding="UTF-8" standalone="no"?>
<!DOCTYPE svg PUBLIC "-//W3C//DTD SVG 1.1//EN"
 "http://www.w3.org/Graphics/SVG/1.1/DTD/svg11.dtd">
<!-- Generated by graphviz version 2.46.0 (20210118.1747)
 -->
<!-- Title: Graphical Class Hierarchy Pages: 1 -->
<svg width="419pt" height="833pt"
 viewBox="0.00 0.00 419.00 832.50" xmlns="http://www.w3.org/2000/svg" xmlns:xlink="http://www.w3.org/1999/xlink">
<g id="graph0" class="graph" transform="scale(1 1) rotate(0) translate(4 828.5)">
<title>Graphical Class Hierarchy</title>
<!-- Node0 -->
<g id="node1" class="node">
<title>Node0</title>
<g id="a_node1"><a xlink:href="class_e_b_cpp_1_1_e_b_object.html" target="_top" xlink:title="The core object. Every object from EBCpp must inherit this.">
<polygon fill="none" stroke="black" points="0,-380.5 0,-399.5 95,-399.5 95,-380.5 0,-380.5"/>
<text text-anchor="middle" x="47.5" y="-387.5" font-family="Helvetica,sans-Serif" font-size="10.00">EBCpp::EBObject</text>
</a>
</g>
</g>
<!-- Node1 -->
<g id="node2" class="node">
<title>Node1</title>
<g id="a_node2"><a xlink:href="class_e_b_cpp_1_1_e_b_event.html" target="_top" xlink:title=" ">
<polygon fill="none" stroke="black" points="140,-794 140,-824 253,-824 253,-794 140,-794"/>
<text text-anchor="start" x="148" y="-812" font-family="Helvetica,sans-Serif" font-size="10.00">EBCpp::EBEvent&lt; std</text>
<text text-anchor="middle" x="196.5" y="-801" font-family="Helvetica,sans-Serif" font-size="10.00">::string &gt;</text>
</a>
</g>
</g>
<!-- Node0&#45;&gt;Node1 -->
<g id="edge1" class="edge">
<title>Node0&#45;&gt;Node1</title>
<path fill="none" stroke="#8b1a1a" d="M50.13,-409.83C56.42,-481.66 81.24,-727.14 131,-785 133.96,-788.44 137.46,-791.39 141.28,-793.92"/>
<polygon fill="#8b1a1a" stroke="#8b1a1a" points="53.59,-409.17 49.25,-399.51 46.62,-409.77 53.59,-409.17"/>
</g>
<!-- Node2 -->
<g id="node3" class="node">
<title>Node2</title>
<g id="a_node3"><a xlink:href="class_e_b_cpp_1_1_e_b_event.html" target="_top" xlink:title=" ">
<polygon fill="none" stroke="black" points="131,-745 131,-775 262,-775 262,-745 131,-745"/>
<text text-anchor="start" x="139" y="-763" font-family="Helvetica,sans-Serif" font-size="10.00">EBCpp::EBEvent&lt; EBCpp</text>
<text text-anchor="middle" x="196.5" y="-752" font-family="Helvetica,sans-Serif" font-size="10.00">::EBHttpRequest * &gt;</text>
</a>
</g>
</g>
<!-- Node0&#45;&gt;Node2 -->
<g id="edge2" class="edge">
<title>Node0&#45;&gt;Node2</title>
<path fill="none" stroke="#8b1a1a" d="M50.78,-409.88C58.7,-475.86 86.99,-686.26 131,-736 134.01,-739.4 137.55,-742.32 141.39,-744.83"/>
<polygon fill="#8b1a1a" stroke="#8b1a1a" points="54.21,-409.14 49.57,-399.62 47.26,-409.96 54.21,-409.14"/>
</g>
<!-- Node3 -->
<g id="node4" class="node">
<title>Node3</title>
<g id="a_node4"><a xlink:href="class_e_b_cpp_1_1_e_b_event.html" target="_top" xlink:title=" ">
<polygon fill="none" stroke="black" points="131,-696 131,-726 262,-726 262,-696 131,-696"/>
<text text-anchor="start" x="139" y="-714" font-family="Helvetica,sans-Serif" font-size="10.00">EBCpp::EBEvent&lt; EBCpp</text>
<text text-anchor="middle" x="196.5" y="-703" font-family="Helvetica,sans-Serif" font-size="10.00">::EBTcpSocket * &gt;</text>
</a>
</g>
</g>
<!-- Node0&#45;&gt;Node3 -->
<g id="edge3" class="edge">
<title>Node0&#45;&gt;Node3</title>
<path fill="none" stroke="#8b1a1a" d="M48.18,-409.97C48.43,-462.42 56.3,-605.64 131,-687 134.15,-690.43 137.84,-693.38 141.83,-695.9"/>
<polygon fill="#8b1a1a" stroke="#8b1a1a" points="51.68,-409.71 48.23,-399.69 44.68,-409.68 51.68,-409.71"/>
</g>
<!-- Node4 -->
<g id="node5" class="node">
<title>Node4</title>
<g id="a_node5"><a xlink:href="class_e_b_cpp_1_1_e_b_connection.html" target="_top" xlink:title="Class to connect between a signal and a slot.">
<polygon fill="none" stroke="black" points="138.5,-647 138.5,-677 254.5,-677 254.5,-647 138.5,-647"/>
<text text-anchor="start" x="146.5" y="-665" font-family="Helvetica,sans-Serif" font-size="10.00">EBCpp::EBConnection</text>
<text text-anchor="middle" x="196.5" y="-654" font-family="Helvetica,sans-Serif" font-size="10.00">&lt; args &gt;</text>
</a>
</g>
</g>
<!-- Node0&#45;&gt;Node4 -->
<g id="edge4" class="edge">
<title>Node0&#45;&gt;Node4</title>
<path fill="none" stroke="midnightblue" d="M49.6,-410.22C53.2,-456.51 68.29,-571.25 131,-637 134.65,-640.82 138.95,-644.07 143.56,-646.83"/>
<polygon fill="midnightblue" stroke="midnightblue" points="53.08,-409.74 48.92,-400 46.1,-410.21 53.08,-409.74"/>
</g>
<!-- Node5 -->
<g id="node6" class="node">
<title>Node5</title>
<g id="a_node6"><a xlink:href="class_e_b_cpp_1_1_e_b_event.html" target="_top" xlink:title="This objects handles an event.">
<polygon fill="none" stroke="black" points="132.5,-608.5 132.5,-627.5 260.5,-627.5 260.5,-608.5 132.5,-608.5"/>
<text text-anchor="middle" x="196.5" y="-615.5" font-family="Helvetica,sans-Serif" font-size="10.00">EBCpp::EBEvent&lt; args &gt;</text>
</a>
</g>
</g>
<!-- Node0&#45;&gt;Node5 -->
<g id="edge5" class="edge">
<title>Node0&#45;&gt;Node5</title>
<path fill="none" stroke="#8b1a1a" d="M50.55,-409.65C55.92,-450.91 74.16,-547.03 131,-599 135.22,-602.86 140.19,-605.94 145.47,-608.39"/>
<polygon fill="#8b1a1a" stroke="#8b1a1a" points="54.01,-409.07 49.36,-399.55 47.06,-409.89 54.01,-409.07"/>
</g>
<!-- Node6 -->
<g id="node7" class="node">
<title>Node6</title>
<g id="a_node7"><a xlink:href="class_e_b_cpp_1_1_e_b_event_loop.html" target="_top" xlink:title="Event handling class.">
<polygon fill="none" stroke="black" points="140.5,-570.5 140.5,-589.5 252.5,-589.5 252.5,-570.5 140.5,-570.5"/>
<text text-anchor="middle" x="196.5" y="-577.5" font-family="Helvetica,sans-Serif" font-size="10.00">EBCpp::EBEventLoop</text>
</a>
</g>
</g>
<!-- Node0&#45;&gt;Node6 -->
<g id="edge6" class="edge">
<title>Node0&#45;&gt;Node6</title>
<path fill="none" stroke="midnightblue" d="M52.55,-409.93C60.85,-445.6 83.16,-520.38 131,-561 135.54,-564.85 140.83,-567.92 146.39,-570.37"/>
<polygon fill="midnightblue" stroke="midnightblue" points="55.9,-408.84 50.34,-399.82 49.06,-410.34 55.9,-408.84"/>
</g>
<!-- Node7 -->
<g id="node8" class="node">
<title>Node7</title>
<g id="a_node8"><a xlink:href="class_e_b_cpp_1_1_e_b_http_header.html" target="_top" xlink:title="Class that parses the http header.">
<polygon fill="none" stroke="black" points="138.5,-532.5 138.5,-551.5 254.5,-551.5 254.5,-532.5 138.5,-532.5"/>
<text text-anchor="middle" x="196.5" y="-539.5" font-family="Helvetica,sans-Serif" font-size="10.00">EBCpp::EBHttpHeader</text>
</a>
</g>
</g>
<!-- Node0&#45;&gt;Node7 -->
<g id="edge7" class="edge">
<title>Node0&#45;&gt;Node7</title>
<path fill="none" stroke="midnightblue" d="M55.23,-409.13C66.4,-438.1 91.54,-492.94 131,-523 136.11,-526.89 142,-529.99 148.1,-532.45"/>
<polygon fill="midnightblue" stroke="midnightblue" points="58.5,-407.88 51.74,-399.71 51.93,-410.31 58.5,-407.88"/>
</g>
<!-- Node8 -->
<g id="node9" class="node">
<title>Node8</title>
<g id="a_node9"><a xlink:href="class_e_b_cpp_1_1_e_b_http_request.html" target="_top" xlink:title="Handles a http request.">
<polygon fill="none" stroke="black" points="136,-494.5 136,-513.5 257,-513.5 257,-494.5 136,-494.5"/>
<text text-anchor="middle" x="196.5" y="-501.5" font-family="Helvetica,sans-Serif" font-size="10.00">EBCpp::EBHttpRequest</text>
</a>
</g>
</g>
<!-- Node0&#45;&gt;Node8 -->
<g id="edge8" class="edge">
<title>Node0&#45;&gt;Node8</title>
<path fill="none" stroke="midnightblue" d="M59.63,-408.22C73.67,-429.68 99.78,-464.94 131,-485 136.99,-488.85 143.79,-491.94 150.67,-494.42"/>
<polygon fill="midnightblue" stroke="midnightblue" points="62.53,-406.25 54.22,-399.69 56.62,-410.01 62.53,-406.25"/>
</g>
<!-- Node9 -->
<g id="node10" class="node">
<title>Node9</title>
<g id="a_node10"><a xlink:href="class_e_b_cpp_1_1_e_b_http_server.html" target="_top" xlink:title="Implementation of a http server.">
<polygon fill="none" stroke="black" points="140.5,-456.5 140.5,-475.5 252.5,-475.5 252.5,-456.5 140.5,-456.5"/>
<text text-anchor="middle" x="196.5" y="-463.5" font-family="Helvetica,sans-Serif" font-size="10.00">EBCpp::EBHttpServer</text>
</a>
</g>
</g>
<!-- Node0&#45;&gt;Node9 -->
<g id="edge9" class="edge">
<title>Node0&#45;&gt;Node9</title>
<path fill="none" stroke="midnightblue" d="M67.86,-406.03C83.92,-418.66 107.8,-435.92 131,-447 138.8,-450.72 147.47,-453.88 155.87,-456.49"/>
<polygon fill="midnightblue" stroke="midnightblue" points="69.78,-403.09 59.79,-399.57 65.4,-408.55 69.78,-403.09"/>
</g>
<!-- Node10 -->
<g id="node11" class="node">
<title>Node10</title>
<g id="a_node11"><a xlink:href="class_e_b_cpp_1_1_e_b_i_o_device.html" target="_top" xlink:title="Interface description of an input/output device.">
<polygon fill="none" stroke="black" points="144,-418.5 144,-437.5 249,-437.5 249,-418.5 144,-418.5"/>
<text text-anchor="middle" x="196.5" y="-425.5" font-family="Helvetica,sans-Serif" font-size="10.00">EBCpp::EBIODevice</text>
</a>
</g>
</g>
<!-- Node0&#45;&gt;Node10 -->
<g id="edge10" class="edge">
<title>Node0&#45;&gt;Node10</title>
<path fill="none" stroke="midnightblue" d="M95.35,-402.11C115.83,-407.4 139.49,-413.52 158.67,-418.48"/>
<polygon fill="midnightblue" stroke="midnightblue" points="96.15,-398.7 85.59,-399.59 94.4,-405.48 96.15,-398.7"/>
</g>
<!-- Node12 -->
<g id="node13" class="node">
<title>Node12</title>
<g id="a_node13"><a xlink:href="class_e_b_cpp_1_1_e_b_semaphore.html" target="_top" xlink:title="Semaphore implementation for EBCpp.">
<polygon fill="none" stroke="black" points="138.5,-380.5 138.5,-399.5 254.5,-399.5 254.5,-380.5 138.5,-380.5"/>
<text text-anchor="middle" x="196.5" y="-387.5" font-family="Helvetica,sans-Serif" font-size="10.00">EBCpp::EBSemaphore</text>
</a>
</g>
</g>
<!-- Node0&#45;&gt;Node12 -->
<g id="edge12" class="edge">
<title>Node0&#45;&gt;Node12</title>
<path fill="none" stroke="midnightblue" d="M105.26,-390C116.15,-390 127.56,-390 138.46,-390"/>
<polygon fill="midnightblue" stroke="midnightblue" points="105.01,-386.5 95.01,-390 105.01,-393.5 105.01,-386.5"/>
</g>
<!-- Node13 -->
<g id="node14" class="node">
<title>Node13</title>
<g id="a_node14"><a xlink:href="class_e_b_cpp_1_1_e_b_slot_call.html" target="_top" xlink:title="Object to call a slot.">
<polygon fill="none" stroke="black" points="146,-342.5 146,-361.5 247,-361.5 247,-342.5 146,-342.5"/>
<text text-anchor="middle" x="196.5" y="-349.5" font-family="Helvetica,sans-Serif" font-size="10.00">EBCpp::EBSlotCall</text>
</a>
</g>
</g>
<!-- Node0&#45;&gt;Node13 -->
<g id="edge13" class="edge">
<title>Node0&#45;&gt;Node13</title>
<path fill="none" stroke="midnightblue" d="M95.35,-377.89C115.83,-372.6 139.49,-366.48 158.67,-361.52"/>
<polygon fill="midnightblue" stroke="midnightblue" points="94.4,-374.52 85.59,-380.41 96.15,-381.3 94.4,-374.52"/>
</g>
<!-- Node14 -->
<g id="node15" class="node">
<title>Node14</title>
<g id="a_node15"><a xlink:href="class_e_b_cpp_1_1_e_b_tcp_server.html" target="_top" xlink:title="Creates a TCP server.">
<polygon fill="none" stroke="black" points="141.5,-304.5 141.5,-323.5 251.5,-323.5 251.5,-304.5 141.5,-304.5"/>
<text text-anchor="middle" x="196.5" y="-311.5" font-family="Helvetica,sans-Serif" font-size="10.00">EBCpp::EBTcpServer</text>
</a>
</g>
</g>
<!-- Node0&#45;&gt;Node14 -->
<g id="edge14" class="edge">
<title>Node0&#45;&gt;Node14</title>
<path fill="none" stroke="midnightblue" d="M67.86,-373.97C83.92,-361.34 107.8,-344.08 131,-333 138.8,-329.28 147.47,-326.12 155.87,-323.51"/>
<polygon fill="midnightblue" stroke="midnightblue" points="65.4,-371.45 59.79,-380.43 69.78,-376.91 65.4,-371.45"/>
</g>
<!-- Node15 -->
<g id="node16" class="node">
<title>Node15</title>
<g id="a_node16"><a xlink:href="class_e_b_cpp_1_1_e_b_timer.html" target="_top" xlink:title="The EBTimer can provide times events.">
<polygon fill="none" stroke="black" points="151,-266.5 151,-285.5 242,-285.5 242,-266.5 151,-266.5"/>
<text text-anchor="middle" x="196.5" y="-273.5" font-family="Helvetica,sans-Serif" font-size="10.00">EBCpp::EBTimer</text>
</a>
</g>
</g>
<!-- Node0&#45;&gt;Node15 -->
<g id="edge15" class="edge">
<title>Node0&#45;&gt;Node15</title>
<path fill="none" stroke="midnightblue" d="M59.63,-371.78C73.67,-350.32 99.78,-315.06 131,-295 136.99,-291.15 143.79,-288.06 150.67,-285.58"/>
<polygon fill="midnightblue" stroke="midnightblue" points="56.62,-369.99 54.22,-380.31 62.53,-373.75 56.62,-369.99"/>
</g>
<!-- Node16 -->
<g id="node17" class="node">
<title>Node16</title>
<g id="a_node17"><a xlink:href="class_example_http_server.html" target="_top" xlink:title="Example to show the function of the TCP server.">
<polygon fill="none" stroke="black" points="146.5,-228.5 146.5,-247.5 246.5,-247.5 246.5,-228.5 146.5,-228.5"/>
<text text-anchor="middle" x="196.5" y="-235.5" font-family="Helvetica,sans-Serif" font-size="10.00">ExampleHttpServer</text>
</a>
</g>
</g>
<!-- Node0&#45;&gt;Node16 -->
<g id="edge16" class="edge">
<title>Node0&#45;&gt;Node16</title>
<path fill="none" stroke="midnightblue" d="M55.23,-370.87C66.4,-341.9 91.54,-287.06 131,-257 136.11,-253.11 142,-250.01 148.1,-247.55"/>
<polygon fill="midnightblue" stroke="midnightblue" points="51.93,-369.69 51.74,-380.29 58.5,-372.12 51.93,-369.69"/>
</g>
<!-- Node17 -->
<g id="node18" class="node">
<title>Node17</title>
<g id="a_node18"><a xlink:href="class_example_https_server.html" target="_top" xlink:title="Example to show the function of the TCP server.">
<polygon fill="none" stroke="black" points="144,-190.5 144,-209.5 249,-209.5 249,-190.5 144,-190.5"/>
<text text-anchor="middle" x="196.5" y="-197.5" font-family="Helvetica,sans-Serif" font-size="10.00">ExampleHttpsServer</text>
</a>
</g>
</g>
<!-- Node0&#45;&gt;Node17 -->
<g id="edge17" class="edge">
<title>Node0&#45;&gt;Node17</title>
<path fill="none" stroke="midnightblue" d="M52.55,-370.07C60.85,-334.4 83.16,-259.62 131,-219 135.54,-215.15 140.83,-212.08 146.39,-209.63"/>
<polygon fill="midnightblue" stroke="midnightblue" points="49.06,-369.66 50.34,-380.18 55.9,-371.16 49.06,-369.66"/>
</g>
<!-- Node18 -->
<g id="node19" class="node">
<title>Node18</title>
<g id="a_node19"><a xlink:href="class_example_s_s_l_client.html" target="_top" xlink:title="Example to show the function of a tcp client.">
<polygon fill="none" stroke="black" points="147.5,-152.5 147.5,-171.5 245.5,-171.5 245.5,-152.5 147.5,-152.5"/>
<text text-anchor="middle" x="196.5" y="-159.5" font-family="Helvetica,sans-Serif" font-size="10.00">ExampleSSLClient</text>
</a>
</g>
</g>
<!-- Node0&#45;&gt;Node18 -->
<g id="edge18" class="edge">
<title>Node0&#45;&gt;Node18</title>
<path fill="none" stroke="midnightblue" d="M50.55,-370.35C55.92,-329.09 74.16,-232.97 131,-181 135.74,-176.67 141.42,-173.32 147.42,-170.73"/>
<polygon fill="midnightblue" stroke="midnightblue" points="47.06,-370.11 49.36,-380.45 54.01,-370.93 47.06,-370.11"/>
</g>
<!-- Node19 -->
<g id="node20" class="node">
<title>Node19</title>
<g id="a_node20"><a xlink:href="class_example_ssl_server.html" target="_top" xlink:title="Example to show the function of the TCP server.">
<polygon fill="none" stroke="black" points="148.5,-114.5 148.5,-133.5 244.5,-133.5 244.5,-114.5 148.5,-114.5"/>
<text text-anchor="middle" x="196.5" y="-121.5" font-family="Helvetica,sans-Serif" font-size="10.00">ExampleSslServer</text>
</a>
</g>
</g>
<!-- Node0&#45;&gt;Node19 -->
<g id="edge19" class="edge">
<title>Node0&#45;&gt;Node19</title>
<path fill="none" stroke="midnightblue" d="M49.19,-370.05C51.92,-323.41 65.31,-206.37 131,-143 135.87,-138.3 141.85,-134.75 148.18,-132.08"/>
<polygon fill="midnightblue" stroke="midnightblue" points="45.69,-370.17 48.71,-380.32 52.68,-370.5 45.69,-370.17"/>
</g>
<!-- Node20 -->
<g id="node21" class="node">
<title>Node20</title>
<g id="a_node21"><a xlink:href="class_example_tcp_client.html" target="_top" xlink:title="Example to show the function of a tcp client.">
<polygon fill="none" stroke="black" points="149,-76.5 149,-95.5 244,-95.5 244,-76.5 149,-76.5"/>
<text text-anchor="middle" x="196.5" y="-83.5" font-family="Helvetica,sans-Serif" font-size="10.00">ExampleTcpClient</text>
</a>
</g>
</g>
<!-- Node0&#45;&gt;Node20 -->
<g id="edge20" class="edge">
<title>Node0&#45;&gt;Node20</title>
<path fill="none" stroke="midnightblue" d="M48.15,-370.18C48.34,-318.82 56.17,-180.18 131,-105 136.02,-99.95 142.32,-96.23 148.99,-93.49"/>
<polygon fill="midnightblue" stroke="midnightblue" points="44.65,-370.29 48.21,-380.27 51.65,-370.25 44.65,-370.29"/>
</g>
<!-- Node21 -->
<g id="node22" class="node">
<title>Node21</title>
<g id="a_node22"><a xlink:href="class_example_tcp_server.html" target="_top" xlink:title="Example to show the function of the TCP server.">
<polygon fill="none" stroke="black" points="147.5,-38.5 147.5,-57.5 245.5,-57.5 245.5,-38.5 147.5,-38.5"/>
<text text-anchor="middle" x="196.5" y="-45.5" font-family="Helvetica,sans-Serif" font-size="10.00">ExampleTcpServer</text>
</a>
</g>
</g>
<!-- Node0&#45;&gt;Node21 -->
<g id="edge21" class="edge">
<title>Node0&#45;&gt;Node21</title>
<path fill="none" stroke="midnightblue" d="M51,-370.1C59.33,-306.79 88.07,-111.52 131,-67 135.54,-62.29 141.18,-58.74 147.22,-56.05"/>
<polygon fill="midnightblue" stroke="midnightblue" points="47.49,-369.96 49.68,-380.32 54.43,-370.85 47.49,-369.96"/>
</g>
<!-- Node22 -->
<g id="node23" class="node">
<title>Node22</title>
<g id="a_node23"><a xlink:href="class_example_timer.html" target="_top" xlink:title="Example to show the function of an timer.">
<polygon fill="none" stroke="black" points="157,-0.5 157,-19.5 236,-19.5 236,-0.5 157,-0.5"/>
<text text-anchor="middle" x="196.5" y="-7.5" font-family="Helvetica,sans-Serif" font-size="10.00">ExampleTimer</text>
</a>
</g>
</g>
<!-- Node0&#45;&gt;Node22 -->
<g id="edge22" class="edge">
<title>Node0&#45;&gt;Node22</title>
<path fill="none" stroke="midnightblue" d="M50.43,-370.02C57.4,-301.82 83.44,-79.59 131,-29 137.8,-21.77 147.19,-17.25 156.71,-14.43"/>
<polygon fill="midnightblue" stroke="midnightblue" points="46.92,-369.95 49.41,-380.25 53.88,-370.65 46.92,-369.95"/>
</g>
<!-- Node11 -->
<g id="node12" class="node">
<title>Node11</title>
<g id="a_node12"><a xlink:href="class_e_b_cpp_1_1_e_b_tcp_socket.html" target="_top" xlink:title="Socket to handle a tcp connection.">
<polygon fill="none" stroke="black" points="298,-418.5 298,-437.5 411,-437.5 411,-418.5 298,-418.5"/>
<text text-anchor="middle" x="354.5" y="-425.5" font-family="Helvetica,sans-Serif" font-size="10.00">EBCpp::EBTcpSocket</text>
</a>
</g>
</g>
<!-- Node10&#45;&gt;Node11 -->
<g id="edge11" class="edge">
<title>Node10&#45;&gt;Node11</title>
<path fill="none" stroke="midnightblue" d="M259.08,-428C271.84,-428 285.21,-428 297.74,-428"/>
<polygon fill="midnightblue" stroke="midnightblue" points="259.01,-424.5 249.01,-428 259.01,-431.5 259.01,-424.5"/>
</g>
</g>
</svg>
