<?xml version="1.0" encoding="UTF-8" standalone="no"?>
<!DOCTYPE svg PUBLIC "-//W3C//DTD SVG 1.1//EN"
 "http://www.w3.org/Graphics/SVG/1.1/DTD/svg11.dtd">
<!-- Generated by graphviz version 2.46.0 (20210118.1747)
 -->
<!-- Title: Graphical Class Hierarchy Pages: 1 -->
<svg width="599pt" height="768pt"
 viewBox="0.00 0.00 599.00 767.50" xmlns="http://www.w3.org/2000/svg" xmlns:xlink="http://www.w3.org/1999/xlink">
<g id="graph0" class="graph" transform="scale(1 1) rotate(0) translate(4 763.5)">
<title>Graphical Class Hierarchy</title>
<!-- Node0 -->
<g id="node1" class="node">
<title>Node0</title>
<g id="a_node1"><a xlink:href="class_e_b_cpp_1_1_e_b_object.html" target="_top" xlink:title="The core object. Every object from EBCpp must inherit this.">
<polygon fill="none" stroke="black" points="0,-342.5 0,-361.5 95,-361.5 95,-342.5 0,-342.5"/>
<text text-anchor="middle" x="47.5" y="-349.5" font-family="Helvetica,sans-Serif" font-size="10.00">EBCpp::EBObject</text>
</a>
</g>
</g>
<!-- Node1 -->
<g id="node2" class="node">
<title>Node1</title>
<g id="a_node2"><a xlink:href="class_e_b_cpp_1_1_e_b_event.html" target="_top" xlink:title=" ">
<polygon fill="none" stroke="black" points="142,-729 142,-759 255,-759 255,-729 142,-729"/>
<text text-anchor="start" x="150" y="-747" font-family="Helvetica,sans-Serif" font-size="10.00">EBCpp::EBEvent&lt; std</text>
<text text-anchor="middle" x="198.5" y="-736" font-family="Helvetica,sans-Serif" font-size="10.00">::string &gt;</text>
</a>
</g>
</g>
<!-- Node0&#45;&gt;Node1 -->
<g id="edge1" class="edge">
<title>Node0&#45;&gt;Node1</title>
<path fill="none" stroke="#8b1a1a" d="M50.44,-371.8C57.54,-440.44 84.14,-666.84 131,-720 134.17,-723.59 137.91,-726.64 141.98,-729.24"/>
<polygon fill="#8b1a1a" stroke="#8b1a1a" points="53.89,-371.14 49.41,-361.54 46.93,-371.84 53.89,-371.14"/>
</g>
<!-- Node2 -->
<g id="node3" class="node">
<title>Node2</title>
<g id="a_node3"><a xlink:href="class_e_b_cpp_1_1_e_b_event.html" target="_top" xlink:title=" ">
<polygon fill="none" stroke="black" points="133,-680 133,-710 264,-710 264,-680 133,-680"/>
<text text-anchor="start" x="141" y="-698" font-family="Helvetica,sans-Serif" font-size="10.00">EBCpp::EBEvent&lt; EBCpp</text>
<text text-anchor="middle" x="198.5" y="-687" font-family="Helvetica,sans-Serif" font-size="10.00">::EBHttpRequest * &gt;</text>
</a>
</g>
</g>
<!-- Node0&#45;&gt;Node2 -->
<g id="edge2" class="edge">
<title>Node0&#45;&gt;Node2</title>
<path fill="none" stroke="#8b1a1a" d="M47.67,-371.64C46.46,-426.44 50.63,-582.76 131,-671 134.14,-674.45 137.81,-677.4 141.79,-679.93"/>
<polygon fill="#8b1a1a" stroke="#8b1a1a" points="51.18,-371.65 47.99,-361.55 44.18,-371.43 51.18,-371.65"/>
</g>
<!-- Node3 -->
<g id="node4" class="node">
<title>Node3</title>
<g id="a_node4"><a xlink:href="class_e_b_cpp_1_1_e_b_event.html" target="_top" xlink:title=" ">
<polygon fill="none" stroke="black" points="133,-631 133,-661 264,-661 264,-631 133,-631"/>
<text text-anchor="start" x="141" y="-649" font-family="Helvetica,sans-Serif" font-size="10.00">EBCpp::EBEvent&lt; EBCpp</text>
<text text-anchor="middle" x="198.5" y="-638" font-family="Helvetica,sans-Serif" font-size="10.00">::EBTcpServerSocket * &gt;</text>
</a>
</g>
</g>
<!-- Node0&#45;&gt;Node3 -->
<g id="edge3" class="edge">
<title>Node0&#45;&gt;Node3</title>
<path fill="none" stroke="#8b1a1a" d="M48.79,-371.83C50.6,-420.95 62.03,-549.51 131,-622 134.3,-625.47 138.14,-628.44 142.27,-630.98"/>
<polygon fill="#8b1a1a" stroke="#8b1a1a" points="52.29,-371.52 48.52,-361.62 45.29,-371.71 52.29,-371.52"/>
</g>
<!-- Node4 -->
<g id="node5" class="node">
<title>Node4</title>
<g id="a_node5"><a xlink:href="class_e_b_cpp_1_1_e_b_http_server.html" target="_top" xlink:title=" ">
<polygon fill="none" stroke="black" points="134.5,-582 134.5,-612 262.5,-612 262.5,-582 134.5,-582"/>
<text text-anchor="start" x="142.5" y="-600" font-family="Helvetica,sans-Serif" font-size="10.00">EBCpp::EBHttpServer</text>
<text text-anchor="middle" x="198.5" y="-589" font-family="Helvetica,sans-Serif" font-size="10.00">&lt; EBCpp::EBTcpServer &gt;</text>
</a>
</g>
</g>
<!-- Node0&#45;&gt;Node4 -->
<g id="edge4" class="edge">
<title>Node0&#45;&gt;Node4</title>
<path fill="none" stroke="midnightblue" d="M50.39,-371.93C55.47,-414.67 73.27,-515.89 131,-573 134.49,-576.45 138.51,-579.41 142.82,-581.95"/>
<polygon fill="midnightblue" stroke="midnightblue" points="53.86,-371.51 49.31,-361.94 46.9,-372.26 53.86,-371.51"/>
</g>
<!-- Node5 -->
<g id="node6" class="node">
<title>Node5</title>
<g id="a_node6"><a xlink:href="class_e_b_cpp_1_1_e_b_connection.html" target="_top" xlink:title="Class to connect between a signal and a slot.">
<polygon fill="none" stroke="black" points="140.5,-533 140.5,-563 256.5,-563 256.5,-533 140.5,-533"/>
<text text-anchor="start" x="148.5" y="-551" font-family="Helvetica,sans-Serif" font-size="10.00">EBCpp::EBConnection</text>
<text text-anchor="middle" x="198.5" y="-540" font-family="Helvetica,sans-Serif" font-size="10.00">&lt; args &gt;</text>
</a>
</g>
</g>
<!-- Node0&#45;&gt;Node5 -->
<g id="edge5" class="edge">
<title>Node0&#45;&gt;Node5</title>
<path fill="none" stroke="midnightblue" d="M52.85,-371.59C61.62,-406.71 84.67,-480.66 131,-523 135.19,-526.83 140.02,-530.09 145.12,-532.86"/>
<polygon fill="midnightblue" stroke="midnightblue" points="56.2,-370.57 50.49,-361.64 49.39,-372.18 56.2,-370.57"/>
</g>
<!-- Node6 -->
<g id="node7" class="node">
<title>Node6</title>
<g id="a_node7"><a xlink:href="class_e_b_cpp_1_1_e_b_event.html" target="_top" xlink:title="This objects handles an event.">
<polygon fill="none" stroke="black" points="134.5,-494.5 134.5,-513.5 262.5,-513.5 262.5,-494.5 134.5,-494.5"/>
<text text-anchor="middle" x="198.5" y="-501.5" font-family="Helvetica,sans-Serif" font-size="10.00">EBCpp::EBEvent&lt; args &gt;</text>
</a>
</g>
</g>
<!-- Node0&#45;&gt;Node6 -->
<g id="edge6" class="edge">
<title>Node0&#45;&gt;Node6</title>
<path fill="none" stroke="#8b1a1a" d="M55.2,-371.17C66.33,-400.2 91.41,-455.1 131,-485 136.17,-488.91 142.12,-492.01 148.29,-494.48"/>
<polygon fill="#8b1a1a" stroke="#8b1a1a" points="58.46,-369.91 51.73,-361.73 51.9,-372.33 58.46,-369.91"/>
</g>
<!-- Node7 -->
<g id="node8" class="node">
<title>Node7</title>
<g id="a_node8"><a xlink:href="class_e_b_cpp_1_1_e_b_event_loop.html" target="_top" xlink:title="Event handling class.">
<polygon fill="none" stroke="black" points="142.5,-456.5 142.5,-475.5 254.5,-475.5 254.5,-456.5 142.5,-456.5"/>
<text text-anchor="middle" x="198.5" y="-463.5" font-family="Helvetica,sans-Serif" font-size="10.00">EBCpp::EBEventLoop</text>
</a>
</g>
</g>
<!-- Node0&#45;&gt;Node7 -->
<g id="edge7" class="edge">
<title>Node0&#45;&gt;Node7</title>
<path fill="none" stroke="midnightblue" d="M59.6,-370.26C73.62,-391.76 99.7,-427.07 131,-447 137.08,-450.87 143.96,-453.97 150.93,-456.45"/>
<polygon fill="midnightblue" stroke="midnightblue" points="62.5,-368.29 54.2,-361.71 56.59,-372.04 62.5,-368.29"/>
</g>
<!-- Node8 -->
<g id="node9" class="node">
<title>Node8</title>
<g id="a_node9"><a xlink:href="class_e_b_cpp_1_1_e_b_http_header.html" target="_top" xlink:title="Class that parses the http header.">
<polygon fill="none" stroke="black" points="140.5,-418.5 140.5,-437.5 256.5,-437.5 256.5,-418.5 140.5,-418.5"/>
<text text-anchor="middle" x="198.5" y="-425.5" font-family="Helvetica,sans-Serif" font-size="10.00">EBCpp::EBHttpHeader</text>
</a>
</g>
</g>
<!-- Node0&#45;&gt;Node8 -->
<g id="edge8" class="edge">
<title>Node0&#45;&gt;Node8</title>
<path fill="none" stroke="midnightblue" d="M67.83,-368.09C83.88,-380.74 107.76,-398.02 131,-409 138.92,-412.74 147.74,-415.9 156.29,-418.49"/>
<polygon fill="midnightblue" stroke="midnightblue" points="69.76,-365.14 59.78,-361.6 65.37,-370.6 69.76,-365.14"/>
</g>
<!-- Node9 -->
<g id="node10" class="node">
<title>Node9</title>
<g id="a_node10"><a xlink:href="class_e_b_cpp_1_1_e_b_http_request.html" target="_top" xlink:title="Handles a http request.">
<polygon fill="none" stroke="black" points="138,-380.5 138,-399.5 259,-399.5 259,-380.5 138,-380.5"/>
<text text-anchor="middle" x="198.5" y="-387.5" font-family="Helvetica,sans-Serif" font-size="10.00">EBCpp::EBHttpRequest</text>
</a>
</g>
</g>
<!-- Node0&#45;&gt;Node9 -->
<g id="edge9" class="edge">
<title>Node0&#45;&gt;Node9</title>
<path fill="none" stroke="midnightblue" d="M95.99,-364.11C116.74,-369.4 140.73,-375.52 160.17,-380.48"/>
<polygon fill="midnightblue" stroke="midnightblue" points="96.65,-360.67 86.1,-361.59 94.92,-367.45 96.65,-360.67"/>
</g>
<!-- Node10 -->
<g id="node11" class="node">
<title>Node10</title>
<g id="a_node11"><a xlink:href="class_e_b_cpp_1_1_e_b_http_server.html" target="_top" xlink:title="Implementation of a http server.">
<polygon fill="none" stroke="black" points="131,-342.5 131,-361.5 266,-361.5 266,-342.5 131,-342.5"/>
<text text-anchor="middle" x="198.5" y="-349.5" font-family="Helvetica,sans-Serif" font-size="10.00">EBCpp::EBHttpServer&lt; T &gt;</text>
</a>
</g>
</g>
<!-- Node0&#45;&gt;Node10 -->
<g id="edge10" class="edge">
<title>Node0&#45;&gt;Node10</title>
<path fill="none" stroke="midnightblue" d="M105.5,-352C113.75,-352 122.31,-352 130.74,-352"/>
<polygon fill="midnightblue" stroke="midnightblue" points="105.24,-348.5 95.24,-352 105.24,-355.5 105.24,-348.5"/>
</g>
<!-- Node11 -->
<g id="node12" class="node">
<title>Node11</title>
<g id="a_node12"><a xlink:href="class_e_b_cpp_1_1_e_b_i_o_device.html" target="_top" xlink:title="Interface description of an input/output device.">
<polygon fill="none" stroke="black" points="146,-304.5 146,-323.5 251,-323.5 251,-304.5 146,-304.5"/>
<text text-anchor="middle" x="198.5" y="-311.5" font-family="Helvetica,sans-Serif" font-size="10.00">EBCpp::EBIODevice</text>
</a>
</g>
</g>
<!-- Node0&#45;&gt;Node11 -->
<g id="edge11" class="edge">
<title>Node0&#45;&gt;Node11</title>
<path fill="none" stroke="midnightblue" d="M95.99,-339.89C116.74,-334.6 140.73,-328.48 160.17,-323.52"/>
<polygon fill="midnightblue" stroke="midnightblue" points="94.92,-336.55 86.1,-342.41 96.65,-343.33 94.92,-336.55"/>
</g>
<!-- Node14 -->
<g id="node15" class="node">
<title>Node14</title>
<g id="a_node15"><a xlink:href="class_e_b_cpp_1_1_e_b_semaphore.html" target="_top" xlink:title="Semaphore implementation for EBCpp.">
<polygon fill="none" stroke="black" points="140.5,-266.5 140.5,-285.5 256.5,-285.5 256.5,-266.5 140.5,-266.5"/>
<text text-anchor="middle" x="198.5" y="-273.5" font-family="Helvetica,sans-Serif" font-size="10.00">EBCpp::EBSemaphore</text>
</a>
</g>
</g>
<!-- Node0&#45;&gt;Node14 -->
<g id="edge14" class="edge">
<title>Node0&#45;&gt;Node14</title>
<path fill="none" stroke="midnightblue" d="M67.83,-335.91C83.88,-323.26 107.76,-305.98 131,-295 138.92,-291.26 147.74,-288.1 156.29,-285.51"/>
<polygon fill="midnightblue" stroke="midnightblue" points="65.37,-333.4 59.78,-342.4 69.76,-338.86 65.37,-333.4"/>
</g>
<!-- Node15 -->
<g id="node16" class="node">
<title>Node15</title>
<g id="a_node16"><a xlink:href="class_e_b_cpp_1_1_e_b_slot_call.html" target="_top" xlink:title="Object to call a slot.">
<polygon fill="none" stroke="black" points="148,-228.5 148,-247.5 249,-247.5 249,-228.5 148,-228.5"/>
<text text-anchor="middle" x="198.5" y="-235.5" font-family="Helvetica,sans-Serif" font-size="10.00">EBCpp::EBSlotCall</text>
</a>
</g>
</g>
<!-- Node0&#45;&gt;Node15 -->
<g id="edge15" class="edge">
<title>Node0&#45;&gt;Node15</title>
<path fill="none" stroke="midnightblue" d="M59.6,-333.74C73.62,-312.24 99.7,-276.93 131,-257 137.08,-253.13 143.96,-250.03 150.93,-247.55"/>
<polygon fill="midnightblue" stroke="midnightblue" points="56.59,-331.96 54.2,-342.29 62.5,-335.71 56.59,-331.96"/>
</g>
<!-- Node16 -->
<g id="node17" class="node">
<title>Node16</title>
<g id="a_node17"><a xlink:href="class_e_b_cpp_1_1_e_b_tcp_server.html" target="_top" xlink:title="Creates a TCP server.">
<polygon fill="none" stroke="black" points="143.5,-190.5 143.5,-209.5 253.5,-209.5 253.5,-190.5 143.5,-190.5"/>
<text text-anchor="middle" x="198.5" y="-197.5" font-family="Helvetica,sans-Serif" font-size="10.00">EBCpp::EBTcpServer</text>
</a>
</g>
</g>
<!-- Node0&#45;&gt;Node16 -->
<g id="edge16" class="edge">
<title>Node0&#45;&gt;Node16</title>
<path fill="none" stroke="midnightblue" d="M55.2,-332.83C66.33,-303.8 91.41,-248.9 131,-219 136.17,-215.09 142.12,-211.99 148.29,-209.52"/>
<polygon fill="midnightblue" stroke="midnightblue" points="51.9,-331.67 51.73,-342.27 58.46,-334.09 51.9,-331.67"/>
</g>
<!-- Node17 -->
<g id="node18" class="node">
<title>Node17</title>
<g id="a_node18"><a xlink:href="class_e_b_cpp_1_1_e_b_timer.html" target="_top" xlink:title="The EBTimer can provide times events.">
<polygon fill="none" stroke="black" points="153,-152.5 153,-171.5 244,-171.5 244,-152.5 153,-152.5"/>
<text text-anchor="middle" x="198.5" y="-159.5" font-family="Helvetica,sans-Serif" font-size="10.00">EBCpp::EBTimer</text>
</a>
</g>
</g>
<!-- Node0&#45;&gt;Node17 -->
<g id="edge17" class="edge">
<title>Node0&#45;&gt;Node17</title>
<path fill="none" stroke="midnightblue" d="M52.52,-332.03C60.76,-296.3 82.99,-221.42 131,-181 137.25,-175.74 144.87,-171.94 152.69,-169.18"/>
<polygon fill="midnightblue" stroke="midnightblue" points="49.02,-331.64 50.32,-342.16 55.86,-333.13 49.02,-331.64"/>
</g>
<!-- Node18 -->
<g id="node19" class="node">
<title>Node18</title>
<g id="a_node19"><a xlink:href="class_example_http_server.html" target="_top" xlink:title="Example to show the function of the TCP server.">
<polygon fill="none" stroke="black" points="148.5,-114.5 148.5,-133.5 248.5,-133.5 248.5,-114.5 148.5,-114.5"/>
<text text-anchor="middle" x="198.5" y="-121.5" font-family="Helvetica,sans-Serif" font-size="10.00">ExampleHttpServer</text>
</a>
</g>
</g>
<!-- Node0&#45;&gt;Node18 -->
<g id="edge18" class="edge">
<title>Node0&#45;&gt;Node18</title>
<path fill="none" stroke="midnightblue" d="M50.52,-332.31C55.82,-290.99 73.95,-194.74 131,-143 135.98,-138.48 141.96,-135.03 148.27,-132.4"/>
<polygon fill="midnightblue" stroke="midnightblue" points="47.02,-332.09 49.34,-342.43 53.97,-332.9 47.02,-332.09"/>
</g>
<!-- Node19 -->
<g id="node20" class="node">
<title>Node19</title>
<g id="a_node20"><a xlink:href="class_example_tcp_client.html" target="_top" xlink:title="Example to show the function of a tcp client.">
<polygon fill="none" stroke="black" points="151,-76.5 151,-95.5 246,-95.5 246,-76.5 151,-76.5"/>
<text text-anchor="middle" x="198.5" y="-83.5" font-family="Helvetica,sans-Serif" font-size="10.00">ExampleTcpClient</text>
</a>
</g>
</g>
<!-- Node0&#45;&gt;Node19 -->
<g id="edge19" class="edge">
<title>Node0&#45;&gt;Node19</title>
<path fill="none" stroke="midnightblue" d="M49.16,-332.02C51.81,-285.3 65.05,-168.1 131,-105 136.55,-99.69 143.48,-95.84 150.76,-93.07"/>
<polygon fill="midnightblue" stroke="midnightblue" points="45.65,-332.15 48.69,-342.3 52.64,-332.47 45.65,-332.15"/>
</g>
<!-- Node20 -->
<g id="node21" class="node">
<title>Node20</title>
<g id="a_node21"><a xlink:href="class_example_tcp_server.html" target="_top" xlink:title="Example to show the function of the TCP server.">
<polygon fill="none" stroke="black" points="149.5,-38.5 149.5,-57.5 247.5,-57.5 247.5,-38.5 149.5,-38.5"/>
<text text-anchor="middle" x="198.5" y="-45.5" font-family="Helvetica,sans-Serif" font-size="10.00">ExampleTcpServer</text>
</a>
</g>
</g>
<!-- Node0&#45;&gt;Node20 -->
<g id="edge20" class="edge">
<title>Node0&#45;&gt;Node20</title>
<path fill="none" stroke="midnightblue" d="M48.11,-332.15C48.22,-280.7 55.86,-141.87 131,-67 136.1,-61.91 142.47,-58.17 149.22,-55.42"/>
<polygon fill="midnightblue" stroke="midnightblue" points="44.61,-332.28 48.19,-342.25 51.61,-332.23 44.61,-332.28"/>
</g>
<!-- Node21 -->
<g id="node22" class="node">
<title>Node21</title>
<g id="a_node22"><a xlink:href="class_example_timer.html" target="_top" xlink:title="Example to show the function of an timer.">
<polygon fill="none" stroke="black" points="159,-0.5 159,-19.5 238,-19.5 238,-0.5 159,-0.5"/>
<text text-anchor="middle" x="198.5" y="-7.5" font-family="Helvetica,sans-Serif" font-size="10.00">ExampleTimer</text>
</a>
</g>
</g>
<!-- Node0&#45;&gt;Node21 -->
<g id="edge21" class="edge">
<title>Node0&#45;&gt;Node21</title>
<path fill="none" stroke="midnightblue" d="M50.98,-332.09C59.27,-268.73 87.89,-73.34 131,-29 138.37,-21.42 148.52,-16.81 158.69,-14.02"/>
<polygon fill="midnightblue" stroke="midnightblue" points="47.47,-331.95 49.67,-342.32 54.41,-332.84 47.47,-331.95"/>
</g>
<!-- Node12 -->
<g id="node13" class="node">
<title>Node12</title>
<g id="a_node13"><a xlink:href="class_e_b_cpp_1_1_e_b_tcp_socket.html" target="_top" xlink:title="Socket to handle a tcp connection.">
<polygon fill="none" stroke="black" points="302,-304.5 302,-323.5 415,-323.5 415,-304.5 302,-304.5"/>
<text text-anchor="middle" x="358.5" y="-311.5" font-family="Helvetica,sans-Serif" font-size="10.00">EBCpp::EBTcpSocket</text>
</a>
</g>
</g>
<!-- Node11&#45;&gt;Node12 -->
<g id="edge12" class="edge">
<title>Node11&#45;&gt;Node12</title>
<path fill="none" stroke="midnightblue" d="M261.3,-314C274.66,-314 288.72,-314 301.84,-314"/>
<polygon fill="midnightblue" stroke="midnightblue" points="261.24,-310.5 251.24,-314 261.24,-317.5 261.24,-310.5"/>
</g>
<!-- Node13 -->
<g id="node14" class="node">
<title>Node13</title>
<g id="a_node14"><a xlink:href="class_e_b_cpp_1_1_e_b_tcp_server_socket.html" target="_top" xlink:title="Class that handles a tcp socket for the EBTcpServer.">
<polygon fill="none" stroke="black" points="451,-304.5 451,-323.5 591,-323.5 591,-304.5 451,-304.5"/>
<text text-anchor="middle" x="521" y="-311.5" font-family="Helvetica,sans-Serif" font-size="10.00">EBCpp::EBTcpServerSocket</text>
</a>
</g>
</g>
<!-- Node12&#45;&gt;Node13 -->
<g id="edge13" class="edge">
<title>Node12&#45;&gt;Node13</title>
<path fill="none" stroke="midnightblue" d="M425.32,-314C433.73,-314 442.37,-314 450.84,-314"/>
<polygon fill="midnightblue" stroke="midnightblue" points="425.18,-310.5 415.18,-314 425.18,-317.5 425.18,-310.5"/>
</g>
</g>
</svg>
