<?xml version="1.0" encoding="UTF-8" standalone="no"?>
<!DOCTYPE svg PUBLIC "-//W3C//DTD SVG 1.1//EN"
 "http://www.w3.org/Graphics/SVG/1.1/DTD/svg11.dtd">
<!-- Generated by graphviz version 2.46.0 (20210118.1747)
 -->
<!-- Title: std::is_placeholder&lt; EBCpp::EBPlaceholder&lt; N &gt; &gt; Pages: 1 -->
<svg width="135pt" height="193pt"
 viewBox="0.00 0.00 135.00 193.00" xmlns="http://www.w3.org/2000/svg" xmlns:xlink="http://www.w3.org/1999/xlink">
<g id="graph0" class="graph" transform="scale(1 1) rotate(0) translate(4 189)">
<title>std::is_placeholder&lt; EBCpp::EBPlaceholder&lt; N &gt; &gt;</title>
<!-- Node1 -->
<g id="node1" class="node">
<title>Node1</title>
<g id="a_node1"><a xlink:title="Define the EBPlaceholder as std::placeholder.">
<polygon fill="#bfbfbf" stroke="black" points="0,-0.5 0,-79.5 127,-79.5 127,-0.5 0,-0.5"/>
<text text-anchor="start" x="8" y="-67.5" font-family="Helvetica,sans-Serif" font-size="10.00">std::is_placeholder</text>
<text text-anchor="start" x="8" y="-56.5" font-family="Helvetica,sans-Serif" font-size="10.00">&lt; EBCpp::EBPlaceholder</text>
<text text-anchor="middle" x="63.5" y="-45.5" font-family="Helvetica,sans-Serif" font-size="10.00">&lt; N &gt; &gt;</text>
<polyline fill="none" stroke="black" points="0,-38.5 127,-38.5 "/>
<text text-anchor="middle" x="63.5" y="-26.5" font-family="Helvetica,sans-Serif" font-size="10.00"> </text>
<polyline fill="none" stroke="black" points="0,-19.5 127,-19.5 "/>
<text text-anchor="middle" x="63.5" y="-7.5" font-family="Helvetica,sans-Serif" font-size="10.00"> </text>
</a>
</g>
</g>
<!-- Node2 -->
<g id="node2" class="node">
<title>Node2</title>
<g id="a_node2"><a xlink:title=" ">
<polygon fill="none" stroke="#bfbfbf" points="8.5,-116.5 8.5,-184.5 118.5,-184.5 118.5,-116.5 8.5,-116.5"/>
<text text-anchor="start" x="16.5" y="-172.5" font-family="Helvetica,sans-Serif" font-size="10.00">std::integral_constant</text>
<text text-anchor="middle" x="63.5" y="-161.5" font-family="Helvetica,sans-Serif" font-size="10.00">&lt; int, N &gt;</text>
<polyline fill="none" stroke="#bfbfbf" points="8.5,-154.5 118.5,-154.5 "/>
<text text-anchor="middle" x="63.5" y="-142.5" font-family="Helvetica,sans-Serif" font-size="10.00"> </text>
<polyline fill="none" stroke="#bfbfbf" points="8.5,-135.5 118.5,-135.5 "/>
<text text-anchor="middle" x="63.5" y="-123.5" font-family="Helvetica,sans-Serif" font-size="10.00"> </text>
</a>
</g>
</g>
<!-- Node2&#45;&gt;Node1 -->
<g id="edge1" class="edge">
<title>Node2&#45;&gt;Node1</title>
<path fill="none" stroke="midnightblue" d="M63.5,-106.27C63.5,-97.48 63.5,-88.28 63.5,-79.65"/>
<polygon fill="none" stroke="midnightblue" points="60,-106.36 63.5,-116.36 67,-106.36 60,-106.36"/>
</g>
</g>
</svg>
